<svg width="101" height="91" viewBox="0 0 101 91" fill="none" xmlns="http://www.w3.org/2000/svg">
<g id="book 1" clip-path="url(#clip0_5423_70936)">
<g id="Group">
<g id="Group_2">
<path id="Vector" d="M90.9054 23.3793L88.0791 39.192L86.8466 46.1056L83.6677 63.8889L81.1504 65.7353L85.5186 41.8018L86.6515 35.5649L89.1101 22.1133L90.9054 23.3793Z" fill="white"/>
<path id="Vector_2" d="M55.1213 18.0421L54.8777 17.8726C43.0558 10.7465 22.9583 14.986 22.9583 14.986L17.0664 58.5542C17.0664 58.5542 39.317 63.8014 49.0069 61.1056C64.8209 68.0872 81.1176 65.9151 81.1176 65.9151L89.1102 22.0387C89.1102 22.0385 68.4101 13.4308 55.1213 18.0421Z" fill="white"/>
<path id="Vector_3" d="M74.9516 66.366C68.7474 66.366 58.7419 65.5493 48.9934 61.2597C39.339 63.8992 17.2488 58.7457 17.0261 58.6932L16.8916 58.6614L16.9086 58.5372L22.8137 14.8694L22.922 14.8465C23.1236 14.8044 43.223 10.6753 54.966 17.7539L55.1479 17.8799C68.3495 13.3658 88.9695 21.8226 89.1768 21.909L89.2867 21.9546L81.2558 66.0422L81.1408 66.0575C81.0795 66.0658 78.7139 66.366 74.9516 66.366ZM49.0203 60.9524L49.0771 60.9775C63.9726 67.5533 79.4932 65.9608 80.9796 65.7878L88.9334 22.1246C87.2849 21.4612 67.7554 13.8132 55.1787 18.1765L55.095 18.2055L54.7804 17.9865C43.6037 11.2493 24.7084 14.7863 23.1027 15.104L17.2414 58.4471C19.115 58.8766 39.8152 63.5141 48.9599 60.9691L49.0203 60.9524Z" fill="black"/>
<path id="Vector_4" d="M54.883 18.062L48.7568 61.1035L49.0724 61.14L55.1986 18.0985L54.883 18.062Z" fill="black"/>
<path id="Vector_5" d="M81.2559 66.0407L89.2867 21.9531L91.0771 23.319L91.0625 23.4001L83.8158 63.9626L81.2559 66.0407ZM89.2207 22.3082L81.3953 65.4078L83.5203 63.8113L90.7339 23.4358L89.2207 22.3082Z" fill="black"/>
<path id="Vector_6" d="M21.9164 22.502L36.0432 23.905L32.5887 48.0568L18.8018 46.0585L21.9164 22.502Z" fill="#765AFF"/>
<path id="Vector_7" d="M32.7257 48.2215L18.626 46.1779L21.8102 22.3438L36.2219 23.7782L32.7257 48.2215ZM18.9781 45.9385L32.4521 47.8915L35.8646 24.0313L22.0558 22.6599L18.9781 45.9385Z" fill="black"/>
<path id="Vector_8" d="M62.5174 23.4316L83.6903 25.9041L82.1202 36.7535L61.041 34.4355L62.5174 23.4316Z" fill="#46A831"/>
<path id="Vector_9" d="M82.2577 36.9135L60.8643 34.5612L62.3789 23.2715L62.5381 23.29L83.8688 25.7809L82.2577 36.9135ZM61.2182 34.3111L81.9827 36.5945L83.5119 26.0283L62.656 23.5928L61.2182 34.3111Z" fill="black"/>
<path id="Vector_10" d="M63.3684 48.0117L78.6123 49.9737L76.5797 62.2694L61.2744 60.352L63.3684 48.0117Z" fill="#ED6122"/>
<path id="Vector_11" d="M76.714 62.4306L61.0928 60.4739L63.2351 47.8496L78.7932 49.8523L76.714 62.4306ZM61.4561 60.2299L76.446 62.1078L78.4316 50.0951L63.5022 48.1736L61.4561 60.2299Z" fill="black"/>
<path id="Vector_12" d="M18.3697 49.1133L39.6911 52.0527L38.9393 57.4849L17.666 54.6684L18.3697 49.1133Z" fill="#F6D117"/>
<path id="Vector_13" d="M39.0766 57.6486L17.4902 54.7903L18.23 48.9492L39.8677 51.9323L39.0766 57.6486ZM17.8412 54.547L38.801 57.3221L39.5136 52.1737L18.5087 49.2777L17.8412 54.547Z" fill="black"/>
<path id="Vector_14" d="M74.3772 42.4294L72.4718 40.11L75.6105 40.8627L76.9855 37.8965L77.9205 40.8359L81.3806 40.0115L79.2856 42.4001L81.7202 44.1142L78.738 44.5501L79.3854 47.3866L76.9612 45.1409L74.1679 47.4387L75.0053 44.358L71.666 44.1172L74.3772 42.4294Z" fill="#4B9BF4"/>
<path id="Vector_15" d="M73.8888 47.8628L74.8063 44.488L71.208 44.2285L74.1514 42.3964L72.0734 39.8669L75.5171 40.6925L77.0135 37.4648L78.0302 40.6621L81.801 39.7637L79.5095 42.3765L82.105 44.204L78.9272 44.6682L79.6508 47.8387L76.9547 45.341L73.8888 47.8628ZM72.1237 44.0069L75.2042 44.2291L74.4465 47.0158L76.9676 44.942L79.1197 46.9356L78.5487 44.4333L81.3354 44.0259L79.0613 42.4249L80.9596 40.2608L77.8103 41.011L76.9573 38.3297L75.7035 41.0339L72.8698 40.3546L74.6028 42.464L72.1237 44.0069Z" fill="black"/>
<path id="Vector_16" d="M30.8417 18.5701L29.4904 16.9254L31.7164 17.459L32.6915 15.3555L33.3545 17.4401L35.8082 16.8555L34.3226 18.5494L36.0493 19.7651L33.9342 20.0741L34.3933 22.0857L32.6743 20.4932L30.6932 22.1227L31.2873 19.9378L28.9189 19.767L30.8417 18.5701Z" fill="#4B9BF4"/>
<path id="Vector_17" d="M30.4065 22.5584L31.0825 20.0716L28.4482 19.8816L30.6095 18.5361L29.0809 16.6754L31.6201 17.2843L32.7198 14.9121L33.4671 17.2614L36.24 16.6009L34.5524 18.5253L36.444 19.8572L34.1283 20.1956L34.6655 22.5504L32.6672 20.6988L30.4065 22.5584ZM29.389 19.6539L31.4915 19.8055L30.9796 21.6881L32.6808 20.2886L34.1204 21.6223L33.7397 19.9537L35.654 19.6741L34.0924 18.5749L35.3758 17.111L33.2412 17.6197L32.6624 15.8001L31.8118 17.6348L29.8991 17.1763L31.0733 18.6053L29.389 19.6539Z" fill="black"/>
<path id="Vector_18" d="M41.1283 46.5635C42.7667 45.0873 42.7667 42.6939 41.1283 41.2177C39.4899 39.7416 36.8335 39.7416 35.1951 41.2177C33.5567 42.6939 33.5567 45.0873 35.1951 46.5635C36.8335 48.0397 39.4899 48.0397 41.1283 46.5635Z" fill="#E75688"/>
<path id="Vector_19" d="M63.4122 50.9195C65.7293 50.9195 67.6077 49.2271 67.6077 47.1394C67.6077 45.0518 65.7293 43.3594 63.4122 43.3594C61.0952 43.3594 59.2168 45.0518 59.2168 47.1394C59.2168 49.2271 61.0952 50.9195 63.4122 50.9195Z" fill="#E75688"/>
<path id="Vector_20" d="M57.1494 35.2484C56.6705 39.3523 57.4741 43.012 59.0418 44.8457C59.6543 45.5595 60.3797 45.9942 61.1952 46.0716C64.095 46.3463 66.9855 41.9455 67.6509 36.2434C68.3163 30.5411 66.505 25.695 63.6052 25.4204C62.8335 25.3474 62.0635 25.6042 61.3388 26.1262C59.328 27.5735 57.6385 31.0587 57.1494 35.2484Z" fill="white"/>
<path id="Vector_21" d="M61.4552 46.2262C61.3629 46.2262 61.2706 46.222 61.1785 46.2132C60.3377 46.1336 59.5765 45.7026 58.9156 44.9325C57.2566 42.992 56.5192 39.2754 56.9907 35.2326C57.4677 31.1465 59.1352 27.5277 61.2392 26.0132C62.022 25.4491 62.8227 25.2011 63.6214 25.277C65.0894 25.4162 66.3302 26.6493 67.1156 28.75C67.8867 30.8134 68.1333 33.4796 67.8089 36.2575C67.4844 39.0354 66.6283 41.5975 65.3976 43.471C64.2234 45.2586 62.8335 46.2262 61.4552 46.2262ZM57.3073 35.2625C56.8508 39.1748 57.5809 42.9019 59.1675 44.7574C59.7729 45.463 60.4608 45.8571 61.2114 45.9282C62.5481 46.0545 63.9376 45.1307 65.1236 43.3251C66.3316 41.486 67.1728 38.9656 67.4923 36.2276C67.8119 33.4896 67.5708 30.8666 66.8139 28.8415C66.0706 26.8533 64.9249 25.6887 63.5883 25.5623C62.8757 25.494 62.1533 25.7219 61.4379 26.2373C59.3973 27.7059 57.7758 31.2491 57.3073 35.2625Z" fill="black"/>
<path id="Vector_22" d="M61.3396 26.125C64.0387 26.7067 65.7279 30.9796 65.1484 35.9471C65.1294 36.1101 65.1079 36.2719 65.0846 36.4325L60.661 36.2665L64.5585 38.8046C63.4759 42.3849 61.2956 44.8783 59.0428 44.8447C57.4751 43.0112 56.6715 39.3513 57.1504 35.2474C57.639 31.0577 59.3286 27.5725 61.3396 26.125Z" fill="black"/>
<path id="Vector_23" d="M59.0859 44.9897C59.0705 44.9897 59.0551 44.9897 59.0397 44.9895L58.9632 44.9883L58.9164 44.9335C57.2576 42.9932 56.5202 39.2766 56.9917 35.2339C57.4687 31.1477 59.1362 27.5289 61.2402 26.0144L61.3009 25.9707L61.3765 25.9871C64.1629 26.5878 65.8891 30.97 65.3066 35.9636C65.2873 36.1282 65.2658 36.291 65.2423 36.4529L65.2234 36.583L61.1824 36.4313L64.7405 38.7484L64.7115 38.8442C63.5975 42.5283 61.3412 44.9897 59.0859 44.9897ZM61.3775 26.2832C59.3656 27.7783 57.7719 31.2903 57.3081 35.2637C56.8562 39.1374 57.5675 42.8292 59.1214 44.703C61.2005 44.6776 63.2965 42.3495 64.3753 38.8641L60.1387 36.1051L64.945 36.2855C64.9612 36.1687 64.9762 36.0516 64.9898 35.9336C65.5508 31.1266 63.9672 26.915 61.3775 26.2832Z" fill="black"/>
<path id="Vector_24" d="M38.0468 33.4382C37.5681 37.5419 38.3715 41.2018 39.9392 43.0354C40.5517 43.7493 41.2773 44.1841 42.0927 44.2612C44.9926 44.536 47.8831 40.1353 48.5487 34.433C49.214 28.7308 47.4027 23.8847 44.5027 23.6099C43.731 23.5368 42.9609 23.7937 42.2364 24.3157C40.2256 25.7633 38.5359 29.2485 38.0468 33.4382Z" fill="white"/>
<path id="Vector_25" d="M42.3448 44.4174C42.255 44.4174 42.1657 44.4133 42.0759 44.4048C41.2352 44.325 40.4737 43.894 39.8131 43.1238C38.1541 41.1833 37.4167 37.4667 37.8882 33.4242C38.3652 29.3379 40.0326 25.719 42.1367 24.2047C42.9198 23.6408 43.7225 23.3927 44.5187 23.4684C45.9867 23.6075 47.2277 24.841 48.0128 26.9415C48.7841 29.005 49.0305 31.6712 48.7062 34.449C48.0531 40.0474 45.2351 44.4174 42.3448 44.4174ZM38.2048 33.454C37.7483 37.3663 38.4784 41.093 40.065 42.9488C40.6702 43.6546 41.3581 44.0484 42.1089 44.1197C44.9195 44.3921 47.7347 40.0336 48.3898 34.4191C48.7094 31.6811 48.4683 29.0579 47.7114 27.0328C46.9683 25.0447 45.8226 23.88 44.4857 23.7536C43.7742 23.6854 43.0508 23.9136 42.3353 24.4288C40.2946 25.8975 38.6733 29.4406 38.2048 33.454Z" fill="black"/>
<path id="Vector_26" d="M42.2364 24.3164C44.9355 24.8981 46.6247 29.171 46.0452 34.1385C46.026 34.3015 46.0047 34.4633 45.9812 34.6239L41.5576 34.4579L45.4551 36.996C44.3725 40.5764 42.192 43.0697 39.9392 43.0361C38.3715 41.2026 37.5681 37.5427 38.0468 33.439C38.5359 29.2491 40.2256 25.7639 42.2364 24.3164Z" fill="black"/>
<path id="Vector_27" d="M39.9827 43.179C39.9671 43.179 39.9518 43.179 39.9364 43.1788L39.8596 43.1776L39.8129 43.1228C38.1541 41.1825 37.4167 37.4659 37.8882 33.4233C38.3652 29.337 40.0326 25.7182 42.1367 24.2039L42.1974 24.1602L42.273 24.1765C45.0594 24.7773 46.7856 29.1595 46.2031 34.1531C46.184 34.3173 46.1623 34.4803 46.1388 34.6422L46.1199 34.7723L42.0793 34.6207L45.6373 36.9377L45.6084 37.0335C44.494 40.7175 42.2379 43.179 39.9827 43.179ZM42.2742 24.4726C40.2623 25.9675 38.6685 29.4796 38.2048 33.4532C37.7528 37.3269 38.464 41.0184 40.018 42.8921C42.0972 42.8669 44.1932 40.5387 45.2722 37.0532L41.0351 34.2944L45.8417 34.4746C45.8579 34.358 45.8729 34.2411 45.8865 34.1231C46.4475 29.3161 44.8637 25.1045 42.2742 24.4726Z" fill="black"/>
<path id="Vector_28" d="M54.397 39.1945C54.4017 40.3351 53.3793 41.2632 52.113 41.2673C50.8472 41.2715 49.8172 40.3502 49.8125 39.2095C49.808 38.0689 50.8304 37.1408 52.0965 37.1367C53.3621 37.1326 54.3922 38.054 54.397 39.1945Z" fill="#F6D117"/>
<path id="Vector_29" d="M52.1046 41.4099C50.757 41.4099 49.6585 40.4244 49.6533 39.2094C49.651 38.6193 49.9037 38.0637 50.3651 37.6452C50.8265 37.2266 51.441 36.9946 52.0957 36.9925C53.445 36.9714 54.5509 37.9752 54.5562 39.193C54.5585 39.7831 54.3059 40.3384 53.8444 40.7573C53.383 41.1759 52.7686 41.4078 52.1138 41.4099C52.1107 41.4099 52.1077 41.4099 52.1046 41.4099ZM52.1048 37.2792C52.102 37.2792 52.0996 37.2792 52.0969 37.2792C50.9206 37.2829 49.9672 38.1483 49.9715 39.2082C49.9759 40.2655 50.932 41.1231 52.1046 41.1231C52.1073 41.1231 52.1097 41.1231 52.1125 41.1231C52.6822 41.1213 53.2171 40.9196 53.6186 40.5552C54.02 40.1908 54.24 39.7076 54.2378 39.1943C54.2335 38.1369 53.2773 37.2792 52.1048 37.2792Z" fill="black"/>
<path id="Vector_30" d="M41.959 19.2348C42.3894 18.6649 43.0224 18.2505 43.7223 17.9791C44.0703 17.8315 44.4447 17.7473 44.8227 17.6739C45.2034 17.6177 45.5916 17.592 45.9789 17.5987C46.7519 17.6321 47.5215 17.8029 48.1981 18.1278C48.8735 18.447 49.4703 18.9026 49.8528 19.4987L49.8017 19.5597C48.6879 18.8183 47.3238 18.3911 45.9477 18.3621C44.5731 18.3001 43.1789 18.6385 42.0051 19.2989L41.959 19.2348Z" fill="black"/>
<path id="Vector_31" d="M60.0566 21.1754C60.5725 20.6664 61.2647 20.3372 62.0001 20.1582C62.3678 20.0567 62.7519 20.0214 63.1373 19.9972C63.523 19.9905 63.9114 20.0144 64.2935 20.071C65.0536 20.203 65.7882 20.4709 66.4066 20.8791C67.0249 21.2815 67.5437 21.8089 67.8279 22.4482L67.7678 22.502C66.7824 21.6254 65.4996 21.0277 64.1422 20.8226C62.7913 20.5851 61.3578 20.7414 60.0919 21.2449L60.0566 21.1754Z" fill="black"/>
<path id="Vector_32" d="M50.2835 44.2875C47.0848 43.9661 45.1167 42.2467 42.1821 41.9145C40.5348 41.7281 38.8882 41.8511 38.517 43.5357C37.8372 46.6208 39.9684 49.0799 42.799 50.7965C46.4549 53.0137 51.0437 53.5885 55.2978 52.551C58.8807 51.6771 62.7769 49.8639 62.7236 46.1105C62.6992 44.3932 61.2248 43.9311 59.5743 43.7692C56.634 43.4811 53.2105 44.5816 50.2835 44.2875Z" fill="white"/>
<path id="Vector_33" d="M51.1347 53.1956C48.1218 53.1956 45.1885 52.4176 42.7101 50.9144C40.3032 49.4545 37.5948 46.9845 38.3607 43.5066C38.7793 41.608 40.7536 41.6068 42.2019 41.7712C43.6457 41.9345 44.8818 42.4375 46.0776 42.924C47.3545 43.4435 48.675 43.9804 50.3008 44.1439C51.7458 44.2884 53.3535 44.0842 54.9082 43.8866C56.479 43.6866 58.1031 43.4801 59.5911 43.6258C61.109 43.7746 62.8552 44.1912 62.8824 46.1077C62.9379 50.0127 58.8109 51.8418 55.339 52.6882C53.9459 53.0283 52.5317 53.1954 51.1347 53.1956ZM41.1734 41.9944C39.6915 41.9944 38.908 42.4954 38.6728 43.5624C37.9408 46.8857 40.5608 49.2655 42.8876 50.6767C46.4388 52.8303 50.9475 53.4627 55.2559 52.4118C58.6191 51.5915 62.6171 49.8329 62.5642 46.1114C62.5453 44.774 61.646 44.1158 59.5569 43.9109C58.1088 43.7698 56.5044 43.9729 54.9528 44.1706C53.3788 44.3709 51.7519 44.5785 50.2657 44.429C48.59 44.2607 47.2462 43.714 45.9466 43.1856C44.7186 42.686 43.5587 42.2139 42.1624 42.0559C41.803 42.015 41.4738 41.9944 41.1734 41.9944Z" fill="black"/>
<path id="Vector_34" d="M55.4467 52.6002L55.1484 52.5001C55.7462 51.0521 56.1014 49.5376 56.205 47.9995C56.2967 46.6343 56.1882 45.2622 55.8831 43.9209L56.1949 43.8633C56.5058 45.2293 56.6161 46.6269 56.5226 48.0169C56.4171 49.5835 56.0553 51.1255 55.4467 52.6002Z" fill="black"/>
<path id="Vector_35" d="M49.1221 52.9677L48.8281 52.8575C49.4888 51.4292 49.9279 49.9279 50.1334 48.3951C50.3149 47.0399 50.3125 45.6637 50.1257 44.3049L50.4414 44.2695C50.6315 45.6514 50.6341 47.0511 50.4491 48.4296C50.2402 49.9883 49.7935 51.5152 49.1221 52.9677Z" fill="black"/>
<path id="Vector_36" d="M42.9423 50.8578L42.6553 50.7338C43.3057 49.5099 43.7783 48.2148 44.0602 46.8846C44.3685 45.4309 44.4472 43.9449 44.2946 42.4681L44.6116 42.4414C44.767 43.945 44.6867 45.4581 44.3729 46.9383C44.0856 48.293 43.6045 49.6116 42.9423 50.8578Z" fill="black"/>
<path id="Vector_37" d="M64.9481 16.1336C65.1094 15.6668 65.2244 15.1818 65.2929 14.6784C65.9259 10.0307 62.2578 5.80594 57.104 5.23595C51.9455 4.6656 47.2571 7.9663 46.6241 12.6141C46.5554 13.1174 46.5369 13.6133 46.5683 14.1012C45.0319 14.2528 44.0908 14.5585 44.0322 14.9881C43.962 15.5044 45.169 16.1181 47.1796 16.684C49.2323 17.2634 52.1167 17.8027 55.3438 18.1594C58.5709 18.5163 61.5194 18.622 63.6623 18.502C65.7646 18.3954 67.0957 18.0623 67.1659 17.546C67.2245 17.1164 66.3932 16.6149 64.9481 16.1336Z" fill="black"/>
<path id="Vector_38" d="M61.8115 18.6929C59.8951 18.6929 57.6581 18.5592 55.3242 18.3012C52.2013 17.956 49.2919 17.4297 47.132 16.8201C45.59 16.3864 43.773 15.7132 43.8742 14.9701C43.9406 14.482 44.7909 14.147 46.4017 13.9735C46.3814 13.5221 46.4031 13.0594 46.4662 12.5959C46.7773 10.3101 48.057 8.27109 50.0691 6.85454C52.0812 5.43818 54.5861 4.81184 57.1235 5.0932C62.3576 5.6719 66.0932 9.97947 65.4509 14.6953C65.3878 15.1586 65.2846 15.6122 65.1435 16.0459C66.6568 16.5654 67.3902 17.0753 67.3239 17.563C67.2225 18.309 65.2814 18.5631 63.6712 18.6449C63.0959 18.6769 62.4726 18.6929 61.8115 18.6929ZM55.9381 5.3143C53.8862 5.3143 51.9062 5.92535 50.2652 7.08062C48.3201 8.44989 47.0829 10.4211 46.7821 12.6309C46.715 13.1239 46.6964 13.6157 46.7272 14.0926L46.7359 14.2286L46.5856 14.2433C44.8727 14.4123 44.2251 14.7479 44.19 15.0053C44.1464 15.3252 44.9212 15.8982 47.2269 16.5468C49.369 17.1516 52.2583 17.6738 55.3629 18.017C58.4829 18.362 61.4265 18.4832 63.6524 18.3589C66.06 18.2367 66.9643 17.8497 67.0081 17.5284C67.043 17.2712 66.5057 16.805 64.893 16.2677L64.7512 16.2206L64.796 16.0907C64.9538 15.6344 65.0676 15.1531 65.1349 14.6606C65.7557 10.1016 62.1443 5.93743 57.0844 5.37793C56.7014 5.33527 56.3185 5.3143 55.9381 5.3143Z" fill="black"/>
<path id="Vector_39" d="M50.5358 14.7226C50.6678 14.75 50.8 14.7768 50.9323 14.8031C52.7991 15.1723 54.6934 15.4167 56.5933 15.596C57.5567 15.687 58.5241 15.7473 59.4927 15.761C61.389 15.7878 63.2768 15.6237 65.1564 15.4113C65.2132 15.1711 65.2588 14.9263 65.2927 14.677C65.3321 14.3872 65.3548 14.099 65.3615 13.8133C61.9445 14.0522 58.5018 13.9561 55.1019 13.5759C52.3501 13.2682 49.3868 12.962 46.726 12.084C46.6897 12.2594 46.6483 12.4331 46.6239 12.6126C46.5787 12.9449 46.5633 13.2725 46.5615 13.5983C46.5623 13.8002 47.9659 14.0956 48.1608 14.1496C48.9443 14.3672 49.7369 14.5566 50.5358 14.7226Z" fill="#E75688"/>
<path id="Vector_40" d="M59.902 15.9083C59.7653 15.9083 59.6284 15.9076 59.4913 15.9056C58.5734 15.8925 57.6204 15.8383 56.5777 15.7398C54.4435 15.5381 52.5858 15.2779 50.8992 14.9445C50.7662 14.918 50.6337 14.8913 50.5011 14.8636C49.6797 14.693 48.8766 14.4992 48.115 14.2879C48.0842 14.2796 48.0223 14.2648 47.9404 14.2451C46.7491 13.9612 46.4043 13.8164 46.4033 13.6001C46.4057 13.2165 46.426 12.8982 46.467 12.5966C46.4862 12.4546 46.5158 12.3161 46.5454 12.1778L46.6049 11.8926L46.7815 11.9509C49.3199 12.7885 52.1029 13.0987 54.7946 13.3983L55.1223 13.435C58.5975 13.8233 62.0384 13.9033 65.3499 13.6715L65.5251 13.6594L65.5213 13.8178C65.5144 14.1098 65.4907 14.4054 65.4513 14.6958C65.4174 14.9452 65.3708 15.1965 65.3128 15.4426L65.2893 15.5424L65.1769 15.5551C63.6136 15.7313 61.7802 15.9083 59.902 15.9083ZM46.7219 13.5675C46.801 13.6298 47.0987 13.7478 48.0219 13.9678C48.1097 13.9888 48.1758 14.0046 48.2087 14.0138C48.9632 14.2232 49.7586 14.415 50.5727 14.584C50.7043 14.6112 50.8359 14.638 50.9677 14.664C52.6426 14.9953 54.4886 15.2539 56.611 15.4544C57.6443 15.5521 58.5882 15.6058 59.4964 15.6186C61.4509 15.6467 63.3822 15.4668 65.0248 15.283C65.0704 15.077 65.1079 14.8682 65.1361 14.6606C65.1672 14.4319 65.1879 14.2001 65.1984 13.9694C61.9198 14.1882 58.518 14.1038 55.0836 13.7193L54.7559 13.6829C52.1084 13.3879 49.3726 13.083 46.8485 12.277C46.8235 12.3941 46.7994 12.5114 46.7831 12.6314C46.7446 12.9133 46.7251 13.2114 46.7219 13.5675Z" fill="black"/>
<path id="Vector_41" d="M59.3124 7.16064C61.5518 7.75569 63.1617 9.63897 63.4546 11.6973C63.4909 11.952 63.9204 11.8463 63.8845 11.5933C63.5722 9.39974 61.8084 7.40591 59.4336 6.77478C59.1586 6.70173 59.0378 7.08777 59.3124 7.16064Z" fill="white"/>
<path id="Vector_42" d="M57.9604 6.69572C58.2466 6.6975 58.2502 6.29671 57.9636 6.29493C57.6771 6.29315 57.6738 6.69394 57.9604 6.69572Z" fill="white"/>
<path id="Vector_43" d="M48.8351 16.1674C47.598 16.014 46.26 15.6536 45.4005 14.7891C45.2484 14.6361 44.9704 14.8367 45.1239 14.991C46.0481 15.9207 47.4597 16.3204 48.7936 16.4859C49.0211 16.5142 49.0619 16.1957 48.8351 16.1674Z" fill="white"/>
<path id="Vector_44" d="M66.9467 77.2483C66.9467 77.2483 69.606 74.2426 63.0911 75.341C56.106 76.5187 61.1145 78.2825 61.1145 78.2825L60.1994 79.0157C60.1994 79.0157 51.4418 75.1546 49.901 80.9688C48.3601 86.783 56.6473 86.1311 61.6138 85.2561C66.5802 84.3811 72.1326 84.3705 66.9467 77.2483Z" fill="#E75688"/>
<path id="Vector_45" d="M55.9027 85.9718C53.6523 85.972 51.6211 85.6069 50.4854 84.5405C49.5849 83.6949 49.3364 82.4818 49.7463 80.9348C50.1144 79.5457 50.92 78.5783 52.1405 78.0596C55.0821 76.8096 59.4482 78.5401 60.1726 78.8449L60.821 78.3252C60.2964 78.111 59.1474 77.5593 59.2202 76.863C59.2929 76.1671 60.5495 75.6231 63.0621 75.1995C65.5905 74.7732 67.0433 74.8992 67.5008 75.585C67.9032 76.1879 67.3459 76.9922 67.1406 77.2531C68.9544 79.7655 69.5512 81.5809 68.9649 82.8009C68.219 84.3529 65.7362 84.7435 63.1081 85.1569C62.6216 85.2334 62.1302 85.3107 61.6444 85.3962C59.8455 85.7134 57.7965 85.9718 55.9027 85.9718ZM54.6051 77.9041C53.7865 77.9041 52.982 78.0191 52.2758 78.3195C51.1475 78.7992 50.4004 79.7017 50.056 81.0019C49.6729 82.4477 49.8944 83.5715 50.7152 84.3424C52.8116 86.3111 58.4238 85.6715 61.5834 85.1153C62.0712 85.0295 62.5648 84.9518 63.0532 84.8749C65.5946 84.4751 67.9953 84.0975 68.6729 82.6873C69.2197 81.5495 68.6118 79.7961 66.8139 77.327L66.7508 77.2403L66.8224 77.1591C66.8303 77.1502 67.5911 76.2763 67.2278 75.7329C66.9691 75.3463 66.0465 74.9891 63.1205 75.4818C60.0773 75.9949 59.5693 76.5846 59.537 76.8901C59.4805 77.4294 60.6985 77.9816 61.1725 78.1487L61.4141 78.234L60.2254 79.1867L60.1295 79.1444C60.0929 79.128 57.2749 77.9041 54.6051 77.9041Z" fill="black"/>
<path id="Vector_46" d="M62.3284 78.3687C62.3284 78.3687 61.9522 78.4759 61.1143 78.2832L62.3284 78.3687Z" fill="#765AFF"/>
<path id="Vector_47" d="M62.0047 78.5409C61.7926 78.5409 61.4867 78.5149 61.0762 78.4204L61.1551 78.1426C61.9248 78.3196 62.2799 78.2307 62.2832 78.2298L62.3777 78.5037C62.3552 78.51 62.2355 78.5409 62.0047 78.5409Z" fill="black"/>
<path id="Vector_48" d="M60.2078 79.0039C60.7698 79.0816 61.2472 79.287 61.7036 79.5243C62.1516 79.7742 62.5791 80.0552 62.9225 80.4631L62.9062 80.4876L61.5407 79.7703L60.1914 79.0284L60.2078 79.0039Z" fill="black"/>
<path id="Vector_49" d="M60.2153 79.0117C60.5448 79.3341 60.716 79.699 60.8476 80.0744C60.9636 80.454 61.0411 80.8438 60.9616 81.2757L60.931 81.2839L60.5426 80.156L60.1846 79.0199L60.2153 79.0117Z" fill="black"/>
<path id="Vector_50" d="M53.1988 78.8907C52.8104 79.2024 52.4802 79.547 52.1922 79.9012C51.9121 80.2617 51.69 80.6481 51.5619 81.0585C51.2506 81.9175 51.4075 82.8172 51.5842 83.6888L51.555 83.7001C51.1538 82.8438 50.9469 81.8851 51.2576 80.9758C51.4051 80.5278 51.6647 80.1115 51.9997 79.7564C52.3364 79.4029 52.7343 79.0965 53.184 78.8652L53.1988 78.8907Z" fill="white"/>
<path id="Vector_51" d="M64.8704 74.0084C64.4518 73.2594 63.9781 72.3686 63.6392 71.4409C62.8857 69.3776 62.4821 67.2202 62.4395 65.0284L57.9016 64.1562C57.8455 66.2517 58.0836 68.3718 58.609 70.458C58.9863 71.9558 59.5043 73.3908 60.1486 74.7236C60.6063 75.6708 61.7092 76.8312 62.9316 77.2169C63.2074 77.3038 63.4796 77.3472 63.744 77.3472C64.1715 77.3472 64.5778 77.2339 64.9459 77.0093C66.1402 76.2802 65.3174 74.8082 64.8704 74.0084Z" fill="black"/>
<path id="Vector_52" d="M39.0742 75.8331C39.0742 75.8331 41.9541 72.9972 35.3713 73.6943C28.3136 74.4416 33.1773 76.508 33.1773 76.508L32.209 77.1834C32.209 77.1834 23.7628 72.7949 21.787 78.5014C19.8112 84.2079 28.1285 84.0649 33.1495 83.4959C38.1707 82.927 43.7109 83.2562 39.0742 75.8331Z" fill="#E75688"/>
<path id="Vector_53" d="M28.8787 83.9047C26.0606 83.9047 23.3817 83.4797 22.1018 82.1017C21.267 81.2031 21.1104 79.9775 21.6359 78.4592C22.1081 77.0958 22.9846 76.18 24.2416 75.7372C27.2716 74.6705 31.4966 76.6639 32.1959 77.0125L32.882 76.5337C32.375 76.2879 31.2702 75.6672 31.3952 74.9769C31.5203 74.2871 32.8149 73.8213 35.3536 73.5524C37.9083 73.2818 39.3476 73.4962 39.7528 74.2089C40.1088 74.8351 39.4924 75.6032 39.2679 75.8508C40.888 78.4687 41.3465 80.3166 40.6693 81.4976C39.808 83.0004 37.3017 83.238 34.6481 83.4895C34.1571 83.5362 33.6612 83.583 33.17 83.6388C31.8182 83.792 30.3296 83.9047 28.8787 83.9047ZM26.2158 75.7173C25.5694 75.7173 24.9367 75.8003 24.3572 76.0047C23.1949 76.4141 22.3818 77.2688 21.9401 78.5449C21.4487 79.9639 21.5852 81.099 22.3459 81.9181C24.2895 84.011 29.9374 83.7157 33.1308 83.3544C33.6239 83.2984 34.122 83.2511 34.6152 83.2046C37.181 82.9613 39.6042 82.7316 40.387 81.3661C41.0184 80.2643 40.544 78.4777 38.9365 75.9041L38.8801 75.8138L38.9576 75.7371C38.9661 75.7289 39.791 74.9035 39.4697 74.3392C39.2405 73.9373 38.3467 73.5237 35.3906 73.8373C32.3159 74.1629 31.7645 74.7201 31.7095 75.0231C31.6124 75.5577 32.7859 76.1832 33.2462 76.379L33.4807 76.4789L32.2231 77.3564L32.1306 77.3084C32.0929 77.2885 29.0266 75.7173 26.2158 75.7173Z" fill="black"/>
<path id="Vector_54" d="M34.3826 76.6674C34.3826 76.6674 33.9993 76.7513 33.1777 76.5078L34.3826 76.6674Z" fill="#765AFF"/>
<path id="Vector_55" d="M34.1857 76.8268C33.9777 76.8268 33.63 76.7943 33.1279 76.6453L33.2272 76.373C33.9829 76.597 34.3433 76.5298 34.3464 76.5293L34.42 76.8081C34.4025 76.8121 34.3259 76.8268 34.1857 76.8268Z" fill="black"/>
<path id="Vector_56" d="M32.2183 77.1719C32.7733 77.2837 33.2341 77.5179 33.6714 77.7827C34.0995 78.0595 34.5047 78.3661 34.8167 78.7939L34.7986 78.8175L33.4903 78.0182L32.2002 77.1955L32.2183 77.1719Z" fill="black"/>
<path id="Vector_57" d="M32.2251 77.1797C32.5295 77.5216 32.6727 77.896 32.7759 78.2786C32.8631 78.6645 32.911 79.0582 32.7992 79.4842L32.7682 79.4904L32.4658 78.3414L32.1943 77.1861L32.2251 77.1797Z" fill="black"/>
<path id="Vector_58" d="M25.234 76.6298C24.8229 76.9172 24.4677 77.2407 24.1534 77.5766C23.8469 77.9191 23.5959 78.2909 23.4373 78.6926C23.0619 79.5304 23.1505 80.4378 23.2612 81.3181L23.2312 81.3277C22.8954 80.4488 22.7613 79.4796 23.1399 78.5913C23.3209 78.1532 23.6113 77.7538 23.9721 77.4202C24.3349 77.088 24.7549 76.8067 25.221 76.6035L25.234 76.6298Z" fill="white"/>
<path id="Vector_59" d="M37.2467 72.4743C36.8859 71.7023 36.4808 70.7851 36.2121 69.8371C35.4388 67.1075 35.2579 64.3211 35.702 61.5385L31.1984 61.0273C30.7966 63.5007 30.8216 65.9822 31.2674 68.5489C31.5308 70.0651 31.9395 71.5288 32.4818 72.8989C32.8673 73.8717 33.8802 75.0972 35.0703 75.5566C35.3889 75.6796 35.7067 75.7409 36.0172 75.7409C36.3918 75.7409 36.7558 75.6513 37.096 75.4727C38.3422 74.8188 37.6326 73.3001 37.2467 72.4743Z" fill="black"/>
<path id="Vector_60" d="M19.7615 38.9902C19.7615 39.0387 19.427 41.7342 19.427 41.7398C18.297 41.4973 17.4734 41.1447 16.1048 39.9176C14.1507 38.163 12.975 35.9206 12.0622 33.5833C11.4758 32.0978 10.998 30.5704 10.4867 29.1142C9.87614 27.376 12.9225 26.7032 13.5273 28.4287C13.5435 28.4705 13.5557 28.5115 13.5721 28.5533C13.9142 29.5436 14.2389 30.554 14.5949 31.5586C15.2301 33.3402 15.9801 35.0889 17.1436 36.631C17.8285 37.5337 18.5446 38.532 19.7615 38.9902Z" fill="black"/>
<path id="Vector_61" d="M10.9322 22.8332C10.9322 22.8332 9.37639 19.4351 6.94371 19.5151C4.90319 19.5821 5.37209 21.597 5.37209 21.597C2.04422 20.8138 2.52654 24.0981 2.52654 24.0981C2.50799 24.0988 2.48945 24.0997 2.47091 24.1006C1.19854 24.165 0.20393 25.1802 0.319725 26.3237C0.596489 29.0551 4.17765 29.9882 4.17765 29.9882C4.52543 34.0168 8.34646 32.912 8.34646 32.912C9.17616 35.2216 11.7087 34.4744 14.8101 31.3433C17.9119 28.2121 13.9425 27.7859 13.9425 27.7859C16.5283 23.4334 11.6365 21.8585 10.9322 22.8332Z" fill="white"/>
<path id="Vector_62" d="M16.0613 28.8197C15.7344 28.0416 14.6572 27.7627 14.1849 27.6765C15.5561 25.2179 14.5871 23.5575 13.1952 22.8153C12.3584 22.3694 11.4449 22.2873 10.9841 22.5826C10.6035 21.8418 9.15088 19.2947 6.93855 19.3708C6.32702 19.3909 5.86286 19.5786 5.55887 19.9285C5.13968 20.4111 5.14501 21.0707 5.18249 21.408C4.29479 21.2397 3.59805 21.3511 3.10804 21.7411C2.3101 22.3759 2.32115 23.546 2.3537 23.9642C1.73705 24.0212 1.15551 24.2948 0.744406 24.7242C0.309829 25.1781 0.103095 25.7506 0.162275 26.3357C0.418523 28.8625 3.42446 29.9089 4.02927 30.0942C4.1575 31.3553 4.64099 32.2473 5.46714 32.7471C6.52547 33.3873 7.81046 33.182 8.24582 33.0846C8.54074 33.8123 9.01851 34.2429 9.66752 34.3664C9.79002 34.3895 9.91765 34.4011 10.0508 34.4011C11.3086 34.4011 13.02 33.366 14.9302 31.4379C15.9694 30.3882 16.3501 29.5074 16.0613 28.8197ZM14.6925 31.2468C12.6596 33.2991 10.8988 34.3081 9.73301 34.086C9.20454 33.9854 8.81 33.6192 8.55454 33.0029C9.22071 32.8074 9.95513 32.3856 10.7428 31.744L10.5294 31.5314C9.77187 32.1487 9.07395 32.5505 8.45019 32.732L8.23024 32.7919C7.92408 32.8646 6.64324 33.1152 5.64212 32.508C4.88126 32.0468 4.44235 31.1951 4.3372 29.9764L4.32852 29.8776L4.22279 29.8498C4.18827 29.8408 0.742827 28.9102 0.479083 26.3101C0.427794 25.8028 0.607306 25.3063 0.985267 24.9119C1.36461 24.5157 1.90965 24.272 2.48113 24.2429L2.70759 24.2333L2.68491 24.0786C2.68293 24.0641 2.4837 22.6194 3.31931 21.9556C3.76612 21.5998 4.44353 21.5257 5.33241 21.7349L5.58037 21.7932L5.52829 21.5669C5.52632 21.5578 5.32689 20.6597 5.81019 20.1043C6.05361 19.8247 6.4371 19.6744 6.95018 19.6575C6.97622 19.6568 7.00206 19.6563 7.0281 19.6563C9.27752 19.6563 10.7706 22.8546 10.7858 22.8873L10.9012 23.139L11.0659 22.9107C11.2873 22.6045 12.1752 22.6047 13.0331 23.0622C13.6629 23.3979 15.58 24.7261 13.803 27.7174C13.3522 28.5296 12.9593 29.1752 11.9108 29.9133L12.1059 30.1401C13.1678 29.3986 13.6006 28.7141 14.035 27.9435C14.3833 27.9996 15.4725 28.2277 15.7636 28.9212C16.0072 29.501 15.6466 30.2835 14.6925 31.2468Z" fill="black"/>
<g id="Group_3">
<g id="Group_4">
<g id="Group_5">
<path id="Vector_63" d="M6.50984 33.8904L1.31445 30.9624L3.84004 26.846L4.89403 25.1286L5.63102 23.9284L11.4192 14.4955L14.5105 12.7824L16.6736 11.582C16.681 12.3674 16.6893 13.1518 16.696 13.9384C16.697 13.939 16.697 13.939 16.697 13.939L16.7268 17.224L10.8457 26.819L10.1097 28.0198L9.05575 29.7372L6.50984 33.8904Z" fill="#F6D117"/>
<path id="Vector_64" d="M6.54161 34.0918L1.07617 31.0113L11.2738 14.3924L16.8038 11.3262L16.86 17.26L6.54161 34.0918ZM1.50029 30.9125L6.42542 33.6882L16.5412 17.1871L16.4907 11.8368L11.5121 14.5974L1.50029 30.9125Z" fill="black"/>
</g>
<g id="Group_6">
<g id="Group_7">
<path id="Vector_65" d="M11.3926 14.4969L11.4812 16.2573L13.2855 15.3845L13.1749 17.4176L15.0205 16.3236L15.0799 18.0249L16.7004 17.224L16.6479 11.582L11.3926 14.4969Z" fill="white"/>
<path id="Vector_66" d="M14.9292 18.2621L14.8704 16.5834L13.0009 17.6917L13.113 15.6298L11.334 16.4908L11.2314 14.4623L16.8048 11.3262L16.818 17.3288L14.9292 18.2621ZM15.1704 16.0623L15.231 17.7861L16.5408 17.1388L16.4913 11.8364L11.5558 14.5739L11.6287 16.0226L13.4582 15.1373L13.3491 17.142L15.1704 16.0623Z" fill="black"/>
</g>
<g id="Group_8">
<path id="Vector_67" d="M14.4844 12.7823C14.4881 12.883 14.5252 13.5746 15.1221 13.9375C15.7991 14.3494 16.5981 13.9749 16.6703 13.9397C16.663 13.1537 16.6557 12.368 16.6484 11.582L14.4844 12.7823Z" fill="black"/>
<path id="Vector_68" d="M15.8373 14.2718C15.5808 14.2718 15.2993 14.2177 15.0328 14.0558C14.4055 13.6742 14.3327 12.9876 14.3252 12.7864L14.3223 12.7033L16.8049 11.3262L16.8297 14.0242L16.7457 14.0652C16.6833 14.0955 16.3014 14.2718 15.8373 14.2718ZM14.6493 12.8584C14.6718 13.0681 14.7712 13.5507 15.2111 13.818C15.7092 14.121 16.2896 13.9394 16.5101 13.85L16.4914 11.8366L14.6493 12.8584Z" fill="black"/>
</g>
</g>
<g id="Group_9">
<path id="Vector_69" d="M11.3685 16.1603L2.08105 31.375L2.35968 31.5131L11.6472 16.2983L11.3685 16.1603Z" fill="black"/>
</g>
<g id="Group_10">
<path id="Vector_70" d="M13.0744 17.2667L3.70996 32.2812L3.98736 32.4217L13.3518 17.4072L13.0744 17.2667Z" fill="black"/>
</g>
<g id="Group_11">
<path id="Vector_71" d="M14.9759 17.9166L5.36621 33.2793L5.64359 33.4201L15.2533 18.0575L14.9759 17.9166Z" fill="black"/>
</g>
</g>
</g>
<g id="Group_12">
<g id="Group_13">
<g id="Group_14">
<path id="Vector_72" d="M0.84997 31.6992C0.84997 31.6992 -1.1217 34.4321 1.59701 36.0111C4.31672 37.5906 6.04535 34.6272 6.04535 34.6272L0.84997 31.6992Z" fill="#E75688"/>
<path id="Vector_73" d="M3.17567 36.6187C2.62648 36.6187 2.0692 36.4561 1.51134 36.1321C0.72464 35.6753 0.239169 35.0799 0.0687318 34.3626C-0.256756 32.9926 0.677296 31.6774 0.717144 31.6219L0.80256 31.5039L6.25538 34.5769L6.18673 34.6946C6.15102 34.7556 5.29824 36.1927 3.81895 36.5432C3.6061 36.5937 3.39147 36.6187 3.17567 36.6187ZM0.904941 31.8997C0.691302 32.2459 0.135802 33.2782 0.380412 34.3043C0.533095 34.9436 0.971617 35.4775 1.68394 35.8913C2.38325 36.2974 3.07467 36.4245 3.73807 36.2659C4.85262 36.0018 5.60243 35.0147 5.83125 34.6761L0.904941 31.8997Z" fill="black"/>
</g>
<g id="Group_15">
<g id="Group_16">
<path id="Vector_74" d="M1.44169 34.5514C0.910846 34.1499 0.722457 33.2893 1.16177 32.5526C1.25448 32.3974 1.04459 32.3061 0.952271 32.4609C0.452992 33.2975 0.650258 34.305 1.25744 34.7641C1.37304 34.8517 1.55788 34.6393 1.44169 34.5514Z" fill="white"/>
</g>
<g id="Group_17">
<path id="Vector_75" d="M1.77449 34.7532C1.63976 34.6942 1.50621 34.94 1.64114 34.9992C1.77607 35.0582 1.90962 34.8124 1.77449 34.7532Z" fill="white"/>
</g>
</g>
</g>
<g id="Group_18">
<path id="Vector_76" d="M1.28827 30.9609L6.49904 33.876L6.05026 34.6184L0.855469 31.7067L1.28827 30.9609Z" fill="black"/>
<path id="Vector_77" d="M6.10956 34.8205L0.646484 31.7583L1.22723 30.7578L6.71122 33.8259L6.10956 34.8205ZM1.06528 31.6555L5.99159 34.4168L6.28769 33.9268L1.35013 31.1645L1.06528 31.6555Z" fill="black"/>
</g>
</g>
<g id="Group_19">
<g id="Group_20">
<path id="Vector_78" d="M2.47168 27.7206C2.47168 27.7206 6.86124 29.871 7.07172 27.765C7.2822 25.6591 2.52711 24.0977 2.52711 24.0977" fill="white"/>
<path id="Vector_79" d="M5.81609 28.8309C4.42458 28.8309 2.49434 27.8947 2.39551 27.8464L2.5474 27.5945C2.57522 27.6082 5.36593 28.9615 6.48187 28.4224C6.73949 28.2982 6.88034 28.0789 6.91289 27.7524C7.11016 25.78 2.5188 24.2474 2.47244 24.2323L2.58133 23.9629C2.78037 24.0283 7.44886 25.5874 7.2299 27.7781C7.18748 28.2024 6.98627 28.5044 6.63198 28.6753C6.40296 28.7855 6.12264 28.8309 5.81609 28.8309Z" fill="black"/>
</g>
<g id="Group_21">
<path id="Vector_80" d="M7.70233 19.5703C7.70233 19.5703 12.7912 22.6686 8.57011 24.4216C8.57011 24.4216 7.03439 22.3732 5.37105 21.5961C5.37105 21.5961 12.5091 25.9807 7.0701 27.7646C7.0701 27.7646 7.02788 25.9728 3.63965 24.563" fill="white"/>
<path id="Vector_81" d="M7.75995 19.5703C7.75995 19.5703 12.8488 22.6686 8.62772 24.4216C8.62772 24.4216 7.09201 22.3732 5.42867 21.5961C5.42867 21.5961 12.5667 25.9807 7.12771 27.7646C7.12771 27.7646 7.0855 25.9728 3.69727 24.563" fill="white"/>
<path id="Vector_82" d="M6.96259 27.8244L6.95588 27.6257C6.95529 27.6086 6.62468 25.894 3.38281 24.5452L3.66194 24.3801C6.48738 25.5552 7.13599 26.9046 7.24646 27.4232C8.31268 27.0404 8.89796 26.5219 8.98713 25.8803C9.05104 25.42 8.86522 24.9271 8.54782 24.4456L8.48312 24.3591C8.47601 24.3497 8.13849 23.9032 7.61613 23.3543C6.58424 22.3523 5.6275 21.8027 5.05918 21.6037L5.38881 21.4768C6.29386 21.8994 7.2508 22.5249 7.85857 23.1643C8.15743 23.4567 8.4409 23.7699 8.67703 24.0934C9.58583 23.6906 10.0731 23.1926 10.1255 22.6112C10.2577 21.1471 8.17084 19.8219 7.58082 19.7216L7.60568 19.502L8.13455 19.5969C8.24719 19.6653 10.5155 20.9745 10.4426 22.6347C10.381 23.3172 9.84385 23.89 8.8451 24.3385C9.17946 24.8598 9.37436 25.4001 9.30275 25.916C9.19229 26.7093 8.47463 27.3287 7.16913 27.7568L6.96259 27.8244Z" fill="black"/>
</g>
</g>
<g id="Group_22">
<path id="Vector_83" d="M11.0923 26.1881C11.0923 26.1881 4.8593 25.6524 5.68348 23.4697C5.9342 22.8058 6.63391 22.3658 7.40876 22.3005C8.5963 22.2005 10.9278 22.2636 13.2289 22.8549C14.2947 23.1288 15.0489 24.0421 14.9512 25.0369C14.9023 25.5364 14.7019 26.2836 14.315 27.0297" fill="white"/>
<path id="Vector_84" d="M14.4621 27.1173L14.1493 27.0547C14.4822 26.412 14.7367 25.6005 14.7931 25.0253C14.8829 24.1105 14.2069 23.2562 13.1854 22.9936C10.7906 22.3783 8.43683 22.3586 7.42387 22.4443C6.68058 22.5068 6.05663 22.9279 5.83431 23.5167C5.71792 23.8253 5.75303 24.1032 5.94221 24.3668C6.87567 25.6678 11.4082 26.0791 11.4503 26.0828L11.2869 26.3494C11.1082 26.3342 6.69162 25.9396 5.67511 24.5227C5.43307 24.1854 5.38533 23.8158 5.53289 23.4247C5.79545 22.7288 6.52612 22.2322 7.39409 22.1588C8.78225 22.0421 11.1376 22.1698 13.2726 22.7182C14.4404 23.0185 15.2129 23.9994 15.1099 25.0507C15.0506 25.657 14.8099 26.446 14.4621 27.1173Z" fill="black"/>
</g>
<path id="Vector_85" d="M91.9926 57.9169C92.034 59.8424 88.7141 59.9734 88.6768 58.0477C88.5896 54.017 87.9132 50.0198 86.8465 46.105C86.4564 44.6579 86.0125 43.2221 85.5186 41.8013L86.6514 35.5645C87.1537 36.761 87.6309 37.9687 88.0791 39.1915C90.3117 45.2412 91.8555 51.5565 91.9926 57.9169Z" fill="black"/>
<path id="Vector_86" d="M87.3676 57.8129C87.3676 57.8129 85.7144 56.2698 87.2842 55.7617C88.48 55.3745 91.1877 55.2377 92.4099 55.1945C92.9737 55.1746 93.5176 55.4142 93.7721 55.8464C93.9368 56.1262 93.8289 56.9187 93.5509 57.3245C94.2435 57.9922 95.5346 58.8393 95.9653 60.6989C96.2874 62.0901 96.2531 63.6275 95.7792 65.007C95.5356 65.7164 95.1521 66.3752 94.4668 66.8406C94.0859 67.0992 93.6257 67.3064 93.1434 67.3462C92.9031 67.3659 92.6624 67.3405 92.4413 67.2611C92.3768 67.238 91.932 67.0627 91.932 67.0627C91.932 67.0627 89.999 68.5185 88.8027 66.6186C88.8027 66.6186 85.593 68.695 85.896 64.1582C85.9144 63.8834 84.5099 63.7723 83.7888 62.7983C83.6817 62.6538 82.9544 61.6392 83.2464 60.4711C83.5934 59.0812 85.2666 57.943 87.3676 57.8129Z" fill="white"/>
<path id="Vector_87" d="M90.4018 67.7388C90.2969 67.7388 90.19 67.731 90.0821 67.7134C89.5546 67.6274 89.1076 67.327 88.7515 66.8198C88.3905 67.0196 87.4306 67.4687 86.6672 67.0885C85.944 66.7291 85.6312 65.74 85.7375 64.1491C85.7101 64.131 85.4996 64.0484 85.3301 63.9815C84.8492 63.7924 84.1225 63.5066 83.6567 62.8773C83.51 62.6793 82.7933 61.6312 83.0914 60.4389C83.4476 59.0139 85.052 57.9139 87.0469 57.696C86.7735 57.3855 86.3419 56.7961 86.4735 56.2883C86.5514 55.9863 86.8065 55.7638 87.2308 55.6262C88.4161 55.2427 90.9808 55.101 92.4041 55.0509C93.0399 55.0211 93.6393 55.3136 93.9132 55.7789C94.0942 56.0866 94.0043 56.8419 93.7472 57.3016C93.8392 57.3869 93.9398 57.4754 94.0459 57.5691C94.7657 58.2034 95.7515 59.0725 96.1213 60.6693C96.4628 62.1432 96.3955 63.6986 95.9318 65.0492C95.6376 65.9059 95.1898 66.529 94.5629 66.9547C94.2432 67.1717 93.7399 67.4406 93.1582 67.4886C92.8816 67.5106 92.6211 67.4792 92.3828 67.3939C92.3358 67.377 92.089 67.2803 91.9551 67.2275C91.7397 67.3713 91.1181 67.7388 90.4018 67.7388ZM88.8539 66.409L88.9413 66.5473C89.2612 67.056 89.6637 67.3532 90.1369 67.431C90.9907 67.5707 91.8217 66.9582 91.83 66.9522L91.9056 66.8955L91.9957 66.931C91.9957 66.931 92.4362 67.1047 92.5001 67.1276C92.6917 67.1964 92.9047 67.222 93.1286 67.2031C93.636 67.1614 94.0842 66.9205 94.371 66.7258C94.9427 66.3378 95.3538 65.7615 95.6274 64.9646C96.0754 63.6597 96.1401 62.1551 95.8097 60.7278C95.4593 59.2165 94.5136 58.3827 93.823 57.7742C93.6816 57.6494 93.55 57.5333 93.4346 57.4221L93.3515 57.3421L93.4152 57.249C93.6707 56.8766 93.7618 56.1349 93.6315 55.9135C93.4145 55.545 92.9323 55.3188 92.4161 55.3376C91.2848 55.3776 88.5256 55.512 87.3377 55.8964C87.0171 56.0002 86.8357 56.1497 86.7828 56.3532C86.6619 56.8192 87.2468 57.4928 87.4821 57.7132L87.7188 57.9345L87.3785 57.9556C85.4124 58.0772 83.7398 59.1482 83.4015 60.5022C83.132 61.5802 83.7871 62.5374 83.9213 62.7182C84.3351 63.2777 85.0104 63.5431 85.457 63.7188C85.8253 63.8637 86.0685 63.9593 86.0547 64.1664C85.9578 65.616 86.2226 66.5395 86.8199 66.8372C87.5823 67.217 88.6986 66.5091 88.7097 66.5018L88.8539 66.409Z" fill="black"/>
<path id="Vector_88" d="M88.9868 66.6504L88.667 66.5507L88.956 64.8164L89.2708 64.8587L88.9868 66.6504Z" fill="black"/>
<path id="Vector_89" d="M91.8985 65.2357L91.7686 67.0527L92.0861 67.0712L92.216 65.2541L91.8985 65.2357Z" fill="black"/>
<path id="Vector_90" d="M86.0139 61.6244L85.7412 64.1406L86.0577 64.1685L86.3304 61.6523L86.0139 61.6244Z" fill="black"/>
<path id="Vector_91" d="M89.3834 57.4881L87.3516 57.6719L87.3833 57.9571L89.4152 57.7733L89.3834 57.4881Z" fill="black"/>
<path id="Vector_92" d="M93.5339 57.18L92.0537 57.3398L92.0916 57.6247L93.5717 57.4648L93.5339 57.18Z" fill="black"/>
<g id="Group_23">
<path id="Vector_93" d="M87.6434 64.435C88.1717 64.4606 88.2386 63.745 87.7095 63.7194C87.1812 63.6938 87.1142 64.4094 87.6434 64.435Z" fill="black"/>
</g>
<g id="Group_24">
<path id="Vector_94" d="M90.9402 64.5055C91.4685 64.5311 91.5354 63.8155 91.0063 63.7897C90.478 63.7643 90.4112 64.4799 90.9402 64.5055Z" fill="black"/>
</g>
<g id="Group_25">
<path id="Vector_95" d="M94.24 64.5463C94.7683 64.5719 94.8354 63.8564 94.3061 63.8308C93.7778 63.805 93.711 64.5207 94.24 64.5463Z" fill="black"/>
</g>
<path id="Vector_96" d="M82.6534 9.16527L80.168 15.9004L81.6231 16.3363L84.1086 9.6012L82.6534 9.16527Z" fill="#F6D117"/>
<path id="Vector_97" d="M100.166 20.0907L94.0859 23.6504L94.9212 24.8085L101.001 21.2488L100.166 20.0907Z" fill="#F6D117"/>
<path id="Vector_98" d="M92.3025 12.8809L87.7451 19.3008L89.0368 20.0451L93.5942 13.6253L92.3025 12.8809Z" fill="#F6D117"/>
</g>
<path id="Vector_99" d="M36.2855 76.7226L36.2686 76.4363C37.9717 76.3543 38.9723 75.723 38.9821 75.7168L39.1674 75.9498C39.1244 75.9775 38.0875 76.6357 36.2855 76.7226Z" fill="black"/>
<path id="Vector_100" d="M64.2316 78.3051L64.1934 78.0208C65.8861 77.8347 66.8367 77.1437 66.846 77.1367L67.0488 77.3578C67.0076 77.3882 66.023 78.1084 64.2316 78.3051Z" fill="black"/>
</g>
</g>
<defs>
<clipPath id="clip0_5423_70936">
<rect width="101" height="91" fill="white"/>
</clipPath>
</defs>
</svg>
