<svg width="138" height="125" viewBox="0 0 138 125" fill="none" xmlns="http://www.w3.org/2000/svg">
<g id="book 1" clip-path="url(#clip0_5412_59525)">
<g id="Group">
<g id="Group_2">
<path id="Vector" d="M125.108 35.7104L121.219 59.8638L119.522 70.4243L115.147 97.5877L111.683 100.408L117.695 63.8503L119.254 54.3236L122.637 33.7766L125.108 35.7104Z" fill="white"/>
<path id="Vector_2" d="M75.8605 27.559L75.5252 27.3C59.2554 16.4151 31.5966 22.8908 31.5966 22.8908L23.4879 89.44C23.4879 89.44 54.11 97.4551 67.4456 93.3372C89.2094 104.001 111.638 100.684 111.638 100.684L122.637 33.6636C122.637 33.6633 94.149 20.5153 75.8605 27.559Z" fill="white"/>
<path id="Vector_3" d="M103.152 101.372C94.6131 101.372 80.8431 100.124 67.4269 93.5721C54.1402 97.6039 23.7389 89.732 23.4323 89.6519L23.2472 89.6033L23.2705 89.4135L31.3974 22.7122L31.5465 22.6772C31.8239 22.6129 59.4855 16.3058 75.6467 27.1182L75.897 27.3107C94.0655 20.4155 122.444 33.333 122.729 33.4649L122.88 33.5347L111.828 100.877L111.669 100.901C111.585 100.913 108.329 101.372 103.152 101.372ZM67.4639 93.1027L67.542 93.141C88.0418 103.185 109.402 100.753 111.448 100.489L122.394 33.7942C120.125 32.7811 93.2478 21.0988 75.9393 27.7638L75.8242 27.808L75.3912 27.4735C60.0094 17.1827 34.005 22.5852 31.7951 23.0706L23.7285 89.2759C26.3071 89.9321 54.7956 97.0156 67.3808 93.1282L67.4639 93.1027Z" fill="black"/>
<path id="Vector_4" d="M75.5317 27.59L67.1007 93.3347L67.5351 93.3904L75.9661 27.6457L75.5317 27.59Z" fill="black"/>
<path id="Vector_5" d="M111.828 100.877L122.88 33.5344L125.344 35.6208L125.324 35.7446L115.351 97.7027L111.828 100.877ZM122.789 34.0768L112.02 99.9102L114.944 97.4717L124.872 35.7991L122.789 34.0768Z" fill="black"/>
<path id="Vector_6" d="M30.1621 34.3716L49.6039 36.5147L44.8497 73.4059L25.8756 70.3536L30.1621 34.3716Z" fill="#765AFF"/>
<path id="Vector_7" d="M45.0382 73.6582L25.6335 70.5367L30.0158 34.1306L49.8497 36.3218L45.0382 73.6582ZM26.1181 70.171L44.6616 73.1541L49.358 36.7084L30.3538 34.6136L26.1181 70.171Z" fill="black"/>
<path id="Vector_8" d="M86.0387 35.7917L115.178 39.5684L113.017 56.1406L84.007 52.5999L86.0387 35.7917Z" fill="#46A831"/>
<path id="Vector_9" d="M113.206 56.3842L83.7634 52.7911L85.8479 35.5464L86.067 35.5746L115.423 39.3795L113.206 56.3842ZM84.2505 52.4091L112.827 55.8969L114.932 39.7574L86.2293 36.0372L84.2505 52.4091Z" fill="black"/>
<path id="Vector_10" d="M87.2097 73.3381L108.189 76.3351L105.392 95.1163L84.3279 92.1876L87.2097 73.3381Z" fill="#ED6122"/>
<path id="Vector_11" d="M105.576 95.3631L84.0776 92.3743L87.026 73.0911L108.438 76.1502L105.576 95.3631ZM84.5777 92.0016L105.207 94.8701L107.94 76.521L87.3935 73.586L84.5777 92.0016Z" fill="black"/>
<path id="Vector_12" d="M25.2803 75.0208L54.6237 79.5106L53.589 87.8082L24.3119 83.506L25.2803 75.0208Z" fill="#F6D117"/>
<path id="Vector_13" d="M53.7785 88.0576L24.0706 83.6916L25.0886 74.7695L54.8672 79.3261L53.7785 88.0576ZM24.5535 83.3199L53.3993 87.5589L54.3799 79.6948L25.4722 75.2712L24.5535 83.3199Z" fill="black"/>
<path id="Vector_14" d="M102.36 64.8119L99.7379 61.269L104.057 62.4187L105.95 57.8879L107.237 62.3777L111.998 61.1186L109.115 64.7671L112.466 67.3853L108.362 68.0512L109.253 72.3838L105.916 68.9536L102.072 72.4634L103.225 67.7578L98.6289 67.3899L102.36 64.8119Z" fill="#4B9BF4"/>
<path id="Vector_15" d="M101.688 73.1104L102.951 67.9555L97.9988 67.5591L102.05 64.7607L99.1898 60.8969L103.929 62.1579L105.989 57.2278L107.388 62.1115L112.577 60.7392L109.424 64.7303L112.996 67.5217L108.622 68.2308L109.618 73.0735L105.908 69.2583L101.688 73.1104ZM99.259 67.2206L103.499 67.5599L102.456 71.8165L105.925 68.6489L108.887 71.6941L108.101 67.8719L111.937 67.2496L108.807 64.8041L111.419 61.4985L107.085 62.6444L105.911 58.5488L104.186 62.6795L100.286 61.6418L102.671 64.8638L99.259 67.2206Z" fill="black"/>
<path id="Vector_16" d="M42.4457 28.3654L40.586 25.8531L43.6495 26.6681L44.9914 23.4551L45.9039 26.6393L49.2809 25.7464L47.2363 28.3337L49.6126 30.1906L46.7018 30.6627L47.3335 33.7354L44.9678 31.3029L42.2413 33.7918L43.059 30.4545L39.7996 30.1936L42.4457 28.3654Z" fill="#4B9BF4"/>
<path id="Vector_17" d="M41.8471 34.4564L42.7775 30.6578L39.1521 30.3676L42.1265 28.3124L40.0228 25.4703L43.5173 26.4004L45.0308 22.7769L46.0592 26.3653L49.8755 25.3565L47.5529 28.2959L50.1562 30.3304L46.9692 30.8473L47.7085 34.4442L44.9583 31.6158L41.8471 34.4564ZM40.4468 30.0198L43.3403 30.2514L42.6358 33.1269L44.9771 30.9893L46.9584 33.0265L46.4344 30.4778L49.0689 30.0507L46.9198 28.3716L48.6861 26.1357L45.7484 26.9126L44.9518 24.1332L43.7812 26.9357L41.1489 26.2353L42.7647 28.418L40.4468 30.0198Z" fill="black"/>
<path id="Vector_18" d="M56.6016 71.124C58.8565 68.8692 58.8565 65.2134 56.6016 62.9585C54.3468 60.7037 50.691 60.7037 48.4361 62.9585C46.1813 65.2134 46.1813 68.8692 48.4361 71.124C50.691 73.3788 54.3468 73.3788 56.6016 71.124Z" fill="#E75688"/>
<path id="Vector_19" d="M87.2708 77.7798C90.4596 77.7798 93.0447 75.1947 93.0447 72.0059C93.0447 68.817 90.4596 66.2319 87.2708 66.2319C84.0819 66.2319 81.4968 68.817 81.4968 72.0059C81.4968 75.1947 84.0819 77.7798 87.2708 77.7798Z" fill="#E75688"/>
<path id="Vector_20" d="M78.6515 53.841C77.9923 60.1095 79.0983 65.6997 81.2558 68.5006C82.0988 69.5909 83.097 70.2549 84.2193 70.373C88.2101 70.7927 92.1882 64.0705 93.1039 55.3607C94.0196 46.6507 91.5269 39.2484 87.536 38.829C86.474 38.7174 85.4144 39.1097 84.417 39.907C81.6497 42.1177 79.3245 47.4413 78.6515 53.841Z" fill="white"/>
<path id="Vector_21" d="M84.5777 70.6105C84.4506 70.6105 84.3236 70.604 84.1968 70.5907C83.0397 70.4691 81.992 69.8107 81.0826 68.6344C78.7994 65.6703 77.7846 59.9933 78.4334 53.8181C79.0899 47.5767 81.3847 42.049 84.2804 39.7357C85.3576 38.874 86.4596 38.4953 87.5588 38.6112C89.5792 38.8238 91.2869 40.7073 92.3676 43.916C93.4289 47.068 93.7682 51.1405 93.3219 55.3835C92.8753 59.6268 91.6971 63.5403 90.0033 66.402C88.3874 69.1326 86.4745 70.6105 84.5777 70.6105ZM78.8692 53.8637C78.2409 59.8397 79.2457 65.5327 81.4293 68.367C82.2624 69.4448 83.2091 70.0467 84.2421 70.1553C86.0817 70.3483 87.994 68.9371 89.6262 66.1791C91.2888 63.37 92.4464 59.5201 92.8862 55.3379C93.326 51.1557 92.9942 47.1491 91.9525 44.0558C90.9296 41.019 89.3528 39.24 87.5132 39.0469C86.5326 38.9427 85.5385 39.2907 84.5538 40.078C81.7455 42.3213 79.5139 47.7334 78.8692 53.8637Z" fill="black"/>
<path id="Vector_22" d="M84.4172 39.907C88.1319 40.7956 90.4566 47.3223 89.659 54.91C89.6329 55.159 89.6034 55.406 89.5713 55.6514L83.4833 55.3979L88.8473 59.2747C87.3574 64.7435 84.3566 68.5521 81.2563 68.5008C79.0988 65.7002 77.9928 60.1098 78.6519 53.8412C79.3244 47.4415 81.6497 42.118 84.4172 39.907Z" fill="black"/>
<path id="Vector_23" d="M81.3158 68.7199C81.2946 68.7199 81.2734 68.7199 81.2522 68.7197L81.1469 68.7178L81.0825 68.6342C78.7996 65.6704 77.7848 59.9934 78.4337 53.8182C79.0901 47.5767 81.385 42.049 84.2806 39.7357L84.3643 39.6689L84.4682 39.6939C88.3029 40.6115 90.6787 47.3053 89.877 54.9329C89.8504 55.1843 89.8208 55.433 89.7885 55.6803L89.7624 55.879L84.2011 55.6472L89.0978 59.1865L89.0579 59.3328C87.5249 64.9602 84.4196 68.7199 81.3158 68.7199ZM84.4696 40.1462C81.7007 42.4299 79.5074 47.7945 78.8691 53.8638C78.2472 59.7808 79.2261 65.4198 81.3646 68.282C84.2261 68.2432 87.1106 64.687 88.5953 59.3632L82.7647 55.149L89.3794 55.4245C89.4016 55.2462 89.4223 55.0673 89.441 54.887C90.2131 47.5444 88.0336 41.1113 84.4696 40.1462Z" fill="black"/>
<path id="Vector_24" d="M52.3608 51.0769C51.7019 57.3452 52.8077 62.9356 54.9652 65.7362C55.8081 66.8268 56.8067 67.4908 57.929 67.6086C61.9198 68.0284 65.8979 61.3064 66.8138 52.5964C67.7296 43.8863 65.2368 36.484 61.2457 36.0643C60.1836 35.9527 59.1238 36.345 58.1266 37.1424C55.3594 39.3536 53.0338 44.6772 52.3608 51.0769Z" fill="white"/>
<path id="Vector_25" d="M58.2763 67.8458C58.1528 67.8458 58.0298 67.8395 57.9062 67.8265C56.7492 67.7046 55.7013 67.0462 54.7921 65.8699C52.5089 62.9058 51.4941 57.2288 52.1429 51.0539C52.7994 44.8122 55.0942 39.2845 57.9899 36.9715C59.0677 36.1101 60.1723 35.7311 61.268 35.8467C63.2884 36.0593 64.9963 37.9434 66.0768 41.1518C67.1384 44.3037 67.4774 48.3763 67.0311 52.6193C66.1322 61.1708 62.2541 67.8458 58.2763 67.8458ZM52.5786 51.0995C51.9504 57.0754 52.9552 62.7679 55.1387 65.6025C55.9717 66.6806 56.9183 67.2822 57.9516 67.391C61.8197 67.8072 65.6941 61.1496 66.5957 52.5737C67.0355 48.3915 66.7037 44.3846 65.662 41.2913C64.6393 38.2545 63.0626 36.4755 61.2227 36.2825C60.2435 36.1782 59.2479 36.5268 58.2633 37.3138C55.4547 39.5571 53.2234 44.9691 52.5786 51.0995Z" fill="black"/>
<path id="Vector_26" d="M58.1266 37.1426C61.8413 38.0311 64.166 44.5579 63.3684 52.1456C63.3421 52.3946 63.3128 52.6416 63.2805 52.887L57.1924 52.6335L62.5564 56.5103C61.0665 61.9793 58.0655 65.7877 54.9652 65.7364C52.8077 62.9358 51.7019 57.3454 52.3608 51.0771C53.0338 44.6771 55.3594 39.3535 58.1266 37.1426Z" fill="black"/>
<path id="Vector_27" d="M55.0255 65.9555C55.0041 65.9555 54.9829 65.9555 54.9617 65.9552L54.8561 65.9533L54.7918 65.8697C52.5089 62.9059 51.4941 57.2289 52.1429 51.054C52.7994 44.8123 55.0942 39.2846 57.9899 36.9716L58.0735 36.9048L58.1775 36.9298C62.0122 37.8474 64.3879 44.5411 63.5862 52.1687C63.5599 52.4196 63.5301 52.6685 63.4977 52.9158L63.4717 53.1146L57.9109 52.883L62.8076 56.4221L62.7677 56.5684C61.2341 62.1957 58.1291 65.9555 55.0255 65.9555ZM58.1791 37.3821C55.4102 39.6655 53.2169 45.03 52.5786 51.0996C51.9567 57.0166 52.9354 62.6554 55.0741 65.5173C57.9356 65.4788 60.8201 61.9226 62.3051 56.5985L56.4739 52.3846L63.0889 52.6598C63.1111 52.4817 63.1318 52.3031 63.1505 52.1228C63.9226 44.7803 61.7429 38.3472 58.1791 37.3821Z" fill="black"/>
<path id="Vector_28" d="M74.8632 59.8676C74.8697 61.6097 73.4626 63.0274 71.7199 63.0337C69.9778 63.0402 68.5604 61.6328 68.5539 59.8904C68.5476 58.1483 69.9547 56.7306 71.6971 56.7244C73.4389 56.7181 74.8566 58.1255 74.8632 59.8676Z" fill="#F6D117"/>
<path id="Vector_29" d="M71.7082 63.2529C69.8537 63.2529 68.3418 61.7475 68.3347 59.8916C68.3315 58.9903 68.6793 58.1416 69.3143 57.5023C69.9493 56.8629 70.7949 56.5086 71.696 56.5054C73.5529 56.4731 75.0749 58.0064 75.0822 59.8666C75.0855 60.768 74.7377 61.6161 74.1027 62.256C73.4677 62.8953 72.622 63.2496 71.721 63.2529C71.7166 63.2529 71.7126 63.2529 71.7082 63.2529ZM71.7085 56.9433C71.7047 56.9433 71.7014 56.9433 71.6976 56.9433C70.0788 56.949 68.7667 58.2708 68.7726 59.8897C68.7786 61.5048 70.0945 62.8147 71.7082 62.8147C71.712 62.8147 71.7153 62.8147 71.7191 62.8147C72.5031 62.812 73.2394 62.5038 73.7918 61.9473C74.3443 61.3907 74.647 60.6526 74.644 59.8685C74.6381 58.2535 73.3222 56.9433 71.7085 56.9433Z" fill="black"/>
<path id="Vector_30" d="M57.7455 29.381C58.3379 28.5106 59.2091 27.8775 60.1723 27.463C60.6512 27.2376 61.1665 27.1089 61.6866 26.9968C62.2106 26.911 62.7449 26.8717 63.2778 26.882C64.3417 26.933 65.4008 27.1939 66.332 27.6902C67.2616 28.1778 68.0828 28.8736 68.6092 29.7842L68.5389 29.8773C67.0061 28.7449 65.1288 28.0923 63.2349 28.048C61.3432 27.9533 59.4243 28.4702 57.809 29.479L57.7455 29.381Z" fill="black"/>
<path id="Vector_31" d="M82.652 32.3438C83.3619 31.5663 84.3145 31.0635 85.3266 30.7901C85.8327 30.6351 86.3613 30.5811 86.8918 30.5442C87.4225 30.5339 87.9571 30.5705 88.4829 30.6568C89.5289 30.8586 90.54 31.2677 91.3911 31.8913C92.2419 32.5059 92.9559 33.3114 93.3471 34.2879L93.2643 34.3702C91.9082 33.0312 90.1428 32.1182 88.2747 31.8049C86.4156 31.4422 84.4427 31.6809 82.7006 32.45L82.652 32.3438Z" fill="black"/>
<path id="Vector_32" d="M69.2018 67.6471C64.7997 67.1563 62.0911 64.5299 58.0525 64.0225C55.7853 63.7377 53.5193 63.9256 53.0083 66.4987C52.0728 71.2111 55.0059 74.9674 58.9014 77.5894C63.9329 80.9762 70.2481 81.8542 76.1027 80.2695C81.0337 78.9346 86.3957 76.1649 86.3224 70.4317C86.2888 67.8086 84.2597 67.1028 81.9882 66.8555C77.9417 66.4154 73.2301 68.0964 69.2018 67.6471Z" fill="white"/>
<path id="Vector_33" d="M70.3736 81.2558C66.2273 81.2558 62.1903 80.0675 58.7794 77.7713C55.467 75.5413 51.7395 71.7685 52.7937 66.4561C53.3698 63.5561 56.0868 63.5542 58.08 63.8053C60.067 64.0548 61.7681 64.8231 63.4139 65.5662C65.1712 66.3597 66.9885 67.1799 69.2261 67.4296C71.2147 67.6503 73.4273 67.3384 75.5669 67.0365C77.7287 66.7311 79.9638 66.4156 82.0116 66.6382C84.1007 66.8655 86.5039 67.5018 86.5414 70.4293C86.6176 76.394 80.9379 79.1879 76.1598 80.4807C74.2426 81.0003 72.2963 81.2555 70.3736 81.2558ZM56.6645 64.1463C54.6251 64.1463 53.5468 64.9116 53.2232 66.5413C52.2157 71.6175 55.8215 75.2527 59.0237 77.4083C63.911 80.6979 70.116 81.6638 76.0455 80.0585C80.674 78.8056 86.1762 76.1193 86.1034 70.435C86.0774 68.392 84.8397 67.3867 81.9647 67.0737C79.9717 66.8581 77.7637 67.1685 75.6282 67.4703C73.462 67.7763 71.2231 68.0934 69.1778 67.8651C66.8715 67.608 65.0221 66.7729 63.2336 65.9658C61.5436 65.2026 59.9473 64.4816 58.0257 64.2402C57.5311 64.1778 57.078 64.1463 56.6645 64.1463Z" fill="black"/>
<path id="Vector_34" d="M76.3079 80.3461L75.8975 80.1932C76.7201 77.9815 77.209 75.6681 77.3515 73.3187C77.4778 71.2334 77.3285 69.1376 76.9085 67.0887L77.3377 67.0007C77.7655 69.0874 77.9173 71.222 77.7886 73.3453C77.6434 75.7382 77.1455 78.0936 76.3079 80.3461Z" fill="black"/>
<path id="Vector_35" d="M67.6034 80.906L67.1989 80.7377C68.1081 78.5561 68.7124 76.2628 68.9953 73.9216C69.245 71.8515 69.2418 69.7494 68.9847 67.6739L69.419 67.6199C69.6808 69.7307 69.6843 71.8686 69.4296 73.9742C69.1421 76.3552 68.5275 78.6875 67.6034 80.906Z" fill="black"/>
<path id="Vector_36" d="M59.0991 77.6847L58.7041 77.4952C59.5992 75.6258 60.2497 73.6475 60.6376 71.6157C61.0619 69.3952 61.1703 67.1253 60.9601 64.8696L61.3964 64.8289C61.6103 67.1256 61.4998 69.4368 61.0679 71.6977C60.6726 73.7669 60.0105 75.7811 59.0991 77.6847Z" fill="black"/>
<path id="Vector_37" d="M89.3843 24.6433C89.6064 23.9304 89.7647 23.1895 89.8589 22.4207C90.7301 15.3214 85.6818 8.86818 78.589 7.99753C71.4897 7.12633 65.0373 12.1681 64.1661 19.2674C64.0716 20.0362 64.0461 20.7937 64.0893 21.5389C61.975 21.7705 60.6797 22.2374 60.5991 22.8936C60.5024 23.6823 62.1637 24.6197 64.9306 25.4841C67.7557 26.3691 71.7253 27.1928 76.1665 27.7377C80.6078 28.2828 84.6656 28.4444 87.6148 28.2611C90.508 28.0982 92.34 27.5895 92.4366 26.8008C92.5172 26.1446 91.3732 25.3785 89.3843 24.6433Z" fill="black"/>
<path id="Vector_38" d="M85.0674 28.5534C82.4299 28.5534 79.3513 28.3493 76.1393 27.9551C71.8415 27.4279 67.8373 26.624 64.8649 25.6928C62.7427 25.0304 60.242 24.002 60.3813 22.8669C60.4728 22.1214 61.6429 21.6097 63.8598 21.3447C63.8319 20.6551 63.8617 19.9485 63.9486 19.2404C64.3767 15.7489 66.1379 12.6344 68.907 10.4707C71.6761 8.30723 75.1234 7.35052 78.6155 7.78028C85.8188 8.66423 90.9599 15.2439 90.076 22.4472C89.9891 23.155 89.8471 23.8478 89.653 24.5102C91.7356 25.3038 92.745 26.0827 92.6537 26.8276C92.5142 27.967 89.8428 28.3553 87.6267 28.4801C86.835 28.529 85.9771 28.5534 85.0674 28.5534ZM76.9842 8.118C74.1602 8.118 71.4353 9.05136 69.1768 10.816C66.5 12.9075 64.7973 15.9186 64.3833 19.2939C64.2909 20.047 64.2654 20.7982 64.3078 21.5266L64.3197 21.7343L64.1129 21.7568C61.7556 22.015 60.8643 22.5276 60.8159 22.9207C60.7559 23.4094 61.8223 24.2846 64.9954 25.2753C67.9435 26.1991 71.9199 26.9968 76.1926 27.521C80.4863 28.0479 84.5374 28.2331 87.6009 28.0433C90.9143 27.8565 92.1588 27.2655 92.2191 26.7747C92.2671 26.3818 91.5276 25.6697 89.3082 24.849L89.113 24.7771L89.1747 24.5786C89.3918 23.8817 89.5485 23.1466 89.6411 22.3943C90.4954 15.4304 85.5254 9.06983 78.5618 8.21519C78.0346 8.15004 77.5076 8.118 76.9842 8.118Z" fill="black"/>
<path id="Vector_39" d="M69.5499 22.4902C69.7315 22.532 69.9134 22.573 70.0956 22.6132C72.6647 23.177 75.2717 23.5503 77.8864 23.8242C79.2123 23.9632 80.5437 24.0553 81.8767 24.0762C84.4864 24.1172 87.0845 23.8666 89.6712 23.5422C89.7494 23.1751 89.8122 22.8013 89.8588 22.4204C89.9131 21.9779 89.9444 21.5375 89.9536 21.1013C85.2509 21.4661 80.513 21.3193 75.834 20.7386C72.0468 20.2686 67.9685 19.8008 64.3067 18.4597C64.2568 18.7277 64.1998 18.9929 64.1661 19.2671C64.1039 19.7748 64.0828 20.2751 64.0803 20.7728C64.0814 21.0812 66.013 21.5324 66.2812 21.6149C67.3596 21.9472 68.4504 22.2366 69.5499 22.4902Z" fill="#E75688"/>
<path id="Vector_40" d="M82.4384 24.2997C82.2502 24.2997 82.0618 24.2986 81.8731 24.2956C80.6099 24.2755 79.2984 24.1927 77.8633 24.0423C74.9261 23.7342 72.3695 23.3367 70.0484 22.8274C69.8654 22.787 69.6829 22.7463 69.5005 22.7039C68.37 22.4433 67.2648 22.1474 66.2166 21.8246C66.1743 21.8118 66.089 21.7893 65.9764 21.7591C64.3369 21.3256 63.8623 21.1043 63.861 20.7739C63.8642 20.1881 63.8922 19.7018 63.9487 19.2411C63.975 19.0242 64.0157 18.8127 64.0564 18.6015L64.1384 18.1658L64.3814 18.2548C67.8749 19.5343 71.705 20.0081 75.4094 20.4658L75.8603 20.5217C80.643 21.1149 85.3785 21.2371 89.9359 20.8831L90.177 20.8646L90.1719 21.1065C90.1624 21.5525 90.1298 22.004 90.0755 22.4476C90.0288 22.8285 89.9647 23.2124 89.8849 23.5884L89.8526 23.7407L89.6979 23.7602C87.5463 24.0293 85.0232 24.2997 82.4384 24.2997ZM64.2994 20.7242C64.4083 20.8193 64.8179 20.9995 66.0885 21.3356C66.2093 21.3677 66.3002 21.3918 66.3456 21.4059C67.384 21.7257 68.4786 22.0187 69.5991 22.2769C69.7801 22.3184 69.9612 22.3594 70.1426 22.399C72.4477 22.9051 74.9883 23.3001 77.9092 23.6063C79.3312 23.7556 80.6303 23.8376 81.8802 23.8572C84.5701 23.9001 87.2279 23.6253 89.4885 23.3446C89.5513 23.03 89.6028 22.711 89.6417 22.3939C89.6846 22.0445 89.7131 21.6905 89.7274 21.3381C85.2154 21.6723 80.5336 21.5433 75.8071 20.9561L75.3562 20.9004C71.7126 20.4498 67.9473 19.9842 64.4737 18.753C64.4392 18.9319 64.4061 19.1111 64.3836 19.2943C64.3306 19.7249 64.3038 20.1802 64.2994 20.7242Z" fill="black"/>
<path id="Vector_41" d="M81.6279 10.9383C84.7098 11.8473 86.9254 14.7239 87.3285 17.868C87.3785 18.257 87.9695 18.0955 87.9201 17.7092C87.4903 14.3585 85.063 11.313 81.7946 10.3489C81.4162 10.2374 81.25 10.827 81.6279 10.9383Z" fill="white"/>
<path id="Vector_42" d="M79.7675 10.2267C80.1614 10.2294 80.1663 9.61723 79.7718 9.61451C79.3776 9.6118 79.373 10.224 79.7675 10.2267Z" fill="white"/>
<path id="Vector_43" d="M67.2091 24.696C65.5066 24.4617 63.6652 23.9111 62.4823 22.5906C62.273 22.3569 61.8905 22.6634 62.1017 22.8991C63.3736 24.3192 65.3163 24.9298 67.1521 25.1825C67.4651 25.2257 67.5213 24.7392 67.2091 24.696Z" fill="white"/>
<path id="Vector_44" d="M92.135 117.994C92.135 117.994 95.7949 113.403 86.8289 115.081C77.2156 116.88 84.1086 119.574 84.1086 119.574L82.8492 120.694C82.8492 120.694 70.7966 114.796 68.6761 123.677C66.5555 132.559 77.9606 131.563 84.7957 130.226C91.6306 128.89 99.2721 128.873 92.135 117.994Z" fill="#E75688"/>
<path id="Vector_45" d="M76.9356 131.32C73.8386 131.321 71.0431 130.763 69.4801 129.134C68.2408 127.842 67.8987 125.989 68.4629 123.626C68.9695 121.504 70.0782 120.027 71.7579 119.235C75.8063 117.325 81.815 119.968 82.8119 120.434L83.7043 119.64C82.9824 119.313 81.401 118.47 81.5012 117.407C81.6014 116.344 83.3307 115.513 86.7886 114.866C90.2682 114.215 92.2677 114.407 92.8973 115.455C93.4511 116.376 92.6842 117.604 92.4016 118.003C94.8979 121.84 95.7191 124.613 94.9123 126.477C93.8858 128.847 90.4689 129.444 86.8519 130.076C86.1824 130.192 85.5061 130.31 84.8375 130.441C82.3618 130.926 79.5419 131.32 76.9356 131.32ZM75.1498 118.997C74.0232 118.997 72.916 119.173 71.9441 119.632C70.3912 120.364 69.3631 121.743 68.8891 123.729C68.3619 125.937 68.6668 127.654 69.7964 128.831C72.6815 131.839 80.4052 130.861 84.7536 130.012C85.425 129.881 86.1042 129.762 86.7764 129.645C90.2739 129.034 93.5779 128.457 94.5105 126.303C95.263 124.565 94.4263 121.887 91.952 118.116L91.8651 117.983L91.9637 117.859C91.9745 117.845 93.0216 116.511 92.5216 115.681C92.1656 115.09 90.8959 114.544 86.869 115.297C82.6808 116.081 81.9817 116.982 81.9372 117.448C81.8596 118.272 83.5357 119.115 84.1881 119.371L84.5206 119.501L82.8847 120.956L82.7527 120.891C82.7022 120.867 78.8241 118.997 75.1498 118.997Z" fill="black"/>
<path id="Vector_46" d="M85.7793 119.705C85.7793 119.705 85.2615 119.869 84.1083 119.575L85.7793 119.705Z" fill="#765AFF"/>
<path id="Vector_47" d="M85.3321 119.97C85.0402 119.97 84.6192 119.931 84.0542 119.786L84.1628 119.362C85.2221 119.632 85.7108 119.497 85.7154 119.495L85.8455 119.914C85.8145 119.923 85.6497 119.97 85.3321 119.97Z" fill="black"/>
<path id="Vector_48" d="M82.8602 120.675C83.6336 120.794 84.2906 121.108 84.9188 121.47C85.5354 121.852 86.1237 122.281 86.5963 122.904L86.5738 122.942L84.6946 121.846L82.8376 120.713L82.8602 120.675Z" fill="black"/>
<path id="Vector_49" d="M82.87 120.688C83.3234 121.181 83.559 121.738 83.7401 122.312C83.8997 122.892 84.0064 123.487 83.897 124.147L83.8549 124.159L83.3204 122.436L82.8276 120.701L82.87 120.688Z" fill="black"/>
<path id="Vector_50" d="M73.2145 120.503C72.6799 120.979 72.2255 121.505 71.8291 122.046C71.4436 122.597 71.1379 123.187 70.9617 123.814C70.5333 125.126 70.7491 126.5 70.9924 127.832L70.9522 127.849C70.4 126.541 70.1152 125.077 70.5428 123.688C70.7459 123.003 71.1031 122.368 71.5641 121.825C72.0275 121.285 72.5751 120.817 73.1941 120.464L73.2145 120.503Z" fill="white"/>
<path id="Vector_51" d="M89.277 113.045C88.701 111.901 88.0491 110.541 87.5827 109.123C86.5456 105.972 85.9902 102.676 85.9315 99.3285L79.6863 97.9963C79.6092 101.197 79.9369 104.435 80.6599 107.622C81.1792 109.91 81.8921 112.102 82.7788 114.138C83.4086 115.584 84.9265 117.357 86.6089 117.946C86.9884 118.079 87.3631 118.145 87.7269 118.145C88.3152 118.145 88.8744 117.972 89.381 117.629C91.0246 116.515 89.8922 114.267 89.277 113.045Z" fill="black"/>
<path id="Vector_52" d="M53.7755 115.834C53.7755 115.834 57.7389 111.502 48.6795 112.567C38.9663 113.708 45.6601 116.865 45.6601 116.865L44.3273 117.896C44.3273 117.896 32.7035 111.193 29.9843 119.91C27.2651 128.626 38.7117 128.408 45.6218 127.539C52.5321 126.67 60.1568 127.172 53.7755 115.834Z" fill="#E75688"/>
<path id="Vector_53" d="M39.7428 128.162C35.8644 128.162 32.1776 127.513 30.4162 125.408C29.2673 124.036 29.0518 122.163 29.775 119.844C30.4249 117.762 31.6311 116.363 33.361 115.687C37.531 114.057 43.3457 117.102 44.3081 117.634L45.2523 116.903C44.5546 116.528 43.034 115.58 43.2061 114.525C43.3783 113.472 45.16 112.76 48.6538 112.349C52.1697 111.936 54.1505 112.263 54.7081 113.352C55.1982 114.309 54.3498 115.482 54.0408 115.86C56.2705 119.859 56.9014 122.681 55.9694 124.485C54.7841 126.781 51.3349 127.144 47.6829 127.528C47.0072 127.599 46.3247 127.671 45.6487 127.756C43.7882 127.99 41.7396 128.162 39.7428 128.162ZM36.0781 115.656C35.1884 115.656 34.3177 115.783 33.5201 116.095C31.9205 116.72 30.8015 118.026 30.1936 119.975C29.5174 122.143 29.7052 123.876 30.7521 125.128C33.427 128.324 41.1999 127.874 45.5947 127.322C46.2734 127.236 46.9589 127.164 47.6376 127.093C51.1688 126.721 54.5037 126.37 55.5809 124.284C56.45 122.602 55.797 119.873 53.5847 115.941L53.5071 115.804L53.6138 115.686C53.6254 115.674 54.7608 114.413 54.3185 113.551C54.0031 112.937 52.773 112.306 48.7048 112.784C44.4732 113.282 43.7144 114.133 43.6386 114.596C43.505 115.412 45.1201 116.368 45.7535 116.667L46.0763 116.819L44.3456 118.16L44.2182 118.086C44.1664 118.056 39.9464 115.656 36.0781 115.656Z" fill="black"/>
<path id="Vector_54" d="M47.3184 117.109C47.3184 117.109 46.7909 117.237 45.6602 116.865L47.3184 117.109Z" fill="#765AFF"/>
<path id="Vector_55" d="M47.0474 117.35C46.7612 117.35 46.2826 117.3 45.5917 117.073L45.7282 116.657C46.7683 116.999 47.2643 116.896 47.2686 116.895L47.3699 117.321C47.3457 117.327 47.2404 117.35 47.0474 117.35Z" fill="black"/>
<path id="Vector_56" d="M44.3399 117.878C45.1036 118.049 45.7378 118.407 46.3397 118.812C46.9288 119.234 47.4864 119.703 47.9159 120.356L47.8909 120.392L46.0905 119.171L44.3149 117.915L44.3399 117.878Z" fill="black"/>
<path id="Vector_57" d="M44.3489 117.892C44.7678 118.414 44.9649 118.986 45.1069 119.57C45.2269 120.16 45.2928 120.761 45.1389 121.412L45.0963 121.421L44.6801 119.666L44.3065 117.901L44.3489 117.892Z" fill="black"/>
<path id="Vector_58" d="M34.7282 117.05C34.1625 117.489 33.6735 117.983 33.241 118.496C32.8191 119.019 32.4738 119.587 32.2555 120.201C31.7389 121.481 31.8608 122.866 32.0131 124.211L31.9718 124.226C31.5098 122.883 31.3252 121.403 31.8461 120.046C32.0954 119.377 32.495 118.767 32.9915 118.257C33.4908 117.75 34.0688 117.32 34.7103 117.01L34.7282 117.05Z" fill="white"/>
<path id="Vector_59" d="M51.2606 110.702C50.764 109.523 50.2064 108.122 49.8366 106.674C48.7724 102.504 48.5235 98.2482 49.1346 93.9978L42.9366 93.217C42.3836 96.995 42.4181 100.785 43.0316 104.706C43.394 107.022 43.9566 109.258 44.7029 111.351C45.2333 112.836 46.6274 114.708 48.2653 115.41C48.7037 115.598 49.1411 115.692 49.5684 115.692C50.084 115.692 50.5848 115.555 51.0532 115.282C52.7681 114.283 51.7916 111.963 51.2606 110.702Z" fill="black"/>
<path id="Vector_60" d="M27.1962 59.5579C27.1962 59.6321 26.7358 63.7494 26.7358 63.7578C25.1807 63.3875 24.0473 62.8489 22.1637 60.9746C19.4744 58.2945 17.8564 54.8691 16.6002 51.2991C15.7931 49.0301 15.1355 46.6969 14.4319 44.4726C13.5916 41.8175 17.7841 40.79 18.6165 43.4255C18.6388 43.4893 18.6556 43.552 18.6781 43.6158C19.1489 45.1286 19.5958 46.6719 20.0858 48.2064C20.96 50.9277 21.9922 53.5989 23.5934 55.9543C24.536 57.3331 25.5215 58.8581 27.1962 59.5579Z" fill="black"/>
<path id="Vector_61" d="M15.0457 34.8766C15.0457 34.8766 12.9045 29.6861 9.55654 29.8083C6.7483 29.9106 7.39362 32.9884 7.39362 32.9884C2.81368 31.792 3.47746 36.8088 3.47746 36.8088C3.45194 36.8099 3.42642 36.8112 3.4009 36.8126C1.64983 36.9109 0.281004 38.4616 0.440366 40.2083C0.821258 44.3805 5.74979 45.8058 5.74979 45.8058C6.22841 51.9592 11.4871 50.2717 11.4871 50.2717C12.6289 53.7996 16.1142 52.6583 20.3825 47.8756C24.6513 43.0928 19.1885 42.4418 19.1885 42.4418C22.7472 35.7934 16.0149 33.3878 15.0457 34.8766Z" fill="white"/>
<path id="Vector_62" d="M22.1034 44.0221C21.6535 42.8336 20.1709 42.4076 19.521 42.276C21.4081 38.5205 20.0746 35.9843 18.159 34.8506C17.0073 34.1694 15.7501 34.044 15.1159 34.4952C14.5922 33.3637 12.593 29.473 9.54829 29.5892C8.70669 29.6199 8.06788 29.9066 7.64953 30.4411C7.07262 31.1782 7.07995 32.1857 7.13153 32.701C5.90985 32.4439 4.95097 32.6141 4.27661 33.2097C3.17845 34.1795 3.19365 35.9667 3.23845 36.6055C2.38979 36.6926 1.58945 37.1104 1.02368 37.7663C0.4256 38.4597 0.141084 39.3341 0.22253 40.2279C0.575188 44.0876 4.71207 45.6858 5.54444 45.969C5.7209 47.8951 6.38631 49.2577 7.52329 50.0211C8.9798 50.999 10.7482 50.6855 11.3474 50.5367C11.7533 51.6481 12.4108 52.3059 13.304 52.4946C13.4726 52.5299 13.6482 52.5476 13.8315 52.5476C15.5625 52.5476 17.9179 50.9664 20.5467 48.0214C21.9768 46.418 22.5008 45.0725 22.1034 44.0221ZM20.2195 47.7295C17.4219 50.8644 14.9986 52.4056 13.3941 52.0662C12.6668 51.9126 12.1239 51.3533 11.7723 50.4118C12.6891 50.1132 13.6998 49.4689 14.7839 48.4889L14.4901 48.1642C13.4476 49.107 12.4871 49.7209 11.6287 49.9981L11.326 50.0895C10.9046 50.2006 9.14188 50.5834 7.76409 49.656C6.71698 48.9515 6.11293 47.6505 5.96822 45.789L5.95628 45.638L5.81076 45.5957C5.76325 45.5818 1.02151 44.1603 0.658534 40.1888C0.587948 39.414 0.834998 38.6554 1.35516 38.053C1.87723 37.4479 2.62734 37.0757 3.41383 37.0311L3.72549 37.0165L3.69427 36.7803C3.69156 36.758 3.41736 34.5514 4.56736 33.5374C5.18228 32.9939 6.11455 32.8807 7.33786 33.2002L7.67912 33.2893L7.60745 32.9437C7.60473 32.9298 7.33026 31.558 7.9954 30.7096C8.33041 30.2826 8.85818 30.0529 9.56431 30.0271C9.60014 30.026 9.63571 30.0252 9.67154 30.0252C12.7673 30.0252 14.8221 34.9106 14.843 34.9605L15.0019 35.345L15.2286 34.9964C15.5332 34.5286 16.7551 34.5289 17.9358 35.2277C18.8026 35.7405 21.4409 37.7693 18.9954 42.3384C18.3751 43.5791 17.8343 44.5651 16.3913 45.6926L16.6598 46.039C18.1212 44.9064 18.7169 43.8609 19.3147 42.6837C19.7941 42.7695 21.293 43.1178 21.6937 44.1772C22.029 45.0627 21.5327 46.2581 20.2195 47.7295Z" fill="black"/>
<g id="Group_3">
<g id="Group_4">
<g id="Group_5">
<path id="Vector_63" d="M8.95978 51.7663L1.80969 47.2938L5.28551 41.0063L6.73605 38.3829L7.75031 36.5496L15.7162 22.1411L19.9706 19.5245L22.9475 17.6909C22.9578 18.8906 22.9692 20.0887 22.9784 21.2903C22.9798 21.2911 22.9798 21.2911 22.9798 21.2911L23.0208 26.3089L14.927 40.965L13.9141 42.7991L12.4636 45.4225L8.95978 51.7663Z" fill="#F6D117"/>
<path id="Vector_64" d="M9.00319 52.0744L1.48145 47.3691L15.5158 21.9842L23.1264 17.3005L23.2037 26.3643L9.00319 52.0744ZM2.06514 47.2181L8.84329 51.4579L22.765 26.253L22.6955 18.0805L15.8438 22.2972L2.06514 47.2181Z" fill="black"/>
</g>
<g id="Group_6">
<g id="Group_7">
<path id="Vector_65" d="M15.679 22.1418L15.8009 24.8308L18.2841 23.4976L18.1318 26.6031L20.6718 24.9321L20.7535 27.5308L22.9838 26.3075L22.9116 17.6895L15.679 22.1418Z" fill="white"/>
<path id="Vector_66" d="M20.5461 27.8942L20.4652 25.33L17.8924 27.023L18.0466 23.8735L15.5983 25.1886L15.4572 22.0901L23.1274 17.2998L23.1456 26.4686L20.5461 27.8942ZM20.8782 24.534L20.9615 27.1672L22.7642 26.1784L22.696 18.0792L15.9035 22.2606L16.0039 24.4735L18.5217 23.1212L18.3715 26.1833L20.8782 24.534Z" fill="black"/>
</g>
<g id="Group_8">
<path id="Vector_67" d="M19.9335 19.5228C19.9386 19.6767 19.9897 20.7331 20.8112 21.2874C21.7429 21.9165 22.8424 21.3444 22.9418 21.2907C22.9317 20.0902 22.9217 18.89 22.9117 17.6895L19.9335 19.5228Z" fill="black"/>
<path id="Vector_68" d="M21.7958 21.7991C21.4429 21.7991 21.0555 21.7166 20.6887 21.4693C19.8254 20.8864 19.7252 19.8376 19.7149 19.5303L19.7108 19.4033L23.1274 17.2998L23.1617 21.4209L23.046 21.4837C22.9602 21.5298 22.4346 21.7991 21.7958 21.7991ZM20.1609 19.6403C20.1919 19.9606 20.3287 20.6977 20.9341 21.106C21.6196 21.5689 22.4183 21.2914 22.7218 21.1549L22.6961 18.0795L20.1609 19.6403Z" fill="black"/>
</g>
</g>
<g id="Group_9">
<path id="Vector_69" d="M15.6461 24.6842L2.86426 47.9243L3.24771 48.1352L16.0295 24.8951L15.6461 24.6842Z" fill="black"/>
</g>
<g id="Group_10">
<path id="Vector_70" d="M17.9934 26.3762L5.10571 49.3105L5.48748 49.5251L18.3752 26.5908L17.9934 26.3762Z" fill="black"/>
</g>
<g id="Group_11">
<path id="Vector_71" d="M20.6106 27.3645L7.38538 50.8306L7.76711 51.0457L20.9924 27.5797L20.6106 27.3645Z" fill="black"/>
</g>
</g>
</g>
<g id="Group_12">
<g id="Group_13">
<g id="Group_14">
<path id="Vector_72" d="M1.17066 48.4214C1.17066 48.4214 -1.54282 52.5957 2.19877 55.0076C5.94173 57.4203 8.32075 52.8938 8.32075 52.8938L1.17066 48.4214Z" fill="#E75688"/>
<path id="Vector_73" d="M4.37035 55.9348C3.61454 55.9348 2.84759 55.6864 2.07983 55.1915C0.997155 54.4938 0.329032 53.5843 0.0944693 52.4886C-0.35348 50.396 0.931999 48.387 0.986838 48.3023L1.10439 48.1221L8.60876 52.816L8.51429 52.9958C8.46515 53.0889 7.29152 55.2841 5.25566 55.8195C4.96273 55.8966 4.66735 55.9348 4.37035 55.9348ZM1.24529 48.7267C0.951274 49.2555 0.186774 50.8323 0.523415 52.3996C0.733544 53.3761 1.33705 54.1916 2.31738 54.8237C3.2798 55.444 4.23135 55.6381 5.14435 55.396C6.67824 54.9925 7.71015 53.4847 8.02507 52.9675L1.24529 48.7267Z" fill="black"/>
</g>
<g id="Group_15">
<g id="Group_16">
<path id="Vector_74" d="M1.98401 52.7763C1.25344 52.163 0.994177 50.8485 1.59877 49.7232C1.72637 49.4862 1.43751 49.3467 1.31046 49.5831C0.623329 50.861 0.894814 52.4001 1.73044 53.1013C1.88953 53.2351 2.14391 52.9107 1.98401 52.7763Z" fill="white"/>
</g>
<g id="Group_17">
<path id="Vector_75" d="M2.442 53.0856C2.25657 52.9955 2.07278 53.371 2.25847 53.4614C2.44417 53.5515 2.62796 53.176 2.442 53.0856Z" fill="white"/>
</g>
</g>
</g>
<g id="Group_18">
<path id="Vector_76" d="M1.77337 47.2937L8.94463 51.7463L8.327 52.8803L1.17773 48.4328L1.77337 47.2937Z" fill="black"/>
<path id="Vector_77" d="M8.40814 53.1885L0.889648 48.5111L1.6889 46.9829L9.23616 51.6693L8.40814 53.1885ZM1.46601 48.3542L8.24579 52.572L8.65329 51.8235L1.85803 47.6041L1.46601 48.3542Z" fill="black"/>
</g>
</g>
<g id="Group_19">
<g id="Group_20">
<path id="Vector_78" d="M3.40112 42.3428C3.40112 42.3428 9.44219 45.6275 9.73187 42.4106C10.0215 39.1938 3.47741 36.8088 3.47741 36.8088" fill="white"/>
<path id="Vector_79" d="M8.00417 44.0392C6.08912 44.0392 3.43264 42.6093 3.29663 42.5354L3.50567 42.1508C3.54395 42.1717 7.38464 44.2387 8.92043 43.4153C9.27499 43.2256 9.46883 42.8906 9.51362 42.3918C9.78511 39.3792 3.46631 37.0382 3.40251 37.0151L3.55237 36.6035C3.8263 36.7034 10.2512 39.0849 9.9499 42.4312C9.89153 43.0792 9.61461 43.5405 9.12703 43.8017C8.81184 43.97 8.42606 44.0392 8.00417 44.0392Z" fill="black"/>
</g>
<g id="Group_21">
<path id="Vector_80" d="M10.6017 29.8938C10.6017 29.8938 17.6052 34.6263 11.796 37.304C11.796 37.304 9.68247 34.1751 7.39332 32.9882C7.39332 32.9882 17.217 39.6854 9.73161 42.4103C9.73161 42.4103 9.67351 39.6735 5.0105 37.5201" fill="white"/>
<path id="Vector_81" d="M10.6802 29.8938C10.6802 29.8938 17.6837 34.6263 11.8745 37.304C11.8745 37.304 9.76096 34.1751 7.47181 32.9882C7.47181 32.9882 17.2955 39.6854 9.8101 42.4103C9.8101 42.4103 9.75201 39.6735 5.08899 37.5201" fill="white"/>
<path id="Vector_82" d="M9.58312 42.5003L9.57389 42.1968C9.57308 42.1708 9.11807 39.5518 4.65649 37.4915L5.04064 37.2392C8.92911 39.0343 9.82176 41.0954 9.97379 41.8876C11.4412 41.3028 12.2467 40.5109 12.3694 39.5308C12.4573 38.8277 12.2016 38.0749 11.7648 37.3394L11.6757 37.2072C11.6659 37.1928 11.2014 36.5109 10.4825 35.6725C9.06241 34.1419 7.74571 33.3025 6.96357 32.9984L7.41722 32.8045C8.66279 33.4501 9.97976 34.4055 10.8162 35.3823C11.2275 35.8289 11.6176 36.3072 11.9426 36.8013C13.1933 36.1862 13.8639 35.4255 13.9361 34.5374C14.118 32.3009 11.246 30.2768 10.434 30.1236L10.4682 29.7881L11.196 29.9331C11.351 30.0376 14.4728 32.0373 14.3724 34.5733C14.2877 35.6158 13.5484 36.4908 12.1739 37.1757C12.6341 37.972 12.9023 38.7973 12.8037 39.5854C12.6517 40.797 11.664 41.7432 9.86737 42.3972L9.58312 42.5003Z" fill="black"/>
</g>
</g>
<g id="Group_22">
<path id="Vector_83" d="M15.2666 40.004C15.2666 40.004 6.68855 39.1858 7.82281 35.8517C8.16787 34.8377 9.13082 34.1655 10.1972 34.0659C11.8315 33.913 15.0402 34.0094 18.2071 34.9126C19.6739 35.331 20.7118 36.7261 20.5774 38.2456C20.5101 39.0085 20.2343 40.1498 19.7019 41.2895" fill="white"/>
<path id="Vector_84" d="M19.9041 41.4223L19.4736 41.3268C19.9318 40.3451 20.282 39.1055 20.3597 38.227C20.4832 36.8296 19.5528 35.5246 18.1471 35.1236C14.8513 34.1837 11.6119 34.1536 10.2178 34.2845C9.19489 34.38 8.33618 35.0232 8.03022 35.9226C7.87004 36.3939 7.91837 36.8185 8.17872 37.2211C9.46338 39.2084 15.7013 39.8366 15.7591 39.8423L15.5343 40.2495C15.2884 40.2262 9.21009 39.6235 7.81113 37.4592C7.47802 36.9439 7.41232 36.3795 7.61539 35.782C7.97674 34.7191 8.98231 33.9606 10.1768 33.8485C12.0873 33.6701 15.3288 33.8653 18.2671 34.7028C19.8743 35.1616 20.9374 36.66 20.7957 38.2658C20.714 39.1918 20.3828 40.3969 19.9041 41.4223Z" fill="black"/>
</g>
<path id="Vector_85" d="M126.605 88.4667C126.662 91.4079 122.092 91.608 122.041 88.6665C121.921 82.5098 120.99 76.4041 119.522 70.4244C118.985 68.2139 118.374 66.0209 117.695 63.8506L119.254 54.324C119.945 56.1516 120.602 57.9963 121.219 59.8642C124.291 69.1049 126.416 78.7513 126.605 88.4667Z" fill="black"/>
<path id="Vector_86" d="M120.239 88.3074C120.239 88.3074 117.964 85.9504 120.124 85.1742C121.77 84.5829 125.497 84.3739 127.179 84.3079C127.955 84.2775 128.703 84.6435 129.053 85.3037C129.28 85.731 129.132 86.9416 128.749 87.5614C129.702 88.5813 131.479 89.8752 132.072 92.7158C132.515 94.8407 132.468 97.189 131.816 99.2963C131.48 100.38 130.953 101.386 130.01 102.097C129.485 102.492 128.852 102.808 128.188 102.869C127.857 102.899 127.526 102.861 127.222 102.739C127.133 102.704 126.521 102.436 126.521 102.436C126.521 102.436 123.861 104.66 122.214 101.758C122.214 101.758 117.797 104.93 118.214 97.9997C118.239 97.58 116.306 97.4103 115.314 95.9225C115.167 95.7018 114.166 94.1519 114.567 92.3677C115.045 90.2447 117.348 88.5061 120.239 88.3074Z" fill="white"/>
<path id="Vector_87" d="M124.414 103.47C124.27 103.47 124.123 103.458 123.974 103.431C123.248 103.3 122.633 102.841 122.143 102.066C121.646 102.371 120.325 103.057 119.275 102.476C118.279 101.928 117.849 100.417 117.995 97.9867C117.957 97.959 117.668 97.8327 117.435 97.7306C116.773 97.4418 115.773 97.0052 115.132 96.0439C114.93 95.7415 113.943 94.1405 114.353 92.3194C114.844 90.1427 117.052 88.4624 119.797 88.1296C119.421 87.6553 118.827 86.7551 119.008 85.9794C119.115 85.5182 119.466 85.1783 120.05 84.9682C121.682 84.3823 125.211 84.1659 127.17 84.0894C128.045 84.0438 128.87 84.4906 129.247 85.2014C129.496 85.6713 129.372 86.8251 129.019 87.5272C129.145 87.6575 129.283 87.7927 129.43 87.9358C130.42 88.9047 131.777 90.2322 132.286 92.6713C132.756 94.9227 132.663 97.2984 132.025 99.3615C131.62 100.67 131.004 101.622 130.141 102.272C129.701 102.604 129.008 103.014 128.208 103.088C127.827 103.121 127.469 103.073 127.141 102.943C127.076 102.917 126.736 102.769 126.552 102.689C126.256 102.908 125.4 103.47 124.414 103.47ZM122.284 101.439L122.404 101.65C122.845 102.427 123.399 102.881 124.05 103C125.225 103.213 126.369 102.277 126.38 102.268L126.484 102.182L126.608 102.236C126.608 102.236 127.214 102.501 127.302 102.536C127.566 102.641 127.859 102.68 128.167 102.652C128.865 102.588 129.482 102.22 129.877 101.922C130.664 101.33 131.229 100.45 131.606 99.2322C132.223 97.239 132.312 94.9409 131.857 92.7606C131.375 90.4522 130.073 89.1786 129.123 88.2491C128.928 88.0585 128.747 87.8812 128.588 87.7112L128.474 87.5891L128.562 87.4468C128.913 86.8781 129.039 85.7452 128.859 85.4069C128.561 84.8441 127.897 84.4985 127.187 84.5273C125.63 84.5884 121.832 84.7936 120.197 85.3808C119.756 85.5394 119.507 85.7677 119.434 86.0785C119.267 86.7904 120.072 87.8193 120.396 88.1559L120.722 88.4939L120.254 88.5262C117.548 88.7119 115.246 90.3479 114.78 92.4161C114.409 94.0626 115.311 95.5248 115.496 95.8009C116.065 96.6556 116.994 97.0609 117.609 97.3294C118.116 97.5506 118.451 97.6967 118.432 98.013C118.298 100.227 118.663 101.638 119.485 102.093C120.534 102.673 122.07 101.591 122.086 101.58L122.284 101.439Z" fill="black"/>
<path id="Vector_88" d="M122.467 101.808L122.027 101.656L122.425 99.0068L122.858 99.0715L122.467 101.808Z" fill="black"/>
<path id="Vector_89" d="M126.474 99.6466L126.295 102.422L126.732 102.45L126.911 99.6748L126.474 99.6466Z" fill="black"/>
<path id="Vector_90" d="M118.375 94.1307L118 97.9741L118.435 98.0167L118.811 94.1732L118.375 94.1307Z" fill="black"/>
<path id="Vector_91" d="M123.013 87.8113L120.217 88.092L120.261 88.5278L123.057 88.247L123.013 87.8113Z" fill="black"/>
<path id="Vector_92" d="M128.724 87.3418L126.687 87.5859L126.74 88.021L128.777 87.7769L128.724 87.3418Z" fill="black"/>
<g id="Group_23">
<path id="Vector_93" d="M120.617 98.4217C121.344 98.4608 121.437 97.3678 120.708 97.3287C119.981 97.2896 119.889 98.3826 120.617 98.4217Z" fill="black"/>
</g>
<g id="Group_24">
<path id="Vector_94" d="M125.155 98.5323C125.882 98.5714 125.974 97.4784 125.246 97.439C124.519 97.4002 124.427 98.4932 125.155 98.5323Z" fill="black"/>
</g>
<g id="Group_25">
<path id="Vector_95" d="M129.696 98.5926C130.423 98.6317 130.516 97.5387 129.787 97.4996C129.06 97.4602 128.968 98.5535 129.696 98.5926Z" fill="black"/>
</g>
<path id="Vector_96" d="M113.75 14.0006L110.329 24.2883L112.332 24.9542L115.753 14.6665L113.75 14.0006Z" fill="#F6D117"/>
<path id="Vector_97" d="M137.852 30.6881L129.485 36.1255L130.635 37.8945L139.002 32.4571L137.852 30.6881Z" fill="#F6D117"/>
<path id="Vector_98" d="M127.029 19.6748L120.757 29.481L122.535 30.618L128.807 20.8118L127.029 19.6748Z" fill="#F6D117"/>
</g>
<path id="Vector_99" d="M49.937 117.193L49.9137 116.755C52.2577 116.63 53.6347 115.666 53.6482 115.656L53.9032 116.012C53.844 116.055 52.4171 117.06 49.937 117.193Z" fill="black"/>
<path id="Vector_100" d="M88.3978 119.611L88.3451 119.176C90.6747 118.892 91.983 117.837 91.9957 117.826L92.2748 118.164C92.2181 118.21 90.8631 119.31 88.3978 119.611Z" fill="black"/>
</g>
</g>
<defs>
<clipPath id="clip0_5412_59525">
<rect width="139" height="139" fill="white"/>
</clipPath>
</defs>
</svg>
