<svg width="41" height="40" viewBox="0 0 41 40" fill="none" xmlns="http://www.w3.org/2000/svg">
<g id="book (2) 1" clip-path="url(#clip0_1462_20146)">
<g id="Group">
<g id="Group_2">
<g id="Group_3">
<path id="Vector" d="M23.1552 8.6393C23.122 8.97305 23.0686 9.2975 22.9966 9.60914C21.2856 10.2434 19.9599 11.0509 19.0454 11.6981C17.7345 11.0196 16.3756 10.6416 15.048 10.4684C14.836 10.037 14.659 9.5686 14.5244 9.07446C14.4119 8.66883 14.3289 8.24477 14.2755 7.80594C13.8587 4.36547 15.5034 1.3361 17.9502 1.0411C20.395 0.744222 22.7163 3.29235 23.133 6.73282C23.2124 7.38922 23.2161 8.02907 23.1552 8.6393Z" fill="#765AFF"/>
<path id="Vector_2" d="M19.051 11.7791L19.0136 11.7598C17.8074 11.1354 16.4703 10.724 15.0392 10.5371L15.0025 10.5323L14.9861 10.499C14.7698 10.0591 14.5921 9.58608 14.4578 9.09287C14.3453 8.68702 14.2609 8.25686 14.207 7.81444C14.0037 6.13616 14.2778 4.50139 14.9784 3.21108C15.6834 1.91303 16.7359 1.11811 17.9421 0.97264C19.1491 0.825531 20.359 1.34733 21.3534 2.43905C22.3421 3.52475 22.9986 5.04678 23.2017 6.72475C23.2795 7.36787 23.287 8.01451 23.2241 8.64631C23.1911 8.97889 23.1373 9.30819 23.064 9.62491L23.0557 9.66131L23.0206 9.67428C21.6337 10.1885 20.3095 10.8884 19.0855 11.7548L19.051 11.7791ZM15.0941 10.4047C16.5123 10.594 17.8394 11.002 19.0398 11.6178C20.2537 10.7629 21.5648 10.0698 22.9375 9.55756C23.0052 9.2578 23.0552 8.94678 23.0864 8.63264C23.1484 8.01092 23.1409 7.37459 23.0645 6.74131C22.8646 5.09162 22.2207 3.59678 21.2511 2.53233C20.2876 1.47412 19.118 0.969281 17.9586 1.10991C16.7981 1.24998 15.783 2.01952 15.0998 3.27725C14.4127 4.54248 14.1443 6.14787 14.3441 7.79795C14.3973 8.23334 14.4802 8.65662 14.5912 9.05616C14.7199 9.52881 14.889 9.98217 15.0941 10.4047Z" fill="black"/>
</g>
<g id="Group_4">
<path id="Vector_3" d="M15.7499 2.36366L15.6123 2.37793L16.4824 10.7639L16.6199 10.7496L15.7499 2.36366Z" fill="black"/>
</g>
<g id="Group_5">
<path id="Vector_4" d="M18.9932 11.6948L17.8335 1.05625L17.9714 1.04688L19.1308 11.6798L18.9932 11.6948Z" fill="black"/>
</g>
<g id="Group_6">
<path id="Vector_5" d="M20.4367 1.70214L20.2991 1.7168L21.2194 10.3588L21.357 10.3441L20.4367 1.70214Z" fill="black"/>
</g>
<g id="Group_7">
<path id="Vector_6" d="M23.3102 9.49621C23.2032 9.53309 23.1 9.56996 22.9967 9.60871C21.2857 10.243 19.96 11.0505 19.0455 11.6977C17.7345 11.0192 16.3757 10.6412 15.0481 10.4679C14.8453 10.4403 14.6444 10.4182 14.4452 10.4015C14.4397 10.3739 14.436 10.3443 14.4323 10.3167C14.3807 9.89262 14.4158 9.4741 14.5245 9.07395C14.9449 7.53621 16.466 6.28246 18.4094 6.04645C20.609 5.78098 22.5948 6.90934 23.1552 8.63879C23.2198 8.83426 23.264 9.03707 23.2898 9.24543C23.3009 9.3284 23.3083 9.41324 23.3102 9.49621Z" fill="#F6D117"/>
<path id="Vector_7" d="M19.051 11.7784L19.0136 11.7591C17.8074 11.1347 16.4703 10.7233 15.0392 10.5364C14.8369 10.5088 14.6352 10.4867 14.4395 10.4704L14.3874 10.4662L14.3773 10.4147C14.372 10.3868 14.368 10.357 14.3644 10.329C14.3123 9.90225 14.3438 9.47514 14.4578 9.05576C14.8973 7.44787 16.482 6.21084 18.401 5.97787C20.6117 5.71123 22.6387 6.82092 23.2209 8.61748C23.2852 8.81178 23.3315 9.02029 23.3585 9.23685C23.3704 9.32709 23.3774 9.41404 23.3792 9.49467L23.3803 9.54506L23.3326 9.56146C23.2262 9.59818 23.1237 9.6349 23.0209 9.67349C21.6335 10.1877 20.3094 10.8876 19.0854 11.754L19.051 11.7784ZM14.5048 10.3372C14.6859 10.3533 14.8716 10.374 15.0576 10.3992C16.4894 10.5863 17.829 10.9959 19.0399 11.6171C20.2643 10.7548 21.5872 10.0574 22.9727 9.54389C23.0608 9.51092 23.1488 9.47904 23.2392 9.44756C23.2363 9.38631 23.2304 9.3217 23.2214 9.25435C23.1955 9.04639 23.1512 8.8467 23.0896 8.66053C22.5277 6.92639 20.5627 5.8556 18.4177 6.11506C16.5539 6.34154 15.0162 7.53787 14.5912 9.09209C14.4821 9.49396 14.4517 9.90326 14.501 10.3083C14.5023 10.3182 14.5035 10.3277 14.5048 10.3372Z" fill="black"/>
</g>
<g id="Group_8">
<path id="Vector_8" d="M18.338 0.547898C18.3538 0.827586 18.1399 1.0672 17.8602 1.08305C17.5805 1.09891 17.3409 0.885008 17.3251 0.60532C17.3092 0.325633 17.5231 0.0860232 17.8028 0.0701638C18.0825 0.0543044 18.3221 0.268211 18.338 0.547898Z" fill="#E75688"/>
<path id="Vector_9" d="M17.8313 1.15294C17.5283 1.15294 17.2735 0.915437 17.2562 0.609187C17.2474 0.455437 17.2989 0.30739 17.4016 0.192703C17.504 0.0778591 17.6452 0.00973407 17.799 0.00114032C17.9542 -0.00854718 18.1005 0.0437966 18.2155 0.146453C18.3303 0.248875 18.3984 0.390047 18.407 0.543875C18.4159 0.697625 18.3641 0.845437 18.2616 0.960359C18.1591 1.0752 18.018 1.14333 17.8644 1.15192C17.8531 1.15255 17.8421 1.15294 17.8313 1.15294ZM17.8324 0.138328C17.824 0.138328 17.8155 0.138718 17.8069 0.139031C17.6898 0.145672 17.5827 0.19739 17.5048 0.284734C17.4268 0.372078 17.3876 0.484422 17.3942 0.601297C17.408 0.842547 17.617 1.02661 17.8564 1.01395C17.9733 1.00731 18.0805 0.955594 18.1584 0.86825C18.2363 0.780906 18.2755 0.668406 18.2691 0.551687C18.2624 0.434812 18.2107 0.327547 18.1234 0.249578C18.0423 0.17739 17.9399 0.138328 17.8324 0.138328Z" fill="black"/>
</g>
</g>
<g id="Group_9">
<g id="Group_10">
<g id="Group_11">
<g id="Group_12">
<g id="Group_13">
<path id="Vector_10" d="M18.4532 37.2326C18.4532 37.2326 19.3395 36.2669 17.3167 36.5016C15.148 36.7532 16.6413 37.46 16.6413 37.46L16.3434 37.6899C16.3434 37.6899 13.7509 36.1897 13.1409 38.1345C12.531 40.0794 15.0863 40.0345 16.6291 39.8428C18.172 39.6511 19.8739 39.7658 18.4532 37.2326Z" fill="#ED6122"/>
<path id="Vector_11" d="M15.3305 40.0001C14.4544 40.0001 13.6188 39.8534 13.2199 39.3751C12.9592 39.0627 12.9104 38.6383 13.075 38.1138C13.2227 37.6429 13.4965 37.3268 13.8888 37.1741C14.8123 36.8143 16.0895 37.4712 16.3373 37.6073L16.5135 37.4712C16.3455 37.3767 16.0359 37.1682 16.0744 36.9337C16.1154 36.685 16.5076 36.5261 17.3088 36.4332C18.1036 36.3406 18.5521 36.4184 18.6805 36.6697C18.7905 36.8853 18.6138 37.1438 18.5368 37.2407C19.0314 38.1341 19.1691 38.7668 18.9581 39.174C18.6879 39.6957 17.9125 39.7761 17.0916 39.8612C16.9408 39.8769 16.7884 39.8927 16.6375 39.9115C16.2255 39.9627 15.7729 40.0001 15.3305 40.0001ZM14.5001 37.2072C14.3047 37.2072 14.1137 37.235 13.9387 37.303C13.5876 37.4399 13.3413 37.7265 13.2067 38.1552C13.0573 38.6318 13.0974 39.0125 13.3261 39.2865C13.9158 39.9936 15.6429 39.8955 16.6206 39.7743C16.7723 39.7554 16.9256 39.7395 17.0774 39.7236C17.8602 39.6425 18.5993 39.5657 18.8353 39.1104C19.0266 38.7415 18.8818 38.1384 18.3929 37.2666L18.3684 37.223L18.4023 37.1861C18.4713 37.1105 18.6337 36.8818 18.5571 36.7324C18.5018 36.6247 18.2681 36.4612 17.3246 36.5704C16.3583 36.6825 16.2238 36.8775 16.2108 36.9562C16.1859 37.1069 16.4798 37.307 16.6709 37.3975L16.7727 37.4458L16.3489 37.773L16.3088 37.7498C16.2973 37.7431 15.3579 37.2072 14.5001 37.2072Z" fill="black"/>
</g>
<g id="Group_14">
<path id="Vector_12" d="M18.4532 37.2334C18.4532 37.2334 18.1391 37.4582 17.5934 37.4866L18.4532 37.2334Z" fill="black"/>
<path id="Vector_13" d="M17.5969 37.5552L17.5897 37.4173C18.1065 37.3903 18.4102 37.1789 18.4131 37.1768L18.4934 37.2893C18.4801 37.2989 18.1565 37.526 17.5969 37.5552Z" fill="black"/>
</g>
<g id="Group_15">
<path id="Vector_14" d="M17.0113 37.515C17.0113 37.515 16.8935 37.5434 16.6413 37.46L17.0113 37.515Z" fill="black"/>
<path id="Vector_15" d="M16.9521 37.5891C16.886 37.5891 16.7764 37.5778 16.6195 37.5259L16.6631 37.3945C16.8873 37.4688 16.9952 37.4482 16.9963 37.4478L17.0276 37.5825C17.022 37.584 16.9971 37.5891 16.9521 37.5891Z" fill="black"/>
</g>
<g id="Group_16">
<g id="Group_17">
<path id="Vector_16" d="M16.3473 37.6846C16.5334 37.7006 16.6783 37.7756 16.8131 37.8653C16.9438 37.9608 17.0647 38.0706 17.1448 38.2389L17.1369 38.2502L16.7342 37.9787L16.3395 37.6959L16.3473 37.6846Z" fill="black"/>
</g>
</g>
<g id="Group_18">
<g id="Group_19">
<path id="Vector_17" d="M16.3502 37.6885C16.4701 37.7993 16.52 37.9257 16.5524 38.056C16.5779 38.1878 16.5863 38.3235 16.5253 38.4746L16.5118 38.4775L16.4175 38.0861L16.3366 37.6915L16.3502 37.6885Z" fill="black"/>
</g>
</g>
<g id="Group_20">
<path id="Vector_18" d="M14.2016 37.4999C14.0816 37.6095 13.9802 37.7254 13.8892 37.8404C13.8013 37.9582 13.7285 38.0813 13.6819 38.2135C13.6338 38.3443 13.5991 38.4828 13.5932 38.63C13.5813 38.7771 13.5899 38.9299 13.5942 39.0951L13.5812 39.0997C13.5596 39.0235 13.5334 38.9482 13.5155 38.871C13.5057 38.7923 13.482 38.7149 13.4846 38.6348C13.4699 38.4757 13.5006 38.3148 13.5527 38.1646C13.6659 37.8628 13.9122 37.6269 14.1961 37.4873L14.2016 37.4999Z" fill="white"/>
</g>
</g>
</g>
<g id="Group_21">
<path id="Vector_19" d="M15.171 31.901C15.2795 30.1326 16.0937 28.6096 17.1862 27.2521C17.7669 26.5307 18.7794 27.5545 18.2037 28.2696C17.3032 29.3885 16.6201 30.7099 16.5997 32.1738C16.5796 33.6167 17.1909 34.8983 18.0048 36.0554C18.5386 36.8145 17.2915 37.5342 16.7623 36.7817C15.7579 35.3535 15.062 33.6764 15.171 31.901Z" fill="black"/>
<path id="Vector_20" d="M17.3612 37.1702C17.1215 37.1702 16.879 37.0677 16.7058 36.8214C15.5426 35.1672 15.003 33.5103 15.102 31.8965C15.1989 30.3194 15.863 28.786 17.1323 27.2085C17.2985 27.0019 17.518 26.9082 17.7487 26.944C18.0187 26.9859 18.2748 27.2065 18.3857 27.493C18.4954 27.7764 18.4487 28.0752 18.2575 28.3127C17.2211 29.6005 16.6865 30.8998 16.6688 32.1744C16.6513 33.4193 17.0939 34.6397 18.0614 36.0153C18.3416 36.4136 18.1734 36.7982 17.8826 37.0027C17.7335 37.1077 17.5483 37.1702 17.3612 37.1702ZM15.2399 31.9052C15.1429 33.4868 15.6742 35.1141 16.8188 36.7419C17.0758 37.107 17.5178 37.0906 17.8032 36.8899C18.0205 36.737 18.1889 36.4373 17.9484 36.0952C16.9633 34.6945 16.5127 33.4481 16.5306 32.1728C16.5488 30.8665 17.0935 29.5386 18.1498 28.2262C18.368 27.9552 18.3105 27.6819 18.2566 27.543C18.163 27.3012 17.9504 27.1154 17.7274 27.0809C17.5447 27.0519 17.3759 27.1268 17.24 27.2955C15.9891 28.8495 15.335 30.3573 15.2399 31.9052Z" fill="black"/>
</g>
</g>
<g id="Group_22">
<g id="Group_23">
<g id="Group_24">
<g id="Group_25">
<path id="Vector_21" d="M24.805 36.969C24.805 36.969 23.9188 36.0032 25.9415 36.2379C28.1102 36.4895 26.617 37.1964 26.617 37.1964L26.9148 37.4262C26.9148 37.4262 29.5073 35.926 30.1173 37.8708C30.7272 39.8157 28.1719 39.7708 26.6291 39.5791C25.0863 39.3875 23.3843 39.5022 24.805 36.969Z" fill="#ED6122"/>
<path id="Vector_22" d="M27.9278 39.7364C27.4852 39.7364 27.0326 39.699 26.6206 39.6478C26.4698 39.6291 26.3174 39.6132 26.1665 39.5976C25.3456 39.5124 24.5703 39.4321 24.3 38.9103C24.089 38.5032 24.2269 37.8705 24.7215 36.977C24.6445 36.8802 24.4678 36.6218 24.5778 36.4063C24.7062 36.1547 25.1547 36.077 25.9493 36.1695C26.7505 36.2624 27.1429 36.4213 27.1839 36.6702C27.2224 36.9044 26.9127 37.1131 26.7448 37.2077L26.9209 37.3436C27.1686 37.2075 28.4448 36.5506 29.3695 36.9104C29.7618 37.0631 30.0355 37.3792 30.1831 37.8501C30.3477 38.3746 30.2989 38.799 30.0384 39.1114C29.6396 39.5895 28.8038 39.7364 27.9278 39.7364ZM25.3829 36.2707C24.8901 36.2707 24.7431 36.3865 24.701 36.4691C24.6102 36.6469 24.8535 36.9196 24.856 36.9224L24.8898 36.9592L24.8654 37.003C24.3763 37.8748 24.2316 38.4778 24.4228 38.8467C24.6588 39.3021 25.3982 39.3788 26.1807 39.46C26.3325 39.4759 26.4859 39.4917 26.6375 39.5106C27.6147 39.6318 29.3423 39.7301 29.9322 39.0229C30.1607 38.7488 30.2009 38.3682 30.0514 37.8916C29.9169 37.4628 29.6708 37.1762 29.3195 37.0394C28.3759 36.672 26.9636 37.4778 26.9494 37.4861L26.9092 37.5093L26.4855 37.1825L26.5874 37.1341C26.7784 37.0433 27.0723 36.8433 27.0475 36.6926C27.0345 36.6139 26.8998 36.4189 25.9335 36.3067C25.7137 36.2813 25.5323 36.2707 25.3829 36.2707Z" fill="black"/>
</g>
<g id="Group_26">
<path id="Vector_23" d="M24.805 36.9697C24.805 36.9697 25.1191 37.1945 25.6648 37.2229L24.805 36.9697Z" fill="black"/>
<path id="Vector_24" d="M25.6613 37.2915C25.1018 37.2624 24.7783 37.0353 24.7649 37.0256L24.8452 36.9131C24.8481 36.9153 25.1519 37.1266 25.6684 37.1536L25.6613 37.2915Z" fill="black"/>
</g>
<g id="Group_27">
<path id="Vector_25" d="M26.247 37.2513C26.247 37.2513 26.3648 37.2797 26.617 37.1963L26.247 37.2513Z" fill="black"/>
<path id="Vector_26" d="M26.3064 37.3253C26.2612 37.3253 26.2363 37.3201 26.2308 37.3187L26.2621 37.184C26.2628 37.1844 26.3707 37.2051 26.5954 37.1309L26.6386 37.2623C26.4821 37.314 26.3725 37.3253 26.3064 37.3253Z" fill="black"/>
</g>
<g id="Group_28">
<g id="Group_29">
<path id="Vector_27" d="M26.9188 37.4322C26.8389 37.601 26.7181 37.7107 26.5871 37.8058C26.452 37.895 26.307 37.97 26.1213 37.9865L26.1134 37.9752L26.5082 37.6924L26.9109 37.4209L26.9188 37.4322Z" fill="black"/>
</g>
</g>
<g id="Group_30">
<g id="Group_31">
<path id="Vector_28" d="M26.9216 37.4278C26.9831 37.579 26.9746 37.7146 26.9487 37.8464C26.9158 37.9765 26.8659 38.1029 26.7464 38.2139L26.7329 38.2109L26.8138 37.8164L26.908 37.4248L26.9216 37.4278Z" fill="black"/>
</g>
</g>
<g id="Group_32">
<path id="Vector_29" d="M29.0621 37.2236C29.2262 37.2527 29.3817 37.3291 29.5113 37.4401C29.643 37.5493 29.7462 37.6974 29.8089 37.8617C29.8656 38.0268 29.8943 38.2061 29.8614 38.375C29.8564 38.4605 29.8203 38.5397 29.797 38.6188C29.7602 38.6945 29.7231 38.7682 29.677 38.8361L29.664 38.8314C29.6843 38.7554 29.7091 38.6804 29.7257 38.6037C29.7343 38.5257 29.7567 38.449 29.7529 38.3702C29.7652 38.2133 29.7325 38.0564 29.6798 37.9107C29.5741 37.6151 29.3345 37.3779 29.0566 37.2363L29.0621 37.2236Z" fill="white"/>
</g>
</g>
</g>
<g id="Group_33">
<path id="Vector_30" d="M28.188 31.6979C28.0795 29.9294 27.2653 28.4065 26.1727 27.049C25.5921 26.3276 24.5796 27.3513 25.1552 28.0665C26.0558 29.1853 26.7388 30.5068 26.7592 31.9706C26.7793 33.4136 26.168 34.6951 25.3541 35.8523C24.8203 36.6113 26.0674 37.3311 26.5966 36.5785C27.6011 35.1504 28.297 33.4733 28.188 31.6979Z" fill="black"/>
<path id="Vector_31" d="M25.9958 36.9659C25.9705 36.9659 25.945 36.9648 25.9192 36.9624C25.6149 36.9351 25.3315 36.7469 25.2143 36.4941C25.1127 36.2751 25.1423 36.033 25.2977 35.8122C26.2649 34.4364 26.7075 33.216 26.69 31.9713C26.6723 30.6967 26.1377 29.3974 25.1013 28.1096C24.9101 27.8721 24.8634 27.5732 24.9731 27.2899C25.0841 27.0034 25.3401 26.7828 25.6102 26.7409C25.8416 26.705 26.0603 26.7988 26.2265 27.0054C27.4959 28.5825 28.1599 30.116 28.2568 31.6934C28.3559 33.3076 27.8164 34.9645 26.653 36.6181C26.4958 36.8418 26.2594 36.9659 25.9958 36.9659ZM25.707 26.8715C25.6822 26.8715 25.657 26.8735 25.6316 26.8774C25.4087 26.9121 25.196 27.0978 25.1023 27.3396C25.0485 27.4785 24.9909 27.7518 25.2091 28.0228C26.2655 29.3352 26.8102 30.6631 26.8284 31.9694C26.8462 33.2446 26.3957 34.4909 25.4108 35.8917C25.2496 36.1208 25.2833 36.314 25.3397 36.4359C25.437 36.6455 25.6748 36.8016 25.9317 36.8246C26.0751 36.8365 26.3441 36.8173 26.5402 36.5383C27.6848 34.9111 28.2159 33.2836 28.1191 31.7018C28.024 30.1538 27.3698 28.6459 26.119 27.092C26.002 26.9468 25.8608 26.8715 25.707 26.8715Z" fill="black"/>
</g>
</g>
</g>
<g id="Group_34">
<g id="Group_35">
<g id="Group_36">
<g id="Group_37">
<path id="Vector_32" d="M4.15062 13.0555L7.045 30.9557L36.1933 27.4801L33.8304 8.93652L19.2191 12.0137L4.15062 13.0555Z" fill="#E75688"/>
<path id="Vector_33" d="M6.98742 31.0323L4.07031 12.992L19.2145 11.9449L33.8895 8.85352L33.8991 8.92789L36.2708 27.5405L6.98742 31.0323ZM4.23094 13.1194L7.10266 30.8792L36.1159 27.4198L33.7713 9.01977L19.2334 12.0815L4.23094 13.1194Z" fill="black"/>
</g>
<g id="Group_38">
<g id="Group_39">
<g id="Group_40">
<path id="Vector_34" d="M34.6073 28.3609C34.6073 28.3609 25.63 30.7101 21.7213 29.5031C15.3431 32.6293 8.76875 31.6562 8.76875 31.6562L5.54375 12.0124C5.54375 12.0124 7.38922 11.1184 10.0153 10.64C10.6017 10.5339 11.2277 10.4476 11.8806 10.3972C14.111 10.2227 16.658 10.4638 19.0449 11.6995C20.1961 10.8828 21.9948 9.81797 24.3997 9.1543C27.7777 8.22258 30.6574 8.55352 32.2295 8.85391C33.0227 15.3562 33.8141 21.8586 34.6073 28.3609Z" fill="white"/>
<path id="Vector_35" d="M11.2582 31.8626C9.73852 31.8626 8.78367 31.7278 8.75883 31.7242L8.70875 31.7167L8.70063 31.6669L5.46719 11.9723L5.51367 11.9498C5.53219 11.941 7.39781 11.0463 10.003 10.5714C10.637 10.4567 11.267 10.3748 11.8753 10.3278C14.553 10.1186 16.9623 10.5525 19.0394 11.6183C20.6709 10.4667 22.4678 9.61534 24.3813 9.08721C26.909 8.38987 29.6274 8.28581 32.2426 8.78565L32.2921 8.79503L34.6834 28.4122L34.6249 28.4274C34.5351 28.4508 25.6235 30.757 21.7275 29.5771C17.7966 31.4969 13.7615 31.8624 11.2582 31.8626ZM8.82883 31.594C9.44844 31.6738 15.6956 32.3791 21.691 29.4407L21.7157 29.4287L21.7418 29.4368C25.4232 30.5733 33.7499 28.5074 34.5314 28.3088L32.1671 8.91221C29.5874 8.42698 26.9093 8.53339 24.418 9.22065C22.507 9.74823 20.7125 10.601 19.0849 11.7555L19.0505 11.7799L19.0131 11.7605C16.9509 10.6928 14.553 10.2575 11.8861 10.4659C11.2823 10.5125 10.657 10.5939 10.0277 10.7077C7.66953 11.1374 5.92321 11.9128 5.62047 12.0525L8.82883 31.594Z" fill="black"/>
</g>
<g id="Group_41">
<path id="Vector_36" d="M19.1478 11.6898L19.0109 11.71L21.6361 29.4979L21.7729 29.4777L19.1478 11.6898Z" fill="black"/>
</g>
<g id="Group_42">
<g id="Group_43">
<g id="Group_44">
<path id="Vector_37" d="M9.96102 19.804L9.94234 19.6668L17.3327 18.666L17.3515 18.8033L9.96102 19.804Z" fill="black"/>
</g>
<g id="Group_45">
<path id="Vector_38" d="M10.346 22.1907L10.3273 22.0535L17.7177 21.0527L17.7364 21.1899L10.346 22.1907Z" fill="black"/>
</g>
<g id="Group_46">
<path id="Vector_39" d="M10.8078 24.9621L10.7891 24.8249L18.1795 23.8242L18.1983 23.9614L10.8078 24.9621Z" fill="black"/>
</g>
<g id="Group_47">
<path id="Vector_40" d="M11.1928 27.8098L11.1741 27.6727L18.5645 26.6719L18.5832 26.8091L11.1928 27.8098Z" fill="black"/>
</g>
</g>
<g id="Group_48">
<g id="Group_49">
<path id="Vector_41" d="M23.3452 17.9484L23.3265 17.8112L30.7169 16.8105L30.7356 16.9477L23.3452 17.9484Z" fill="black"/>
</g>
<g id="Group_50">
<path id="Vector_42" d="M23.7302 20.3354L23.7114 20.1982L31.1019 19.1973L31.1205 19.3345L23.7302 20.3354Z" fill="black"/>
</g>
<g id="Group_51">
<path id="Vector_43" d="M24.192 23.1057L24.1733 22.9686L31.5637 21.9678L31.5824 22.105L24.192 23.1057Z" fill="black"/>
</g>
<g id="Group_52">
<path id="Vector_44" d="M24.577 25.9544L24.5582 25.8171L31.9484 24.8164L31.9672 24.9536L24.577 25.9544Z" fill="black"/>
</g>
</g>
</g>
</g>
<g id="Group_53">
<g id="Group_54">
<path id="Vector_45" d="M32.2296 8.85352L33.2382 9.28437L35.4283 27.5651L34.6065 28.3602L32.2296 8.85352Z" fill="white"/>
<path id="Vector_46" d="M34.5474 28.4472L34.5379 28.3685L32.1466 8.76758L32.292 8.79508L33.3022 9.23656L33.3069 9.27617L35.501 27.5908L34.6834 28.4122L34.5474 28.4472ZM32.3129 8.96437L34.6583 28.2138L35.3555 27.5394L33.1743 9.33242L32.3129 8.96437Z" fill="black"/>
</g>
<g id="Group_55">
<path id="Vector_47" d="M32.8326 9.08005L32.6954 9.09668L34.9836 27.979L35.1208 27.9624L32.8326 9.08005Z" fill="black"/>
</g>
</g>
<g id="Group_56">
<g id="Group_57">
<path id="Vector_48" d="M4.82 12.612L5.96008 19.6918L6.45727 22.7871L7.73961 30.7492L8.74742 31.5896L6.99297 20.8603L6.53594 18.0679L5.54484 12.0127L4.82 12.612Z" fill="white"/>
<path id="Vector_49" d="M8.84141 31.7354L8.70875 31.7172L7.68359 30.835L4.74555 12.5834L5.46719 11.9729L5.59391 11.9131L8.84141 31.7354ZM7.80375 30.7121L8.6493 31.4172L5.49602 12.1422L4.89461 12.6396L7.80375 30.7121Z" fill="black"/>
</g>
<g id="Group_58">
<path id="Vector_50" d="M5.24074 12.3039L5.10427 12.3262L8.19652 31.2458L8.33299 31.2235L5.24074 12.3039Z" fill="black"/>
</g>
</g>
</g>
</g>
<g id="Group_59">
<g id="Group_60">
<path id="Vector_51" d="M28.1238 13.3235L28.8923 12.285L27.6262 12.622L27.0716 11.2939L26.6945 12.61L25.2987 12.241L26.1437 13.3104L25.1616 14.0779L26.3646 14.273L26.1034 15.5429L27.0813 14.5375L28.2082 15.5663L27.8703 14.1869L29.2174 14.0791L28.1238 13.3235Z" fill="#46A831"/>
<path id="Vector_52" d="M28.3294 15.7701L27.0843 14.6332L25.9881 15.7602L26.2823 14.3293L24.9944 14.1202L26.0463 13.2982L25.1159 12.1205L26.6465 12.5254L27.0591 11.085L27.6666 12.5393L29.0653 12.1669L28.2217 13.3068L29.4163 14.1321L27.9567 14.2489L28.3294 15.7701ZM27.0785 14.441L28.087 15.3614L27.784 14.1241L29.0184 14.0253L28.0256 13.3394L28.7194 12.4022L27.5857 12.704L27.0837 11.5021L26.7423 12.6938L25.4813 12.3605L26.241 13.3218L25.3288 14.0346L26.4468 14.216L26.2188 15.325L27.0785 14.441Z" fill="black"/>
</g>
<g id="Group_61">
<path id="Vector_53" d="M12.8645 18.0257L11.8645 16.7757L11.2655 18.2254L10.0153 10.6403C10.6017 10.5342 11.2277 10.4479 11.8806 10.3975L12.8645 18.0257Z" fill="#4B9BF4"/>
<path id="Vector_54" d="M11.2366 18.4758L9.93617 10.5839L10.0031 10.5719C10.637 10.4572 11.267 10.3753 11.8752 10.3283L11.9407 10.3232L12.9645 18.2614L11.8834 16.91L11.2366 18.4758ZM10.0946 10.6959L11.2941 17.9745L11.8453 16.6407L12.7643 17.7896L11.8205 10.4714C11.2585 10.517 10.6786 10.5924 10.0946 10.6959Z" fill="black"/>
</g>
</g>
</g>
<g id="Group_62">
<g id="Group_63">
<g id="Group_64">
<g id="Group_65">
<g id="Group_66">
<path id="Vector_55" d="M25.2666 8.93995C25.2487 8.94355 25.2307 8.94714 25.2109 8.95253C24.9447 9.01191 24.673 9.07839 24.3996 9.15402C23.6784 9.35362 23.0128 9.58753 22.403 9.84292L21.036 10.4815C20.8975 9.98323 20.7986 9.43823 20.7482 8.8573C20.5216 6.27612 21.3436 4.03675 22.5811 3.85862C23.2682 3.76152 23.9391 4.3155 24.4373 5.27066C24.7305 5.82823 24.9644 6.52253 25.1083 7.30323C25.1623 7.59464 25.2055 7.90042 25.2324 8.21519C25.2541 8.45964 25.2648 8.70245 25.2666 8.93995Z" fill="white"/>
<path id="Vector_56" d="M20.9915 10.5785L20.9695 10.4998C20.8267 9.98648 20.7291 9.43586 20.6793 8.86312C20.4499 6.24906 21.2987 3.97312 22.5713 3.79C23.2651 3.69148 23.9673 4.22 24.4987 5.23836C24.8002 5.81218 25.0347 6.52179 25.1764 7.29047C25.2335 7.59906 25.2756 7.90804 25.3016 8.2089C25.3224 8.44726 25.334 8.69304 25.3358 8.93922L25.3362 8.99633L25.2791 9.00789C25.263 9.01109 25.2468 9.01437 25.2292 9.01906C24.9391 9.0839 24.6748 9.14961 24.418 9.22054C23.7313 9.4107 23.0622 9.64148 22.4298 9.90656L20.9915 10.5785ZM22.7355 3.91679C22.6873 3.91679 22.6391 3.92 22.5909 3.92687C21.3898 4.09976 20.5939 6.30882 20.8172 8.85109C20.8634 9.38625 20.9524 9.90133 21.0813 10.3839L22.3737 9.78015C23.0141 9.51187 23.6885 9.27906 24.3812 9.08726C24.6401 9.01562 24.9066 8.94953 25.1958 8.88484C25.1962 8.88484 25.1965 8.88468 25.1969 8.88468C25.1938 8.66086 25.1827 8.43781 25.1636 8.22078C25.1382 7.92437 25.0968 7.61992 25.0402 7.31562C24.9012 6.56047 24.6715 5.86437 24.3762 5.30257C23.9118 4.4125 23.3211 3.91679 22.7355 3.91679Z" fill="black"/>
</g>
<g id="Group_67">
<g id="Group_68">
<path id="Vector_57" d="M24.4779 5.32668L24.3976 5.21395C24.9478 4.82145 24.832 3.98254 24.8308 3.97426L24.9677 3.9541C24.9733 3.99191 25.0961 4.88551 24.4779 5.32668Z" fill="black"/>
</g>
<g id="Group_69">
<path id="Vector_58" d="M24.8296 6.11629L24.7925 5.98309C25.4693 5.79512 25.5403 4.86387 25.541 4.85449L25.6789 4.86371C25.6762 4.90598 25.6013 5.90207 24.8296 6.11629Z" fill="black"/>
</g>
<g id="Group_70">
<path id="Vector_59" d="M25.1287 7.36879L25.0887 7.23629C25.7677 7.03137 25.872 6.21629 25.873 6.20801L26.0102 6.22402C26.0059 6.26129 25.8953 7.13723 25.1287 7.36879Z" fill="black"/>
</g>
</g>
<g id="Group_71">
<path id="Vector_60" d="M25.2109 8.95191C24.9447 9.01128 24.673 9.07777 24.3996 9.15339C23.6784 9.353 23.0128 9.58691 22.403 9.8423C22.3257 9.38183 22.2699 8.84761 22.2412 8.41956C22.2322 8.30269 22.2268 8.18574 22.2232 8.07058L23.8295 7.60113L22.2484 6.99675C22.367 5.58832 22.9696 4.56847 23.592 4.61167C24.4087 4.66925 25.049 6.49855 25.1947 8.63003C25.2019 8.74144 25.2091 8.84753 25.2109 8.95191Z" fill="black"/>
<path id="Vector_61" d="M22.3495 9.93978L22.3348 9.85392C22.2641 9.43298 22.2048 8.91188 22.1723 8.42423C22.1633 8.30704 22.1577 8.18892 22.1541 8.07274L22.1524 8.01923L23.6129 7.59228L22.1752 7.04274L22.1795 6.99087C22.2992 5.57095 22.9259 4.49298 23.5969 4.54267C24.5125 4.60728 25.1284 6.6454 25.2637 8.62524L25.2649 8.64556C25.2718 8.75087 25.2783 8.85157 25.2801 8.95056L25.281 9.00712L25.2261 9.01938C24.9391 9.08329 24.6748 9.14899 24.418 9.21993C23.7313 9.41009 23.0621 9.64087 22.4298 9.90595L22.3495 9.93978ZM22.2942 8.12196C22.2977 8.21868 22.3027 8.31657 22.3102 8.41438C22.3403 8.86563 22.3934 9.34478 22.4573 9.74501C23.0709 9.49188 23.7179 9.27056 24.3813 9.08688C24.6236 9.01993 24.8724 8.95759 25.1404 8.89712C25.1377 8.81829 25.1325 8.73774 25.127 8.65462L25.1258 8.63462C24.9752 6.43196 24.3138 4.73204 23.5872 4.68079C23.0047 4.64618 22.4437 5.65454 22.322 6.95095L24.0462 7.61017L22.2942 8.12196Z" fill="black"/>
</g>
</g>
</g>
<g id="Group_72">
<g id="Group_73">
<g id="Group_74">
<path id="Vector_62" d="M16.3037 9.3068C16.0105 6.73102 14.7604 4.70212 13.512 4.77227C12.8195 4.81368 12.2727 5.49173 11.9741 6.52782C11.7979 7.1322 11.7079 7.85891 11.7223 8.65212C11.7277 8.94891 11.7475 9.25649 11.7835 9.56946C11.8141 9.85188 11.8591 10.127 11.913 10.3951C12.4059 10.3556 12.9149 10.3393 13.433 10.3501C14.3755 10.3663 15.3522 10.4706 16.3307 10.7027C16.3397 10.7027 16.3505 10.7063 16.3595 10.7081C16.3774 10.2638 16.3594 9.7943 16.3037 9.3068Z" fill="white"/>
<path id="Vector_63" d="M16.4251 10.7917L16.3459 10.7759L16.337 10.7071L16.3273 10.7716C15.4066 10.5545 14.4366 10.4365 13.4316 10.4192C12.9289 10.409 12.4192 10.4238 11.9186 10.4641L11.8574 10.4689L11.8454 10.4088C11.7865 10.1165 11.7437 9.84447 11.7147 9.57689C11.6796 9.26955 11.6589 8.95861 11.6533 8.65338C11.6391 7.86963 11.7271 7.12791 11.9077 6.50838C12.2264 5.40299 12.8098 4.7451 13.508 4.7033C14.7891 4.62549 16.0756 6.69291 16.3726 9.29885C16.428 9.78478 16.4468 10.2598 16.4286 10.7109L16.4251 10.7917ZM13.1205 10.2777C13.2252 10.2777 13.3298 10.2788 13.4343 10.2809C14.4291 10.298 15.3908 10.4131 16.293 10.6228C16.3059 10.2035 16.2862 9.76392 16.2349 9.3147V9.31455C15.9512 6.82181 14.7666 4.83963 13.576 4.83963C13.5559 4.83963 13.536 4.84017 13.5161 4.84127C12.8799 4.87947 12.3421 5.50103 12.0405 6.54697C11.8635 7.15361 11.7775 7.88103 11.7916 8.65095C11.797 8.95181 11.8175 9.25814 11.8523 9.56166C11.8788 9.80689 11.9171 10.0559 11.9689 10.3215C12.3502 10.2923 12.7361 10.2777 13.1205 10.2777Z" fill="black"/>
</g>
<g id="Group_75">
<g id="Group_76">
<path id="Vector_64" d="M11.9455 6.58996C11.2517 6.28098 11.1939 5.3809 11.192 5.3427L11.3298 5.33496C11.3304 5.34363 11.3856 6.18934 12.0016 6.46355L11.9455 6.58996Z" fill="black"/>
</g>
<g id="Group_77">
<path id="Vector_65" d="M11.7584 7.43348C10.9593 7.3777 10.6876 6.41637 10.6764 6.37543L10.8096 6.33887C10.8121 6.34809 11.0673 7.24652 11.768 7.29551L11.7584 7.43348Z" fill="black"/>
</g>
<g id="Group_78">
<path id="Vector_66" d="M11.7152 8.72148C10.9179 8.6475 10.6346 7.81109 10.623 7.77563L10.7544 7.73242C10.7569 7.74031 11.022 8.5182 11.7281 8.58391L11.7152 8.72148Z" fill="black"/>
</g>
</g>
<g id="Group_79">
<path id="Vector_67" d="M16.3306 10.703C15.3521 10.4709 14.3754 10.3666 13.4329 10.3504C13.3717 10.086 13.3196 9.81078 13.2782 9.52836C13.2602 9.41148 13.2476 9.29453 13.2332 9.18125L14.8016 8.59125L13.1774 8.10922C13.19 6.69539 13.8034 5.73851 14.4257 5.70797C15.2945 5.66476 15.8845 7.1218 16.192 9.23523C16.2605 9.68851 16.3198 10.257 16.3306 10.703Z" fill="black"/>
<path id="Vector_68" d="M16.4019 10.7908L16.3145 10.7701C15.4065 10.5546 14.4366 10.4367 13.4316 10.4193L13.3778 10.4184L13.3655 10.3658C13.3034 10.0975 13.251 9.81902 13.2098 9.53824C13.197 9.45527 13.1869 9.37207 13.177 9.28996L13.1577 9.13551L14.5847 8.59879L13.1079 8.16051L13.1084 8.10848C13.1218 6.60215 13.7869 5.6698 14.4223 5.63863C14.4359 5.63809 14.4491 5.6377 14.4625 5.6377C15.2859 5.6377 15.9233 6.90785 16.2605 9.22496C16.3366 9.72824 16.3898 10.2939 16.3998 10.7011L16.4019 10.7908ZM13.4882 10.2822C14.4513 10.3022 15.3827 10.4142 16.2588 10.6151C16.244 10.2224 16.1936 9.70762 16.1237 9.24527C15.7976 7.0041 15.1816 5.73582 14.4291 5.77699C13.8771 5.80379 13.2742 6.68176 13.2474 8.05777L15.0187 8.58332L13.3085 9.22668L13.3143 9.27348C13.324 9.35395 13.3341 9.4359 13.3467 9.51785C13.3846 9.77715 13.4322 10.0337 13.4882 10.2822Z" fill="black"/>
</g>
</g>
</g>
</g>
<g id="Group_80">
<path id="Vector_69" d="M20.0558 11.0356C19.6763 11.2659 19.3399 11.4907 19.0449 11.6994C18.6726 11.507 18.2984 11.3378 17.9207 11.1921C18.0359 10.7496 18.4172 10.4043 18.901 10.3557C19.4082 10.3035 19.8705 10.5913 20.0558 11.0356Z" fill="#ED6122"/>
<path id="Vector_70" d="M19.0505 11.7795L19.0132 11.7602C18.643 11.5688 18.267 11.3992 17.8958 11.2561L17.8381 11.234L17.8536 11.1742C17.9789 10.6933 18.397 10.3364 18.8941 10.2865C19.4235 10.2334 19.9165 10.5221 20.1195 11.0086L20.1425 11.0635L20.0916 11.0943C19.7511 11.301 19.4217 11.5172 19.0848 11.7554L19.0505 11.7795ZM18.0047 11.1502C18.349 11.2853 18.6965 11.4425 19.0393 11.6182C19.3497 11.3997 19.6544 11.1996 19.9677 11.0078C19.7755 10.6108 19.3585 10.3772 18.908 10.424C18.4887 10.4662 18.1331 10.7548 18.0047 11.1502Z" fill="black"/>
</g>
<g id="Group_81">
<g id="Group_82">
<g id="XMLID_00000121971114213994324350000011260460460161504146_">
<path id="Vector_71" d="M19.1807 12.0422C20.1762 11.943 20.7948 11.3571 21.7083 11.2531C22.2211 11.1948 22.7323 11.2433 22.8409 11.8258C23.0396 12.8925 22.3673 13.733 21.4805 14.3149C20.3352 15.0665 18.9067 15.248 17.5887 14.8746C16.4787 14.5601 15.2751 13.9203 15.3068 12.6258C15.3213 12.0334 15.7815 11.8795 16.2952 11.8296C17.2102 11.7408 18.2698 12.1329 19.1807 12.0422Z" fill="white"/>
<path id="Vector_72" d="M18.9374 15.1322C18.4826 15.1322 18.0226 15.0691 17.5699 14.9408C16.0178 14.5011 15.2113 13.6998 15.2378 12.6238C15.2544 11.9472 15.808 11.8071 16.2886 11.7606C16.7542 11.7152 17.2593 11.7926 17.7477 11.8677C18.2287 11.9414 18.7249 12.0173 19.1738 11.973C19.6766 11.9229 20.0879 11.7431 20.4856 11.5692C20.8605 11.4051 21.2481 11.2355 21.7005 11.184C22.1582 11.1325 22.7835 11.1403 22.9088 11.8129C23.1348 13.026 22.2773 13.8744 21.5184 14.3725C20.7547 14.8736 19.8575 15.1322 18.9374 15.1322ZM16.5801 11.8855C16.4857 11.8855 16.3928 11.8893 16.3019 11.8981C15.6638 11.9599 15.387 12.1779 15.376 12.627C15.3447 13.8979 16.5723 14.5143 17.6077 14.8079C18.937 15.1842 20.3348 14.9834 21.4425 14.2569C22.1665 13.7818 22.9851 12.9765 22.7727 11.8382C22.6913 11.4011 22.3752 11.2464 21.716 11.3217C21.2845 11.3707 20.9234 11.5287 20.5409 11.6958C20.1334 11.8743 19.7121 12.0585 19.1874 12.1107C18.7236 12.1575 18.2167 12.0793 17.7266 12.0044C17.3441 11.9457 16.9509 11.8855 16.5801 11.8855Z" fill="black"/>
</g>
<g id="Group_83">
<path id="Vector_73" d="M17.5238 14.8978C17.3398 14.3848 17.2331 13.8496 17.2065 13.307C17.183 12.8252 17.2232 12.3417 17.3259 11.8701L17.4609 11.8996C17.361 12.3593 17.322 12.8305 17.3448 13.3001C17.3705 13.8293 17.4746 14.3511 17.6538 14.851L17.5238 14.8978Z" fill="black"/>
</g>
<g id="Group_84">
<path id="Vector_74" d="M19.4884 15.0478C19.2847 14.5425 19.1516 14.0125 19.0928 13.4723C19.0408 12.9944 19.0474 12.5101 19.1121 12.0322L19.2493 12.051C19.1859 12.5175 19.1796 12.9907 19.2304 13.4572C19.2878 13.985 19.4178 14.5026 19.6166 14.996L19.4884 15.0478Z" fill="black"/>
</g>
<g id="Group_85">
<path id="Vector_75" d="M21.4179 14.3436C21.2164 13.91 21.0716 13.4518 20.9876 12.9816C20.8958 12.4681 20.8769 11.944 20.9314 11.4238L21.069 11.4382C21.0157 11.9456 21.0342 12.4566 21.1238 12.9572C21.2059 13.4158 21.347 13.8627 21.5433 14.2853L21.4179 14.3436Z" fill="black"/>
</g>
</g>
<g id="Group_86">
<g id="Group_87">
<g id="Group_88">
<path id="Vector_76" d="M15.6328 11.2382C15.2555 11.4171 14.9895 11.7045 14.8678 12.0561L14.8236 12.1897C14.8141 12.2362 14.8076 12.2834 14.7967 12.33C14.7702 12.4225 14.7772 12.5218 14.7588 12.6188L14.7495 12.9187C14.749 13.0206 14.7563 13.1223 14.7493 13.2289L14.7359 13.2321L14.6773 12.9288C14.666 12.8266 14.6572 12.7237 14.6502 12.6209C14.6541 12.4156 14.663 12.2053 14.7375 12.0098C14.8084 11.8152 14.9251 11.6363 15.082 11.5005C15.2377 11.3638 15.4273 11.2672 15.6305 11.2246L15.6328 11.2382Z" fill="black"/>
</g>
<g id="Group_89">
<path id="Vector_77" d="M15.1663 11.0001C14.8231 11.1106 14.5683 11.3136 14.4169 11.588L14.3606 11.6925C14.3459 11.7298 14.3338 11.7683 14.3177 11.8055C14.2813 11.8784 14.2726 11.9627 14.2416 12.0409C14.2251 12.123 14.205 12.2063 14.1856 12.2913C14.1677 12.3769 14.1575 12.4636 14.1323 12.553L14.1185 12.5538L14.1128 12.2891C14.118 12.201 14.1254 12.1127 14.1342 12.0248C14.1671 11.8517 14.205 11.6751 14.2963 11.5204C14.3847 11.3661 14.5096 11.2316 14.662 11.1396C14.8138 11.0467 14.9881 10.9927 15.1663 10.9863V11.0001Z" fill="black"/>
</g>
</g>
<g id="Group_90">
<g id="Group_91">
<path id="Vector_78" d="M22.1245 10.6679C22.3238 10.5916 22.5529 10.5847 22.7663 10.6501C22.9821 10.7108 23.1754 10.8471 23.3214 11.0165C23.4703 11.1872 23.5545 11.3946 23.617 11.5996C23.641 11.7043 23.6584 11.81 23.6714 11.9146C23.6708 12.0217 23.6777 12.1263 23.6694 12.2312L23.6556 12.233L23.6003 11.9307C23.5739 11.8318 23.545 11.7335 23.5145 11.636C23.4371 11.448 23.3534 11.2577 23.2158 11.1059C23.0852 10.9507 22.9181 10.825 22.7277 10.7522C22.5383 10.6783 22.3286 10.6526 22.1272 10.6816L22.1245 10.6679Z" fill="black"/>
</g>
<g id="Group_92">
<path id="Vector_79" d="M22.475 10.2811C22.6305 10.1814 22.825 10.1375 23.0177 10.1601C23.2118 10.1779 23.3984 10.266 23.5484 10.3895C23.7009 10.5142 23.8027 10.6794 23.8835 10.8461C23.9182 10.932 23.9469 11.0201 23.9713 11.1076C23.9839 11.1995 24.0034 11.2876 24.008 11.3787L23.9948 11.3827L23.904 11.1354C23.8673 11.0559 23.8286 10.977 23.7888 10.8992C23.696 10.7518 23.5977 10.6033 23.4596 10.4954C23.3271 10.3832 23.1681 10.3012 22.997 10.2672C22.8266 10.2321 22.6458 10.2406 22.48 10.294L22.475 10.2811Z" fill="black"/>
</g>
</g>
</g>
</g>
</g>
</g>
<g id="Group_93">
<g id="Group_94">
<g id="Group_95">
<path id="Vector_80" d="M38.8783 9.11137L38.8788 9.11333C38.8905 9.15028 38.8969 9.19083 38.9017 9.2338C38.9053 9.24762 38.906 9.26637 38.9056 9.28122C38.9109 9.537 38.9271 9.78567 38.9373 10.0359L38.9378 10.0379C38.9395 10.0522 38.9391 10.067 38.9387 10.0818C39.0365 11.8289 39.1766 13.4469 37.5032 14.9965C36.728 15.7122 35.8041 16.2199 34.8143 16.5634C34.785 16.1263 34.732 15.687 34.6532 15.2459C35.3818 14.9597 36.0534 14.5597 36.5848 14.017C37.7504 12.8332 37.5548 11.5774 37.4375 10.2906C37.4338 10.2684 37.4321 10.2456 37.4305 10.2229C37.4085 9.98411 37.3904 9.74434 37.3848 9.50341C37.3866 9.48606 37.3859 9.46723 37.3887 9.45387C37.3916 9.38356 37.4048 9.32114 37.4276 9.26255C37.6432 8.66505 38.6998 8.52966 38.8783 9.11137Z" fill="black"/>
<path id="Vector_81" d="M34.7512 16.6587L34.7453 16.5683C34.7162 16.1306 34.6623 15.6898 34.5852 15.2583L34.5753 15.2026L34.628 15.1819C35.4041 14.8769 36.0458 14.4687 36.5354 13.9687C37.6125 12.875 37.5039 11.7292 37.3891 10.516L37.3687 10.2972C37.3653 10.2776 37.3634 10.2529 37.3616 10.2281C37.3349 9.93817 37.3207 9.71497 37.3156 9.50536L37.317 9.47942C37.3176 9.46482 37.3187 9.45083 37.3212 9.43966C37.3228 9.37536 37.337 9.30552 37.3631 9.23802C37.5018 8.8538 37.9402 8.65622 38.3036 8.66958C38.6262 8.67747 38.8657 8.83505 38.9444 9.09107L38.9461 9.09685C38.9592 9.13825 38.9659 9.18583 38.9705 9.2263C38.9733 9.23442 38.9752 9.25677 38.9747 9.28302C38.9781 9.4438 38.986 9.60458 38.994 9.76482C38.9983 9.85427 39.0028 9.9438 39.0064 10.0335C39.0084 10.0477 39.0082 10.0659 39.0078 10.0837L39.0155 10.2179C39.1119 11.9145 39.2028 13.5172 37.5502 15.0477C36.8133 15.7279 35.9004 16.26 34.837 16.6291L34.7512 16.6587ZM34.7311 15.2896C34.7986 15.6785 34.8476 16.0743 34.8769 16.4683C35.8858 16.1068 36.7534 15.595 37.4564 14.9461C39.0609 13.4599 38.9718 11.8889 38.8774 10.2255L38.8697 10.0858C38.8698 10.0687 38.8704 10.057 38.869 10.0458C38.8644 9.94966 38.8602 9.86075 38.8559 9.77146C38.848 9.60997 38.8398 9.44786 38.8364 9.28278C38.8368 9.26349 38.8355 9.25419 38.8348 9.25146C38.8292 9.20786 38.8237 9.1688 38.813 9.13442L38.8123 9.13169C38.7253 8.84849 38.4252 8.81083 38.3002 8.80778C37.9984 8.80224 37.6084 8.96567 37.4926 9.28622C37.4715 9.34099 37.4602 9.39638 37.4578 9.45708L37.4535 9.51091C37.4587 9.70825 37.4728 9.9288 37.4992 10.2169C37.5009 10.2389 37.5024 10.2596 37.5057 10.28L37.5268 10.5031C37.6395 11.6943 37.7562 12.9263 36.6341 14.0657C36.1419 14.5681 35.5021 14.9797 34.7311 15.2896Z" fill="black"/>
</g>
<g id="Group_96">
<g id="Group_97">
<path id="Vector_82" d="M36.7302 9.23091C36.7302 9.23091 35.9358 10.3654 37.694 10.2099C39.4522 10.0544 40.198 9.7656 39.262 9.06435C39.262 9.06435 40.8176 8.74201 39.6805 4.72412C39.6219 4.51693 39.5068 4.27771 39.2953 4.23716C38.9991 4.18037 38.6702 4.69099 38.6559 6.33412C38.6559 6.33412 38.5691 3.45505 37.775 3.63505C37.6241 3.66927 37.5245 3.81466 37.4802 3.96287C37.3893 4.2674 37.3766 5.56099 37.4988 6.4806C37.4988 6.4806 37.1995 4.74576 36.8815 4.22123C36.5635 3.6967 36.0213 3.6363 36.0607 4.76435C36.0709 5.0556 36.1055 5.34552 36.1569 5.6324L36.3995 6.9867C36.3995 6.9867 35.4727 5.69068 34.9185 6.13474C34.5705 6.41373 35.1865 8.90919 36.7302 9.23091Z" fill="white"/>
<path id="Vector_83" d="M37.3902 10.2937C36.9474 10.2937 36.6634 10.1897 36.5439 9.98294C36.4013 9.7363 36.5388 9.42403 36.6215 9.27606C35.6956 9.02505 35.0577 7.98544 34.831 7.03919C34.7877 6.85771 34.6623 6.25177 34.8755 6.08091C34.9853 5.99302 35.1152 5.95919 35.2602 5.97864C35.6423 6.03138 36.0557 6.45739 36.2826 6.72677L36.0888 5.64497C36.033 5.3331 36.0013 5.04606 35.9916 4.767C35.9656 4.02372 36.1914 3.84419 36.3284 3.80333C36.527 3.74427 36.7616 3.89044 36.9405 4.1856C37.0913 4.43427 37.2359 4.937 37.3481 5.40778C37.3274 4.75653 37.3534 4.14669 37.4141 3.94317C37.4735 3.74364 37.6027 3.60325 37.7598 3.56778C37.8752 3.54114 37.9829 3.56708 38.081 3.64302C38.4009 3.89099 38.5639 4.67958 38.6457 5.33989C38.7168 4.7745 38.8508 4.40161 39.0429 4.24427C39.1245 4.17747 39.2168 4.15169 39.3084 4.16935C39.5069 4.20731 39.6587 4.39278 39.747 4.70536C40.4028 7.02271 40.1648 8.12825 39.8497 8.64771C39.6943 8.90372 39.5164 9.02747 39.4002 9.08521C39.6678 9.30599 39.7748 9.49661 39.7265 9.66606C39.6377 9.97771 39.0316 10.1611 37.7002 10.279C37.5894 10.2889 37.4861 10.2937 37.3902 10.2937ZM35.1812 6.11138C35.0989 6.11138 35.0267 6.13692 34.9619 6.18896C34.8817 6.25325 34.8573 6.55481 34.9655 7.00692C35.1327 7.70497 35.6956 8.94489 36.7442 9.16325L36.8469 9.18466L36.787 9.27052C36.7842 9.2745 36.5177 9.66177 36.6638 9.91388C36.7782 10.1116 37.1316 10.1903 37.688 10.1411C38.1345 10.1017 39.493 9.98145 39.5935 9.62817C39.6286 9.50481 39.4997 9.32896 39.2206 9.11989L39.0978 9.0281L39.248 8.99692C39.2503 8.99638 39.5177 8.93372 39.7361 8.56817C40.0335 8.07083 40.2537 7.00349 39.6142 4.74325C39.5723 4.59528 39.4734 4.34169 39.2826 4.30521C39.2293 4.29528 39.1807 4.3106 39.1306 4.3513C39.013 4.44763 38.7383 4.83364 38.7252 6.33497L38.5869 6.33661C38.5863 6.31481 38.515 4.15411 37.9965 3.75247C37.9315 3.70224 37.864 3.68528 37.7905 3.70278C37.6309 3.7388 37.5636 3.92622 37.5466 3.98294C37.464 4.25966 37.4398 5.51106 37.5675 6.47169L37.4309 6.49255C37.4278 6.47544 37.1302 4.76474 36.8224 4.25731C36.682 4.02591 36.4994 3.89614 36.3681 3.93591C36.2025 3.98521 36.1135 4.29419 36.1299 4.76239C36.1393 5.03466 36.1705 5.31536 36.225 5.62052L36.5183 7.25794L36.4487 7.26278C36.4487 7.26278 35.9586 6.27825 35.2414 6.11567C35.2206 6.11286 35.2006 6.11138 35.1812 6.11138Z" fill="black"/>
</g>
<g id="Group_98">
<path id="Vector_84" d="M39.2213 6.29554L36.9356 6.47461L36.9464 6.61254L39.2321 6.43347L39.2213 6.29554Z" fill="black"/>
</g>
<g id="Group_99">
<path id="Vector_85" d="M37.9623 8.27307C37.8079 7.10252 36.5626 7.25127 36.5095 7.25877L36.4915 7.12158C36.5059 7.11963 37.9271 6.94908 38.0995 8.25502L37.9623 8.27307Z" fill="black"/>
</g>
<g id="Group_100">
<path id="Vector_86" d="M37.1422 9.35606C37.0144 9.35606 36.8873 9.34199 36.7628 9.31395L36.7934 9.17887C36.9299 9.2098 37.0691 9.22277 37.2105 9.21629C37.3737 9.2091 37.5348 9.17668 37.6887 9.12012L37.7366 9.24973C37.5691 9.31129 37.3941 9.3466 37.2164 9.35449C37.1917 9.35566 37.1669 9.35606 37.1422 9.35606Z" fill="black"/>
</g>
<g id="Group_101">
<path id="Vector_87" d="M39.2541 8.99732L38.6465 9.07227L38.6634 9.20951L39.2711 9.13457L39.2541 8.99732Z" fill="black"/>
</g>
</g>
</g>
<g id="Group_102">
<g id="Group_103">
<path id="Vector_88" d="M7.94406 25.3142C7.87953 25.3455 7.81312 25.3769 7.74312 25.412C7.74125 25.4138 7.73945 25.4138 7.73758 25.4138C7.61406 25.4765 7.485 25.5429 7.34672 25.6148C7.21953 25.6812 7.08492 25.7512 6.94664 25.8231C6.73094 25.9356 6.50414 26.0517 6.27 26.1679C4.47969 27.0511 2.245 27.8679 1.22914 26.0112C0.40125 24.5011 1.02266 22.3845 1.78594 20.9832C2.55477 19.5709 3.66477 18.3798 4.83367 17.2754L5.11391 19.0104C4.52945 19.6023 3.9818 20.2309 3.51352 20.9187C2.75758 22.0341 1.90945 23.7618 2.42016 25.1446C2.835 26.2675 4.70273 25.4212 6.03578 24.7113C6.28281 24.5786 6.51148 24.4513 6.70875 24.3426C6.85992 24.2577 6.99453 24.1859 7.10328 24.1287C7.1457 24.1066 7.18258 24.0881 7.21758 24.0715C7.31531 24.0254 7.41305 24.0014 7.50523 23.9959H7.51078C8.20406 23.9609 8.68156 24.9639 7.94406 25.3142Z" fill="black"/>
</g>
<g id="Group_104">
<g id="Group_105">
<g id="Group_106">
<path id="Vector_89" d="M12.031 27.6247L11.7668 29.4161L10.3362 28.2766L7.2375 20.2208C7.03773 19.7015 7.25531 19.1346 7.72328 18.9546C8.19133 18.7746 8.73266 19.0496 8.93242 19.5689L12.031 27.6247Z" fill="#F6D117"/>
<path id="Vector_90" d="M11.8178 29.5454L10.2784 28.3192L10.2717 28.3017L7.17305 20.246C6.95984 19.6919 7.1957 19.0837 7.69844 18.8904C8.20133 18.6975 8.78383 18.9904 8.9968 19.5443L12.102 27.6172L11.8178 29.5454ZM10.3939 28.2346L11.7159 29.2875L11.9598 27.633L8.86789 19.594C8.68227 19.1111 8.17938 18.8542 7.74813 19.0193C7.31633 19.1854 7.11633 19.7134 7.30195 20.1963L10.3939 28.2346Z" fill="black"/>
</g>
<g id="Group_107">
<path id="Vector_91" d="M10.6284 22.0886L9.60234 19.4215L8.95399 19.6351L8.91078 19.5036L9.68414 19.249L10.7573 22.0389L10.6284 22.0886Z" fill="black"/>
</g>
<g id="Group_108">
<path id="Vector_92" d="M8.93609 19.4778L7.21077 20.083L7.25649 20.2133L8.98181 19.6081L8.93609 19.4778Z" fill="black"/>
</g>
<g id="Group_109">
<path id="Vector_93" d="M11.9113 29.8801C11.8831 29.8801 11.8567 29.8629 11.8464 29.8351L11.7081 29.4622C11.6948 29.4264 11.7132 29.3866 11.7488 29.3733C11.7859 29.3604 11.8246 29.3785 11.8378 29.414L11.9761 29.7869C11.9895 29.8227 11.971 29.8625 11.9354 29.8758C11.9274 29.8786 11.9191 29.8801 11.9113 29.8801Z" fill="black"/>
</g>
<g id="Group_110">
<path id="Vector_94" d="M7.77512 20.2632L7.64584 20.3125L10.4282 27.6113L10.5575 27.562L7.77512 20.2632Z" fill="black"/>
</g>
</g>
<g id="Group_111">
<g id="Group_112">
<path id="Vector_95" d="M6.30047 24.7577L6.10492 23.8528C6.10492 23.8528 6.12336 23.4559 6.63578 23.1154C6.65453 23.103 6.58664 22.7877 6.58313 22.7604C6.5475 22.4854 6.52149 22.2088 6.51086 21.9316C6.49586 21.5401 6.34578 20.631 6.85859 20.4751C7.2768 20.3479 7.49414 20.8904 7.59648 21.1523C7.79141 21.6511 7.91641 22.1706 8.12672 22.6654L8.99516 22.2148C11.0578 21.4355 10.5206 23.1103 10.5206 23.1103C11.5969 23.3326 11.1692 24.3915 11.1692 24.3915C11.1692 24.3915 11.3152 24.5563 11.3352 24.5806C11.404 24.6638 11.4498 24.7636 11.4738 24.8703C11.5219 25.0845 11.4868 25.3151 11.416 25.5194C11.2888 25.887 11.0267 26.1543 10.721 26.3691C10.1265 26.7867 9.39516 27.0393 8.6843 27.1154C7.73399 27.2171 7.14852 26.7912 6.73234 26.5956C6.57688 26.7783 6.21234 26.9473 6.05555 26.9196C5.81313 26.8767 5.62266 26.6791 5.55367 26.4329C5.40414 25.899 5.09242 24.7098 5.11117 24.1341C5.13578 23.3784 6.10484 23.853 6.10484 23.853" fill="white"/>
<path id="Vector_96" d="M8.39851 27.1996C7.74094 27.1996 7.27351 26.954 6.92023 26.7684C6.85977 26.7365 6.80266 26.7064 6.74828 26.6798C6.565 26.8618 6.21516 27.0163 6.04352 26.9873C5.78406 26.9412 5.56547 26.7309 5.48695 26.4513C5.31281 25.829 5.02352 24.7004 5.04203 24.1316C5.04867 23.9281 5.11945 23.7846 5.25219 23.7048C5.49687 23.5573 5.88289 23.6852 6.05219 23.7538C6.08805 23.6105 6.20289 23.3303 6.56859 23.0772C6.5625 23.0173 6.53586 22.8804 6.52609 22.8307C6.51977 22.7987 6.51547 22.7754 6.51453 22.7688C6.47547 22.4677 6.45172 22.1945 6.44164 21.934C6.43969 21.8805 6.435 21.8174 6.42992 21.7477C6.39766 21.3031 6.34367 20.5591 6.83844 20.4088C7.32391 20.2604 7.55977 20.8679 7.66094 21.1268C7.74969 21.3538 7.825 21.5881 7.89773 21.8145C7.97805 22.064 8.0607 22.3213 8.16172 22.5691L8.96336 22.1531C9.6868 21.8796 10.1845 21.8694 10.4487 22.1204C10.7345 22.3921 10.6514 22.8756 10.6064 23.0588C10.8995 23.1335 11.1059 23.2796 11.2205 23.4937C11.4048 23.8376 11.292 24.2463 11.2483 24.3759C11.2919 24.4252 11.3737 24.5184 11.3885 24.536C11.4623 24.6255 11.5137 24.7327 11.5412 24.8549C11.5991 25.1124 11.5406 25.3704 11.4814 25.5416C11.3651 25.8774 11.1294 26.1664 10.7608 26.4252C10.179 26.8339 9.44422 27.1033 8.69172 27.1838C8.59008 27.1945 8.49234 27.1996 8.39851 27.1996ZM6.71406 26.5103L6.7618 26.5327C6.83109 26.5652 6.90516 26.6041 6.98453 26.6459C7.37258 26.8498 7.90516 27.1294 8.67703 27.0462C9.40664 26.9682 10.1184 26.7075 10.6812 26.3121C11.0253 26.0705 11.2443 25.8038 11.3507 25.4963C11.4042 25.3421 11.4571 25.1111 11.4062 24.8852C11.3837 24.7843 11.3419 24.6966 11.282 24.6242C11.2621 24.6002 11.1176 24.437 11.1173 24.437L11.0891 24.4049L11.1051 24.3653C11.1069 24.3606 11.2853 23.9066 11.0982 23.5583C10.9945 23.3655 10.7955 23.2373 10.5066 23.1777L10.4315 23.1622L10.4547 23.0889C10.4566 23.083 10.6405 22.4931 10.353 22.2205C10.1337 22.0121 9.67273 22.0325 9.01969 22.2791L8.09242 22.7608L8.06328 22.692C7.94664 22.4177 7.85492 22.1326 7.76617 21.8567C7.69398 21.6324 7.61945 21.4003 7.53211 21.1772C7.38789 20.8083 7.19633 20.4458 6.87883 20.5409C6.48953 20.6591 6.53672 21.3081 6.56789 21.7375C6.57312 21.809 6.57781 21.8738 6.57992 21.9285C6.58961 22.1849 6.6132 22.4541 6.6518 22.7512C6.65273 22.7578 6.65664 22.7774 6.66187 22.8041C6.72078 23.1065 6.72203 23.1409 6.67391 23.1727C6.23422 23.465 6.1807 23.7913 6.17461 23.848L6.36797 24.7428L6.23289 24.772L6.04453 23.9005C5.88461 23.829 5.51711 23.7069 5.3232 23.8232C5.23211 23.8781 5.18531 23.9804 5.18023 24.1359C5.16172 24.7067 5.48164 25.9191 5.62008 26.4138C5.68437 26.6425 5.85992 26.8141 6.0675 26.851C6.19336 26.8724 6.53633 26.7185 6.67969 26.5503L6.71406 26.5103Z" fill="black"/>
</g>
<g id="Group_113">
<path id="Vector_97" d="M10.4708 23.0654L9.68086 23.458L9.74245 23.5819L10.5324 23.1893L10.4708 23.0654Z" fill="black"/>
</g>
<g id="Group_114">
<path id="Vector_98" d="M11.1386 24.3291L10.3355 24.7109L10.3949 24.8359L11.198 24.454L11.1386 24.3291Z" fill="black"/>
</g>
<g id="Group_115">
<path id="Vector_99" d="M6.66956 25.9196L6.53379 25.9463L6.66394 26.6094L6.79971 26.5828L6.66956 25.9196Z" fill="black"/>
</g>
<g id="Group_116">
<g id="Group_117">
<path id="Vector_100" d="M9.15062 22.98C9.23648 23.2039 8.9032 23.3435 8.81727 23.1192C8.73141 22.8953 9.06469 22.7557 9.15062 22.98Z" fill="black"/>
</g>
</g>
<g id="Group_118">
<g id="Group_119">
<path id="Vector_101" d="M9.66141 24.3716C9.74727 24.5955 9.41398 24.7351 9.32797 24.5108C9.24211 24.2869 9.57539 24.1473 9.66141 24.3716Z" fill="black"/>
</g>
</g>
<g id="Group_120">
<g id="Group_121">
<path id="Vector_102" d="M10.258 25.6675C10.3439 25.8914 10.0106 26.0309 9.92461 25.8066C9.83875 25.5828 10.172 25.4433 10.258 25.6675Z" fill="black"/>
</g>
</g>
</g>
</g>
</g>
</g>
</g>
</g>
<defs>
<clipPath id="clip0_1462_20146">
<rect width="40" height="40" fill="white" transform="translate(0.5)"/>
</clipPath>
</defs>
</svg>
