<svg width="40" height="40" viewBox="0 0 40 40" fill="none" xmlns="http://www.w3.org/2000/svg">
<g id="calculator (1) 1">
<g id="Group">
<g id="Group_2">
<g id="Group_3">
<g id="Group_4">
<g id="Group_5">
<path id="Vector" d="M22.6763 37.1744C22.6763 37.1744 23.6782 36.1809 21.4912 36.3308C19.1465 36.4915 20.7164 37.3272 20.7164 37.3272L20.3845 37.5593C20.3845 37.5593 17.6727 35.8147 16.9184 37.8752C16.164 39.9357 18.9141 40.0168 20.5828 39.8888C22.2515 39.7608 24.0758 39.9704 22.6763 37.1744Z" fill="#4B9BF4"/>
<path id="Vector_2" d="M19.6216 39.9996C18.527 39.9996 17.4095 39.8287 16.9422 39.2116C16.6782 38.863 16.6474 38.405 16.8505 37.8503C17.0329 37.3522 17.3428 37.0263 17.7718 36.8823C18.7847 36.5426 20.1258 37.3159 20.3822 37.4727L20.5827 37.3327C20.4077 37.2234 20.0822 36.9831 20.1356 36.7329C20.1912 36.4724 20.633 36.3172 21.4863 36.2587C22.345 36.2005 22.8223 36.3057 22.947 36.5815C23.0543 36.8186 22.8499 37.0877 22.7631 37.1866C23.2498 38.1725 23.3662 38.8596 23.1191 39.2862C22.8026 39.8324 21.9653 39.8797 21.079 39.9296C20.9161 39.9387 20.7514 39.9481 20.5882 39.9605C20.2805 39.9841 19.952 39.9996 19.6216 39.9996ZM18.3272 36.9419C18.1512 36.9419 17.9791 36.9648 17.8176 37.0191C17.4323 37.1487 17.1525 37.4451 16.9859 37.8999C16.8009 38.4056 16.8248 38.8177 17.0572 39.1247C17.6563 39.9156 19.5192 39.8975 20.5772 39.8168C20.7412 39.8042 20.9068 39.7948 21.0707 39.7855C21.9171 39.7377 22.7167 39.6927 22.9942 39.2137C23.2188 38.8261 23.0937 38.1695 22.6118 37.2065L22.5884 37.1598L22.6255 37.123C22.7038 37.045 22.8906 36.8062 22.8155 36.6406C22.7614 36.5216 22.5185 36.3316 21.4962 36.4026C20.4498 36.4742 20.2948 36.6783 20.2768 36.7627C20.2421 36.9249 20.5488 37.1558 20.7504 37.2634L20.8541 37.3187L20.3862 37.6458L20.3455 37.6198C20.3329 37.6117 19.2778 36.9419 18.3272 36.9419Z" fill="black"/>
</g>
<g id="Group_6">
<path id="Vector_3" d="M22.6761 37.1738C22.6761 37.1738 22.327 37.3997 21.7387 37.4026L22.6761 37.1738Z" fill="#765AFF"/>
<path id="Vector_4" d="M21.7392 37.4747L21.7385 37.3306C22.2992 37.3277 22.6338 37.1154 22.6371 37.1133L22.7155 37.2344C22.7005 37.2441 22.3417 37.4719 21.7392 37.4747Z" fill="black"/>
</g>
<g id="Group_7">
<path id="Vector_5" d="M21.1116 37.405C21.1116 37.405 20.9834 37.4296 20.7164 37.3271L21.1116 37.405Z" fill="#765AFF"/>
<path id="Vector_6" d="M21.0704 37.4796C21.0042 37.4796 20.8787 37.4665 20.6906 37.3945L20.7422 37.2598C20.9805 37.3514 21.0977 37.334 21.0991 37.334L21.1252 37.4757C21.1202 37.4767 21.1021 37.4796 21.0704 37.4796Z" fill="black"/>
</g>
<g id="Group_8">
<path id="Vector_7" d="M20.3889 37.5537C20.5862 37.5828 20.7379 37.6714 20.8782 37.7746C21.0141 37.8839 21.1388 38.0075 21.2183 38.19L21.2095 38.2014L20.7905 37.8889L20.3802 37.565L20.3889 37.5537Z" fill="black"/>
</g>
<g id="Group_9">
<path id="Vector_8" d="M20.3916 37.5576C20.5119 37.6833 20.5584 37.8219 20.5866 37.9637C20.6074 38.1068 20.6103 38.2529 20.5401 38.4118L20.5259 38.4143L20.4445 37.9885L20.3773 37.5602L20.3916 37.5576Z" fill="black"/>
</g>
<g id="Group_10">
<path id="Vector_9" d="M18.0909 37.2459C17.9557 37.3563 17.8399 37.4751 17.7355 37.594C17.6343 37.7162 17.5492 37.8452 17.4922 37.9854C17.4732 38.0185 17.4623 38.0549 17.4505 38.0911C17.4386 38.1272 17.4247 38.1627 17.4182 38.2007L17.391 38.3135C17.3872 38.3522 17.3825 38.3912 17.3763 38.4305C17.3566 38.5884 17.3591 38.7532 17.3569 38.9307L17.343 38.9348C17.3237 38.8518 17.2995 38.7695 17.2841 38.6855C17.2775 38.6005 17.256 38.516 17.2629 38.4301C17.2552 38.2582 17.2964 38.0869 17.3599 37.928C17.4969 37.6094 17.7735 37.3682 18.0857 37.2324L18.0909 37.2459Z" fill="white"/>
</g>
</g>
<g id="Group_11">
<path id="Vector_10" d="M22.2197 36.23C21.7252 34.7054 21.921 33.0976 22.2814 31.5648C22.4938 30.6614 21.1116 30.2293 20.8981 31.1369C20.4812 32.9099 20.2396 34.8052 20.8125 36.5713C21.0979 37.451 22.5081 37.1192 22.2197 36.23Z" fill="black"/>
</g>
</g>
<g id="Group_12">
<g id="Group_13">
<g id="Group_14">
<path id="Vector_11" d="M14.174 36.7174C14.174 36.7174 15.1759 35.7239 12.9889 35.8738C10.6441 36.0345 12.2141 36.8702 12.2141 36.8702L11.8822 37.1023C11.8822 37.1023 9.17032 35.3578 8.41602 37.4183C7.66164 39.4787 10.4117 39.5598 12.0805 39.4319C13.7491 39.3038 15.5734 39.5134 14.174 36.7174Z" fill="#4B9BF4"/>
<path id="Vector_12" d="M11.1186 39.5429C10.0241 39.5429 8.90719 39.3719 8.43992 38.7548C8.17594 38.4063 8.14508 37.9483 8.3482 37.3933C8.53063 36.8952 8.84055 36.5695 9.26953 36.4254C10.2816 36.0856 11.6234 36.8587 11.8799 37.0158L12.0803 36.8757C11.9053 36.7665 11.5799 36.5261 11.6333 36.2759C11.689 36.0154 12.1308 35.8602 12.984 35.8017C13.8424 35.7433 14.3198 35.8487 14.4447 36.1245C14.552 36.3616 14.3477 36.6309 14.2609 36.7299C14.7477 37.7159 14.864 38.4029 14.6168 38.8294C14.3002 39.3757 13.4629 39.4228 12.5764 39.4727C12.4136 39.4818 12.249 39.4912 12.0859 39.5036C11.7779 39.5272 11.4491 39.5429 11.1186 39.5429ZM9.82484 36.4851C9.64898 36.4851 9.47664 36.5079 9.31523 36.5622C8.92992 36.6917 8.65016 36.9881 8.48359 37.4429C8.29836 37.9488 8.32234 38.3609 8.55484 38.6677C9.15422 39.4588 11.0173 39.4405 12.0748 39.3598C12.2388 39.3472 12.4044 39.3379 12.5682 39.3286C13.4148 39.281 14.2143 39.2359 14.4918 38.757C14.7165 38.3694 14.5914 37.7128 14.1095 36.7497L14.0861 36.703L14.1231 36.6662C14.2015 36.5883 14.3883 36.3495 14.3131 36.1837C14.2592 36.0648 14.0155 35.8746 12.9938 35.9457C11.9474 36.0173 11.7924 36.2214 11.7744 36.3058C11.7397 36.468 12.0464 36.6989 12.248 36.8065L12.3517 36.8618L11.8838 37.1889L11.8431 37.1629C11.8306 37.1548 10.7755 36.4851 9.82484 36.4851Z" fill="black"/>
</g>
<g id="Group_15">
<path id="Vector_13" d="M14.1738 36.7168C14.1738 36.7168 13.8247 36.9427 13.2364 36.9455L14.1738 36.7168Z" fill="#765AFF"/>
<path id="Vector_14" d="M13.2369 37.0177L13.2362 36.8736C13.7938 36.8707 14.1316 36.6584 14.1348 36.6562L14.2131 36.7775C14.1981 36.7872 13.8394 37.0148 13.2369 37.0177Z" fill="black"/>
</g>
<g id="Group_16">
<path id="Vector_15" d="M12.6091 36.948C12.6091 36.948 12.481 36.9726 12.214 36.8701L12.6091 36.948Z" fill="#765AFF"/>
<path id="Vector_16" d="M12.5681 37.0227C12.502 37.0227 12.3763 37.0096 12.1881 36.9374L12.2398 36.8027C12.4788 36.8947 12.5953 36.877 12.5967 36.8771L12.6227 37.0188C12.6179 37.0198 12.5998 37.0227 12.5681 37.0227Z" fill="black"/>
</g>
<g id="Group_17">
<path id="Vector_17" d="M11.8865 37.0967C12.0837 37.1257 12.2355 37.2143 12.3758 37.3176C12.5116 37.4268 12.6363 37.5505 12.7159 37.733L12.7071 37.7444L12.288 37.4319L11.8777 37.108L11.8865 37.0967Z" fill="black"/>
</g>
<g id="Group_18">
<path id="Vector_18" d="M11.8892 37.1006C12.0095 37.2264 12.0561 37.3649 12.0842 37.5067C12.1051 37.6497 12.108 37.7959 12.0377 37.9547L12.0235 37.9572L11.9422 37.5314L11.875 37.1032L11.8892 37.1006Z" fill="black"/>
</g>
<g id="Group_19">
<path id="Vector_19" d="M9.58859 36.7888C9.45336 36.8992 9.33758 37.018 9.2332 37.137C9.13195 37.2591 9.04687 37.3881 8.98984 37.5284C8.97086 37.5615 8.96 37.5979 8.9482 37.6341C8.93625 37.6702 8.92234 37.7057 8.91586 37.7437L8.88867 37.8565C8.88484 37.8952 8.88016 37.9341 8.87391 37.9734C8.85422 38.1314 8.85687 38.2962 8.85461 38.4737L8.84078 38.4778C8.82141 38.3948 8.79719 38.3125 8.78187 38.2285C8.77523 38.1434 8.75375 38.059 8.76063 37.973C8.75289 37.8012 8.79414 37.6298 8.85766 37.471C8.99461 37.1523 9.27125 36.9112 9.58344 36.7754L9.58859 36.7888Z" fill="white"/>
</g>
</g>
<g id="Group_20">
<path id="Vector_20" d="M13.7173 35.7729C13.2228 34.2483 13.4187 32.6405 13.7791 31.1077C13.9915 30.2044 12.6092 29.7723 12.3958 30.6798C11.9788 32.4529 11.7373 34.3481 12.3102 36.1143C12.5955 36.9939 14.0058 36.6621 13.7173 35.7729Z" fill="black"/>
</g>
</g>
</g>
<g id="Group_21">
<g id="Group_22">
<g id="XMLID_2_">
<path id="Vector_21" d="M25.936 33.4657L9.27492 31.5414C8.40883 31.4414 7.78781 30.6582 7.88781 29.792L10.5355 6.86753C10.582 6.46487 10.9461 6.1762 11.3487 6.22269L28.7385 8.23112C29.2902 8.29487 29.6859 8.79378 29.6221 9.3455L26.9271 32.6796C26.8705 33.1704 26.4267 33.5223 25.936 33.4657Z" fill="#E75688"/>
<path id="Vector_22" d="M26.0405 33.5434C26.0031 33.5434 25.9654 33.5412 25.9277 33.5369L9.26656 31.6127C8.36234 31.5081 7.71164 30.6876 7.81609 29.7834L10.4637 6.85891C10.4884 6.64509 10.595 6.4536 10.7637 6.31985C10.9325 6.1861 11.1437 6.12673 11.357 6.15071L28.7468 8.15915C29.0328 8.19219 29.2888 8.33462 29.4677 8.56024C29.6466 8.78579 29.7269 9.06751 29.6938 9.35352L26.9989 32.6877C26.9693 32.9441 26.8416 33.1738 26.6392 33.3341C26.4666 33.471 26.2575 33.5434 26.0405 33.5434ZM11.2633 6.28962C11.1147 6.28962 10.9716 6.3393 10.8534 6.4329C10.7148 6.54274 10.6275 6.69993 10.6072 6.87555L7.95953 29.8C7.86414 30.6252 8.45789 31.3741 9.2832 31.4695L25.9443 33.3937C26.1627 33.4195 26.3776 33.3577 26.5497 33.2213C26.7219 33.0848 26.8305 32.8895 26.8557 32.6713L29.5506 9.33712C29.5793 9.08938 29.5098 8.8454 29.3548 8.65001C29.1999 8.45454 28.9781 8.33118 28.7305 8.30259L11.3406 6.29415C11.3146 6.29102 11.2888 6.28962 11.2633 6.28962Z" fill="black"/>
</g>
<g id="Group_23">
<path id="Vector_23" d="M29.3848 8.6009L28.3082 9.53711L28.4029 9.646L29.4795 8.70978L29.3848 8.6009Z" fill="black"/>
</g>
</g>
<g id="Group_24">
<path id="Vector_24" d="M24.9282 33.3495L8.72828 31.4776C8.16368 31.4124 7.75883 30.9017 7.82407 30.3371L10.4065 7.98861C10.4683 7.454 10.9517 7.07072 11.4863 7.13251L27.6916 9.00509C28.2459 9.06915 28.6434 9.57048 28.5793 10.1248L25.9932 32.5052C25.9323 33.0324 25.4555 33.4104 24.9282 33.3495Z" fill="#F6D117"/>
<path id="Vector_25" d="M24.9841 33.4211C24.9416 33.4211 24.8987 33.4186 24.8559 33.4138L8.71656 31.5489C8.42531 31.5153 8.16453 31.3703 7.98234 31.1406C7.80016 30.9108 7.71844 30.6238 7.75203 30.3326L10.3291 8.03129C10.3985 7.42996 10.9451 6.99769 11.5455 7.06683L27.6848 8.93168C27.9761 8.96535 28.2369 9.11043 28.419 9.34027C28.6012 9.57004 28.6829 9.85699 28.6493 10.1482L26.0723 32.4494C26.0387 32.7407 25.8936 33.0014 25.6637 33.1836C25.4679 33.3388 25.2303 33.4211 24.9841 33.4211ZM11.4177 7.20355C11.2037 7.20355 10.9974 7.27504 10.8272 7.40996C10.6276 7.56824 10.5016 7.79465 10.4724 8.04769L7.89539 30.349C7.86609 30.6019 7.93719 30.8513 8.09539 31.0508C8.25359 31.2503 8.48008 31.3763 8.73312 31.4054L24.8724 33.2704C25.1259 33.3 25.3747 33.2288 25.5742 33.0705C25.7738 32.9122 25.8998 32.6859 25.929 32.4328L28.5059 10.1315C28.5352 9.87847 28.4641 9.62926 28.3059 9.42972C28.1477 9.23011 27.9212 9.1041 27.6684 9.07496L11.5291 7.21011C11.4917 7.20574 11.4545 7.20355 11.4177 7.20355Z" fill="black"/>
</g>
<g id="Group_25">
<g id="Group_26">
<path id="Vector_26" d="M14.4912 19.3463L11.5536 19.007C11.3049 18.9783 11.1266 18.7534 11.1554 18.5048L11.4627 15.8446C11.4914 15.5959 11.7162 15.4177 11.9648 15.4464L14.9025 15.7857C15.1512 15.8144 15.3294 16.0393 15.3007 16.2879L14.9934 18.9481C14.9648 19.1968 14.7399 19.3751 14.4912 19.3463Z" fill="#4B9BF4"/>
<path id="Vector_27" d="M14.5365 19.4204C14.5157 19.4204 14.4949 19.4192 14.474 19.4168L11.5545 19.0796C11.4127 19.0632 11.2856 18.9926 11.197 18.8808C11.1082 18.7689 11.0684 18.6292 11.0848 18.4874L11.3898 15.8454C11.4062 15.7036 11.4769 15.5765 11.5887 15.4878C11.7005 15.3991 11.8409 15.3593 11.9821 15.3757L14.9016 15.7129C15.0434 15.7293 15.1705 15.7999 15.2592 15.9117C15.3479 16.0236 15.3877 16.1633 15.3714 16.3051L15.0662 18.9472C15.0498 19.089 14.9791 19.216 14.8673 19.3047C14.772 19.3803 14.6563 19.4204 14.5365 19.4204ZM11.92 15.5163C11.8324 15.5163 11.748 15.5456 11.6784 15.6008C11.5967 15.6656 11.5452 15.7583 11.5332 15.8619L11.2281 18.5039C11.2161 18.6075 11.2452 18.7094 11.3099 18.7912C11.3747 18.8728 11.4673 18.9244 11.5709 18.9363L14.4905 19.2735C14.5947 19.2858 14.6962 19.2565 14.7777 19.1917C14.8594 19.1269 14.9109 19.0343 14.9229 18.9307L15.2281 16.2887C15.2401 16.1851 15.2111 16.083 15.1462 16.0014C15.0815 15.9197 14.9888 15.8682 14.8852 15.8562L11.9657 15.519C11.9504 15.5172 11.9351 15.5163 11.92 15.5163Z" fill="black"/>
</g>
<g id="Group_27">
<path id="Vector_28" d="M19.8218 19.9616L16.8841 19.6223C16.6355 19.5935 16.4572 19.3687 16.4859 19.1201L16.7932 16.4598C16.822 16.2112 17.0468 16.0329 17.2954 16.0616L20.233 16.4009C20.4817 16.4297 20.66 16.6545 20.6312 16.9031L20.324 19.5634C20.2953 19.8119 20.0705 19.9903 19.8218 19.9616Z" fill="#4B9BF4"/>
<path id="Vector_29" d="M19.8668 20.0356C19.8462 20.0356 19.8253 20.0343 19.8045 20.032L16.8849 19.6948C16.7431 19.6784 16.6161 19.6078 16.5273 19.496C16.4387 19.3841 16.3988 19.2443 16.4152 19.1025L16.7204 16.4604C16.7368 16.3186 16.8074 16.1917 16.9192 16.1029C17.0311 16.0142 17.1705 15.9749 17.3127 15.9907L20.2322 16.3279C20.5251 16.3619 20.7357 16.6275 20.7019 16.9203L20.3968 19.5623C20.3804 19.7041 20.3098 19.8311 20.198 19.9198C20.1024 19.9954 19.9867 20.0356 19.8668 20.0356ZM19.821 19.8886C20.034 19.9142 20.2288 19.7596 20.2534 19.5458L20.5584 16.9038C20.5705 16.8002 20.5414 16.6983 20.4766 16.6165C20.4119 16.5349 20.3192 16.4832 20.2156 16.4713L17.2961 16.1341C17.084 16.1095 16.8884 16.2632 16.8638 16.4769L16.5585 19.1189C16.5466 19.2225 16.5755 19.3246 16.6404 19.4063C16.7052 19.4879 16.7978 19.5395 16.9014 19.5514L19.821 19.8886Z" fill="black"/>
</g>
<g id="Group_28">
<path id="Vector_30" d="M24.8406 20.5416L21.903 20.2023C21.6543 20.1736 21.476 19.9487 21.5048 19.7002L21.812 17.0399C21.8408 16.7912 22.0656 16.613 22.3142 16.6417L25.2519 16.981C25.5005 17.0098 25.6788 17.2346 25.6501 17.4832L25.3428 20.1434C25.3141 20.3921 25.0893 20.5704 24.8406 20.5416Z" fill="#4B9BF4"/>
<path id="Vector_31" d="M24.8856 20.6158C24.865 20.6158 24.8441 20.6145 24.8233 20.6122L21.9038 20.275C21.762 20.2586 21.6349 20.1879 21.5463 20.0761C21.4575 19.9642 21.4177 19.8245 21.4341 19.6827L21.7391 17.0406C21.7556 16.8988 21.8262 16.7719 21.938 16.6831C22.0498 16.5945 22.1892 16.5547 22.3313 16.5709L25.2509 16.9081C25.3927 16.9245 25.5197 16.9952 25.6084 17.107C25.6971 17.2188 25.737 17.3585 25.7206 17.5003L25.4154 20.1423C25.399 20.2841 25.3284 20.4112 25.2166 20.4999C25.1213 20.5756 25.0056 20.6158 24.8856 20.6158ZM24.8399 20.4688C24.9438 20.4816 25.0455 20.4519 25.1271 20.387C25.2088 20.3222 25.2603 20.2295 25.2723 20.1259L25.5775 17.4839C25.6022 17.2702 25.4484 17.0762 25.2347 17.0516L22.3151 16.7144C22.1029 16.6899 21.9074 16.8435 21.8827 17.0572L21.5777 19.6992C21.5529 19.913 21.7067 20.107 21.9205 20.1317L24.8399 20.4688Z" fill="black"/>
</g>
<g id="Group_29">
<path id="Vector_32" d="M13.9252 24.2477L10.9875 23.9084C10.7388 23.8796 10.5605 23.6548 10.5893 23.4062L10.8966 20.746C10.9253 20.4973 11.1502 20.319 11.3988 20.3478L14.3364 20.6871C14.5851 20.7158 14.7634 20.9407 14.7346 21.1893L14.4273 23.8495C14.3987 24.0981 14.1738 24.2764 13.9252 24.2477Z" fill="#4B9BF4"/>
<path id="Vector_33" d="M13.9695 24.3217C13.9491 24.3217 13.9286 24.3205 13.9078 24.3182L10.9883 23.981C10.6955 23.9472 10.4848 23.6815 10.5186 23.3886L10.8237 20.7466C10.8401 20.6048 10.9107 20.4779 11.0226 20.3891C11.1343 20.3004 11.2736 20.2609 11.4159 20.2769L14.3355 20.6141C14.6282 20.6481 14.8389 20.9137 14.8052 21.2064L14.5001 23.8485C14.4687 24.1206 14.237 24.3217 13.9695 24.3217ZM13.9244 24.1748C14.1391 24.2011 14.3321 24.0457 14.3569 23.832L14.662 21.19C14.6866 20.9762 14.5328 20.7822 14.3191 20.7575L11.3996 20.4203C11.1859 20.3946 10.9919 20.5493 10.9671 20.7631L10.662 23.4051C10.6373 23.619 10.7911 23.813 11.0048 23.8376L13.9244 24.1748Z" fill="black"/>
</g>
<g id="Group_30">
<path id="Vector_34" d="M19.2557 24.8629L16.3181 24.5236C16.0694 24.4949 15.8911 24.27 15.9199 24.0214L16.2271 21.3612C16.2559 21.1125 16.4807 20.9343 16.7293 20.963L19.667 21.3023C19.9156 21.331 20.0939 21.5559 20.0652 21.8045L19.7579 24.4647C19.7292 24.7134 19.5044 24.8917 19.2557 24.8629Z" fill="#4B9BF4"/>
<path id="Vector_35" d="M19.3009 24.9369C19.2801 24.9369 19.2592 24.9358 19.2384 24.9333L16.3188 24.5961C16.0261 24.5623 15.8154 24.2966 15.8491 24.0039L16.1542 21.3618C16.1706 21.2201 16.2413 21.0931 16.3531 21.0043C16.4648 20.9156 16.6045 20.8761 16.7465 20.8922L19.6661 21.2293C19.9588 21.2632 20.1695 21.5289 20.1358 21.8216L19.8306 24.4636C19.8141 24.6054 19.7435 24.7325 19.6317 24.8212C19.5364 24.8968 19.4208 24.9369 19.3009 24.9369ZM16.685 21.0329C16.4898 21.0329 16.3206 21.1798 16.2977 21.3784L15.9927 24.0204C15.968 24.2342 16.1217 24.4282 16.3355 24.4528L19.255 24.79C19.3593 24.8027 19.4607 24.773 19.5423 24.7082C19.6239 24.6434 19.6755 24.5508 19.6874 24.4472L19.9927 21.8051C20.0173 21.5914 19.8636 21.3974 19.6498 21.3728L16.7302 21.0356C16.715 21.0337 16.6998 21.0329 16.685 21.0329Z" fill="black"/>
</g>
<g id="Group_31">
<path id="Vector_36" d="M24.2745 25.443L21.3369 25.1037C21.0882 25.075 20.9099 24.8501 20.9387 24.6015L21.2459 21.9413C21.2747 21.6926 21.4995 21.5143 21.7481 21.5431L24.6858 21.8824C24.9345 21.9111 25.1127 22.136 25.084 22.3846L24.7767 25.0448C24.748 25.2934 24.5232 25.4718 24.2745 25.443Z" fill="#4B9BF4"/>
<path id="Vector_37" d="M24.3195 25.5172C24.2989 25.5172 24.278 25.5159 24.2572 25.5136L21.3377 25.1764C21.0449 25.1425 20.8342 24.8768 20.868 24.5841L21.173 21.9421C21.1895 21.8002 21.2602 21.6733 21.372 21.5845C21.4839 21.4958 21.6242 21.4559 21.7654 21.4724L24.6849 21.8096C24.9777 21.8434 25.1884 22.1091 25.1546 22.4018L24.8495 25.0439C24.8331 25.1857 24.7625 25.3126 24.6505 25.4014C24.5552 25.477 24.4395 25.5172 24.3195 25.5172ZM24.2737 25.3702C24.488 25.3954 24.6816 25.2411 24.7062 25.0274L25.0113 22.3854C25.0359 22.1716 24.8822 21.9776 24.6684 21.953L21.7489 21.6158C21.6452 21.6037 21.5433 21.6329 21.4616 21.6976C21.38 21.7624 21.3284 21.855 21.3164 21.9586L21.0113 24.6007C20.9866 24.8144 21.1404 25.0084 21.3541 25.033L24.2737 25.3702Z" fill="black"/>
</g>
<g id="Group_32">
<path id="Vector_38" d="M13.3591 29.1491L10.4214 28.8098C10.1727 28.781 9.99446 28.5562 10.0232 28.3076L10.3305 25.6473C10.3592 25.3987 10.5841 25.2204 10.8327 25.2491L13.7703 25.5884C14.019 25.6172 14.1973 25.842 14.1685 26.0906L13.8613 28.7509C13.8326 28.9995 13.6077 29.1778 13.3591 29.1491Z" fill="#4B9BF4"/>
<path id="Vector_39" d="M13.4041 29.2232C13.3835 29.2232 13.3627 29.222 13.3418 29.2196L10.4222 28.8823C10.1295 28.8485 9.91875 28.5828 9.9525 28.2901L10.2577 25.648C10.2741 25.5063 10.3448 25.3793 10.4566 25.2905C10.5684 25.2019 10.7082 25.1621 10.85 25.1784L13.7695 25.5155C14.0623 25.5494 14.273 25.8151 14.2392 26.1079L13.9341 28.7498C13.9177 28.8916 13.8471 29.0187 13.7353 29.1074C13.6398 29.183 13.5241 29.2232 13.4041 29.2232ZM13.3584 29.0763C13.4623 29.0887 13.564 29.0592 13.6456 28.9944C13.7273 28.9296 13.7788 28.837 13.7908 28.7334L14.0959 26.0914C14.1205 25.8776 13.9668 25.6835 13.753 25.6589L10.8335 25.3217C10.6219 25.2967 10.4259 25.4508 10.4012 25.6645L10.0959 28.3066C10.0713 28.5203 10.225 28.7143 10.4388 28.7389L13.3584 29.0763Z" fill="black"/>
</g>
<g id="Group_33">
<path id="Vector_40" d="M18.6896 29.7653L15.752 29.426C15.5033 29.3972 15.325 29.1724 15.3537 28.9238L15.661 26.2636C15.6898 26.0149 15.9146 25.8366 16.1632 25.8653L19.1009 26.2046C19.3495 26.2334 19.5278 26.4582 19.4991 26.7068L19.1918 29.3671C19.1631 29.6157 18.9383 29.7939 18.6896 29.7653Z" fill="#4B9BF4"/>
<path id="Vector_41" d="M18.7346 29.8391C18.714 29.8391 18.6931 29.8378 18.6723 29.8355L15.7527 29.4983C15.46 29.4645 15.2493 29.1988 15.283 28.906L15.5881 26.264C15.6221 25.9713 15.8873 25.7623 16.1805 25.7942L19.1 26.1314C19.3927 26.1654 19.6034 26.431 19.5697 26.7238L19.2646 29.3658C19.2482 29.5076 19.1776 29.6346 19.0657 29.7233C18.9703 29.7989 18.8546 29.8391 18.7346 29.8391ZM18.6888 29.6921C18.9023 29.7173 19.0966 29.563 19.1213 29.3493L19.4264 26.7073C19.4511 26.4935 19.2973 26.2996 19.0836 26.2748L16.1641 25.9376C15.9504 25.912 15.7564 26.0668 15.7316 26.2805L15.4265 28.9225C15.4018 29.1363 15.5555 29.3303 15.7693 29.3549L18.6888 29.6921Z" fill="black"/>
</g>
<g id="Group_34">
<path id="Vector_42" d="M23.7084 30.3444L20.7708 30.0051C20.5221 29.9763 20.3438 29.7515 20.3726 29.5029L20.6798 26.8427C20.7086 26.594 20.9334 26.4157 21.182 26.4444L24.1197 26.7837C24.3684 26.8125 24.5466 27.0373 24.5179 27.2859L24.2106 29.9462C24.182 30.1948 23.9571 30.373 23.7084 30.3444Z" fill="#E75688"/>
<path id="Vector_43" d="M23.7529 30.4184C23.7325 30.4184 23.712 30.4172 23.6912 30.4148L20.7716 30.0777C20.4788 30.0437 20.2681 29.7781 20.3019 29.4854L20.6071 26.8433C20.6235 26.7015 20.6941 26.5746 20.8059 26.4858C20.9177 26.3972 21.0574 26.3575 21.1994 26.3736L24.1189 26.7108C24.2607 26.7272 24.3877 26.7979 24.4764 26.9097C24.5652 27.0215 24.6049 27.1613 24.5886 27.3032L24.2835 29.9452C24.252 30.2172 24.0203 30.4184 23.7529 30.4184ZM23.7077 30.2715C23.9221 30.2979 24.1154 30.1426 24.14 29.9288L24.4451 27.2868C24.4571 27.1832 24.428 27.0812 24.3633 26.9994C24.2985 26.9178 24.2059 26.8662 24.1023 26.8543L21.1827 26.5171C20.9709 26.492 20.7751 26.6461 20.7504 26.8599L20.4452 29.5019C20.4205 29.7157 20.5743 29.9097 20.788 29.9344L23.7077 30.2715Z" fill="black"/>
</g>
</g>
<g id="Group_35">
<g id="Group_36">
<path id="Vector_44" d="M25.1684 15.8563L12.518 14.3953C11.8455 14.3176 11.3634 13.7096 11.4411 13.0372L11.728 10.5529C11.8057 9.88043 12.4137 9.39832 13.0862 9.47598L25.7366 10.9371C26.4091 11.0147 26.8912 11.6228 26.8135 12.2951L26.5266 14.7795C26.4488 15.4518 25.8409 15.934 25.1684 15.8563Z" fill="black"/>
<path id="Vector_45" d="M25.3525 15.9417C25.3041 15.9417 25.2554 15.9389 25.2066 15.9333L12.4632 14.4615C11.778 14.3823 11.285 13.7605 11.364 13.0753L11.6616 10.498C11.7408 9.81285 12.3627 9.32059 13.0479 9.39879L25.7912 10.8706C26.4765 10.9498 26.9695 11.5716 26.8905 12.2568L26.5928 14.8341C26.5545 15.166 26.3892 15.4631 26.1273 15.6707C25.904 15.8478 25.6333 15.9417 25.3525 15.9417ZM25.2231 15.79C25.5172 15.8239 25.806 15.7414 26.0377 15.5577C26.2693 15.3741 26.4155 15.1112 26.4494 14.8176L26.7471 12.2404C26.8171 11.6342 26.3809 11.0839 25.7747 11.014L13.0313 9.54223C12.4239 9.47223 11.8749 9.90848 11.805 10.5146L11.5073 13.0918C11.4373 13.698 11.8736 14.2482 12.4797 14.3182L25.2231 15.79Z" fill="black"/>
</g>
<g id="Group_37">
<path id="Vector_46" d="M25.0236 15.3473C24.9769 15.3473 24.9296 15.3446 24.8821 15.3391L13.0689 13.9748C12.3977 13.8973 11.9148 13.2881 11.9923 12.6171L12.1691 11.0856C12.2466 10.4145 12.8562 9.9326 13.5269 10.0089L25.3401 11.3732C26.0112 11.4507 26.4941 12.0599 26.4167 12.731L26.2398 14.2624C26.1679 14.8862 25.6369 15.3473 25.0236 15.3473ZM13.3855 10.0937C12.8187 10.0937 12.328 10.5198 12.2615 11.0961L12.0846 12.6276C12.013 13.2479 12.4592 13.8107 13.0795 13.8824L24.8927 15.2467C25.5126 15.3183 26.0759 14.8721 26.1476 14.2518L26.3245 12.7203C26.396 12.1 25.9498 11.5372 25.3295 11.4655L13.5163 10.1012C13.4724 10.0961 13.4287 10.0937 13.3855 10.0937Z" fill="white"/>
</g>
<g id="Group_38">
<g id="Group_39">
<g id="Group_40">
<path id="Vector_47" d="M18.7059 12.3956C18.6863 12.5531 18.6236 12.6784 18.5176 12.7715C18.3984 12.8759 18.2355 12.9357 18.029 12.9507C18.0244 12.9879 18.0387 13.0085 18.072 13.0126C18.1306 13.02 18.2048 13.0102 18.2945 12.9836C18.3842 12.9571 18.4558 12.9212 18.5091 12.8762C18.5904 12.9807 18.6216 13.109 18.6027 13.2611C18.5838 13.4132 18.5254 13.5274 18.4276 13.6036L17.1085 13.4397C17.0472 13.3178 17.025 13.1886 17.042 13.0522C17.059 12.9157 17.0997 12.8043 17.1641 12.7179C17.3613 12.7047 17.5444 12.6584 17.7132 12.5791C17.882 12.4997 17.9732 12.4049 17.987 12.2943C17.9905 12.265 17.987 12.2401 17.9761 12.2199C17.9652 12.1997 17.948 12.1881 17.9245 12.1852C17.8766 12.1793 17.8495 12.2015 17.8433 12.2518C17.837 12.3023 17.8495 12.3413 17.8809 12.369C17.824 12.4344 17.742 12.4908 17.6348 12.538C17.5277 12.5854 17.4245 12.6162 17.3253 12.6307C17.1655 12.4936 17.0979 12.3268 17.1223 12.1302C17.1468 11.9336 17.244 11.7873 17.4138 11.6911C17.572 11.6015 17.7642 11.5708 17.9907 11.599C18.2172 11.6272 18.3973 11.7101 18.5312 11.8479C18.6745 11.9968 18.7327 12.1794 18.7059 12.3956Z" fill="white"/>
<path id="Vector_48" d="M18.4352 13.6319L17.0911 13.4647L17.0846 13.452C17.0212 13.326 16.9979 13.1905 17.0155 13.0492C17.0329 12.9087 17.0757 12.792 17.1426 12.7023L17.1499 12.6924L17.1622 12.6916C17.3554 12.6785 17.537 12.6327 17.7018 12.5552C17.8609 12.4803 17.948 12.3916 17.9605 12.2913C17.9634 12.2677 17.9607 12.2481 17.9526 12.2328C17.9459 12.2203 17.9361 12.2138 17.9212 12.212C17.905 12.2099 17.8929 12.2121 17.8852 12.2183C17.8772 12.2249 17.872 12.2374 17.8698 12.2553C17.8647 12.2968 17.8741 12.3275 17.8987 12.3492L17.9185 12.3668L17.901 12.3868C17.8418 12.4549 17.7559 12.5142 17.6455 12.5628C17.5372 12.6106 17.4307 12.6425 17.3291 12.6574L17.3171 12.6592L17.3079 12.6512C17.1416 12.5086 17.0703 12.3323 17.0957 12.1271C17.1212 11.9226 17.2238 11.7682 17.4006 11.6681C17.5631 11.576 17.7625 11.5441 17.9939 11.5726C18.2255 11.6014 18.4125 11.6878 18.5502 11.8295C18.699 11.9839 18.7602 12.1756 18.7324 12.399C18.712 12.5626 18.6456 12.6947 18.5352 12.7917C18.417 12.8951 18.256 12.9569 18.0564 12.9753C18.057 12.977 18.0577 12.9784 18.0586 12.9795C18.062 12.9838 18.0695 12.9855 18.0752 12.9862C18.1294 12.9928 18.2011 12.9837 18.287 12.9582C18.3727 12.9329 18.4415 12.8985 18.492 12.856L18.5131 12.838L18.5302 12.8599C18.6158 12.9698 18.6491 13.106 18.6294 13.2646C18.6096 13.4233 18.5473 13.5446 18.4441 13.6249L18.4352 13.6319ZM17.126 13.4153L18.4196 13.576C18.5062 13.5046 18.5588 13.3978 18.5762 13.2582C18.5929 13.1246 18.5685 13.0091 18.5038 12.9146C18.4506 12.9539 18.3829 12.9857 18.302 13.0096C18.2091 13.0372 18.1301 13.0466 18.0686 13.0395C18.0457 13.0366 18.0281 13.0275 18.0163 13.0124C18.0037 12.9963 17.9991 12.9745 18.0023 12.9477L18.0051 12.9259L18.027 12.9243C18.2266 12.9098 18.3858 12.8517 18.4999 12.7517C18.6002 12.6635 18.6606 12.5428 18.6793 12.3926C18.705 12.1859 18.6487 12.009 18.5119 11.8667C18.3829 11.7342 18.2065 11.6531 17.9873 11.6258C17.7677 11.5978 17.5793 11.6283 17.4269 11.7146C17.2633 11.8072 17.1723 11.9443 17.1488 12.1338C17.1258 12.3189 17.1862 12.4724 17.3335 12.6027C17.4266 12.5878 17.5243 12.558 17.624 12.5139C17.7171 12.4729 17.7912 12.4244 17.8445 12.3695C17.8201 12.3379 17.8107 12.2974 17.8167 12.2489C17.8208 12.2168 17.8324 12.1927 17.8514 12.1771C17.8707 12.1612 17.8963 12.1551 17.9279 12.1591C17.9598 12.1631 17.9846 12.1798 17.9998 12.2077C18.0132 12.2328 18.0178 12.2632 18.0137 12.298C17.9987 12.4178 17.9015 12.5206 17.7247 12.6038C17.5574 12.6824 17.3737 12.7296 17.1784 12.7442C17.1212 12.825 17.0843 12.9298 17.0687 13.0558C17.0527 13.1816 17.0722 13.3025 17.126 13.4153Z" fill="black"/>
</g>
</g>
<g id="Group_41">
<g id="Group_42">
<path id="Vector_49" d="M25.1145 13.1925C25.0949 13.35 25.0321 13.4752 24.9262 13.5683C24.8069 13.6727 24.6441 13.7325 24.4375 13.7475C24.4329 13.7847 24.4472 13.8054 24.4805 13.8095C24.5392 13.8168 24.6134 13.8072 24.7031 13.7805C24.7928 13.754 24.8643 13.7181 24.9177 13.6731C24.999 13.7776 25.0302 13.9058 25.0113 14.0579C24.9924 14.21 24.934 14.3242 24.8362 14.4004L23.5171 14.2365C23.4558 14.1146 23.4336 13.9854 23.4505 13.849C23.4675 13.7125 23.5082 13.6011 23.5726 13.5147C23.7699 13.5015 23.953 13.4553 24.1217 13.3759C24.2905 13.2965 24.3818 13.2017 24.3955 13.0911C24.3992 13.0618 24.3955 13.037 24.3847 13.0168C24.3738 12.9965 24.3566 12.9849 24.3331 12.982C24.2852 12.9761 24.2581 12.9982 24.2519 13.0486C24.2455 13.099 24.2581 13.138 24.2894 13.1658C24.2326 13.2313 24.1505 13.2876 24.0434 13.3349C23.9362 13.3822 23.833 13.4131 23.7339 13.4275C23.5741 13.2905 23.5065 13.1236 23.5309 12.927C23.5554 12.7304 23.6525 12.5841 23.8224 12.488C23.9805 12.3984 24.1728 12.3677 24.3993 12.3958C24.6258 12.424 24.8059 12.507 24.9398 12.6448C25.083 12.7937 25.1414 12.9763 25.1145 13.1925Z" fill="white"/>
<path id="Vector_50" d="M24.8438 14.4284L23.4995 14.2612L23.4931 14.2485C23.4297 14.1224 23.4064 13.9869 23.4238 13.8457C23.4413 13.7052 23.4841 13.5885 23.5509 13.4988L23.5583 13.4889L23.5706 13.488C23.7633 13.4752 23.9448 13.4293 24.1102 13.3517C24.2694 13.2768 24.3565 13.1881 24.3689 13.0877C24.3718 13.0641 24.3692 13.0445 24.361 13.0294C24.3543 13.0168 24.3445 13.0103 24.3297 13.0085C24.3139 13.0063 24.3017 13.0085 24.2941 13.0144C24.2859 13.0209 24.2805 13.0335 24.2784 13.0518C24.2731 13.0933 24.2825 13.124 24.307 13.1457L24.3268 13.1633L24.3095 13.1832C24.2505 13.2514 24.1645 13.3106 24.0541 13.3592C23.9454 13.4073 23.8389 13.4392 23.7377 13.4539L23.7256 13.4556L23.7164 13.4478C23.5502 13.3052 23.4788 13.1289 23.5042 12.9237C23.5298 12.7192 23.6323 12.5646 23.8092 12.4646C23.9718 12.3727 24.1712 12.3414 24.4024 12.3692C24.6341 12.398 24.8212 12.4844 24.9587 12.626C25.1076 12.7806 25.1687 12.9722 25.1409 13.1956C25.1206 13.359 25.0543 13.4912 24.9437 13.5882C24.8254 13.6917 24.6644 13.7535 24.4649 13.7719C24.4655 13.7735 24.4662 13.7749 24.4671 13.776C24.4705 13.7803 24.478 13.7821 24.4837 13.7828C24.5377 13.7893 24.6095 13.7802 24.6955 13.7548C24.7812 13.7294 24.8501 13.695 24.9005 13.6525L24.9217 13.6346L24.9387 13.6566C25.0243 13.7664 25.0575 13.9026 25.0379 14.0612C25.0181 14.2199 24.9558 14.3411 24.8526 14.4215L24.8438 14.4284ZM23.5348 14.2117L24.8282 14.3725C24.9148 14.3011 24.9674 14.1942 24.9848 14.0547C25.0015 13.9211 24.977 13.8057 24.9124 13.7112C24.8593 13.7502 24.7916 13.7821 24.7106 13.806C24.6177 13.8337 24.5387 13.8431 24.4772 13.836C24.4543 13.8331 24.4367 13.824 24.4249 13.8089C24.4123 13.7928 24.4077 13.771 24.4109 13.7442L24.4137 13.7224L24.4355 13.7208C24.635 13.7064 24.7941 13.6483 24.9085 13.5482C25.009 13.4599 25.0693 13.3392 25.0879 13.1891C25.1137 12.9824 25.0573 12.8056 24.9205 12.6632C24.7916 12.5307 24.6152 12.4496 24.3959 12.4223C24.1765 12.3943 23.9878 12.4249 23.8355 12.5111C23.672 12.6037 23.5809 12.7408 23.5574 12.9303C23.5344 13.1153 23.5948 13.2689 23.7421 13.3992C23.835 13.3845 23.9326 13.3546 24.0326 13.3104C24.1259 13.2693 24.1999 13.2207 24.2531 13.166C24.2287 13.1344 24.2193 13.0939 24.2255 13.0453C24.2295 13.0125 24.2416 12.9878 24.2615 12.9724C24.2805 12.9574 24.3062 12.9521 24.3365 12.9556C24.3684 12.9596 24.3932 12.9763 24.4084 13.0042C24.4218 13.0291 24.4265 13.0595 24.4223 13.0944C24.4073 13.2142 24.3101 13.3171 24.1333 13.4003C23.9655 13.479 23.7818 13.5262 23.5869 13.5406C23.5298 13.6215 23.4929 13.7263 23.4772 13.8523C23.4614 13.978 23.4808 14.0989 23.5348 14.2117Z" fill="black"/>
</g>
</g>
<g id="Group_43">
<g id="Group_44">
<path id="Vector_51" d="M21.0671 11.9499C21.1923 11.9655 21.2861 12.0024 21.3483 12.0609C21.413 12.1246 21.4386 12.2097 21.4253 12.3163L21.4016 12.5071L21.6584 12.539C21.6937 12.607 21.7176 12.67 21.7302 12.7282C21.7429 12.7864 21.7448 12.8504 21.7362 12.9204C21.7274 12.9903 21.7096 13.0517 21.6827 13.1046C21.6558 13.1573 21.6177 13.2104 21.5683 13.2639L21.1941 13.2174C21.1914 13.2231 21.1895 13.2307 21.1883 13.2405C21.1852 13.266 21.198 13.2824 21.2269 13.2899L21.3031 13.2994L21.2725 13.5459C21.1711 13.6346 21.0383 13.6688 20.8739 13.6483C20.7467 13.6325 20.653 13.595 20.5928 13.5359C20.5279 13.4742 20.5023 13.3896 20.5156 13.2819L20.5338 13.1352L20.2712 13.1025C20.2039 12.9809 20.1781 12.8565 20.194 12.7294C20.2027 12.6589 20.2209 12.5964 20.2486 12.5417C20.2763 12.4871 20.3138 12.4324 20.3614 12.3778L20.6666 12.4157C20.7155 12.4217 20.7416 12.4116 20.7448 12.3852C20.7462 12.3744 20.7464 12.365 20.7454 12.3569L20.6324 12.3428L20.6685 12.0524C20.7719 11.9639 20.9048 11.9298 21.0671 11.9499Z" fill="white"/>
<path id="Vector_52" d="M20.933 13.6804C20.9127 13.6796 20.8919 13.6778 20.8706 13.6752C20.7381 13.6587 20.6383 13.6183 20.5741 13.5552C20.5034 13.488 20.4747 13.3949 20.489 13.2789L20.504 13.1586L20.2544 13.1277L20.2478 13.1158C20.178 12.9899 20.151 12.8588 20.1673 12.7263C20.1766 12.6531 20.1958 12.5871 20.2246 12.5299C20.2533 12.4734 20.2925 12.4163 20.3412 12.3605L20.3505 12.3498L20.6698 12.3894C20.6955 12.3928 20.708 12.3899 20.713 12.388C20.7178 12.3861 20.718 12.3848 20.7182 12.3822C20.7183 12.3817 20.7184 12.3812 20.7184 12.3808L20.6024 12.3663L20.6431 12.0392L20.6509 12.0324C20.7598 11.9393 20.9014 11.9028 21.0702 11.9237C21.2007 11.9399 21.3005 11.9796 21.3664 12.0417C21.4375 12.1117 21.466 12.2052 21.4517 12.3199L21.4312 12.4842L21.6755 12.5145L21.682 12.527C21.7181 12.5968 21.743 12.6627 21.7561 12.7228C21.7694 12.7835 21.7715 12.8512 21.7625 12.9239C21.7534 12.9964 21.7346 13.0613 21.7063 13.1169C21.6784 13.1715 21.6384 13.2272 21.5877 13.2821L21.5784 13.2923L21.2142 13.2471C21.2137 13.2536 21.2155 13.2597 21.2334 13.2643L21.3327 13.2765L21.2975 13.5596L21.2898 13.5663C21.1964 13.6482 21.0766 13.6865 20.933 13.6804ZM20.2882 13.0781L20.5637 13.1123L20.5422 13.2855C20.5298 13.3851 20.5524 13.4608 20.6112 13.5167C20.6673 13.5718 20.7566 13.6071 20.8772 13.6221C21.0298 13.6409 21.1531 13.6108 21.2472 13.5326L21.2732 13.3229L21.2235 13.3167C21.1781 13.3051 21.1569 13.2765 21.1617 13.2374C21.1634 13.2246 21.166 13.2144 21.17 13.2061L21.1783 13.1887L21.5579 13.2359C21.6009 13.1878 21.6349 13.1397 21.659 13.0926C21.6844 13.0427 21.7014 12.9837 21.7096 12.9174C21.718 12.8506 21.7161 12.789 21.7041 12.7342C21.6928 12.6821 21.6716 12.6249 21.641 12.564L21.3717 12.5305L21.3987 12.3133C21.411 12.2145 21.3884 12.1383 21.3295 12.0803C21.2723 12.0265 21.1828 11.9915 21.0637 11.9768C20.9135 11.9579 20.7895 11.9883 20.6936 12.0664L20.6621 12.3199L20.7695 12.3333L20.7719 12.3542C20.773 12.3642 20.7729 12.3755 20.7713 12.3885C20.7684 12.4117 20.7546 12.4291 20.7324 12.4378C20.715 12.4446 20.6923 12.446 20.6632 12.4424L20.3723 12.4062C20.3307 12.4553 20.2972 12.5049 20.2723 12.554C20.2463 12.6056 20.2287 12.6658 20.2204 12.7328C20.2059 12.8499 20.2287 12.9659 20.2882 13.0781Z" fill="black"/>
</g>
</g>
</g>
</g>
<g id="Group_45">
<g id="Group_46">
<path id="Vector_53" d="M27.9048 10.5918C27.8252 10.1466 27.517 9.83599 27.0876 9.71138C26.8574 9.64458 26.7591 10.0032 26.9888 10.0698C27.1568 10.1186 27.2985 10.1934 27.4031 10.327C27.4777 10.4226 27.5308 10.5792 27.5511 10.7172C27.599 11.0429 27.5343 11.4056 27.4881 11.7286C27.4739 11.8279 27.5125 11.9283 27.618 11.9572C27.7052 11.9812 27.8323 11.9274 27.8466 11.8274C27.9049 11.4191 27.9783 11.0032 27.9048 10.5918Z" fill="white"/>
</g>
<g id="Group_47">
<path id="Vector_54" d="M8.77438 30C8.85391 30.4452 9.16219 30.7558 9.59157 30.8804C9.82172 30.9472 9.92 30.5886 9.69039 30.522C9.52235 30.4732 9.38063 30.3984 9.2761 30.2648C9.20141 30.1693 9.14836 30.0127 9.12805 29.8746C9.08016 29.5489 9.14485 29.1862 9.19102 28.8632C9.20524 28.764 9.16664 28.6636 9.06118 28.6346C8.97399 28.6106 8.84688 28.6644 8.83258 28.7644C8.77422 29.1727 8.70086 29.5886 8.77438 30Z" fill="white"/>
</g>
</g>
</g>
<g id="Group_48">
<g id="Group_49">
<g id="Group_50">
<g id="Group_51">
<g id="Group_52">
<path id="Vector_55" d="M18.088 6.93215C18.2404 6.40325 18.3495 5.81879 18.403 5.19684C18.6341 2.55676 17.7944 0.26692 16.5289 0.0836391C15.2615 -0.097064 14.0495 1.89692 13.818 4.53848C13.7595 5.20059 13.7698 5.84114 13.8371 6.43137L13.8475 6.4402L18.088 6.93215Z" fill="white"/>
<path id="Vector_56" d="M18.1404 7.01079L13.8177 6.5093L13.7791 6.4768L13.7655 6.43954C13.6952 5.82344 13.6887 5.18165 13.7462 4.53204C13.9102 2.65993 14.562 1.06032 15.4472 0.357819C15.8024 0.0758654 16.1702 -0.0402283 16.5391 0.0122717C17.8406 0.200709 18.709 2.5293 18.4749 5.20305C18.4222 5.81516 18.3154 6.4036 18.1573 6.95204L18.1404 7.01079ZM13.9034 6.37407L18.0354 6.85344C18.1818 6.33071 18.2812 5.77157 18.3312 5.19055C18.5587 2.59157 17.7456 0.33274 16.5187 0.155084C16.1905 0.108209 15.8599 0.214381 15.537 0.470787C14.6947 1.1393 14.0481 2.73837 13.89 4.54469C13.8349 5.16743 13.8394 5.78258 13.9034 6.37407Z" fill="black"/>
</g>
<g id="Group_53">
<g id="Group_54">
<path id="Vector_57" d="M14.588 1.58656C13.9551 1.135 14.0809 0.220391 14.0866 0.181641L14.2294 0.2025C14.2281 0.211094 14.1112 1.06914 14.6717 1.46906L14.588 1.58656Z" fill="black"/>
</g>
<g id="Group_55">
<path id="Vector_58" d="M14.2289 2.39441C13.4388 2.17496 13.3623 1.15551 13.3594 1.11215L13.5033 1.10254C13.5039 1.11215 13.5764 2.06348 14.2675 2.25535L14.2289 2.39441Z" fill="black"/>
</g>
<g id="Group_56">
<path id="Vector_59" d="M13.923 3.67508C13.1381 3.43805 13.025 2.54125 13.0205 2.50313L13.1638 2.48633C13.1648 2.49477 13.2714 3.32758 13.9648 3.53695L13.923 3.67508Z" fill="black"/>
</g>
</g>
<g id="Group_57">
<path id="Vector_60" d="M16.5979 6.7535C16.7345 6.22272 16.8338 5.37326 16.8771 4.74951C16.8858 4.62912 16.8902 4.50897 16.8948 4.39178L15.2512 3.91201L16.8695 3.29381C16.7475 1.85358 16.1308 0.809747 15.4946 0.853888C14.6604 0.913654 14.0057 2.78459 13.8559 4.96451C13.8148 5.53897 13.8238 6.0074 13.8748 6.47709L16.5979 6.7535Z" fill="black"/>
<path id="Vector_61" d="M16.6523 6.83145L13.8095 6.54278L13.8032 6.48473C13.7497 5.99223 13.7438 5.52184 13.7841 4.95926C13.9189 2.99661 14.5101 0.851999 15.4896 0.781764C16.1774 0.734108 16.8184 1.8345 16.9414 3.28755L16.946 3.34161L15.4773 3.9027L16.9691 4.33817L16.9661 4.417C16.9618 4.52786 16.9573 4.64106 16.9491 4.7545C16.9085 5.33833 16.8105 6.21692 16.6678 6.77122L16.6523 6.83145ZM13.9405 6.41106L16.543 6.67528C16.6751 6.12833 16.7664 5.30145 16.8052 4.74426C16.8124 4.6438 16.8166 4.54356 16.8205 4.44497L15.0252 3.92098L16.7928 3.24575C16.6677 1.92067 16.0919 0.880436 15.4997 0.925592C14.7584 0.978796 14.0826 2.71715 13.9279 4.96926C13.8898 5.50098 13.8937 5.9484 13.9405 6.41106Z" fill="black"/>
</g>
</g>
</g>
<g id="Group_58">
<g id="Group_59">
<g id="Group_60">
<path id="Vector_62" d="M26.0955 7.86221L26.1077 7.85596C26.309 7.29698 26.4664 6.67604 26.5618 6.01823C26.9444 3.39432 26.2238 1.17503 24.9488 1.05917C23.6752 0.946275 22.331 2.98143 21.9484 5.60378C21.8573 6.22135 21.829 6.81526 21.8555 7.36503L26.0955 7.86221Z" fill="white"/>
<path id="Vector_63" d="M26.0872 7.93361L21.7866 7.42939L21.7836 7.36837C21.756 6.79798 21.7874 6.20064 21.8771 5.59306C22.2646 2.9372 23.6474 0.871496 24.9553 0.987043C25.327 1.02079 25.6577 1.21853 25.9385 1.57462C26.6383 2.46212 26.9045 4.16868 26.6333 6.02837C26.5396 6.67392 26.3856 7.29696 26.1755 7.88009L26.1659 7.90696L26.121 7.92986L26.0872 7.93361ZM21.925 7.3004L26.0565 7.7847C26.2548 7.22407 26.4008 6.6265 26.4905 6.00767C26.7522 4.21337 26.4911 2.50837 25.8253 1.66392C25.5701 1.34025 25.273 1.16079 24.9424 1.13079C23.7138 1.02212 22.3965 3.03243 22.0198 5.614C21.9348 6.19079 21.9029 6.75782 21.925 7.3004Z" fill="black"/>
</g>
<g id="Group_61">
<g id="Group_62">
<path id="Vector_64" d="M26.4918 2.96832L26.4373 2.83488C27.0748 2.57465 27.1586 1.7127 27.1593 1.7041L27.303 1.71668C27.2996 1.75566 27.2116 2.67465 26.4918 2.96832Z" fill="black"/>
</g>
<g id="Group_63">
<path id="Vector_65" d="M26.6554 3.83707L26.6498 3.69301C27.3682 3.66527 27.6561 2.75621 27.6589 2.74707L27.7968 2.78949C27.7839 2.8309 27.4748 3.80543 26.6554 3.83707Z" fill="black"/>
</g>
<g id="Group_64">
<path id="Vector_66" d="M26.6584 5.15473L26.6495 5.01082C27.3745 4.96637 27.6678 4.18074 27.6706 4.17285L27.8062 4.22207C27.7932 4.25809 27.4766 5.10465 26.6584 5.15473Z" fill="black"/>
</g>
</g>
<g id="Group_65">
<path id="Vector_67" d="M21.8655 7.3244C21.865 6.8519 21.9635 6.10105 22.0657 5.53425C22.4475 3.38284 23.097 1.913 23.9842 1.98495C24.6198 2.03651 25.2156 3.03417 25.183 4.47925L23.5079 4.92105L25.0908 5.57362C25.0737 5.68964 25.0565 5.80862 25.035 5.92745C24.9253 6.54292 24.7663 7.12495 24.5738 7.63815L21.8655 7.3244Z" fill="black"/>
<path id="Vector_68" d="M24.6216 7.71599L21.7935 7.38841L21.7934 7.32427C21.7929 6.82076 21.9016 6.03834 21.9948 5.52131C22.4202 3.12451 23.1321 1.84302 23.9902 1.91287C24.6394 1.96552 25.29 2.94037 25.2552 4.48052L25.254 4.53474L23.7338 4.93576L25.1705 5.52802L25.1585 5.60927C25.1427 5.71795 25.1262 5.82896 25.1062 5.93982C24.997 6.55256 24.8406 7.1324 24.6416 7.66302L24.6216 7.71599ZM21.9382 7.25998L24.526 7.55966C24.7104 7.0574 24.8616 6.48998 24.9641 5.91443C24.9821 5.81529 24.997 5.71599 25.0113 5.61849L23.2823 4.90568L25.112 4.42318C25.1284 3.01787 24.5412 2.10224 23.9785 2.05662C23.2099 1.99795 22.5413 3.26693 22.1368 5.54662C22.0484 6.03638 21.9462 6.76537 21.9382 7.25998Z" fill="black"/>
</g>
</g>
</g>
</g>
<g id="Group_66">
<g id="XMLID_00000085228899986209056280000015371045945778320257_">
<path id="Vector_69" d="M19.8301 7.30387C19.008 7.222 18.497 6.73809 17.7427 6.65223C17.3193 6.60403 16.897 6.64411 16.8074 7.12512C16.6433 8.00606 17.1985 8.7002 17.9308 9.18075C18.8766 9.80137 20.0563 9.95129 21.1448 9.64294C22.0615 9.38317 23.0555 8.85489 23.0292 7.78575C23.0172 7.29661 22.6372 7.16942 22.213 7.12825C21.4574 7.05497 20.5823 7.37887 19.8301 7.30387Z" fill="white"/>
<path id="Vector_70" d="M20.031 9.87087C19.2683 9.87087 18.5245 9.6565 17.8911 9.24095C17.2605 8.8272 16.5482 8.12181 16.7365 7.11197C16.8423 6.54431 17.3663 6.53681 17.7509 6.58048C18.1266 6.62322 18.4478 6.76376 18.7584 6.89962C19.0857 7.0429 19.4242 7.19087 19.8373 7.23205C20.2052 7.26869 20.615 7.2058 21.0113 7.14509C21.4156 7.08314 21.8332 7.01853 22.22 7.05642C22.5915 7.09244 23.0872 7.20705 23.1014 7.78392C23.1234 8.68017 22.4535 9.34697 21.1644 9.71228C20.7894 9.81853 20.4079 9.87087 20.031 9.87087ZM17.497 6.70908C17.122 6.70908 16.9333 6.84376 16.8783 7.13837C16.7047 8.07033 17.3763 8.73064 17.9704 9.12048C18.8815 9.7183 20.0315 9.88345 21.1252 9.57353C21.975 9.33275 22.9827 8.82744 22.9573 7.78759C22.9483 7.42111 22.7306 7.25095 22.2063 7.20001C21.8381 7.16478 21.4289 7.22705 21.0334 7.28767C20.6281 7.34986 20.2092 7.41415 19.8231 7.37564C19.3874 7.33228 19.0384 7.17955 18.7009 7.03189C18.3862 6.89423 18.0889 6.76423 17.7347 6.72392C17.6483 6.71408 17.5691 6.70908 17.497 6.70908Z" fill="black"/>
</g>
<g id="Group_67">
<path id="Vector_71" d="M21.2127 9.66762L21.0769 9.61895C21.2244 9.20762 21.3099 8.77816 21.3313 8.34262C21.3501 7.95629 21.318 7.56848 21.2357 7.18973L21.3767 7.15918C21.4617 7.55027 21.4949 7.95074 21.4753 8.34965C21.4534 8.79934 21.365 9.24277 21.2127 9.66762Z" fill="black"/>
</g>
<g id="Group_68">
<path id="Vector_72" d="M19.59 9.79184L19.4562 9.73793C19.6198 9.33176 19.7268 8.90551 19.7741 8.47105C19.816 8.08676 19.8108 7.69723 19.7586 7.31332L19.9016 7.29395C19.9553 7.68941 19.9606 8.09074 19.9174 8.48668C19.8688 8.93426 19.7586 9.3734 19.59 9.79184Z" fill="black"/>
</g>
<g id="Group_69">
<path id="Vector_73" d="M17.9961 9.21098L17.8653 9.15027C18.027 8.80223 18.1432 8.43441 18.2106 8.05723C18.2844 7.64473 18.2995 7.2241 18.2556 6.80707L18.3991 6.79199C18.4444 7.22254 18.4288 7.65676 18.3525 8.08254C18.283 8.47207 18.1631 8.85168 17.9961 9.21098Z" fill="black"/>
</g>
</g>
<g id="Group_70">
<path id="Vector_74" d="M20.5355 7.0002C20.4899 7.44895 20.1826 7.78527 19.8491 7.75144C19.5155 7.71762 19.2821 7.32637 19.3277 6.87762C19.3732 6.42887 19.6805 6.09254 20.0141 6.12637C20.3476 6.1602 20.581 6.55145 20.5355 7.0002Z" fill="#ED6122"/>
<path id="Vector_75" d="M19.896 7.82564C19.878 7.82564 19.8599 7.82463 19.8418 7.82283C19.6572 7.80408 19.4948 7.69182 19.3843 7.50666C19.278 7.32838 19.2323 7.10221 19.2559 6.86986C19.2795 6.63752 19.3696 6.42517 19.5097 6.27197C19.655 6.11291 19.8373 6.03666 20.0214 6.05424C20.394 6.09205 20.6568 6.51947 20.6073 7.00713C20.5837 7.23947 20.4936 7.45182 20.3535 7.6051C20.2223 7.74861 20.0616 7.82564 19.896 7.82564ZM19.9678 6.1958C19.8428 6.1958 19.7192 6.25642 19.6161 6.36924C19.4968 6.49971 19.4199 6.68267 19.3995 6.88439C19.379 7.08611 19.4175 7.28088 19.5081 7.43275C19.5946 7.57775 19.7183 7.66525 19.8563 7.67932C19.9953 7.69424 20.1331 7.63244 20.247 7.50775C20.3663 7.37728 20.4432 7.19432 20.4637 6.9926C20.5052 6.58408 20.3001 6.2276 20.0068 6.19783C19.9938 6.19642 19.9807 6.1958 19.9678 6.1958Z" fill="black"/>
</g>
</g>
<g id="Group_71">
<g id="Group_72">
<g id="Group_73">
<path id="Vector_76" d="M9.28758 17.6763C9.35727 17.1571 9.42633 16.638 9.49586 16.1188C8.67531 16.4421 7.8075 16.6336 7.02813 16.0674C6.35383 15.5777 6.08805 14.7479 5.94539 13.9643C5.80031 13.1676 5.78695 12.3569 5.82016 11.5452L4.37617 11.4834C4.31555 12.866 4.3675 14.2544 4.88984 15.5289C5.31047 16.555 6.11735 17.4311 7.20227 17.7618C7.90227 17.9751 8.60235 17.9021 9.28274 17.7095C9.28422 17.6985 9.2861 17.6874 9.28758 17.6763Z" fill="black"/>
</g>
<g id="Group_74">
<g id="Group_75">
<path id="Vector_77" d="M5.53149 8.39947C5.53149 8.39947 6.87141 5.04493 8.01758 5.59392C8.91969 6.02595 6.9936 9.07712 6.9936 9.07712L5.53149 8.39947Z" fill="white"/>
<path id="Vector_78" d="M7.02063 9.16912L5.43906 8.43615L5.46438 8.37264C5.50445 8.2724 6.4568 5.91303 7.46906 5.51795C7.67274 5.4385 7.86766 5.44209 8.04867 5.52873C8.17289 5.58818 8.25711 5.69217 8.29906 5.83779C8.55453 6.72443 7.11578 9.01834 7.05445 9.11561L7.02063 9.16912ZM5.62445 8.36303L6.96586 8.98475C7.18305 8.63068 8.37789 6.63209 8.16055 5.87779C8.13008 5.77201 8.07305 5.70037 7.98641 5.65881C7.84102 5.58912 7.68891 5.58701 7.52164 5.65232C6.65508 5.99045 5.78461 7.98123 5.62445 8.36303Z" fill="black"/>
</g>
<g id="Group_76">
<path id="Vector_79" d="M4.32406 8.11589C4.32406 8.11589 3.65406 4.62847 4.91961 4.74402C6.18515 4.85957 5.68414 8.31715 5.68414 8.31715L4.32406 8.11589Z" fill="white"/>
<path id="Vector_80" d="M5.74507 8.39886L4.26289 8.17957L4.2532 8.12925C4.23328 8.02543 3.77179 5.5766 4.41453 4.86691C4.54875 4.71878 4.72156 4.65378 4.92609 4.67191C5.13054 4.69058 5.30453 4.78918 5.4432 4.96519C6.11101 5.8116 5.77031 8.22503 5.75547 8.3273L5.74507 8.39886ZM4.38578 8.05191L5.62218 8.23488C5.67382 7.82488 5.8982 5.7748 5.32992 5.05449C5.21507 4.90886 5.07867 4.83074 4.91297 4.81566C4.75297 4.80066 4.62492 4.84941 4.52148 4.96378C3.97406 5.56792 4.32297 7.69707 4.38578 8.05191Z" fill="black"/>
</g>
<g id="Group_77">
<path id="Vector_81" d="M7.34813 9.36305C7.34813 9.36305 8.05406 11.1274 6.47563 11.6866C6.47563 11.6866 7.0232 12.403 6.08797 12.5808C5.15274 12.7585 3.27586 12.3858 3.88625 11.4781C3.88625 11.4781 2.22047 10.23 3.54914 8.4668L7.34813 9.36305Z" fill="white"/>
<path id="Vector_82" d="M5.56859 12.696C4.88641 12.696 4.05398 12.5116 3.78195 12.0993C3.69726 11.971 3.63422 11.7646 3.79117 11.494C3.62039 11.35 3.0882 10.8471 2.98133 10.0938C2.90258 9.5391 3.0743 8.97707 3.49156 8.4234L3.51984 8.38574L7.38937 9.30129L7.42351 9.35051C7.43781 9.38637 7.76297 10.2232 7.43414 10.95C7.27578 11.3 6.99047 11.5595 6.58531 11.7222C6.65469 11.84 6.75867 12.0689 6.6775 12.2811C6.60609 12.4679 6.41234 12.5925 6.10156 12.6515C5.94734 12.6808 5.76414 12.696 5.56859 12.696ZM3.57875 8.54785C3.20601 9.05691 3.05297 9.56965 3.12383 10.0721C3.23969 10.8932 3.92258 11.4152 3.92945 11.4204L3.98414 11.4616L3.94594 11.5184C3.81867 11.7076 3.80437 11.8718 3.90226 12.02C4.18242 12.4445 5.35008 12.6475 6.07437 12.5099C6.33265 12.4608 6.49023 12.3665 6.5425 12.2296C6.62734 12.008 6.42023 11.7332 6.4182 11.7304L6.35805 11.6517L6.45148 11.6186C6.86375 11.4726 7.15016 11.2277 7.30258 10.8906C7.57086 10.2975 7.35094 9.58754 7.29367 9.42434L3.57875 8.54785Z" fill="black"/>
</g>
<g id="Group_78">
<path id="Vector_83" d="M5.69281 11.8751C5.64828 11.8751 5.60406 11.8734 5.56094 11.8699L5.57258 11.7263C5.95617 11.757 6.45101 11.6186 6.45594 11.6172L6.49531 11.7559C6.4764 11.7613 6.07117 11.8751 5.69281 11.8751Z" fill="black"/>
</g>
<g id="Group_79">
<path id="Vector_84" d="M4.68648 11.7382C4.67132 11.7377 4.31054 11.7228 3.85984 11.5454L3.91265 11.4111C4.33898 11.579 4.68828 11.594 4.69179 11.5942L4.68648 11.7382Z" fill="black"/>
</g>
<g id="Group_80">
<path id="Vector_85" d="M3.54765 7.54975C3.77593 7.51131 4.0425 7.61959 4.20898 7.78897C4.45633 8.04053 4.53429 8.43045 4.54953 8.77162C4.56273 9.06764 4.50078 9.4192 4.18883 9.53741C3.74226 9.70662 3.42531 9.31866 3.26343 8.95178C3.11218 8.60912 3.02359 8.15928 3.20125 7.80928C3.28031 7.65326 3.40664 7.5735 3.54765 7.54975Z" fill="white"/>
<path id="Vector_86" d="M3.97859 9.64954C3.67 9.64954 3.38851 9.41368 3.19734 8.98055C3.10335 8.76774 2.90945 8.22438 3.13687 7.77641C3.22054 7.61134 3.35843 7.50829 3.53554 7.47837H3.53562C3.77593 7.4379 4.06757 7.54212 4.26039 7.73813C4.47945 7.96087 4.60101 8.30743 4.62156 8.76805C4.64085 9.20063 4.49625 9.49774 4.21445 9.60462C4.13476 9.63477 4.05578 9.64954 3.97859 9.64954ZM3.55968 7.62063C3.42757 7.6429 3.32867 7.71727 3.26554 7.84157C3.06609 8.23462 3.24375 8.72837 3.32937 8.92235C3.42734 9.14462 3.70492 9.64321 4.16335 9.46969C4.44382 9.36337 4.48906 9.0329 4.47757 8.77454C4.45859 8.35048 4.35093 8.03587 4.15765 7.8393C3.9989 7.67798 3.75257 7.58758 3.55968 7.62063Z" fill="black"/>
</g>
<g id="Group_81">
<path id="Vector_87" d="M7.35984 9.38446C6.90265 8.52478 5.36195 8.1765 4.79 8.06759C4.46226 8.00517 4.11922 7.99181 3.92828 8.26548C3.30055 9.16509 5.45172 10.0692 5.45172 10.0692C5.45172 10.0692 5.06539 10.7279 5.63375 11.0842" fill="white"/>
<path id="Vector_88" d="M5.59555 11.145C5.14219 10.8608 5.22336 10.3755 5.35187 10.1039C5.05492 9.96991 3.95453 9.4353 3.76859 8.79319C3.71086 8.59382 3.74469 8.40234 3.86906 8.22405C4.09039 7.90694 4.48461 7.93593 4.80344 7.99655C5.59289 8.14679 6.98312 8.52249 7.42351 9.35046L7.30125 9.44585C6.88914 8.67109 5.54062 8.28374 4.77656 8.13827C4.36109 8.05921 4.12492 8.10952 3.9875 8.30648C3.88781 8.44937 3.86148 8.59538 3.90719 8.75304C4.09898 9.41546 5.46594 9.99663 5.47969 10.0025L5.55539 10.0343L5.51398 10.1053C5.49969 10.1298 5.17062 10.7084 5.67203 11.0228L5.59555 11.145Z" fill="black"/>
</g>
</g>
</g>
<g id="Group_82">
<g id="Group_83">
<path id="Vector_89" d="M36.3221 23.6219C35.1661 24.4277 33.296 24.1155 31.6109 23.8306C31.5635 23.8268 31.5149 23.8191 31.4657 23.8096C31.3881 23.7965 31.3087 23.7777 31.2249 23.7518C30.5153 23.5325 30.2301 23.0838 30.2752 22.7045C30.2619 22.3059 30.5884 21.9797 31.2891 22.0655C31.3409 22.07 31.3952 22.0758 31.4488 22.086C31.5019 22.0944 31.556 22.1065 31.6109 22.1205C32.5115 22.2938 34.091 22.669 34.5002 22.1277C34.9205 21.5683 33.8921 20.5837 33.3097 20.0847C31.9906 18.9512 30.5107 18.1111 28.7098 17.4622L28.8845 15.7773C31.9604 16.7345 34.5213 18.1995 36.2182 20.3502C37.1137 21.4841 37.4487 22.8359 36.3221 23.6219Z" fill="black"/>
</g>
<g id="Group_84">
<g id="Group_85">
<path id="Vector_90" d="M32.0043 21.8785C32.0043 21.8785 32.862 21.2746 33.0092 21.9692C33.1213 22.4985 33.0148 23.6513 32.9576 24.1704C32.9313 24.4099 32.7798 24.625 32.5528 24.706C32.406 24.7585 32.0266 24.6641 31.8467 24.5217C31.4769 24.7733 30.9816 25.2669 30.0478 25.3346C29.3493 25.3853 28.6023 25.2763 27.9602 24.9912C27.6301 24.8446 27.3336 24.6421 27.1507 24.3238C27.0491 24.1469 26.9775 23.9396 26.989 23.7334C26.9947 23.6306 27.0226 23.5305 27.0754 23.4418C27.0908 23.416 27.2047 23.2387 27.2047 23.2387C27.2047 23.2387 26.6189 22.3322 27.6213 21.9435C27.6213 21.9435 26.8148 20.4593 29.0063 20.8663C29.1391 20.891 29.283 20.3042 29.8038 20.0593C29.8811 20.023 30.4221 19.7779 30.9727 19.9731C31.6277 20.2054 32.0754 20.9825 32.0043 21.8785Z" fill="white"/>
<path id="Vector_91" d="M29.7138 25.4192C29.0859 25.4193 28.4637 25.2941 27.931 25.0575C27.5316 24.8801 27.2559 24.652 27.0883 24.3601C27.0025 24.2109 26.9032 23.9804 26.917 23.7299C26.9237 23.6107 26.9562 23.5016 27.0136 23.4053C27.0246 23.3868 27.0855 23.2915 27.1201 23.2375C27.0548 23.1204 26.8885 22.772 26.9997 22.4288C27.0725 22.2041 27.2486 22.0286 27.5234 21.9065C27.4491 21.74 27.3003 21.3215 27.5168 21.0235C27.732 20.7271 28.2374 20.6503 29.0196 20.7959C29.0306 20.7857 29.0844 20.7018 29.1277 20.6343C29.2507 20.4425 29.4366 20.1528 29.7732 19.9945C29.922 19.9246 30.4501 19.7119 30.9968 19.9056C31.6685 20.1437 32.1024 20.8884 32.0833 21.7446C32.2548 21.6468 32.574 21.4998 32.813 21.5939C32.9508 21.6479 33.0405 21.7693 33.0798 21.9547C33.1911 22.4799 33.0961 23.5735 33.0294 24.1787C32.9992 24.4534 32.8216 24.6871 32.5771 24.7743C32.4159 24.8321 32.0537 24.7473 31.8461 24.6103C31.7985 24.6441 31.7487 24.6813 31.6961 24.7206C31.3409 24.9857 30.8544 25.3489 30.053 25.407C29.9401 25.4151 29.8268 25.4192 29.7138 25.4192ZM28.3401 20.8689C27.9895 20.8689 27.7494 20.9492 27.6337 21.1081C27.4169 21.4061 27.6822 21.9046 27.6848 21.9096L27.7237 21.9817L27.6475 22.0113C27.3741 22.1173 27.2023 22.2725 27.1373 22.4727C27.0244 22.819 27.263 23.1964 27.2655 23.2002L27.2905 23.2392L27.2655 23.2782C27.2655 23.2783 27.1527 23.4537 27.1376 23.4793C27.0921 23.5553 27.0664 23.6424 27.0612 23.7379C27.0492 23.9532 27.1374 24.156 27.2134 24.2883C27.3654 24.5528 27.6193 24.7613 27.9897 24.9257C28.5969 25.1953 29.3257 25.3151 30.0427 25.2631C30.8019 25.208 31.2689 24.8596 31.6098 24.605C31.6797 24.5528 31.7448 24.5043 31.8062 24.4624L31.8501 24.4325L31.8916 24.4654C32.0566 24.5961 32.4125 24.6801 32.5287 24.6384C32.7216 24.5696 32.8619 24.3829 32.8862 24.1628C32.939 23.6826 33.0499 22.5089 32.9387 21.9846C32.9098 21.8478 32.8515 21.7639 32.7605 21.7281C32.542 21.6425 32.1705 21.8504 32.0459 21.9378L31.9204 22.0259L31.9325 21.873C31.9987 21.0374 31.5851 20.267 30.9487 20.0414C30.4408 19.861 29.9315 20.0793 29.8347 20.125C29.5358 20.2655 29.3701 20.5236 29.2493 20.7121C29.1551 20.8589 29.0926 20.955 28.9935 20.9376C28.7456 20.8917 28.5271 20.8689 28.3401 20.8689Z" fill="black"/>
</g>
<g id="Group_86">
<path id="Vector_92" d="M28.4494 22.2545L27.5866 22.0258L27.6613 21.8867L28.4879 22.1154L28.4494 22.2545Z" fill="black"/>
</g>
<g id="Group_87">
<path id="Vector_93" d="M27.2175 23.1698L27.1905 23.3115L28.0676 23.4786L28.0946 23.3368L27.2175 23.1698Z" fill="black"/>
</g>
<g id="Group_88">
<path id="Vector_94" d="M29.0231 20.7977L28.9917 20.9385L30.2003 21.2087L30.2317 21.0679L29.0231 20.7977Z" fill="black"/>
</g>
<g id="Group_89">
<path id="Vector_95" d="M31.9319 21.8741L31.8907 22.7441L32.0348 22.751L32.0759 21.8809L31.9319 21.8741Z" fill="black"/>
</g>
<g id="Group_90">
<path id="Vector_96" d="M31.7918 23.886L31.7744 24.5215L31.9186 24.5254L31.936 23.89L31.7918 23.886Z" fill="black"/>
</g>
<g id="Group_91">
<g id="Group_92">
<path id="Vector_97" d="M28.76 21.5879C28.7137 21.8095 29.0581 21.8819 29.1045 21.6599C29.1508 21.4381 28.8064 21.3658 28.76 21.5879Z" fill="black"/>
</g>
</g>
<g id="Group_93">
<g id="Group_94">
<path id="Vector_98" d="M28.5137 22.9765C28.4673 23.1983 28.8118 23.2705 28.8582 23.0485C28.9044 22.8268 28.56 22.7545 28.5137 22.9765Z" fill="black"/>
</g>
</g>
<g id="Group_95">
<g id="Group_96">
<path id="Vector_99" d="M28.2833 24.3691C28.2369 24.5908 28.5814 24.6631 28.6278 24.4411C28.6741 24.2194 28.3296 24.1471 28.2833 24.3691Z" fill="black"/>
</g>
</g>
</g>
</g>
</g>
</g>
</g>
</svg>
