lo<svg width="24" height="24" viewBox="0 0 24 24" fill="none" xmlns="http://www.w3.org/2000/svg">
<g id="certificate (1) 1">
<g id="Group">
<g id="Group_2">
<path id="Vector" d="M18.7064 14.0273C17.3519 14.0273 16.25 15.1293 16.25 16.4837C16.25 17.8382 17.3519 18.9401 18.7064 18.9401C20.0608 18.9401 21.1628 17.8382 21.1628 16.4837C21.1628 15.1293 20.0608 14.0273 18.7064 14.0273Z" fill="white"/>
</g>
</g>
<g id="Group_3">
<g id="Group_4">
<path id="Vector_2" d="M18.7065 20.3458C18.1457 20.3458 17.613 20.2247 17.1316 20.0088V22.0714L18.7065 21.5582L20.2815 22.0714V20.0088C19.8001 20.2247 19.2674 20.3458 18.7065 20.3458Z" fill="white"/>
</g>
</g>
<g id="Group_5">
<g id="Group_6">
<path id="Vector_3" d="M0 1.92773V20.1309H15.7253V18.9366C15.1748 18.269 14.8439 17.414 14.8439 16.4832C14.8439 14.3533 16.5766 12.6205 18.7065 12.6205C20.8364 12.6205 22.5691 14.3533 22.5691 16.4832C22.5691 17.414 22.2381 18.269 21.6877 18.9366V20.1309H24V1.92773H0ZM12 13.6193H3.25012V12.213H12V13.6193ZM20.7499 9.93759H3.25012V8.53134H20.7499V9.93759ZM20.7499 6.25594H3.25012V4.84969H20.7499V6.25594Z" fill="#008BDC"/>
</g>
</g>
</g>
</svg>
