<svg width="38" height="24" viewBox="0 0 38 24" fill="none" xmlns="http://www.w3.org/2000/svg">
<path id="Fill 102" fill-rule="evenodd" clip-rule="evenodd" d="M29.4039 5.96825C28.7566 6.10481 28.1525 6.33348 27.6013 6.6363C25.5721 2.33728 20.7944 -0.171086 15.9398 0.853153C11.1156 1.87099 7.77015 6.0501 7.61168 10.7663C7.08653 10.7469 6.55084 10.7899 6.01344 10.9033C2.47532 11.6498 0.212157 15.1231 0.958576 18.6609C1.70506 22.199 5.17847 24.4618 8.71658 23.7153L18.6832 21.6125C19.2106 21.5829 19.7424 21.5132 20.2751 21.4008C20.8079 21.2884 21.3225 21.1373 21.8169 20.9514L32.107 18.7803C35.645 18.0338 37.9081 14.5607 37.1616 11.0226C36.4152 7.48482 32.9419 5.22179 29.4039 5.96825Z" fill="#DDEEFB"/>
</svg>
