<svg width="24" height="20" viewBox="0 0 24 20" fill="none" xmlns="http://www.w3.org/2000/svg">
<g id="Medical Team">
<path id="Vector" d="M23.438 15.4776C23.3488 14.9603 23.1507 14.4679 22.8567 14.033C22.5628 13.5981 22.1797 13.2307 21.733 12.9551C21.2132 12.6003 20.6101 12.3867 19.983 12.3351V11.7176C20.4033 11.5057 20.7637 11.1916 21.031 10.8042C21.2984 10.4167 21.4641 9.96829 21.513 9.5001H21.5805C21.6889 9.50145 21.7965 9.48081 21.8967 9.43943C21.9969 9.39805 22.0877 9.33678 22.1636 9.25933C22.2395 9.18188 22.2989 9.08985 22.3383 8.9888C22.3776 8.88774 22.3961 8.77977 22.3925 8.67139C22.389 8.563 22.3635 8.45647 22.3176 8.35821C22.2718 8.25995 22.2064 8.172 22.1256 8.09968C22.0448 8.02737 21.9502 7.97217 21.8475 7.93744C21.7448 7.90271 21.6361 7.88916 21.528 7.8976C21.528 7.1226 21.528 6.6901 21.528 6.1726C21.524 5.64338 21.3121 5.13695 20.9378 4.76272C20.5636 4.3885 20.0572 4.17653 19.528 4.1726H17.9104C17.3812 4.17653 16.8748 4.3885 16.5006 4.76272C16.1263 5.13695 15.9144 5.64338 15.9104 6.1726V7.8976C15.8024 7.88912 15.6938 7.9026 15.5911 7.93724C15.4884 7.97188 15.3938 8.02695 15.313 8.09914C15.2322 8.17133 15.1669 8.25913 15.1209 8.35726C15.0749 8.45539 15.0493 8.56182 15.0456 8.67011C15.0419 8.77841 15.0601 8.88634 15.0993 8.98739C15.1384 9.08844 15.1976 9.18052 15.2733 9.25808C15.3489 9.33564 15.4395 9.39706 15.5396 9.43866C15.6396 9.48026 15.7471 9.50116 15.8554 9.5001H15.9229C15.9688 9.96982 16.1327 10.4203 16.3993 10.8098C16.6659 11.1992 17.0266 11.5149 17.448 11.7276V12.3451C17.2309 12.364 17.016 12.4016 16.8055 12.4576C16.738 12.4776 16.7505 12.4826 16.7479 12.4576C16.5904 11.6303 16.1691 10.8763 15.5472 10.3084C14.9253 9.74056 14.1361 9.38943 13.2979 9.3076V8.6851C13.7184 8.47131 14.0784 8.15529 14.3449 7.76608C14.6113 7.37686 14.7757 6.92693 14.823 6.4576H14.8905C15.0521 6.45714 15.2098 6.40772 15.3429 6.31584C15.4759 6.22396 15.5779 6.09394 15.6356 5.9429C15.6932 5.79187 15.7038 5.62691 15.6658 5.46977C15.6279 5.31262 15.5432 5.17067 15.4229 5.0626V2.1876C15.4223 1.86623 15.2943 1.55821 15.0671 1.33096C14.8398 1.10372 14.5318 0.975761 14.2105 0.9751H14.058C13.8412 0.97567 13.6294 1.03997 13.449 1.15998C13.2685 1.28 13.1273 1.45045 13.0429 1.6501C12.8715 1.43887 12.6551 1.26863 12.4094 1.15184C12.1637 1.03505 11.895 0.974665 11.623 0.9751H8.91045C8.84415 0.9751 8.78056 1.00144 8.73367 1.04832C8.68679 1.09521 8.66045 1.1588 8.66045 1.2251V4.3826C8.66089 4.57918 8.72105 4.77098 8.83295 4.9326C8.66601 5.00756 8.52993 5.13765 8.44754 5.30105C8.36514 5.46445 8.34145 5.65122 8.38043 5.83001C8.41942 6.00881 8.51871 6.16876 8.66164 6.28303C8.80457 6.3973 8.98246 6.45894 9.16545 6.4576H9.23045C9.27694 6.9265 9.44048 7.37619 9.70607 7.7654C9.97166 8.15461 10.3308 8.47086 10.7505 8.6851V9.3001C10.1796 9.35115 9.62836 9.53431 9.14045 9.8351C8.70476 10.0811 8.3232 10.4124 8.01863 10.8093C7.71406 11.2063 7.49275 11.6606 7.36795 12.1451C7.24865 12.1125 7.12763 12.0867 7.00545 12.0676C6.96295 12.0676 6.97545 12.0676 6.97545 11.4926C7.29879 11.2602 7.569 10.9617 7.76813 10.6169C7.96727 10.272 8.09077 9.88881 8.13045 9.4926H8.20045C8.39352 9.49403 8.58056 9.42536 8.72684 9.29935C8.87313 9.17334 8.96873 8.99853 8.99591 8.80738C9.02308 8.61622 8.97999 8.4217 8.87462 8.25991C8.76926 8.09811 8.60877 7.98004 8.42295 7.9276C8.50737 7.86356 8.57571 7.78075 8.62257 7.68572C8.66944 7.59069 8.69353 7.48606 8.69295 7.3801C8.69295 7.0576 8.37045 6.6601 8.14795 6.4501V5.7001C8.14402 5.17088 7.93205 4.66445 7.55783 4.29023C7.1836 3.916 6.67717 3.70403 6.14795 3.7001H4.54795C4.01658 3.70406 3.50827 3.91775 3.1337 4.29467C2.75912 4.67159 2.54859 5.18121 2.54795 5.7126V6.4626C2.35538 6.64134 2.19622 6.85298 2.07795 7.0876C2.00416 7.22979 1.98377 7.39372 2.02046 7.54966C2.05715 7.7056 2.1485 7.84323 2.27795 7.9376C2.09546 7.99115 1.93812 8.10814 1.8343 8.26748C1.73048 8.42682 1.68702 8.61802 1.71176 8.80658C1.7365 8.99515 1.82781 9.16866 1.96922 9.29583C2.11063 9.423 2.29283 9.49544 2.48295 9.5001H2.55295C2.59263 9.89631 2.71613 10.2795 2.91527 10.6244C3.1144 10.9692 3.38461 11.2677 3.70795 11.5001C3.70795 12.0751 3.72045 12.0676 3.67795 12.0751C2.75002 12.2239 1.89996 12.683 1.26655 13.3772C0.63314 14.0715 0.253795 14.96 0.19045 15.8976L0.000450448 18.7501C-0.00159751 18.7842 0.00335274 18.8183 0.0149962 18.8504C0.0266397 18.8825 0.0447297 18.9118 0.0681516 18.9367C0.0915735 18.9615 0.119831 18.9813 0.151184 18.9947C0.182536 19.0082 0.216319 19.0152 0.25045 19.0151H23.7505C23.7869 19.0156 23.8231 19.0081 23.8563 18.9931C23.8896 18.9781 23.9192 18.956 23.943 18.9284C23.9669 18.9007 23.9843 18.8682 23.9943 18.8331C24.0042 18.798 24.0063 18.7611 24.0005 18.7251L23.438 15.4776ZM19.2929 13.3176L18.718 15.3926C18.1005 13.1701 18.1329 13.3126 18.1579 13.3226C18.5228 13.4673 18.9294 13.4655 19.2929 13.3176ZM18.2729 11.9851C18.5673 12.0376 18.8686 12.0376 19.163 11.9851C19.268 11.9676 19.4629 11.9251 19.4879 11.9176V12.5776C19.3941 12.6874 19.2775 12.7755 19.1463 12.836C19.0151 12.8964 18.8724 12.9277 18.728 12.9277C18.5835 12.9277 18.4408 12.8964 18.3096 12.836C18.1784 12.7755 18.0618 12.6874 17.968 12.5776C17.9455 12.5526 17.968 12.6076 17.968 11.9176C17.9729 11.9251 18.1679 11.9676 18.2729 11.9851ZM16.4004 6.9276V6.6526H21.0205V6.9276H16.4004ZM21.8804 8.6776C21.8804 8.717 21.8727 8.75601 21.8576 8.79241C21.8425 8.8288 21.8204 8.86188 21.7926 8.88973C21.7647 8.91759 21.7317 8.93969 21.6953 8.95477C21.6589 8.96984 21.6198 8.9776 21.5805 8.9776H21.528V8.3876H21.5805C21.6602 8.38826 21.7365 8.42042 21.7927 8.47708C21.8489 8.53374 21.8805 8.6103 21.8804 8.6901V8.6776ZM17.9104 4.6501H19.5005C19.8971 4.65401 20.2763 4.8133 20.5568 5.09376C20.8373 5.37422 20.9965 5.75349 21.0005 6.1501H16.4004C16.4037 5.75156 16.5642 5.37043 16.847 5.08955C17.1297 4.80867 17.5119 4.65075 17.9104 4.6501ZM15.9104 8.3876V8.9901H15.858C15.8168 8.98957 15.7761 8.98064 15.7385 8.96384C15.7009 8.94705 15.6671 8.92275 15.6392 8.89244C15.6113 8.86213 15.5899 8.82644 15.5763 8.78756C15.5627 8.74868 15.5572 8.70743 15.5601 8.66634C15.563 8.62525 15.5742 8.58519 15.5932 8.5486C15.6121 8.51202 15.6383 8.47969 15.6702 8.45359C15.702 8.42749 15.7389 8.40818 15.7785 8.39683C15.8181 8.38548 15.8596 8.38234 15.9004 8.3876H15.9104ZM16.4104 9.2401V7.4276H21.0205V9.2376C21.0159 9.61854 20.9173 9.99244 20.7334 10.3261C20.5496 10.6597 20.2861 10.9428 19.9665 11.1501C19.6469 11.3574 19.281 11.4825 18.9014 11.5144C18.5217 11.5462 18.1401 11.4838 17.7905 11.3326C17.3847 11.1544 17.0387 10.8634 16.7936 10.4942C16.5485 10.125 16.4146 9.6932 16.4079 9.2501L16.4104 9.2401ZM17.5005 12.8301L18.4804 16.3626V18.5226H17.833L16.833 12.9601C17.0501 12.8928 17.2739 12.8492 17.5005 12.8301ZM11.583 8.9526C11.8774 9.00385 12.1785 9.00385 12.4729 8.9526C12.5779 8.9351 12.773 8.8926 12.7979 8.8851V9.5301C12.7041 9.64334 12.5865 9.73449 12.4534 9.79706C12.3203 9.85962 12.175 9.89206 12.028 9.89206C11.8809 9.89206 11.7356 9.85962 11.6025 9.79706C11.4694 9.73449 11.3518 9.64334 11.2579 9.5301V8.8851C11.2829 8.8926 11.478 8.9351 11.583 8.9526ZM11.453 10.2851C11.8213 10.4365 12.2346 10.4365 12.603 10.2851L12.028 12.3626L11.453 10.2851ZM15.0979 5.8726C15.0647 5.90374 15.0252 5.92743 14.9821 5.94209C14.939 5.95675 14.8933 5.96204 14.8479 5.9576V5.3551H14.9004C14.9597 5.35687 15.017 5.37614 15.0653 5.41047C15.1136 5.4448 15.1506 5.49265 15.1717 5.548C15.1929 5.60335 15.1971 5.66371 15.184 5.72147C15.1709 5.77924 15.1409 5.83183 15.0979 5.8726ZM13.458 2.0751C13.4586 1.91617 13.522 1.76394 13.6344 1.65156C13.7468 1.53918 13.899 1.47576 14.058 1.4751H14.2105C14.3992 1.47576 14.5801 1.55104 14.7135 1.68451C14.847 1.81799 14.9223 1.99884 14.9229 2.1876V4.8551H14.833C14.8081 4.39284 14.6696 3.94385 14.4298 3.54789C14.1899 3.15194 13.8561 2.82124 13.458 2.5851V2.0751ZM9.16045 1.4751H11.623C11.8926 1.4733 12.1564 1.55335 12.3796 1.70467C12.6028 1.85598 12.7748 2.07145 12.873 2.3226C12.5229 2.21464 12.1553 2.17558 11.7905 2.2076C11.5079 2.2301 11.7229 2.2776 11.4305 1.9851C11.4072 1.96167 11.3796 1.94307 11.3491 1.93038C11.3186 1.91769 11.286 1.91115 11.2529 1.91115C11.2199 1.91115 11.1873 1.91769 11.1568 1.93038C11.1263 1.94307 11.0987 1.96167 11.0754 1.9851C11.0289 2.03194 11.0028 2.0953 11.0028 2.16135C11.0028 2.2274 11.0289 2.29076 11.0754 2.3376C11.263 2.52672 11.3808 2.77396 11.4094 3.03878C11.438 3.30359 11.3758 3.57028 11.233 3.7951L10.4205 3.0001L10.0754 2.6476C10.0522 2.62417 10.0246 2.60557 9.99409 2.59288C9.96363 2.58019 9.93095 2.57365 9.89795 2.57365C9.86495 2.57365 9.83227 2.58019 9.80181 2.59288C9.77134 2.60557 9.74369 2.62417 9.72045 2.6476C9.67389 2.69444 9.64775 2.7578 9.64775 2.82385C9.64775 2.8899 9.67389 2.95326 9.72045 3.0001L9.89545 3.1751C9.53769 3.58819 9.30755 4.09625 9.23295 4.6376C9.13295 4.4751 9.16045 4.6576 9.16045 1.4751ZM8.86295 5.6551C8.86488 5.57571 8.89744 5.50015 8.95383 5.44423C9.01021 5.38831 9.08605 5.35637 9.16545 5.3551H9.21545V5.9576H9.16545C9.08522 5.9576 9.00828 5.92573 8.95155 5.869C8.89482 5.81227 8.86295 5.73533 8.86295 5.6551ZM9.71545 6.2076V5.0851C9.6952 4.51766 9.88578 3.96282 10.2505 3.5276L11.068 4.3451C11.0912 4.36853 11.1188 4.38713 11.1493 4.39982C11.1798 4.41252 11.2124 4.41905 11.2455 4.41905C11.2785 4.41905 11.3111 4.41252 11.3416 4.39982C11.3721 4.38713 11.3997 4.36853 11.4229 4.3451C11.6321 4.13248 11.7811 3.86823 11.8549 3.57927C11.9287 3.2903 11.9245 2.98695 11.8429 2.7001C12.1698 2.67401 12.4984 2.71756 12.8072 2.82788C13.116 2.93821 13.3978 3.11279 13.6341 3.3401C13.8704 3.56741 14.0557 3.84227 14.1779 4.14653C14.3001 4.45078 14.3564 4.7775 14.3429 5.1051V6.2051C14.3232 6.80493 14.0711 7.37359 13.6398 7.79092C13.2085 8.20826 12.6318 8.44158 12.0317 8.44158C11.4316 8.44158 10.8549 8.20826 10.4236 7.79092C9.99233 7.37359 9.74018 6.80493 9.72045 6.2051L9.71545 6.2076ZM6.54295 16.5301C6.44649 16.4845 6.36787 16.4082 6.3194 16.3131C6.27092 16.2181 6.25532 16.1096 6.27504 16.0048C6.29475 15.8999 6.34867 15.8045 6.42836 15.7336C6.50805 15.6626 6.60901 15.6201 6.71545 15.6126C6.66545 15.8776 6.70045 15.6976 6.54295 16.5301ZM7.27295 12.6326L6.80795 15.1176C6.57058 15.1048 6.33665 15.1787 6.14973 15.3256C5.9628 15.4724 5.83563 15.6822 5.7919 15.9159C5.74816 16.1495 5.79085 16.3911 5.912 16.5957C6.03316 16.8002 6.22452 16.9537 6.45045 17.0276L6.17045 18.5276H5.59545V13.5576L5.88045 13.3851C5.91731 13.3627 5.94773 13.3311 5.96875 13.2934C5.98978 13.2557 6.0007 13.2132 6.00045 13.1701V11.9426C6.16519 11.9019 6.32651 11.8484 6.48295 11.7826V12.0326C6.48192 12.1605 6.52675 12.2845 6.6093 12.3822C6.69186 12.4799 6.80668 12.5448 6.93295 12.5651C7.05045 12.5801 7.16545 12.6051 7.27295 12.6326ZM5.45045 12.0201H5.50045V13.0201L5.34545 13.1151L5.19045 13.0201V12.0201H5.25045C5.31704 12.0247 5.38386 12.0247 5.45045 12.0201ZM8.15545 9.0001V8.3876H8.20795C8.28917 8.39456 8.3643 8.43351 8.41681 8.49586C8.46932 8.55822 8.49491 8.63888 8.48795 8.7201C8.48099 8.80132 8.44205 8.87645 8.37969 8.92896C8.31733 8.98147 8.23667 9.00706 8.15545 9.0001ZM3.03545 5.6976C3.03609 5.29882 3.19393 4.91637 3.47475 4.63321C3.75556 4.35006 4.13668 4.18905 4.53545 4.1851H6.13545C6.53422 4.18905 6.91534 4.35006 7.19616 4.63321C7.47697 4.91637 7.63481 5.29882 7.63545 5.6976V6.0851C6.92295 5.6951 6.09545 5.6401 5.32545 5.6401C4.55545 5.6401 3.72295 5.6976 3.01545 6.0851L3.03545 5.6976ZM2.50045 7.3001C3.00045 6.3001 4.21545 6.1401 5.33545 6.1401C6.45545 6.1401 7.65795 6.2851 8.17045 7.3026C8.18423 7.32624 8.192 7.35289 8.1931 7.38023C8.19419 7.40756 8.18857 7.43475 8.17673 7.45942C8.1649 7.48408 8.1472 7.50547 8.12518 7.52172C8.10317 7.53796 8.07751 7.54856 8.05045 7.5526C8.02435 7.55339 7.9985 7.54736 7.97545 7.5351C7.81295 7.4226 7.72545 6.4976 5.33545 6.4976C2.94545 6.4976 2.86295 7.4176 2.69545 7.5351C2.6724 7.54736 2.64655 7.55339 2.62045 7.5526C2.59332 7.54817 2.56768 7.53723 2.5457 7.52072C2.52373 7.50421 2.50609 7.48262 2.49429 7.45779C2.4825 7.43297 2.47689 7.40565 2.47797 7.37819C2.47904 7.35072 2.48675 7.32393 2.50045 7.3001ZM2.18295 8.6901C2.18295 8.6103 2.21447 8.53374 2.27066 8.47708C2.32686 8.42042 2.40316 8.38826 2.48295 8.3876H2.53545V9.0001H2.48295C2.4427 9.00012 2.40285 8.99204 2.36579 8.97635C2.32872 8.96065 2.2952 8.93765 2.2672 8.90873C2.23921 8.8798 2.21733 8.84554 2.20285 8.80798C2.18838 8.77042 2.18161 8.73033 2.18295 8.6901ZM3.03545 9.2501V7.9076C3.32295 7.6576 3.23295 6.9926 5.34545 6.9926C7.45795 6.9926 7.36795 7.6701 7.65545 7.9076V9.2501C7.65545 9.86275 7.41208 10.4503 6.97887 10.8835C6.54566 11.3167 5.9581 11.5601 5.34545 11.5601C4.7328 11.5601 4.14524 11.3167 3.71203 10.8835C3.27882 10.4503 3.03545 9.86275 3.03545 9.2501ZM1.00045 14.6851C1.24592 14.1299 1.62592 13.6446 2.10606 13.2731C2.58621 12.9017 3.15138 12.6558 3.75045 12.5576C3.87673 12.5373 3.99154 12.4724 4.0741 12.3747C4.15665 12.277 4.20148 12.153 4.20045 12.0251V11.7751C4.35658 11.8417 4.51797 11.8952 4.68295 11.9351V13.1626C4.6827 13.2057 4.69362 13.2482 4.71465 13.2859C4.73567 13.3236 4.7661 13.3552 4.80295 13.3776L5.08795 13.5501V18.5226H2.39045L2.50045 16.5401C2.50045 16.4738 2.47411 16.4102 2.42723 16.3633C2.38034 16.3164 2.31675 16.2901 2.25045 16.2901C2.18415 16.2901 2.12056 16.3164 2.07367 16.3633C2.02679 16.4102 2.00045 16.4738 2.00045 16.5401L1.89295 18.5401H0.51795C0.69545 15.8376 0.647951 15.4776 1.00045 14.6851ZM15.623 18.5226L14.9179 14.1051C14.9077 14.0388 14.8715 13.9793 14.8173 13.9397C14.7632 13.9001 14.6955 13.8836 14.6292 13.8939C14.5629 13.9041 14.5034 13.9403 14.4638 13.9945C14.4242 14.0486 14.4077 14.1163 14.4179 14.1826L15.1104 18.5226H8.97045C9.62545 14.1851 9.55545 14.6576 9.62795 14.1826C9.63287 14.1498 9.63128 14.1163 9.62327 14.0841C9.61526 14.0519 9.60098 14.0215 9.58124 13.9948C9.56151 13.9681 9.53671 13.9456 9.50827 13.9285C9.47982 13.9114 9.44828 13.9 9.41545 13.8951C9.38262 13.8902 9.34914 13.8918 9.31693 13.8998C9.28471 13.9078 9.25439 13.9221 9.22769 13.9418C9.20099 13.9615 9.17844 13.9863 9.16133 14.0148C9.14422 14.0432 9.13287 14.0748 9.12795 14.1076L8.46545 18.5226H6.67795C8.17795 10.4801 7.72295 13.0226 7.80545 12.5226C7.8666 12.1775 7.98399 11.8447 8.15295 11.5376C8.44353 11.007 8.87644 10.568 9.40295 10.2701C9.60668 10.1445 9.82387 10.0422 10.0505 9.9651C9.76418 10.3386 9.59069 10.7862 9.55045 11.2551C9.36213 11.3148 9.20138 11.4399 9.09725 11.6077C8.99312 11.7756 8.95248 11.9752 8.98267 12.1704C9.01287 12.3656 9.11191 12.5436 9.26189 12.6722C9.41187 12.8008 9.6029 12.8714 9.80045 12.8714C9.998 12.8714 10.189 12.8008 10.339 12.6722C10.489 12.5436 10.588 12.3656 10.6182 12.1704C10.6484 11.9752 10.6078 11.7756 10.5036 11.6077C10.3995 11.4399 10.2388 11.3148 10.0505 11.2551C10.0773 10.9892 10.1576 10.7315 10.2865 10.4973C10.4153 10.2632 10.5902 10.0575 10.8005 9.8926L11.7629 13.3626C11.7781 13.4145 11.8097 13.4601 11.853 13.4926C11.8962 13.5251 11.9489 13.5426 12.0029 13.5426C12.057 13.5426 12.1097 13.5251 12.153 13.4926C12.1962 13.4601 12.2278 13.4145 12.243 13.3626L13.2055 9.8926C13.4114 10.0511 13.5838 10.249 13.7125 10.4748C13.8413 10.7005 13.9239 10.9496 13.9555 11.2076C13.8761 11.2063 13.7974 11.2207 13.7237 11.2502C13.6501 11.2796 13.583 11.3234 13.5265 11.379C13.4699 11.4346 13.425 11.501 13.3944 11.5741C13.3637 11.6473 13.3479 11.7258 13.3479 11.8051V12.3351C13.3479 12.4014 13.3743 12.465 13.4212 12.5119C13.4681 12.5588 13.5316 12.5851 13.5979 12.5851C13.6643 12.5851 13.7278 12.5588 13.7747 12.5119C13.8216 12.465 13.8479 12.4014 13.8479 12.3351V11.8026C13.8479 11.7767 13.8582 11.7519 13.8765 11.7337C13.8948 11.7154 13.9196 11.7051 13.9454 11.7051H14.4955C14.5213 11.7051 14.5461 11.7154 14.5644 11.7337C14.5827 11.7519 14.5929 11.7767 14.5929 11.8026V12.3326C14.5929 12.3989 14.6193 12.4625 14.6662 12.5094C14.7131 12.5563 14.7766 12.5826 14.8429 12.5826C14.9093 12.5826 14.9728 12.5563 15.0197 12.5094C15.0666 12.4625 15.0929 12.3989 15.0929 12.3326V11.8026C15.0928 11.7205 15.0758 11.6394 15.043 11.5641C15.0102 11.4889 14.9624 11.4212 14.9024 11.3652C14.8424 11.3092 14.7716 11.2661 14.6943 11.2386C14.617 11.211 14.5348 11.1996 14.453 11.2051C14.4058 10.75 14.2326 10.3172 13.953 9.9551C14.1808 10.032 14.399 10.1352 14.603 10.2626C15.1291 10.5598 15.562 10.9979 15.853 11.5276C16.0262 11.8388 16.1461 12.1768 16.208 12.5276L17.278 18.5276L15.623 18.5226ZM9.80045 11.7051C9.86572 11.7051 9.92952 11.7245 9.98379 11.7607C10.0381 11.797 10.0804 11.8485 10.1053 11.9088C10.1303 11.9691 10.1368 12.0355 10.1241 12.0995C10.1114 12.1635 10.0799 12.2223 10.0338 12.2684C9.98764 12.3146 9.92884 12.346 9.86483 12.3588C9.80082 12.3715 9.73446 12.365 9.67416 12.34C9.61386 12.315 9.56233 12.2727 9.52606 12.2184C9.4898 12.1642 9.47045 12.1004 9.47045 12.0351C9.4711 11.9478 9.50608 11.8642 9.56783 11.8025C9.62957 11.7407 9.71313 11.7058 9.80045 11.7051ZM21.9454 18.5226L21.6455 16.8126C21.6342 16.7463 21.597 16.6872 21.5422 16.6483C21.4873 16.6094 21.4193 16.5938 21.353 16.6051C21.2866 16.6164 21.2275 16.6535 21.1886 16.7084C21.1497 16.7632 21.1342 16.8313 21.1455 16.8976L21.4305 18.5226H18.968V16.3626L19.948 12.8301C20.673 12.9091 21.3542 13.2162 21.8934 13.7073C22.4325 14.1984 22.8018 14.8481 22.948 15.5626L23.448 18.5226H21.9454Z" fill="white"/>
<path id="Vector_2" d="M19.5559 10.5201C19.5807 10.4984 19.601 10.4721 19.6156 10.4426C19.6302 10.4131 19.6389 10.381 19.6411 10.3481C19.6433 10.3153 19.639 10.2823 19.6285 10.2511C19.6179 10.2199 19.6013 10.1911 19.5797 10.1663C19.558 10.1415 19.5317 10.1213 19.5022 10.1067C19.4727 10.0921 19.4406 10.0834 19.4077 10.0812C19.3749 10.079 19.3419 10.0833 19.3107 10.0938C19.2795 10.1043 19.2507 10.1209 19.2259 10.1426C19.0831 10.2615 18.9031 10.3267 18.7172 10.3267C18.5313 10.3267 18.3513 10.2615 18.2084 10.1426C18.1845 10.1174 18.1555 10.0975 18.1234 10.0841C18.0913 10.0708 18.0568 10.0643 18.022 10.065C17.9872 10.0657 17.953 10.0737 17.9215 10.0885C17.89 10.1032 17.8619 10.1243 17.839 10.1505C17.8162 10.1767 17.799 10.2074 17.7887 10.2406C17.7783 10.2737 17.775 10.3087 17.779 10.3433C17.7829 10.3778 17.794 10.4112 17.8116 10.4412C17.8291 10.4712 17.8527 10.4972 17.8809 10.5176C18.113 10.7197 18.4102 10.8312 18.718 10.8317C19.0257 10.8321 19.3233 10.7215 19.5559 10.5201Z" fill="white"/>
<path id="Vector_3" d="M19.7324 8.32764C19.6661 8.32764 19.6025 8.35398 19.5556 8.40086C19.5088 8.44774 19.4824 8.51133 19.4824 8.57764V8.69014C19.4824 8.75644 19.5088 8.82003 19.5556 8.86691C19.6025 8.9138 19.6661 8.94014 19.7324 8.94014C19.7987 8.94014 19.8623 8.9138 19.9092 8.86691C19.9561 8.82003 19.9824 8.75644 19.9824 8.69014V8.57764C19.9824 8.51133 19.9561 8.44774 19.9092 8.40086C19.8623 8.35398 19.7987 8.32764 19.7324 8.32764Z" fill="white"/>
<path id="Vector_4" d="M19.4727 8.21509H20.0002C20.0665 8.21509 20.13 8.18875 20.1769 8.14186C20.2238 8.09498 20.2502 8.03139 20.2502 7.96509C20.2502 7.89878 20.2238 7.8352 20.1769 7.78831C20.13 7.74143 20.0665 7.71509 20.0002 7.71509H19.4727C19.4064 7.71509 19.3428 7.74143 19.2959 7.78831C19.249 7.8352 19.2227 7.89878 19.2227 7.96509C19.2227 8.03139 19.249 8.09498 19.2959 8.14186C19.3428 8.18875 19.4064 8.21509 19.4727 8.21509Z" fill="white"/>
<path id="Vector_5" d="M17.9531 8.69014V8.57764C17.9531 8.51133 17.9268 8.44774 17.8799 8.40086C17.833 8.35398 17.7694 8.32764 17.7031 8.32764C17.6368 8.32764 17.5732 8.35398 17.5263 8.40086C17.4795 8.44774 17.4531 8.51133 17.4531 8.57764V8.69014C17.4531 8.75644 17.4795 8.82003 17.5263 8.86691C17.5732 8.9138 17.6368 8.94014 17.7031 8.94014C17.7694 8.94014 17.833 8.9138 17.8799 8.86691C17.9268 8.82003 17.9531 8.75644 17.9531 8.69014Z" fill="white"/>
<path id="Vector_6" d="M18.2128 7.96509C18.2128 7.89878 18.1865 7.8352 18.1396 7.78831C18.0927 7.74143 18.0291 7.71509 17.9628 7.71509H17.4453C17.379 7.71509 17.3154 7.74143 17.2685 7.78831C17.2217 7.8352 17.1953 7.89878 17.1953 7.96509C17.1953 8.03139 17.2217 8.09498 17.2685 8.14186C17.3154 8.18875 17.379 8.21509 17.4453 8.21509H17.9628C18.0291 8.21509 18.0927 8.18875 18.1396 8.14186C18.1865 8.09498 18.2128 8.03139 18.2128 7.96509Z" fill="white"/>
<path id="Vector_7" d="M19.0204 5.16254H18.9604V5.10254C18.9604 5.03623 18.9341 4.97265 18.8872 4.92576C18.8403 4.87888 18.7767 4.85254 18.7104 4.85254C18.6441 4.85254 18.5805 4.87888 18.5336 4.92576C18.4867 4.97265 18.4604 5.03623 18.4604 5.10254V5.16254H18.4004C18.3341 5.16254 18.2705 5.18888 18.2236 5.23576C18.1767 5.28265 18.1504 5.34623 18.1504 5.41254C18.1504 5.47884 18.1767 5.54243 18.2236 5.58932C18.2705 5.6362 18.3341 5.66254 18.4004 5.66254H18.4604V5.72004C18.4604 5.78634 18.4867 5.84993 18.5336 5.89682C18.5805 5.9437 18.6441 5.97004 18.7104 5.97004C18.7767 5.97004 18.8403 5.9437 18.8872 5.89682C18.9341 5.84993 18.9604 5.78634 18.9604 5.72004V5.66254H19.0204C19.0867 5.66254 19.1503 5.6362 19.1972 5.58932C19.2441 5.54243 19.2704 5.47884 19.2704 5.41254C19.2704 5.34623 19.2441 5.28265 19.1972 5.23576C19.1503 5.18888 19.0867 5.16254 19.0204 5.16254Z" fill="white"/>
<path id="Vector_8" d="M5.03516 5.17499H5.09516V5.23499C5.09516 5.30129 5.1215 5.36488 5.16838 5.41177C5.21526 5.45865 5.27885 5.48499 5.34516 5.48499C5.41146 5.48499 5.47505 5.45865 5.52193 5.41177C5.56882 5.36488 5.59516 5.30129 5.59516 5.23499V5.17499H5.65516C5.72146 5.17499 5.78505 5.14865 5.83193 5.10177C5.87882 5.05488 5.90516 4.99129 5.90516 4.92499C5.90516 4.85869 5.87882 4.7951 5.83193 4.74821C5.78505 4.70133 5.72146 4.67499 5.65516 4.67499H5.59516V4.61499C5.59516 4.54869 5.56882 4.4851 5.52193 4.43821C5.47505 4.39133 5.41146 4.36499 5.34516 4.36499C5.27885 4.36499 5.21526 4.39133 5.16838 4.43821C5.1215 4.4851 5.09516 4.54869 5.09516 4.61499V4.67499H5.03516C4.96885 4.67499 4.90526 4.70133 4.85838 4.74821C4.8115 4.7951 4.78516 4.85869 4.78516 4.92499C4.78516 4.99129 4.8115 5.05488 4.85838 5.10177C4.90526 5.14865 4.96885 5.17499 5.03516 5.17499Z" fill="white"/>
<path id="Vector_9" d="M4.48296 10.1652C4.43956 10.2153 4.41781 10.2805 4.4225 10.3466C4.42719 10.4127 4.45793 10.4742 4.50796 10.5177C4.74034 10.7194 5.03773 10.8305 5.34546 10.8305C5.65319 10.8305 5.95058 10.7194 6.18296 10.5177C6.23299 10.4742 6.26373 10.4127 6.26841 10.3466C6.2731 10.2805 6.25136 10.2153 6.20796 10.1652C6.16451 10.1152 6.10298 10.0844 6.03688 10.0797C5.97079 10.075 5.90553 10.0968 5.85546 10.1402C5.71201 10.2589 5.53165 10.3238 5.34546 10.3238C5.15927 10.3238 4.97891 10.2589 4.83546 10.1402C4.78539 10.0968 4.72013 10.075 4.65403 10.0797C4.58794 10.0844 4.5264 10.1152 4.48296 10.1652Z" fill="white"/>
<path id="Vector_10" d="M6.36133 8.32764C6.29502 8.32764 6.23144 8.35398 6.18455 8.40086C6.13767 8.44774 6.11133 8.51133 6.11133 8.57764V8.69014C6.11133 8.75644 6.13767 8.82003 6.18455 8.86691C6.23144 8.9138 6.29502 8.94014 6.36133 8.94014C6.42763 8.94014 6.49122 8.9138 6.5381 8.86691C6.58499 8.82003 6.61133 8.75644 6.61133 8.69014V8.57764C6.61133 8.51133 6.58499 8.44774 6.5381 8.40086C6.49122 8.35398 6.42763 8.32764 6.36133 8.32764Z" fill="white"/>
<path id="Vector_11" d="M6.09961 8.21509H6.61711C6.68341 8.21509 6.747 8.18875 6.79389 8.14186C6.84077 8.09498 6.86711 8.03139 6.86711 7.96509C6.86711 7.89878 6.84077 7.8352 6.79389 7.78831C6.747 7.74143 6.68341 7.71509 6.61711 7.71509H6.09961C6.03331 7.71509 5.96972 7.74143 5.92283 7.78831C5.87595 7.8352 5.84961 7.89878 5.84961 7.96509C5.84961 8.03139 5.87595 8.09498 5.92283 8.14186C5.96972 8.18875 6.03331 8.21509 6.09961 8.21509Z" fill="white"/>
<path id="Vector_12" d="M4.58008 8.69014V8.57764C4.58008 8.51133 4.55374 8.44774 4.50686 8.40086C4.45997 8.35398 4.39638 8.32764 4.33008 8.32764C4.26377 8.32764 4.20019 8.35398 4.1533 8.40086C4.10642 8.44774 4.08008 8.51133 4.08008 8.57764V8.69014C4.08008 8.75644 4.10642 8.82003 4.1533 8.86691C4.20019 8.9138 4.26377 8.94014 4.33008 8.94014C4.39638 8.94014 4.45997 8.9138 4.50686 8.86691C4.55374 8.82003 4.58008 8.75644 4.58008 8.69014Z" fill="white"/>
<path id="Vector_13" d="M4.83977 7.96509C4.83977 7.89878 4.81343 7.8352 4.76654 7.78831C4.71966 7.74143 4.65607 7.71509 4.58977 7.71509H4.07227C4.00596 7.71509 3.94237 7.74143 3.89549 7.78831C3.8486 7.8352 3.82227 7.89878 3.82227 7.96509C3.82227 8.03139 3.8486 8.09498 3.89549 8.14186C3.94237 8.18875 4.00596 8.21509 4.07227 8.21509H4.58977C4.65607 8.21509 4.71966 8.18875 4.76654 8.14186C4.81343 8.09498 4.83977 8.03139 4.83977 7.96509Z" fill="white"/>
<path id="Vector_14" d="M12.8623 7.5002C12.8883 7.47905 12.9097 7.4529 12.9254 7.42331C12.941 7.39371 12.9506 7.36128 12.9534 7.32792C12.9563 7.29457 12.9525 7.26097 12.9421 7.22913C12.9318 7.19729 12.9152 7.16786 12.8932 7.14257C12.8713 7.11728 12.8445 7.09665 12.8144 7.08192C12.7844 7.06718 12.7516 7.05863 12.7182 7.05678C12.6848 7.05493 12.6513 7.05981 12.6198 7.07113C12.5883 7.08245 12.5594 7.09999 12.5348 7.1227C12.3922 7.24211 12.2121 7.30755 12.0261 7.30755C11.84 7.30755 11.6599 7.24211 11.5173 7.1227C11.4669 7.08165 11.4026 7.06183 11.3378 7.06742C11.2731 7.07302 11.2131 7.10359 11.1705 7.15267C11.128 7.20174 11.1062 7.26547 11.1098 7.33034C11.1134 7.39521 11.1421 7.45613 11.1898 7.5002C11.4218 7.70175 11.7187 7.81275 12.0261 7.81275C12.3334 7.81275 12.6303 7.70175 12.8623 7.5002Z" fill="white"/>
<path id="Vector_15" d="M13.041 5.29248C12.9747 5.29248 12.9111 5.31882 12.8642 5.3657C12.8174 5.41259 12.791 5.47618 12.791 5.54248V5.65748C12.791 5.72378 12.8174 5.78737 12.8642 5.83426C12.9111 5.88114 12.9747 5.90748 13.041 5.90748C13.1073 5.90748 13.1709 5.88114 13.2178 5.83426C13.2647 5.78737 13.291 5.72378 13.291 5.65748V5.54248C13.291 5.47618 13.2647 5.41259 13.2178 5.3657C13.1709 5.31882 13.1073 5.29248 13.041 5.29248Z" fill="white"/>
<path id="Vector_16" d="M12.7832 5.18262H13.3007C13.367 5.18262 13.4306 5.15628 13.4775 5.10939C13.5244 5.06251 13.5507 4.99892 13.5507 4.93262C13.5507 4.86631 13.5244 4.80272 13.4775 4.75584C13.4306 4.70896 13.367 4.68262 13.3007 4.68262H12.7832C12.7169 4.68262 12.6533 4.70896 12.6064 4.75584C12.5595 4.80272 12.5332 4.86631 12.5332 4.93262C12.5332 4.99892 12.5595 5.06251 12.6064 5.10939C12.6533 5.15628 12.7169 5.18262 12.7832 5.18262Z" fill="white"/>
<path id="Vector_17" d="M11.2637 5.65748V5.54248C11.2637 5.47618 11.2373 5.41259 11.1904 5.3657C11.1436 5.31882 11.08 5.29248 11.0137 5.29248C10.9474 5.29248 10.8838 5.31882 10.8369 5.3657C10.79 5.41259 10.7637 5.47618 10.7637 5.54248V5.65748C10.7637 5.72378 10.79 5.78737 10.8369 5.83426C10.8838 5.88114 10.9474 5.90748 11.0137 5.90748C11.08 5.90748 11.1436 5.88114 11.1904 5.83426C11.2373 5.78737 11.2637 5.72378 11.2637 5.65748Z" fill="white"/>
<path id="Vector_18" d="M11.52 4.93262C11.52 4.86631 11.4937 4.80272 11.4468 4.75584C11.3999 4.70896 11.3363 4.68262 11.27 4.68262H10.75C10.6837 4.68262 10.6201 4.70896 10.5732 4.75584C10.5263 4.80272 10.5 4.86631 10.5 4.93262C10.5 4.99892 10.5263 5.06251 10.5732 5.10939C10.6201 5.15628 10.6837 5.18262 10.75 5.18262H11.265C11.2982 5.18328 11.3313 5.17731 11.3622 5.16504C11.3931 5.15278 11.4213 5.13447 11.445 5.11119C11.4688 5.0879 11.4876 5.06012 11.5005 5.02946C11.5134 4.9988 11.52 4.96587 11.52 4.93262Z" fill="white"/>
</g>
</svg>
