<svg width="25" height="24" viewBox="0 0 25 24" fill="none" xmlns="http://www.w3.org/2000/svg">
<g id="Group">
<path id="Vector" d="M11.8027 8.34279L7.20745 6.73413C7.20745 8.20288 7.19503 8.19248 7.24121 8.33107C7.30488 8.53001 7.45571 8.69519 7.65803 8.77274C12.665 10.6987 12.313 10.5849 12.4999 10.5849C12.6853 10.5849 12.3289 10.7008 17.3414 8.77274C17.6099 8.66954 17.7924 8.41176 17.7924 8.11633V6.81102L13.1671 8.35311C12.7233 8.50103 12.2434 8.49733 11.8027 8.34279Z" fill="#E2E2E2"/>
<path id="Vector_2" d="M5.03297 4.45412C5.20223 4.56627 4.63608 4.34417 12.2675 7.01503C12.414 7.06689 12.5733 7.06811 12.7223 7.01878C15.3809 6.1325 17.0796 5.56621 19.2104 4.85593V8.82248C19.2104 9.01659 19.2891 9.19288 19.4167 9.31995C19.8573 9.76067 20.6169 9.44691 20.6169 8.82248C20.6169 4.02713 20.6157 3.91868 20.6155 3.91929C20.6367 3.61936 20.4477 3.31699 20.1359 3.21305C12.6277 0.710509 12.6667 0.706055 12.5 0.706055C12.3271 0.706055 12.3773 0.707508 5.20739 3.21633C4.67251 3.4035 4.56636 4.12043 5.03297 4.45412Z" fill="#E2E2E2"/>
<path id="Vector_3" d="M4.73047 15.5249H6.1483V16.9422H4.73047V15.5249Z" fill="#E2E2E2"/>
<path id="Vector_4" d="M23.7967 3.88013H22.0235V8.82238C22.0235 9.98609 21.0768 10.9323 19.9136 10.9323C19.1648 10.9323 18.5061 10.5403 18.1315 9.95093C17.9377 10.0608 18.2595 9.92678 13.2577 11.8507C12.7785 12.0352 12.2391 12.0416 11.7423 11.8507L7.15312 10.0855C6.33824 9.77178 5.80093 8.99009 5.80093 8.11628V6.24224L4.74271 5.87138C3.89736 5.57599 3.32957 4.77565 3.32957 3.88013H1.20329C0.815074 3.88013 0.5 4.1952 0.5 4.58342V19.7665C0.5 20.1547 0.815074 20.4698 1.20329 20.4698H7.56042V21.8872H5.43944C5.05122 21.8872 4.73615 22.2022 4.73615 22.5905C4.73615 22.9791 5.05122 23.2937 5.43944 23.2937H19.5606C19.9488 23.2937 20.2638 22.9791 20.2638 22.5905C20.2638 22.2022 19.9488 21.8872 19.5606 21.8872H17.4395V20.4698H23.7967C24.1849 20.4698 24.5 20.1547 24.5 19.7665V4.58342C24.5 4.1952 24.1849 3.88013 23.7967 3.88013ZM7.55493 17.6454C7.55493 18.0341 7.23986 18.3487 6.85164 18.3487H4.02723C3.63902 18.3487 3.32394 18.0341 3.32394 17.6454V14.8214C3.32394 14.4328 3.63902 14.1182 4.02723 14.1182H6.85164C7.23986 14.1182 7.55493 14.4328 7.55493 14.8214V17.6454ZM20.9728 18.3487H9.67558C9.28737 18.3487 8.97229 18.0341 8.97229 17.6454C8.97229 17.2572 9.28737 16.9421 9.67558 16.9421H20.9728C21.361 16.9421 21.676 17.2572 21.676 17.6454C21.676 18.0341 21.361 18.3487 20.9728 18.3487ZM20.9728 15.5247H9.67558C9.28737 15.5247 8.97229 15.2097 8.97229 14.8214C8.97229 14.4328 9.28737 14.1182 9.67558 14.1182H20.9728C21.361 14.1182 21.676 14.4328 21.676 14.8214C21.676 15.2097 21.361 15.5247 20.9728 15.5247Z" fill="#E2E2E2"/>
</g>
</svg>
