<svg width="24" height="24" viewBox="0 0 24 24" fill="none" xmlns="http://www.w3.org/2000/svg">
<g id="credit 2" clip-path="url(#clip0_2520_38918)">
<path id="Vector" d="M1.81128 13.063C1.45825 12.71 1.45825 12.1356 1.81128 11.7828L10.4262 3.16782C10.5636 3.0305 10.5636 2.80784 10.4262 2.67069C10.2889 2.53318 10.0662 2.53336 9.9291 2.67069L1.31397 11.2856C0.687011 11.9126 0.687011 12.933 1.31397 13.5602L3.48395 15.73C3.55243 15.7985 3.64252 15.8329 3.73243 15.8329C3.82252 15.8329 3.91242 15.7986 3.98109 15.73C4.11841 15.5927 4.11841 15.37 3.98109 15.2329L1.81128 13.063Z" fill="white"/>
<path id="Vector_2" d="M8.72178 6.95442L3.40183 12.2744C3.2645 12.4117 3.2645 12.6344 3.40183 12.7717C3.47049 12.8402 3.56039 12.8746 3.65048 12.8746C3.74039 12.8746 3.83029 12.8404 3.89896 12.7717L9.21891 7.45174C9.35624 7.31441 9.35624 7.09175 9.21891 6.95442C9.08177 6.81728 8.85911 6.81728 8.72178 6.95442Z" fill="white"/>
<path id="Vector_3" d="M11.9405 6.39231C12.3049 6.39231 12.6693 6.2537 12.9467 5.97629L14.0109 4.91208C14.5657 4.35727 14.5657 3.45456 14.0109 2.89975C13.4561 2.34494 12.5533 2.34494 11.9985 2.89975L10.9343 3.96396C10.6655 4.23276 10.5176 4.59 10.5176 4.97013C10.5176 5.35007 10.6655 5.7075 10.9343 5.97629C11.2117 6.2537 11.5761 6.39231 11.9405 6.39231ZM11.4315 4.46109L12.4957 3.39688C12.7764 3.11618 13.233 3.11618 13.5136 3.39688C13.7943 3.67758 13.7943 4.13425 13.5136 4.41477L12.4493 5.47898C12.1688 5.75968 11.7122 5.75968 11.4315 5.47898C11.2956 5.34311 11.2207 5.16239 11.2207 4.97013C11.2207 4.77787 11.2956 4.59696 11.4315 4.46109Z" fill="white"/>
<path id="Vector_4" d="M21.6186 11.6977H18.2345L20.8419 9.09029C21.469 8.46315 21.469 7.4427 20.8419 6.81557L14.4504 0.424256C14.1466 0.120484 13.7427 -0.046875 13.3131 -0.046875C12.8836 -0.046875 12.4796 0.120484 12.1757 0.424256L10.9232 1.6767C10.7861 1.81403 10.7861 2.0365 10.9232 2.17383C11.0606 2.31116 11.2832 2.31116 11.4204 2.17383L12.673 0.921389C12.8438 0.750368 13.0712 0.656251 13.3131 0.656251C13.5548 0.656251 13.7822 0.750368 13.9533 0.921389L20.3446 7.3127C20.6976 7.66573 20.6976 8.23995 20.3446 8.59297L17.24 11.6975H8.35554L10.911 9.14211C11.0483 9.00496 11.0483 8.7823 10.911 8.64498C10.7736 8.50765 10.551 8.50765 10.4138 8.64498L7.36127 11.6977H6.25879C5.37183 11.6977 4.65039 12.4192 4.65039 13.3059V22.3448C4.65039 23.2316 5.37183 23.9532 6.25879 23.9532H21.6186C22.5056 23.9532 23.227 23.2316 23.227 22.3448V21.0455C23.227 20.8512 23.0697 20.6939 22.8755 20.6939C22.6814 20.6939 22.5239 20.8512 22.5239 21.0455V22.3448C22.5239 22.8439 22.118 23.25 21.6186 23.25H6.25879C5.75965 23.25 5.35352 22.8439 5.35352 22.3448V17.4117H22.5239V19.6392C22.5239 19.8333 22.6812 19.9908 22.8755 19.9908C23.0697 19.9908 23.227 19.8333 23.227 19.6392V13.3061C23.227 12.4192 22.5056 11.6977 21.6186 11.6977ZM6.25879 12.4008H21.6186C22.1178 12.4008 22.5239 12.807 22.5239 13.3061V14.5373H5.35352V13.3061C5.35352 12.807 5.75965 12.4008 6.25879 12.4008ZM5.35352 16.7086V15.2404H22.5239V16.7086H5.35352Z" fill="white"/>
<path id="Vector_5" d="M18.6699 19.9907C18.3727 19.9907 18.1309 20.2326 18.1309 20.5298V21.869C18.1309 22.1664 18.3727 22.4081 18.6699 22.4081H20.8002C21.0974 22.4081 21.3392 22.1664 21.3392 21.869V20.5298C21.3392 20.2326 21.0974 19.9907 20.8002 19.9907H18.6699ZM20.6361 21.705H18.834V20.6938H20.6361V21.705Z" fill="white"/>
<path id="Vector_6" d="M12.2461 19.9907C11.9489 19.9907 11.707 20.2326 11.707 20.5298V21.869C11.707 22.1664 11.9489 22.4081 12.2461 22.4081H16.7518C17.049 22.4081 17.2908 22.1664 17.2908 21.869V20.5298C17.2908 20.2326 17.049 19.9907 16.7518 19.9907H12.2461ZM16.5877 21.705H12.4102V20.6938H16.5877V21.705Z" fill="white"/>
<path id="Vector_7" d="M7.97852 21.7051C7.78442 21.7051 7.62695 21.8625 7.62695 22.0566C7.62695 22.2509 7.78442 22.4082 7.97852 22.4082H10.2234C10.4175 22.4082 10.575 22.2509 10.575 22.0566C10.575 21.8625 10.4175 21.7051 10.2234 21.7051H7.97852Z" fill="white"/>
</g>
<defs>
<clipPath id="clip0_2520_38918">
<rect width="24" height="24" fill="white"/>
</clipPath>
</defs>
</svg>
