<svg width="21" height="20" viewBox="0 0 21 20" fill="none" xmlns="http://www.w3.org/2000/svg">
<g id="crown (3) 1" clip-path="url(#clip0_5412_59880)">
<g id="24-Crowns">
<path id="Vector" d="M16.4375 15H4.5625C4.21732 15 3.9375 15.2798 3.9375 15.625V16.25C3.9375 16.5952 4.21732 16.875 4.5625 16.875H16.4375C16.7827 16.875 17.0625 16.5952 17.0625 16.25V15.625C17.0625 15.2798 16.7827 15 16.4375 15Z" fill="#FADF7D"/>
<path id="Vector_2" d="M16.4375 16.25H4.5625C4.39689 16.2495 4.23821 16.1835 4.1211 16.0664C4.004 15.9493 3.93799 15.7906 3.9375 15.625V16.25C3.93799 16.4156 4.004 16.5743 4.1211 16.6914C4.23821 16.8085 4.39689 16.8745 4.5625 16.875H16.4375C16.6031 16.8745 16.7618 16.8085 16.8789 16.6914C16.996 16.5743 17.062 16.4156 17.0625 16.25V15.625C17.062 15.7906 16.996 15.9493 16.8789 16.0664C16.7618 16.1835 16.6031 16.2495 16.4375 16.25Z" fill="#FFBF40"/>
<path id="Vector_3" d="M2.74688 6.67198C2.51415 6.82425 2.23729 6.89456 1.9601 6.87178C1.68292 6.84899 1.42126 6.73442 1.21651 6.5462C1.01177 6.35797 0.875649 6.10684 0.829689 5.83255C0.783728 5.55826 0.830554 5.27647 0.962757 5.03179C1.09496 4.7871 1.30499 4.59349 1.5596 4.4816C1.81422 4.36971 2.09888 4.34593 2.36853 4.41402C2.63818 4.48211 2.87742 4.63818 3.0484 4.85753C3.21937 5.07689 3.31231 5.34699 3.3125 5.62511C3.31265 5.83287 3.261 6.03738 3.16225 6.22017C3.06349 6.40295 2.92073 6.55824 2.74688 6.67198Z" fill="#FFC608"/>
<path id="Vector_4" d="M11.1344 5.45011C10.9426 5.56465 10.7234 5.62513 10.5 5.62513C10.2766 5.62513 10.0574 5.56465 9.86563 5.45011C9.62933 5.31094 9.44536 5.09791 9.34206 4.84387C9.23877 4.58983 9.22188 4.30887 9.29401 4.04428C9.36614 3.7797 9.52327 3.54618 9.7412 3.37971C9.95913 3.21323 10.2258 3.12305 10.5 3.12305C10.7742 3.12305 11.0409 3.21323 11.2588 3.37971C11.4767 3.54618 11.6339 3.7797 11.706 4.04428C11.7781 4.30887 11.7612 4.58983 11.6579 4.84387C11.5546 5.09791 11.3707 5.31094 11.1344 5.45011Z" fill="#FFC608"/>
<path id="Vector_5" d="M18.9375 6.875C18.6903 6.875 18.4486 6.80169 18.243 6.66434C18.0375 6.52699 17.8773 6.33176 17.7827 6.10335C17.688 5.87495 17.6633 5.62361 17.7115 5.38114C17.7598 5.13866 17.8788 4.91593 18.0536 4.74112C18.2284 4.5663 18.4512 4.44725 18.6936 4.39902C18.9361 4.35079 19.1874 4.37554 19.4159 4.47015C19.6443 4.56476 19.8395 4.72498 19.9768 4.93054C20.1142 5.1361 20.1875 5.37777 20.1875 5.625C20.1875 5.95652 20.0558 6.27446 19.8214 6.50888C19.587 6.7433 19.269 6.875 18.9375 6.875Z" fill="#FFC608"/>
<path id="Vector_6" d="M15.4999 7.13129C15.4001 7.16913 15.2942 7.1882 15.1874 7.18754C15.0513 7.18786 14.9168 7.15797 14.7937 7.10004C14.5955 7.0092 14.4351 6.8523 14.34 6.65622C14.2448 6.46013 14.2207 6.23705 14.2719 6.02518C14.3231 5.8133 14.4463 5.62581 14.6205 5.49481C14.7947 5.3638 15.0091 5.29744 15.2268 5.30707C15.4446 5.31671 15.6522 5.40174 15.8142 5.54762C15.9761 5.6935 16.0824 5.89114 16.1146 6.10671C16.1469 6.32228 16.1032 6.54236 15.9911 6.72928C15.8789 6.91619 15.7053 7.0583 15.4999 7.13129Z" fill="#FF9C00"/>
<path id="Vector_7" d="M6.20615 7.10006C6.08299 7.15799 5.94851 7.18788 5.8124 7.18756C5.70566 7.18822 5.59971 7.16915 5.4999 7.13131C5.29584 7.05833 5.12347 6.91673 5.01226 6.73072C4.90104 6.54471 4.8579 6.32584 4.89021 6.11154C4.92251 5.89724 5.02826 5.70082 5.18936 5.55586C5.35047 5.41091 5.55692 5.32641 5.77343 5.31683C5.98994 5.30725 6.20305 5.37318 6.37633 5.50334C6.54961 5.63351 6.67229 5.81982 6.72339 6.03043C6.7745 6.24104 6.75086 6.46286 6.65651 6.65796C6.56216 6.85307 6.40297 7.00934 6.20615 7.10006Z" fill="#FF9C00"/>
<path id="Vector_8" d="M8.54375 10.8688C8.16562 11.472 7.68125 11.8751 7.0625 11.8751C6.6125 11.8751 6.05937 11.4345 5.5 10.8063V7.13135C5.59981 7.16919 5.70576 7.18826 5.8125 7.1876C5.94861 7.18792 6.08309 7.15803 6.20625 7.1001C6.45938 7.77822 7.29375 9.8126 8.54375 10.8688Z" fill="#FFAA00"/>
<path id="Vector_9" d="M15.4999 7.13135V10.8063C14.9406 11.4345 14.3874 11.8751 13.9374 11.8751C13.3187 11.8751 12.8343 11.472 12.4562 10.8688C13.7062 9.8126 14.5406 7.77822 14.7937 7.1001C14.9168 7.15803 15.0513 7.18792 15.1874 7.1876C15.2942 7.18826 15.4001 7.16919 15.4999 7.13135Z" fill="#FFAA00"/>
<path id="Vector_10" d="M11.1469 13.9939C11.2011 14.035 11.2666 14.0587 11.3346 14.0619C11.4025 14.0651 11.4699 14.0476 11.5278 14.0117C11.5856 13.9759 11.6312 13.9233 11.6586 13.861C11.686 13.7987 11.6939 13.7296 11.6812 13.6627L11.5156 12.8564L11.9563 12.4252C12.0014 12.3804 12.0323 12.3233 12.045 12.2609C12.0577 12.1986 12.0516 12.1339 12.0276 12.075C12.0035 12.0161 11.9625 11.9657 11.9097 11.9301C11.857 11.8946 11.7949 11.8755 11.7312 11.8752H11.1219L10.8031 11.1252C10.775 11.0689 10.7318 11.0215 10.6782 10.9883C10.6247 10.9552 10.563 10.9377 10.5 10.9377C10.437 10.9377 10.3753 10.9552 10.3218 10.9883C10.2682 11.0215 10.225 11.0689 10.1969 11.1252L9.87813 11.8752H9.26875C9.20513 11.8755 9.14303 11.8946 9.09028 11.9301C9.03754 11.9657 8.99653 12.0161 8.97244 12.075C8.94835 12.1339 8.94227 12.1986 8.95497 12.2609C8.96766 12.3233 8.99856 12.3804 9.04375 12.4252L9.48438 12.8564L9.31875 13.6627C9.30608 13.7296 9.31397 13.7987 9.34137 13.861C9.36877 13.9233 9.4144 13.9759 9.47225 14.0117C9.5301 14.0476 9.59746 14.0651 9.66544 14.0619C9.73343 14.0587 9.79887 14.035 9.85313 13.9939L10.5 13.5189L11.1469 13.9939ZM15.5 10.8064C16.7188 9.44395 17.9719 7.19082 18.2531 6.67207C18.4567 6.80487 18.6945 6.87545 18.9375 6.8752L16.4375 13.7502V15.0002H4.5625V13.7502L2.0625 6.8752C2.30552 6.87545 2.54335 6.80487 2.74688 6.67207C3.02812 7.19082 4.28125 9.44395 5.5 10.8064C6.05938 11.4346 6.6125 11.8752 7.0625 11.8752C7.68125 11.8752 8.16563 11.4721 8.54375 10.8689C9.56562 9.24082 9.82187 6.1377 9.86562 5.4502C10.0574 5.56474 10.2766 5.62521 10.5 5.62521C10.7234 5.62521 10.9426 5.56474 11.1344 5.4502C11.1781 6.1377 11.4344 9.24082 12.4562 10.8689C12.8344 11.4721 13.3188 11.8752 13.9375 11.8752C14.3875 11.8752 14.9406 11.4346 15.5 10.8064Z" fill="#FADF7D"/>
<path id="Vector_11" d="M10.8031 11.125L11.1219 11.875H11.7312C11.7949 11.8753 11.857 11.8944 11.9097 11.93C11.9624 11.9655 12.0035 12.016 12.0275 12.0748C12.0516 12.1337 12.0577 12.1984 12.045 12.2608C12.0323 12.3231 12.0014 12.3803 11.9562 12.425L11.5156 12.8563L11.6812 13.6625C11.6939 13.7294 11.686 13.7985 11.6586 13.8609C11.6312 13.9232 11.5856 13.9757 11.5277 14.0116C11.4699 14.0474 11.4025 14.0649 11.3345 14.0617C11.2666 14.0586 11.2011 14.0349 11.1469 13.9938L10.5 13.5188L9.85311 13.9938C9.79885 14.0349 9.73342 14.0586 9.66543 14.0617C9.59744 14.0649 9.53009 14.0474 9.47224 14.0116C9.41439 13.9757 9.36876 13.9232 9.34135 13.8609C9.31395 13.7985 9.30607 13.7294 9.31874 13.6625L9.48436 12.8563L9.04374 12.425C8.99854 12.3803 8.96765 12.3231 8.95495 12.2608C8.94226 12.1984 8.94834 12.1337 8.97243 12.0748C8.99651 12.016 9.03752 11.9655 9.09027 11.93C9.14301 11.8944 9.20512 11.8753 9.26874 11.875H9.87811L10.1969 11.125C10.225 11.0687 10.2682 11.0213 10.3218 10.9882C10.3753 10.955 10.437 10.9375 10.5 10.9375C10.5629 10.9375 10.6247 10.955 10.6782 10.9882C10.7318 11.0213 10.775 11.0687 10.8031 11.125Z" fill="#D1013E"/>
<path id="Vector_12" d="M11.1343 4.82514C10.9425 4.93968 10.7233 5.00016 10.4999 5.00016C10.2766 5.00016 10.0574 4.93968 9.86557 4.82514C9.58192 4.6592 9.3756 4.38759 9.29182 4.06982C9.22166 4.33096 9.2399 4.60798 9.34368 4.85767C9.44747 5.10736 9.63097 5.31568 9.86557 5.45014C10.0574 5.56468 10.2766 5.62516 10.4999 5.62516C10.7233 5.62516 10.9425 5.56468 11.1343 5.45014C11.3689 5.31568 11.5524 5.10736 11.6562 4.85767C11.76 4.60798 11.7782 4.33096 11.7081 4.06982C11.6243 4.38759 11.418 4.6592 11.1343 4.82514Z" fill="#FFAA00"/>
<path id="Vector_13" d="M19.5718 6.07514C19.38 6.18968 19.1608 6.25016 18.9374 6.25016C18.7141 6.25016 18.4949 6.18968 18.3031 6.07514C18.0194 5.9092 17.8131 5.63759 17.7293 5.31982C17.6592 5.58096 17.6774 5.85798 17.7812 6.10767C17.885 6.35736 18.0685 6.56568 18.3031 6.70014C18.4949 6.81468 18.7141 6.87516 18.9374 6.87516C19.1608 6.87516 19.38 6.81468 19.5718 6.70014C19.8064 6.56568 19.9899 6.35736 20.0937 6.10767C20.1975 5.85798 20.2157 5.58096 20.1456 5.31982C20.0618 5.63759 19.8555 5.9092 19.5718 6.07514Z" fill="#FFAA00"/>
<path id="Vector_14" d="M2.69682 6.07514C2.50504 6.18968 2.28583 6.25016 2.06245 6.25016C1.83907 6.25016 1.61985 6.18968 1.42807 6.07514C1.14442 5.9092 0.938105 5.63759 0.854324 5.31982C0.784162 5.58096 0.802397 5.85798 0.906184 6.10767C1.00997 6.35736 1.19347 6.56568 1.42807 6.70014C1.61985 6.81468 1.83907 6.87516 2.06245 6.87516C2.28583 6.87516 2.50504 6.81468 2.69682 6.70014C2.93142 6.56568 3.11493 6.35736 3.21871 6.10767C3.3225 5.85798 3.34074 5.58096 3.27057 5.31982C3.18679 5.63759 2.98048 5.9092 2.69682 6.07514Z" fill="#FFAA00"/>
<path id="Vector_15" d="M6.20614 6.47512C6.08298 6.53305 5.9485 6.56294 5.81239 6.56262C5.70565 6.56328 5.5997 6.54421 5.49989 6.50637C5.36867 6.46101 5.24937 6.38665 5.15085 6.28884C5.05233 6.19102 4.97712 6.07225 4.93083 5.94137C4.89497 6.04041 4.87606 6.14479 4.87489 6.25012C4.87396 6.44389 4.93374 6.63308 5.04583 6.79114C5.15793 6.94919 5.31671 7.06817 5.49989 7.13137C5.5997 7.16921 5.70565 7.18828 5.81239 7.18762C5.9485 7.18794 6.08298 7.15805 6.20614 7.10012C6.41881 7.00408 6.58727 6.83115 6.67769 6.61604C6.76812 6.40092 6.77382 6.15957 6.69364 5.94043C6.65224 6.05761 6.58777 6.16531 6.50404 6.25715C6.42031 6.34898 6.31901 6.4231 6.20614 6.47512Z" fill="#DE8800"/>
<path id="Vector_16" d="M15.5811 6.47512C15.458 6.53305 15.3235 6.56294 15.1874 6.56262C15.0806 6.56328 14.9747 6.54421 14.8749 6.50637C14.7437 6.46101 14.6244 6.38665 14.5259 6.28884C14.4273 6.19102 14.3521 6.07225 14.3058 5.94137C14.27 6.04041 14.2511 6.14479 14.2499 6.25012C14.249 6.44389 14.3087 6.63308 14.4208 6.79114C14.5329 6.94919 14.6917 7.06817 14.8749 7.13137C14.9747 7.16921 15.0806 7.18828 15.1874 7.18762C15.3235 7.18794 15.458 7.15805 15.5811 7.10012C15.7938 7.00408 15.9623 6.83115 16.0527 6.61604C16.1431 6.40092 16.1488 6.15957 16.0686 5.94043C16.0272 6.05761 15.9628 6.16531 15.879 6.25715C15.7953 6.34898 15.694 6.4231 15.5811 6.47512Z" fill="#DE8800"/>
<path id="Vector_17" d="M6.12937 10.8313C6.03292 10.777 5.9527 10.6979 5.897 10.6022C5.8413 10.5065 5.81213 10.3977 5.8125 10.287V8.4376C5.8125 8.27184 5.87835 8.11287 5.99556 7.99566C6.11277 7.87845 6.27174 7.8126 6.4375 7.8126H6.49656C6.36625 7.51635 6.26844 7.26697 6.20625 7.1001C6.08309 7.15803 5.94861 7.18792 5.8125 7.1876C5.70576 7.18826 5.59981 7.16919 5.5 7.13135V10.8063C6.05937 11.4345 6.6125 11.8751 7.0625 11.8751C7.68125 11.8751 8.16562 11.472 8.54375 10.8688C8.5125 10.8417 8.48125 10.8113 8.45 10.7829C7.585 11.4788 6.61656 11.1054 6.12937 10.8313Z" fill="#FF9C00"/>
<path id="Vector_18" d="M15.1874 7.1876C15.0513 7.18792 14.9168 7.15803 14.7937 7.1001C14.7312 7.26697 14.6337 7.51635 14.5034 7.8126H14.5624C14.7282 7.8126 14.8872 7.87845 15.0044 7.99566C15.1216 8.11287 15.1874 8.27184 15.1874 8.4376V10.287C15.1878 10.3977 15.1586 10.5065 15.1029 10.6022C15.0472 10.6979 14.967 10.777 14.8706 10.8313C14.3834 11.1054 13.4159 11.4767 12.5518 10.782C12.5206 10.8107 12.4893 10.8413 12.4562 10.8688C12.8343 11.472 13.3187 11.8751 13.9374 11.8751C14.3874 11.8751 14.9406 11.4345 15.4999 10.8063V7.13135C15.4001 7.16919 15.2942 7.18826 15.1874 7.1876Z" fill="#FF9C00"/>
<g id="Group">
<path id="Vector_19" d="M18.19 7.74087C18.224 7.67426 18.2806 7.62194 18.3497 7.59331C18.4188 7.56467 18.4958 7.56159 18.5669 7.58462L18.6672 7.61806L18.9375 6.87524C18.6945 6.8755 18.4567 6.80491 18.2532 6.67212C17.9719 7.19087 16.7188 9.44399 15.5 10.8065C15.0122 11.3543 14.5294 11.759 14.1154 11.8537C14.6647 11.7524 16.4132 11.164 18.19 7.74087Z" fill="#FFBF40"/>
<path id="Vector_20" d="M11.1469 13.994L10.815 13.7502H10.185L9.85313 13.994C9.80477 14.0301 9.74761 14.0526 9.6876 14.0591C9.62759 14.0657 9.56694 14.056 9.51195 14.0311C9.45696 14.0062 9.40965 13.967 9.37496 13.9176C9.34026 13.8682 9.31945 13.8104 9.31469 13.7502H6.4375C6.18886 13.7502 5.9504 13.6515 5.77459 13.4757C5.59877 13.2998 5.5 13.0614 5.5 12.8127L2.93031 7.95899C2.90509 7.91137 2.89261 7.85803 2.8941 7.80415C2.89558 7.75028 2.91097 7.6977 2.93877 7.65153C2.96657 7.60537 3.00584 7.56717 3.05276 7.54066C3.09969 7.51415 3.15267 7.50023 3.20656 7.50024H3.21438C2.99375 7.12181 2.82844 6.82274 2.74562 6.67212C2.54245 6.80468 2.30509 6.87526 2.0625 6.87524L4.5625 13.7502V15.0002H16.4375V13.7502H11.6853C11.6805 13.8104 11.6597 13.8682 11.625 13.9176C11.5903 13.967 11.543 14.0062 11.4881 14.0311C11.4331 14.056 11.3724 14.0657 11.3124 14.0591C11.2524 14.0526 11.1952 14.0301 11.1469 13.994Z" fill="#FFBF40"/>
<path id="Vector_21" d="M10.1625 6.8352C10.1727 6.67646 10.243 6.52759 10.3591 6.41889C10.4752 6.3102 10.6284 6.24987 10.7875 6.2502H11.2056C11.1672 5.89082 11.1456 5.60613 11.1356 5.4502C10.9438 5.56474 10.7246 5.62521 10.5013 5.62521C10.2779 5.62521 10.0587 5.56474 9.86687 5.4502C9.82313 6.1377 9.56687 9.24082 8.545 10.8689C8.16562 11.4721 7.68125 11.8752 7.0625 11.8752C9.5625 11.8752 10.0625 8.2752 10.1625 6.8352Z" fill="#FFBF40"/>
</g>
<path id="Vector_22" d="M12.3162 11.9556C12.269 11.8392 12.1881 11.7396 12.0839 11.6695C11.9796 11.5994 11.8568 11.5622 11.7312 11.5625H11.3284L11.0906 11.0025C11.0881 10.9967 11.0853 10.9907 11.0821 10.9847C11.0284 10.8763 10.9454 10.7852 10.8425 10.7216C10.7396 10.658 10.6209 10.6246 10.4999 10.625C10.3758 10.6254 10.2544 10.6612 10.1498 10.728C10.0452 10.7948 9.96183 10.89 9.90932 11.0025L9.6715 11.5625H9.26869C9.14297 11.5628 9.02018 11.6004 8.9159 11.6706C8.81162 11.7408 8.73057 11.8405 8.68304 11.9569C8.63552 12.0732 8.62366 12.2011 8.64898 12.3243C8.6743 12.4474 8.73566 12.5603 8.82525 12.6484L9.14369 12.9609L9.01275 13.5994C8.98572 13.7271 8.99856 13.86 9.04953 13.9802C9.1005 14.1003 9.18715 14.2019 9.29775 14.2713C9.40312 14.3389 9.52565 14.375 9.65088 14.3753C9.79041 14.3753 9.92616 14.33 10.0378 14.2463L10.4999 13.9063L10.9599 14.2444C11.066 14.3244 11.1941 14.3698 11.3269 14.3745C11.4597 14.3792 11.5907 14.3429 11.7021 14.2706C11.8126 14.2014 11.8992 14.1 11.9502 13.98C12.0012 13.86 12.0142 13.7273 11.9874 13.5997L11.8562 12.9603L12.1756 12.6478C12.2653 12.5596 12.3267 12.4466 12.3518 12.3232C12.3768 12.1999 12.3644 12.0719 12.3162 11.9556ZM11.9562 12.4244L11.5156 12.8556L11.6812 13.6619C11.6939 13.7288 11.686 13.7979 11.6586 13.8602C11.6312 13.9225 11.5855 13.975 11.5277 14.0109C11.4698 14.0468 11.4025 14.0643 11.3345 14.0611C11.2665 14.0579 11.2011 14.0342 11.1468 13.9931L10.4999 13.5188L9.85307 13.9938C9.79881 14.0348 9.73337 14.0585 9.66539 14.0617C9.5974 14.0649 9.53004 14.0474 9.47219 14.0115C9.41434 13.9757 9.36871 13.9231 9.34131 13.8608C9.31391 13.7985 9.30602 13.7294 9.31869 13.6625L9.48432 12.8563L9.04369 12.425C8.9985 12.3802 8.9676 12.3231 8.95491 12.2607C8.94221 12.1984 8.9483 12.1337 8.97238 12.0748C8.99647 12.0159 9.03748 11.9655 9.09022 11.93C9.14297 11.8944 9.20508 11.8753 9.26869 11.875H9.87807L10.1968 11.125C10.2249 11.0687 10.2682 11.0213 10.3217 10.9881C10.3753 10.955 10.437 10.9375 10.4999 10.9375C10.5629 10.9375 10.6246 10.955 10.6782 10.9881C10.7317 11.0213 10.775 11.0687 10.8031 11.125L11.1218 11.875H11.7312C11.7948 11.8753 11.8569 11.8944 11.9097 11.93C11.9624 11.9655 12.0034 12.0159 12.0275 12.0748C12.0516 12.1337 12.0577 12.1984 12.045 12.2607C12.0323 12.3231 12.0014 12.3802 11.9562 12.425V12.4244Z" fill="#FF9C00"/>
<path id="Vector_23" d="M15.5 6.25C15.6726 6.25 15.8125 6.11009 15.8125 5.9375C15.8125 5.76491 15.6726 5.625 15.5 5.625C15.3274 5.625 15.1875 5.76491 15.1875 5.9375C15.1875 6.11009 15.3274 6.25 15.5 6.25Z" fill="#FFC608"/>
<path id="Vector_24" d="M6.125 6.25C6.29759 6.25 6.4375 6.11009 6.4375 5.9375C6.4375 5.76491 6.29759 5.625 6.125 5.625C5.95241 5.625 5.8125 5.76491 5.8125 5.9375C5.8125 6.11009 5.95241 6.25 6.125 6.25Z" fill="#FFC608"/>
<path id="Vector_25" d="M10.8125 4.375C10.9851 4.375 11.125 4.23509 11.125 4.0625C11.125 3.88991 10.9851 3.75 10.8125 3.75C10.6399 3.75 10.5 3.88991 10.5 4.0625C10.5 4.23509 10.6399 4.375 10.8125 4.375Z" fill="#FFFCED"/>
<path id="Vector_26" d="M19.5625 5.625C19.7351 5.625 19.875 5.48509 19.875 5.3125C19.875 5.13991 19.7351 5 19.5625 5C19.3899 5 19.25 5.13991 19.25 5.3125C19.25 5.48509 19.3899 5.625 19.5625 5.625Z" fill="#FFFCED"/>
<path id="Vector_27" d="M2.6875 5.625C2.86009 5.625 3 5.48509 3 5.3125C3 5.13991 2.86009 5 2.6875 5C2.51491 5 2.375 5.13991 2.375 5.3125C2.375 5.48509 2.51491 5.625 2.6875 5.625Z" fill="#FFFCED"/>
</g>
</g>
<defs>
<clipPath id="clip0_5412_59880">
<rect width="20" height="20" fill="white" transform="translate(0.5)"/>
</clipPath>
</defs>
</svg>
