<svg width="67" height="80" viewBox="0 0 67 80" fill="none" xmlns="http://www.w3.org/2000/svg">
<g id="data-analysis 1" clip-path="url(#clip0_5573_51921)">
<g id="Group">
<path id="Vector" d="M38.8937 79.0844C8.34385 79.0516 -10.2968 45.0481 6.08092 19.2743C7.35624 17.267 8.82915 15.3618 10.4601 13.6093C18.6918 4.63581 31.2265 0.0035758 43.3198 1.42384C46.9783 2.21934 51.6838 -1.51135 53.429 3.95652C54.7579 4.48774 56.0547 5.08736 57.3004 5.75572L57.2609 5.73744C59.5841 6.96965 61.7653 8.43725 63.8182 10.1418C63.8818 10.1935 63.9522 10.2513 64.0236 10.3113C64.1099 10.3761 64.1927 10.4453 64.2722 10.5182C64.8147 10.9809 65.3598 11.4755 65.9023 11.9974C66.1725 11.9322 66.4447 11.8765 66.7179 11.8306C67.3944 11.7165 68.0882 11.6587 68.7801 11.6587C72.4394 11.6587 75.8349 13.2596 77.8636 15.9408C80.4245 19.3266 80.7102 24.4009 78.5741 28.5676C78.111 29.472 77.529 30.3067 76.855 31.0389C77.0367 31.7913 77.2004 32.581 77.3408 33.3864C78.2786 38.7343 78.0844 44.201 76.7983 49.471C76.0406 52.534 74.926 55.4653 73.4763 58.2218C73.4758 58.2222 73.4753 58.2233 73.4753 58.2233C73.4427 58.2891 73.41 58.3498 73.3774 58.4094C73.3744 58.4156 73.368 58.4278 73.368 58.4278C72.3428 60.3565 71.1404 62.2159 69.7951 63.9547C62.5635 73.4105 50.8307 79.1943 38.8937 79.0844Z" fill="white"/>
<g id="Group_2">
<path id="Vector_2" d="M75.736 40.13C75.6009 71.6561 38.3059 88.1087 14.9535 66.9473C14.9492 66.9473 14.9492 66.9473 14.9492 66.9473C0.0836077 53.7722 -0.846368 29.5577 12.9569 15.2831C25.7181 1.28945 48.5839 -0.0349145 62.8659 12.4065H62.8703C70.9561 19.1731 75.7981 29.5711 75.736 40.13Z" fill="#FFD2A7"/>
<g id="Group_3">
<g id="Group_4">
<path id="Vector_3" d="M58.7401 62.2908C65.2731 62.2908 70.5691 56.9948 70.5691 50.4618C70.5691 43.9288 65.2731 38.6328 58.7401 38.6328C52.2072 38.6328 46.9111 43.9288 46.9111 50.4618C46.9111 56.9948 52.2072 62.2908 58.7401 62.2908Z" fill="#FF899A"/>
<path id="Vector_4" d="M16.1014 39.3832C16.1014 45.7257 11.1091 50.9027 4.83688 51.1973C4.2738 49.4467 3.84286 47.6346 3.5525 45.7741C3.54813 45.7345 3.53938 45.6949 3.53501 45.6553C3.25792 43.8564 3.11719 42.0089 3.11719 40.1309C3.11719 39.8097 3.12156 39.4931 3.13046 39.1764C3.13046 39.0928 3.13484 39.0092 3.13921 38.9257V38.9213C3.13921 38.8773 3.13921 38.8334 3.14358 38.7893C3.23589 36.137 3.61857 33.5596 4.25193 31.0832C4.26521 31.0304 4.2827 30.9776 4.29598 30.9248C4.53792 29.9923 4.81938 29.0686 5.14052 28.1669C5.15364 28.1141 5.17129 28.0613 5.19331 28.0131C5.24173 27.8723 5.29 27.736 5.34279 27.5996C11.373 28.1407 16.1014 33.2121 16.1014 39.3832Z" fill="#FFA766"/>
</g>
<path id="Vector_5" d="M66.1515 51.4608C66.1295 51.4432 66.0987 51.4301 66.0679 51.4344C59.8838 51.8963 55.0366 57.126 55.0366 63.3411C55.0366 66.3672 56.1846 69.1646 58.0891 71.2846C58.155 71.2449 58.2167 71.2054 58.2783 71.1703C56.4 69.0854 55.2565 66.3275 55.2565 63.3411C55.2565 57.28 59.9497 52.1734 65.9667 51.6631V64.9113C66.0415 64.8321 66.1118 64.7529 66.1867 64.6737V51.5442C66.1867 51.5136 66.1735 51.4829 66.1515 51.4608Z" fill="#401A49"/>
</g>
<path id="Vector_6" d="M75.4716 44.5109C75.3486 45.5356 75.1813 46.5473 74.979 47.5459C63.3979 50.5896 44.4405 55.5906 44.4405 55.5906L18.7623 53.8312L11.5752 18.6435L56.1931 11.0078L61.0623 42.9011C61.0621 42.901 68.9838 43.8203 75.4716 44.5109Z" fill="#401A49"/>
<path id="Vector_7" d="M14.1191 19.9536L20.6327 51.9969L59.1894 42.9005L54.66 12.916L14.1191 19.9911" fill="#FFE5D2"/>
<g id="Group_5">
<path id="Vector_8" d="M63.8235 33.3941L64.0385 32.6534C64.3333 31.6383 64.0212 30.5344 63.2162 29.8495C61.539 28.4225 59.0155 25.4973 60.0392 21.3891C60.9325 17.804 63.954 15.0467 67.6054 14.4319C70.7494 13.9024 74.2384 14.9291 76.2077 17.5322C78.2873 20.2809 78.2029 24.3816 76.6747 27.363C75.9619 28.7538 74.8879 29.9568 73.522 30.7307C72.5442 31.2847 71.4462 31.6168 70.3311 31.74C70.33 31.7402 70.3288 31.7402 70.3273 31.7403C69.1759 31.8408 68.1962 32.6211 67.8965 33.7374L67.6874 34.5165L63.8235 33.3941Z" fill="#FFE5D2"/>
<path id="Vector_9" d="M73.785 26.6754C72.8917 29.7509 69.6745 31.5201 66.599 30.6268C63.5236 29.7336 61.7544 26.5163 62.6476 23.4408C63.5409 20.3652 66.7582 18.5962 69.8336 19.4894C72.9091 20.3826 74.6783 23.5998 73.785 26.6754Z" fill="#FFA766"/>
<path id="Vector_10" d="M66.1027 34.6174C66.1008 34.6174 66.099 34.6174 66.0971 34.6174C66.0584 34.6142 66.0293 34.5805 66.0324 34.5413C66.1043 33.6299 66.5601 32.7023 67.3865 31.7853C67.7809 31.3474 68.2232 30.9459 68.6509 30.5571C68.9715 30.2653 69.3031 29.9637 69.6113 29.6502C70.5508 28.6937 71.3122 27.5921 71.8744 26.3761C72.1052 25.8763 72.3731 25.2118 72.3928 24.5066C72.4118 23.808 72.1604 23.1601 71.7199 22.7734C71.232 22.3454 70.47 22.2089 69.7797 22.4241C69.4339 22.5317 69.0999 22.7235 68.7972 22.9841C68.8886 23.2907 68.9384 23.6148 68.9411 23.9437C68.9467 24.6272 68.6965 25.162 68.2719 25.3746C68.1704 25.4252 68.0212 25.4724 67.8818 25.4107C67.7554 25.3544 67.6687 25.2167 67.6368 25.0232C67.5658 24.5941 67.7065 24.1183 68.0553 23.6085C68.2284 23.356 68.4239 23.1312 68.6357 22.9388C68.4455 22.3565 68.099 21.8476 67.6429 21.5102C66.8693 20.9381 65.778 20.8925 65.0486 21.4007C64.3768 21.869 63.9847 22.7609 63.8838 24.0518C63.6883 26.537 64.3346 29.0261 64.9195 30.9173L64.9264 30.939C65.2304 31.9222 65.5753 33.0364 65.198 34.0318C65.1843 34.0683 65.1445 34.0872 65.1071 34.0724C65.0711 34.0586 65.0523 34.018 65.0664 33.9815C65.4262 33.0317 65.1037 31.9891 64.7913 30.9804L64.7849 30.9591C64.1961 29.0558 63.5457 26.5496 63.7431 24.0407C63.8478 22.7056 64.2596 21.7784 64.9678 21.285C65.7464 20.743 66.907 20.7905 67.7267 21.3968C68.1915 21.7403 68.5475 22.2523 68.7505 22.8391C69.0559 22.5854 69.3911 22.3975 69.738 22.2895C70.4747 22.0589 71.2894 22.2076 71.8128 22.6676C72.2849 23.0815 72.5541 23.7703 72.5337 24.5105C72.5135 25.2415 72.2392 25.9232 72.0023 26.4355C71.4333 27.666 70.6626 28.7807 69.7117 29.7491C69.4009 30.0656 69.0677 30.3683 68.7457 30.6613C68.3208 31.0477 67.8811 31.4471 67.4916 31.8796C66.6859 32.7735 66.2425 33.6727 66.1733 34.5528C66.1702 34.5896 66.1393 34.6174 66.1027 34.6174ZM68.6808 23.0889C68.4961 23.2635 68.3249 23.4647 68.1715 23.6883C67.844 24.1669 67.7109 24.608 67.7759 25.0002C67.7896 25.0842 67.8291 25.2329 67.9391 25.282C68.0323 25.3231 68.1482 25.2785 68.2088 25.2481C68.7649 24.9701 68.8022 24.18 68.8003 23.9446C68.7977 23.6523 68.7566 23.3636 68.6808 23.0889Z" fill="#401A49"/>
<g id="Group_6">
<path id="Vector_11" d="M68.2641 35.5836C68.4769 35.1804 67.7472 34.5035 67.7472 34.5035C67.7472 34.5035 65.7901 33.9421 65.792 33.9354L63.8233 33.3945C63.8233 33.3945 62.8755 33.5813 62.8371 34.0323C62.7985 34.4832 63.2073 34.8791 63.2073 34.8791C63.2073 34.8791 62.5033 35.0752 62.4199 35.5747C62.3365 36.0742 62.8268 36.4014 62.8268 36.4014C62.8268 36.4014 62.0652 36.7964 62.0266 37.2474C61.9963 37.6016 62.9107 37.9221 63.1447 38.026C64.2193 38.5036 65.4307 38.8472 66.6123 38.8829C66.7652 38.8875 67.126 38.9219 67.2163 38.7509C67.4292 38.3477 66.9767 37.5963 66.9767 37.5963C66.9767 37.5963 67.5862 37.5872 67.7863 37.1185C67.9863 36.6496 67.4757 36.0984 67.4757 36.0984C67.4757 36.0984 68.0512 35.9869 68.2641 35.5836Z" fill="#8F8FEF"/>
<path id="Vector_12" d="M67.4757 36.1693C67.4719 36.1693 67.4677 36.1693 67.4638 36.1685C64.8782 35.7265 63.1942 34.9513 63.1775 34.9433C63.1421 34.9269 63.1269 34.885 63.1433 34.8497C63.1593 34.8143 63.2019 34.7984 63.2369 34.8155C63.2536 34.8232 64.9219 35.5907 67.4874 36.0293C67.5258 36.0362 67.5517 36.0723 67.5452 36.1107C67.5392 36.1454 67.5096 36.1693 67.4757 36.1693Z" fill="#401A49"/>
<path id="Vector_13" d="M67.0304 37.7016C67.0266 37.7016 67.0224 37.7016 67.0185 37.7009C64.4329 37.2593 62.7489 36.4841 62.7322 36.4761C62.6968 36.4597 62.6816 36.4179 62.698 36.3826C62.7139 36.3473 62.7566 36.332 62.7916 36.3484C62.8083 36.356 64.4766 37.1236 67.0421 37.5617C67.0805 37.5681 67.1064 37.6046 67.0999 37.6431C67.0939 37.6777 67.0642 37.7016 67.0304 37.7016Z" fill="#401A49"/>
</g>
<path id="Vector_14" d="M61.3445 27.1348C61.5483 27.5582 61.8254 27.9837 62.2252 28.0826C62.378 28.1204 62.5554 28.0976 62.6659 27.9604C62.7571 27.8472 62.7841 27.6757 62.7622 27.5225C62.7404 27.3694 62.6754 27.2315 62.6034 27.1039C62.4458 26.8249 62.2494 26.5808 62.04 26.3574C61.8608 26.1663 61.4688 25.8125 61.2357 26.1119C61.0227 26.3855 61.2231 26.8829 61.3445 27.1348Z" fill="white"/>
</g>
<path id="Vector_15" d="M24.0582 43.3777C24.0582 43.8894 23.6433 44.3043 23.1316 44.3043C22.6199 44.3043 22.2051 43.8894 22.2051 43.3777C22.2051 42.866 22.6199 42.4512 23.1316 42.4512C23.6433 42.4512 24.0582 42.866 24.0582 43.3777Z" fill="#8F8FEF"/>
<path id="Vector_16" d="M52.2176 20.8902C52.7293 20.8902 53.1441 20.4754 53.1441 19.9636C53.1441 19.4519 52.7293 19.0371 52.2176 19.0371C51.7058 19.0371 51.291 19.4519 51.291 19.9636C51.291 20.4754 51.7058 20.8902 52.2176 20.8902Z" fill="#F05D6A"/>
<g id="Group_7">
<path id="Vector_17" d="M21.1191 24.2396L26.1166 46.6437L54.248 40.7479L50.2613 19.0176L21.1191 24.2396Z" fill="#FF899A"/>
<path id="Vector_18" d="M23.2152 43.4575C23.1768 43.4575 23.138 43.4477 23.1026 43.4263C22.9984 43.364 22.9645 43.2289 23.0268 43.1247L30.1578 31.2209C30.2188 31.1186 30.3495 31.0839 30.453 31.1414L43.3314 38.2713L51.9903 19.9535C52.0427 19.8436 52.1736 19.7983 52.2831 19.8486C52.3931 19.9007 52.4398 20.0315 52.3881 20.1414L43.6288 38.6711C43.6025 38.7263 43.5549 38.7678 43.4971 38.7864C43.4401 38.8058 43.3768 38.7994 43.3232 38.7697L30.426 31.6296L23.4042 43.3509C23.3631 43.4194 23.29 43.4575 23.2152 43.4575Z" fill="#401A49"/>
<path id="Vector_19" d="M30.4309 32.232C30.9426 32.232 31.3575 31.8172 31.3575 31.3054C31.3575 30.7937 30.9426 30.3789 30.4309 30.3789C29.9192 30.3789 29.5044 30.7937 29.5044 31.3054C29.5044 31.8172 29.9192 32.232 30.4309 32.232Z" fill="#FFD2A7"/>
<g id="Group_8">
<path id="Vector_20" d="M18.4048 26.7808C18.3009 26.7808 18.2084 26.7071 18.1887 26.6009C18.1667 26.4814 18.2458 26.3669 18.3652 26.3446L25.4403 25.0343C25.5572 25.0149 25.6743 25.091 25.6967 25.2108C25.7187 25.3302 25.6396 25.4447 25.5202 25.4671L18.4451 26.7774C18.4318 26.7797 18.418 26.7808 18.4048 26.7808Z" fill="#401A49"/>
<path id="Vector_21" d="M18.5454 27.9035C18.4415 27.9035 18.349 27.8298 18.3294 27.7236C18.3073 27.6041 18.3864 27.4896 18.5059 27.4673L25.5807 26.1573C25.6975 26.1379 25.8149 26.214 25.837 26.3338C25.859 26.4533 25.78 26.5678 25.6605 26.5901L18.5857 27.9001C18.5724 27.9025 18.5587 27.9035 18.5454 27.9035Z" fill="#401A49"/>
<path id="Vector_22" d="M18.9668 28.9702C18.8629 28.9702 18.7704 28.8964 18.7508 28.7902C18.7287 28.6707 18.8078 28.5562 18.9273 28.5339L26.002 27.2239C26.1195 27.2038 26.236 27.2806 26.2584 27.4004C26.2804 27.5199 26.2013 27.6344 26.0819 27.6567L19.0071 28.9667C18.9938 28.9689 18.98 28.9702 18.9668 28.9702Z" fill="#401A49"/>
</g>
<g id="Group_9">
<path id="Vector_23" d="M48.4991 41.1159C48.4013 41.1159 48.3123 41.0504 48.2865 40.9516C48.2558 40.8339 48.326 40.7138 48.4437 40.6834L55.405 38.8629C55.5241 38.8314 55.6425 38.9029 55.6732 39.0201C55.704 39.1377 55.6337 39.2578 55.5161 39.2882L48.5547 41.1087C48.536 41.1137 48.5174 41.1159 48.4991 41.1159Z" fill="#401A49"/>
<path id="Vector_24" d="M48.7203 42.225C48.6225 42.225 48.5335 42.1596 48.5077 42.0607C48.4769 41.9431 48.5472 41.823 48.6648 41.7925L55.6262 39.9721C55.7449 39.9413 55.8637 40.0116 55.8944 40.1292C55.9252 40.2468 55.8549 40.3669 55.7373 40.3974L48.7759 42.2178C48.7573 42.2228 48.7386 42.225 48.7203 42.225Z" fill="#401A49"/>
<path id="Vector_25" d="M49.2179 43.2584C49.1201 43.2584 49.031 43.1929 49.0053 43.0941C48.9745 42.9764 49.0448 42.8563 49.1624 42.8259L56.1238 41.0054C56.2428 40.9742 56.3615 41.045 56.392 41.1626C56.4227 41.2802 56.3525 41.4003 56.2349 41.4308L49.2735 43.2512C49.2547 43.256 49.236 43.2584 49.2179 43.2584Z" fill="#401A49"/>
</g>
</g>
<g id="Group_10">
<path id="Vector_26" d="M11.6113 42.0025L19.4724 68.2061L44.1786 61.1685L37.74 36.3125L11.6113 42.0025Z" fill="#8F8FEF"/>
<g id="Group_11">
<path id="Vector_27" d="M12.8091 39.606L20.6701 65.8095L45.3764 58.772L38.9378 33.916L12.8091 39.606Z" fill="white"/>
<g id="Group_12">
<path id="Vector_28" d="M23.9454 63.3953L22.0923 57.331L25.4051 56.3203L27.2301 62.3845L23.9454 63.3953Z" fill="#FFD2A7"/>
<path id="Vector_29" d="M28.9429 61.9624L24.7036 48.4582L28.1194 47.541L32.2278 60.9516L28.9429 61.9624Z" fill="#FF899A"/>
<path id="Vector_30" d="M34.1837 60.4663L30.7397 49.358L34.0526 48.291L37.4686 59.4556L34.1837 60.4663Z" fill="#FFA766"/>
<path id="Vector_31" d="M38.7881 59.128L33.8843 43.6303L37.4218 42.6758L42.2133 58.136L38.7881 59.128Z" fill="#8F8FEF"/>
<path id="Vector_32" d="M21.7558 64.2356C21.7086 64.2356 21.6652 64.2051 21.6508 64.158L14.5757 41.1363C14.5579 41.0782 14.5902 41.0168 14.6483 40.999C14.7061 40.9812 14.7681 41.0138 14.7856 41.0716L21.8292 63.9899L43.5676 57.6749C43.6254 57.6597 43.687 57.6916 43.7041 57.7498C43.7208 57.8084 43.6874 57.8693 43.6291 57.8863L21.7865 64.2315C21.7762 64.234 21.7661 64.2356 21.7558 64.2356Z" fill="#401A49"/>
<g id="Group_13">
<path id="Vector_33" d="M23.6085 56.9356C23.5978 56.9356 23.5867 56.934 23.5761 56.9306C23.5179 56.9126 23.4855 56.8511 23.5035 56.7933L26.2269 47.9778C26.2428 47.9261 26.2923 47.8932 26.3475 47.9012L32.2146 48.7331L37.1565 39.6475C37.1854 39.5939 37.2524 39.5741 37.3057 39.6034C37.359 39.6323 37.3786 39.6993 37.3499 39.7526L32.3714 48.9052C32.3494 48.9452 32.3083 48.9675 32.2592 48.9615L26.4093 48.1322L23.7137 56.8581C23.6989 56.9051 23.6556 56.9356 23.6085 56.9356Z" fill="#401A49"/>
<path id="Vector_34" d="M37.3468 40.4641C37.2885 40.4641 37.2399 40.4185 37.2368 40.3595L37.209 39.7992L36.6567 40.1477C36.6053 40.1808 36.538 40.1647 36.5054 40.1135C36.4727 40.0621 36.4883 39.9945 36.5396 39.9621L37.2509 39.5129C37.284 39.492 37.3254 39.4909 37.3601 39.5079C37.3947 39.5262 37.4175 39.5612 37.4194 39.6004L37.4567 40.3489C37.4599 40.4093 37.413 40.461 37.3521 40.4641C37.3502 40.4641 37.3488 40.4641 37.3468 40.4641Z" fill="#401A49"/>
</g>
</g>
</g>
</g>
<g id="Group_14">
<path id="Vector_35" d="M5.48845 38.0079C5.58888 37.8065 5.77475 37.6495 6.01076 37.5936C6.43326 37.4935 6.85686 37.7548 6.95698 38.1772C7.0571 38.5997 6.79579 39.0233 6.37329 39.1234C5.95078 39.2235 5.52718 38.9622 5.42706 38.5397C5.38302 38.3534 5.4091 38.1667 5.48845 38.0079Z" fill="#401A49"/>
<path id="Vector_36" d="M8.52374 38.6454C8.36973 38.6454 8.21823 38.6027 8.08406 38.5202C7.89272 38.4023 7.75886 38.2168 7.70716 37.9979C7.66186 37.8069 7.68514 37.6046 7.77292 37.4289V37.4286C7.88475 37.2049 8.08859 37.0437 8.33131 36.9855C8.78427 36.879 9.23692 37.1593 9.34423 37.6104C9.45075 38.0615 9.17085 38.5157 8.71961 38.6226C8.65463 38.6377 8.58919 38.6454 8.52374 38.6454ZM7.87101 37.4777C7.79494 37.6306 7.77479 37.8066 7.81431 37.9729C7.85914 38.1627 7.97566 38.3241 8.14185 38.4267C8.30804 38.529 8.5039 38.5618 8.69446 38.5152C9.08619 38.4225 9.3297 38.0276 9.23692 37.6354C9.19209 37.4456 9.07557 37.2843 8.90938 37.1817C8.74319 37.0794 8.54764 37.0478 8.35677 37.0926C8.14575 37.1429 7.96878 37.2832 7.87101 37.4777Z" fill="#401A49"/>
<path id="Vector_37" d="M10.8572 38.0928C10.7032 38.0928 10.5519 38.0501 10.4176 37.9677C10.2262 37.8497 10.0924 37.6642 10.0407 37.4454C9.99536 37.2545 10.0186 37.0521 10.1064 36.8763V36.876C10.2186 36.6521 10.4221 36.4907 10.6651 36.4329C10.883 36.3815 11.109 36.4178 11.3007 36.5357C11.492 36.6536 11.6259 36.8392 11.6776 37.058C11.7841 37.5091 11.504 37.9633 11.0529 38.0701C10.9881 38.0851 10.9227 38.0928 10.8572 38.0928ZM10.2045 36.9251C10.1284 37.078 10.1083 37.254 10.1478 37.4204C10.1926 37.6101 10.3092 37.7715 10.4753 37.8741C10.6415 37.9764 10.8374 38.0091 11.028 37.9627C11.4197 37.8699 11.6632 37.475 11.5704 37.0828C11.5256 36.8931 11.4091 36.7317 11.2429 36.6291C11.0767 36.5263 10.8808 36.4952 10.6903 36.5401C10.4791 36.59 10.3023 36.7303 10.2045 36.9251Z" fill="#401A49"/>
</g>
<g id="Group_15">
<path id="Vector_38" d="M48.3937 57.6597C48.6105 57.72 48.7998 57.8724 48.8998 58.0936C49.0784 58.4892 48.9026 58.9549 48.5069 59.1335C48.1113 59.3122 47.6457 59.1364 47.4668 58.7407C47.2882 58.3451 47.464 57.8795 47.8597 57.7008C48.0344 57.6219 48.2227 57.6121 48.3937 57.6597Z" fill="#401A49"/>
<path id="Vector_39" d="M49.1709 61.4446C49.0704 61.4446 48.97 61.4263 48.8735 61.3897C48.6635 61.3105 48.4966 61.1543 48.4041 60.9496C48.2132 60.5266 48.4018 60.0273 48.8244 59.8362C49.0044 59.7552 49.2066 59.7397 49.3961 59.7925C49.6373 59.8598 49.8347 60.0291 49.9373 60.2569C50.0298 60.4615 50.037 60.6897 49.9575 60.9001C49.8779 61.1105 49.7216 61.277 49.5167 61.3694C49.4062 61.4194 49.2888 61.4446 49.1709 61.4446ZM49.1712 59.8718C49.0681 59.8718 48.965 59.8939 48.8696 59.9368C48.5025 60.1027 48.3385 60.5366 48.5044 60.9044C48.6703 61.2712 49.1039 61.4361 49.4712 61.2692C49.6493 61.1889 49.7853 61.0439 49.8547 60.8615C49.9236 60.6789 49.9175 60.4799 49.8369 60.3023C49.7478 60.1041 49.5763 59.957 49.3664 59.8984C49.3024 59.8809 49.2369 59.8718 49.1712 59.8718Z" fill="#401A49"/>
<path id="Vector_40" d="M50.1589 63.6295C49.8383 63.6295 49.5313 63.4453 49.3909 63.135C49.2001 62.712 49.3886 62.2127 49.8112 62.0216C49.9912 61.9406 50.1934 61.9254 50.3829 61.9779C50.6241 62.0452 50.8215 62.2145 50.9241 62.4423C51.0166 62.6469 51.0238 62.8751 50.9443 63.0855C50.8651 63.2959 50.7089 63.4624 50.5038 63.5548C50.3921 63.6056 50.2747 63.6295 50.1589 63.6295ZM50.1581 62.0571C50.0551 62.0571 49.952 62.0791 49.8565 62.1221C49.4895 62.288 49.3256 62.7219 49.4914 63.0897C49.6572 63.4567 50.0904 63.6214 50.459 63.4544C50.6366 63.3741 50.7728 63.2296 50.8416 63.0466C50.9105 62.864 50.9044 62.665 50.8238 62.4874C50.7345 62.2892 50.5633 62.1421 50.3534 62.0835C50.2895 62.0663 50.2241 62.0571 50.1581 62.0571Z" fill="#401A49"/>
</g>
<g id="Group_16">
<path id="Vector_41" d="M24.1288 11.0361C24.6346 11.4585 24.9563 12.0937 24.9563 12.8041C24.9563 14.0755 23.9256 15.1062 22.6542 15.1062C21.3828 15.1062 20.3521 14.0755 20.3521 12.8041C20.3521 11.5325 21.3828 10.502 22.6542 10.502C23.2152 10.502 23.7294 10.7027 24.1288 11.0361Z" fill="#8F8FEF"/>
<path id="Vector_42" d="M36.3134 68.9268C36.8191 69.3491 37.1409 69.9843 37.1409 70.6947C37.1409 71.9661 36.1102 72.9969 34.8388 72.9969C33.5673 72.9969 32.5366 71.9661 32.5366 70.6947C32.5366 69.4233 33.5673 68.3926 34.8388 68.3926C35.3998 68.3926 35.914 68.5933 36.3134 68.9268Z" fill="#F05D6A"/>
<path id="Vector_43" d="M42.7189 70.712C42.7184 70.712 42.7178 70.712 42.717 70.712L35.5298 70.5994C35.4887 70.5986 35.4514 70.575 35.4333 70.5381C35.415 70.5008 35.4189 70.4568 35.4436 70.4236L39.3742 65.1457C39.3962 65.1163 39.4339 65.1001 39.4677 65.1017C39.5043 65.1035 39.5377 65.1234 39.5563 65.1549L42.8129 70.5453C42.8339 70.5792 42.8342 70.6222 42.8145 70.6568C42.7945 70.6911 42.758 70.712 42.7189 70.712ZM35.748 70.3829L42.5223 70.4889L39.4528 65.4084L35.748 70.3829Z" fill="#401A49"/>
</g>
<g id="Group_17">
<path id="Vector_44" d="M51.3663 6.52171L50.902 3.94279C50.7673 3.19494 50.0528 2.69715 49.3044 2.83007L32.6547 5.78713C31.8828 5.92427 31.3804 6.67681 31.5501 7.44215L32.1819 10.2946C32.3437 11.0249 33.0586 11.493 33.7927 11.3492L38.7546 10.3766L39.3724 15.0953L40.2172 10.0899L50.2752 8.11863C51.014 7.97368 51.4999 7.26284 51.3663 6.52171Z" fill="#FFA766"/>
<g id="Group_18">
<path id="Vector_45" d="M37.9179 7.29462C38.0752 7.41598 38.1795 7.60357 38.1878 7.81756C38.2027 8.20054 37.9042 8.52308 37.5212 8.53792C37.1382 8.55276 36.8157 8.25427 36.8008 7.87129C36.786 7.4883 37.0845 7.16576 37.4675 7.15092C37.6365 7.14436 37.7937 7.19872 37.9179 7.29462Z" fill="#401A49"/>
<path id="Vector_46" d="M42.1884 6.42564C42.3457 6.547 42.4501 6.73459 42.4583 6.94857C42.4732 7.33156 42.1747 7.6541 41.7917 7.66894C41.4087 7.68378 41.0862 7.38529 41.0713 7.00215C41.0565 6.61916 41.355 6.29662 41.738 6.28178C41.907 6.27522 42.0643 6.32973 42.1884 6.42564Z" fill="#401A49"/>
<path id="Vector_47" d="M45.9562 5.69306C46.1134 5.81442 46.2178 6.00201 46.2261 6.21599C46.2409 6.59898 45.9424 6.92152 45.5593 6.93636C45.1763 6.9512 44.8537 6.65271 44.8389 6.26972C44.8241 5.88674 45.1226 5.5642 45.5057 5.54936C45.6747 5.5428 45.8318 5.59731 45.9562 5.69306Z" fill="#401A49"/>
</g>
</g>
</g>
</g>
</g>
<defs>
<clipPath id="clip0_5573_51921">
<rect width="80" height="80" fill="white"/>
</clipPath>
</defs>
</svg>
