<svg width="67" height="65" viewBox="0 0 67 65" fill="none" xmlns="http://www.w3.org/2000/svg">
<g id="data-analysis 1" clip-path="url(#clip0_7371_23342)">
<g id="Group">
<path id="Vector" d="M38.8937 79.0854C8.34385 79.0526 -10.2968 45.0491 6.08092 19.2752C7.35624 17.268 8.82915 15.3628 10.4601 13.6103C18.6918 4.63678 31.2265 0.00455236 43.3198 1.42482C46.9783 2.22031 51.6838 -1.51037 53.429 3.9575C54.7579 4.48871 56.0547 5.08834 57.3004 5.75669L57.2609 5.73842C59.5841 6.97063 61.7653 8.43822 63.8182 10.1428C63.8818 10.1945 63.9522 10.2523 64.0236 10.3122C64.1099 10.3771 64.1927 10.4462 64.2722 10.5192C64.8147 10.9818 65.3598 11.4765 65.9023 11.9983C66.1725 11.9332 66.4447 11.8774 66.7179 11.8315C67.3944 11.7175 68.0882 11.6597 68.7801 11.6597C72.4394 11.6597 75.8349 13.2605 77.8636 15.9418C80.4245 19.3276 80.7102 24.4018 78.5741 28.5686C78.111 29.473 77.529 30.3077 76.855 31.0399C77.0367 31.7923 77.2004 32.582 77.3408 33.3873C78.2786 38.7352 78.0844 44.202 76.7983 49.472C76.0406 52.535 74.926 55.4662 73.4763 58.2227C73.4758 58.2232 73.4753 58.2243 73.4753 58.2243C73.4427 58.2901 73.41 58.3508 73.3774 58.4103C73.3744 58.4166 73.368 58.4288 73.368 58.4288C72.3428 60.3574 71.1404 62.2169 69.7951 63.9557C62.5635 73.4115 50.8307 79.1953 38.8937 79.0854Z" fill="white"/>
<g id="Group_2">
<path id="Vector_2" d="M75.7355 40.1329C75.6004 71.659 38.3054 88.1116 14.9531 66.9502C14.9487 66.9502 14.9487 66.9502 14.9487 66.9502C0.0831194 53.7751 -0.846856 29.5606 12.9564 15.2861C25.7176 1.29238 48.5834 -0.0319848 62.8654 12.4095H62.8698C70.9556 19.1761 75.7976 29.574 75.7355 40.1329Z" fill="#FFD2A7"/>
<g id="Group_3">
<g id="Group_4">
<path id="Vector_3" d="M58.7401 62.2938C65.2731 62.2938 70.5691 56.9977 70.5691 50.4647C70.5691 43.9318 65.2731 38.6357 58.7401 38.6357C52.2072 38.6357 46.9111 43.9318 46.9111 50.4647C46.9111 56.9977 52.2072 62.2938 58.7401 62.2938Z" fill="#FF899A"/>
<path id="Vector_4" d="M16.1014 39.3851C16.1014 45.7277 11.1091 50.9047 4.83688 51.1993C4.2738 49.4487 3.84286 47.6365 3.5525 45.7761C3.54813 45.7364 3.53938 45.6969 3.53501 45.6572C3.25792 43.8583 3.11719 42.0109 3.11719 40.1328C3.11719 39.8117 3.12156 39.4951 3.13046 39.1783C3.13046 39.0948 3.13484 39.0112 3.13921 38.9276V38.9233C3.13921 38.8792 3.13921 38.8353 3.14358 38.7913C3.23589 36.1389 3.61857 33.5616 4.25193 31.0851C4.26521 31.0324 4.2827 30.9796 4.29598 30.9268C4.53792 29.9943 4.81938 29.0706 5.14052 28.1689C5.15364 28.1161 5.17129 28.0633 5.19331 28.015C5.24173 27.8743 5.29 27.7379 5.34279 27.6016C11.373 28.1426 16.1014 33.2141 16.1014 39.3851Z" fill="#FFA766"/>
</g>
<path id="Vector_5" d="M66.151 51.4628C66.129 51.4451 66.0982 51.432 66.0675 51.4364C59.8833 51.8983 55.0361 57.1279 55.0361 63.343C55.0361 66.3691 56.1842 69.1665 58.0886 71.2866C58.1545 71.2469 58.2162 71.2074 58.2778 71.1722C56.3995 69.0874 55.2561 66.3295 55.2561 63.343C55.2561 57.2819 59.9492 52.1753 65.9662 51.6651V64.9132C66.0411 64.8341 66.1113 64.7549 66.1862 64.6757V51.5462C66.1862 51.5156 66.173 51.4848 66.151 51.4628Z" fill="#401A49"/>
</g>
<path id="Vector_6" d="M75.4716 44.5138C75.3486 45.5386 75.1813 46.5502 74.979 47.5488C63.3979 50.5925 44.4405 55.5935 44.4405 55.5935L18.7623 53.8342L11.5752 18.6464L56.1931 11.0107L61.0623 42.9041C61.0621 42.9039 68.9838 43.8233 75.4716 44.5138Z" fill="#401A49"/>
<path id="Vector_7" d="M14.1191 19.9556L20.6327 51.9988L59.1894 42.9024L54.66 12.918L14.1191 19.9931" fill="#FFE5D2"/>
<g id="Group_5">
<path id="Vector_8" d="M63.823 33.3961L64.038 32.6554C64.3328 31.6403 64.0207 30.5363 63.2157 29.8514C61.5385 28.4244 59.015 25.4992 60.0387 21.391C60.932 17.8059 63.9535 15.0486 67.6049 14.4339C70.7489 13.9044 74.2379 14.931 76.2072 17.5341C78.2868 20.2828 78.2025 24.3835 76.6743 27.365C75.9614 28.7557 74.8874 29.9587 73.5215 30.7327C72.5437 31.2867 71.4457 31.6187 70.3306 31.742C70.3295 31.7421 70.3283 31.7421 70.3269 31.7423C69.1754 31.8427 68.1958 32.6231 67.896 33.7394L67.6869 34.5185L63.823 33.3961Z" fill="#FFE5D2"/>
<path id="Vector_9" d="M73.784 26.6774C72.8908 29.7528 69.6735 31.5221 66.598 30.6288C63.5226 29.7355 61.7534 26.5182 62.6467 23.4428C63.5399 20.3672 66.7572 18.5981 69.8327 19.4914C72.9081 20.3845 74.6773 23.6018 73.784 26.6774Z" fill="#FFA766"/>
<path id="Vector_10" d="M66.1027 34.6183C66.1008 34.6183 66.099 34.6183 66.0971 34.6183C66.0584 34.6152 66.0293 34.5815 66.0324 34.5423C66.1043 33.6309 66.5601 32.7032 67.3865 31.7862C67.7809 31.3484 68.2232 30.9468 68.6509 30.5581C68.9715 30.2663 69.3031 29.9647 69.6113 29.6512C70.5508 28.6947 71.3122 27.5931 71.8744 26.3771C72.1052 25.8773 72.3731 25.2128 72.3928 24.5076C72.4118 23.809 72.1604 23.1611 71.7199 22.7743C71.232 22.3464 70.47 22.2098 69.7797 22.4251C69.4339 22.5327 69.0999 22.7245 68.7972 22.985C68.8886 23.2916 68.9384 23.6157 68.9411 23.9447C68.9467 24.6282 68.6965 25.163 68.2719 25.3756C68.1704 25.4262 68.0212 25.4734 67.8818 25.4117C67.7554 25.3554 67.6687 25.2177 67.6368 25.0241C67.5658 24.5951 67.7065 24.1193 68.0553 23.6095C68.2284 23.3569 68.4239 23.1322 68.6357 22.9397C68.4455 22.3574 68.099 21.8486 67.6429 21.5112C66.8693 20.9391 65.778 20.8934 65.0486 21.4017C64.3768 21.87 63.9847 22.7618 63.8838 24.0528C63.6883 26.538 64.3346 29.0271 64.9195 30.9183L64.9264 30.94C65.2304 31.9232 65.5753 33.0373 65.198 34.0328C65.1843 34.0693 65.1445 34.0882 65.1071 34.0734C65.0711 34.0596 65.0523 34.019 65.0664 33.9825C65.4262 33.0327 65.1037 31.9901 64.7913 30.9814L64.7849 30.9601C64.1961 29.0567 63.5457 26.5506 63.7431 24.0417C63.8478 22.7065 64.2596 21.7794 64.9678 21.286C65.7464 20.744 66.907 20.7915 67.7267 21.3978C68.1915 21.7413 68.5475 22.2533 68.7505 22.8401C69.0559 22.5864 69.3911 22.3985 69.738 22.2904C70.4747 22.0599 71.2894 22.2086 71.8128 22.6686C72.2849 23.0825 72.5541 23.7713 72.5337 24.5115C72.5135 25.2425 72.2392 25.9241 72.0023 26.4364C71.4333 27.6669 70.6626 28.7817 69.7117 29.7501C69.4009 30.0665 69.0677 30.3692 68.7457 30.6623C68.3208 31.0487 67.8811 31.4481 67.4916 31.8806C66.6859 32.7745 66.2425 33.6737 66.1733 34.5538C66.1702 34.5905 66.1393 34.6183 66.1027 34.6183ZM68.6808 23.0898C68.4961 23.2645 68.3249 23.4656 68.1715 23.6893C67.844 24.1679 67.7109 24.609 67.7759 25.0012C67.7896 25.0852 67.8291 25.2339 67.9391 25.283C68.0323 25.324 68.1482 25.2795 68.2088 25.2491C68.7649 24.971 68.8022 24.181 68.8003 23.9456C68.7977 23.6532 68.7566 23.3646 68.6808 23.0898Z" fill="#401A49"/>
<g id="Group_6">
<path id="Vector_11" d="M68.2636 35.5846C68.4765 35.1814 67.7467 34.5045 67.7467 34.5045C67.7467 34.5045 65.7896 33.9431 65.7915 33.9364L63.8228 33.3955C63.8228 33.3955 62.875 33.5823 62.8366 34.0332C62.798 34.4842 63.2068 34.8801 63.2068 34.8801C63.2068 34.8801 62.5028 35.0761 62.4194 35.5757C62.336 36.0752 62.8263 36.4024 62.8263 36.4024C62.8263 36.4024 62.0647 36.7974 62.0261 37.2483C61.9958 37.6026 62.9102 37.9231 63.1442 38.027C64.2188 38.5046 65.4302 38.8482 66.6118 38.8838C66.7647 38.8885 67.1255 38.9229 67.2158 38.7519C67.4287 38.3487 66.9762 37.5973 66.9762 37.5973C66.9762 37.5973 67.5857 37.5882 67.7858 37.1195C67.9858 36.6506 67.4753 36.0994 67.4753 36.0994C67.4753 36.0994 68.0507 35.9879 68.2636 35.5846Z" fill="#8F8FEF"/>
<path id="Vector_12" d="M67.4747 36.1702C67.4709 36.1702 67.4667 36.1702 67.4628 36.1695C64.8772 35.7274 63.1933 34.9522 63.1766 34.9443C63.1411 34.9279 63.1259 34.886 63.1423 34.8507C63.1583 34.8153 63.2009 34.7993 63.2359 34.8165C63.2526 34.8242 64.9209 35.5917 67.4864 36.0303C67.5248 36.0372 67.5508 36.0732 67.5442 36.1117C67.5383 36.1463 67.5086 36.1702 67.4747 36.1702Z" fill="#401A49"/>
<path id="Vector_13" d="M67.0304 37.7026C67.0266 37.7026 67.0224 37.7026 67.0185 37.7018C64.4329 37.2603 62.7489 36.4851 62.7322 36.4771C62.6968 36.4607 62.6816 36.4189 62.698 36.3836C62.7139 36.3483 62.7566 36.333 62.7916 36.3494C62.8083 36.357 64.4766 37.1245 67.0421 37.5627C67.0805 37.5691 67.1064 37.6056 67.0999 37.644C67.0939 37.6787 67.0642 37.7026 67.0304 37.7026Z" fill="#401A49"/>
</g>
<path id="Vector_14" d="M61.344 27.1368C61.5478 27.5602 61.8249 27.9857 62.2247 28.0845C62.3775 28.1223 62.5549 28.0995 62.6654 27.9624C62.7566 27.8492 62.7836 27.6777 62.7617 27.5244C62.7399 27.3714 62.6749 27.2334 62.6029 27.1058C62.4453 26.8269 62.249 26.5827 62.0395 26.3594C61.8603 26.1682 61.4683 25.8144 61.2353 26.1138C61.0222 26.3875 61.2226 26.8848 61.344 27.1368Z" fill="white"/>
</g>
<path id="Vector_15" d="M24.0582 43.3806C24.0582 43.8923 23.6433 44.3072 23.1316 44.3072C22.6199 44.3072 22.2051 43.8923 22.2051 43.3806C22.2051 42.869 22.6199 42.4541 23.1316 42.4541C23.6433 42.4541 24.0582 42.869 24.0582 43.3806Z" fill="#8F8FEF"/>
<path id="Vector_16" d="M52.2176 20.8921C52.7293 20.8921 53.1441 20.4773 53.1441 19.9656C53.1441 19.4539 52.7293 19.0391 52.2176 19.0391C51.7058 19.0391 51.291 19.4539 51.291 19.9656C51.291 20.4773 51.7058 20.8921 52.2176 20.8921Z" fill="#F05D6A"/>
<g id="Group_7">
<path id="Vector_17" d="M21.1201 24.2425L26.1175 46.6466L54.2489 40.7508L50.2622 19.0205L21.1201 24.2425Z" fill="#FF899A"/>
<path id="Vector_18" d="M23.2157 43.4595C23.1773 43.4595 23.1385 43.4497 23.1031 43.4283C22.9989 43.3659 22.965 43.2308 23.0273 43.1266L30.1583 31.2228C30.2192 31.1205 30.35 31.0858 30.4535 31.1433L43.3319 38.2732L51.9907 19.9555C52.0432 19.8455 52.1741 19.8002 52.2836 19.8505C52.3936 19.9027 52.4403 20.0334 52.3886 20.1434L43.6292 38.6731C43.603 38.7282 43.5554 38.7698 43.4976 38.7884C43.4406 38.8077 43.3773 38.8013 43.3237 38.7717L30.4265 31.6316L23.4047 43.3528C23.3636 43.4214 23.2905 43.4595 23.2157 43.4595Z" fill="#401A49"/>
<path id="Vector_19" d="M30.4314 32.2349C30.9431 32.2349 31.358 31.8201 31.358 31.3084C31.358 30.7967 30.9431 30.3818 30.4314 30.3818C29.9197 30.3818 29.5049 30.7967 29.5049 31.3084C29.5049 31.8201 29.9197 32.2349 30.4314 32.2349Z" fill="#FFD2A7"/>
<g id="Group_8">
<path id="Vector_20" d="M18.4052 26.7837C18.3014 26.7837 18.2089 26.71 18.1892 26.6038C18.1672 26.4843 18.2462 26.3698 18.3657 26.3475L25.4408 25.0372C25.5577 25.0178 25.6748 25.0939 25.6971 25.2137C25.7192 25.3332 25.6401 25.4477 25.5206 25.47L18.4455 26.7803C18.4323 26.7826 18.4185 26.7837 18.4052 26.7837Z" fill="#401A49"/>
<path id="Vector_21" d="M18.5459 27.9065C18.442 27.9065 18.3495 27.8328 18.3299 27.7265C18.3078 27.6071 18.3869 27.4926 18.5064 27.4702L25.5811 26.1602C25.698 26.1409 25.8154 26.2169 25.8375 26.3367C25.8595 26.4562 25.7804 26.5707 25.661 26.593L18.5862 27.903C18.5729 27.9054 18.5591 27.9065 18.5459 27.9065Z" fill="#401A49"/>
<path id="Vector_22" d="M18.9668 28.9741C18.8629 28.9741 18.7704 28.9003 18.7508 28.7941C18.7287 28.6746 18.8078 28.5601 18.9273 28.5378L26.002 27.2278C26.1195 27.2077 26.236 27.2845 26.2584 27.4043C26.2804 27.5238 26.2013 27.6383 26.0819 27.6606L19.0071 28.9706C18.9938 28.9728 18.98 28.9741 18.9668 28.9741Z" fill="#401A49"/>
</g>
<g id="Group_9">
<path id="Vector_23" d="M48.4991 41.1178C48.4013 41.1178 48.3123 41.0524 48.2865 40.9535C48.2558 40.8359 48.326 40.7158 48.4437 40.6853L55.405 38.8649C55.5241 38.8333 55.6425 38.9049 55.6732 39.022C55.704 39.1396 55.6337 39.2597 55.5161 39.2902L48.5547 41.1106C48.536 41.1156 48.5174 41.1178 48.4991 41.1178Z" fill="#401A49"/>
<path id="Vector_24" d="M48.7208 42.2279C48.623 42.2279 48.534 42.1625 48.5082 42.0636C48.4774 41.946 48.5477 41.8259 48.6653 41.7954L55.6267 39.975C55.7454 39.9442 55.8641 40.0145 55.8949 40.1321C55.9257 40.2497 55.8554 40.3699 55.7378 40.4003L48.7764 42.2208C48.7578 42.2258 48.7391 42.2279 48.7208 42.2279Z" fill="#401A49"/>
<path id="Vector_25" d="M49.2179 43.2613C49.1201 43.2613 49.031 43.1959 49.0053 43.097C48.9745 42.9794 49.0448 42.8593 49.1624 42.8288L56.1238 41.0084C56.2428 40.9771 56.3615 41.0479 56.392 41.1655C56.4227 41.2831 56.3525 41.4032 56.2349 41.4337L49.2735 43.2541C49.2547 43.259 49.236 43.2613 49.2179 43.2613Z" fill="#401A49"/>
</g>
</g>
<g id="Group_10">
<path id="Vector_26" d="M11.6113 42.0044L19.4724 68.2081L44.1786 61.1705L37.74 36.3145L11.6113 42.0044Z" fill="#8F8FEF"/>
<g id="Group_11">
<path id="Vector_27" d="M12.8096 39.6089L20.6706 65.8124L45.3769 58.775L38.9383 33.9189L12.8096 39.6089Z" fill="white"/>
<g id="Group_12">
<path id="Vector_28" d="M23.9459 63.3972L22.0928 57.333L25.4056 56.3223L27.2306 62.3865L23.9459 63.3972Z" fill="#FFD2A7"/>
<path id="Vector_29" d="M28.9433 61.9663L24.7041 48.4621L28.1199 47.5449L32.2283 60.9555L28.9433 61.9663Z" fill="#FF899A"/>
<path id="Vector_30" d="M34.1841 60.4683L30.7402 49.3599L34.0531 48.293L37.4691 59.4575L34.1841 60.4683Z" fill="#FFA766"/>
<path id="Vector_31" d="M38.7886 59.1299L33.8848 43.6322L37.4222 42.6777L42.2138 58.1379L38.7886 59.1299Z" fill="#8F8FEF"/>
<path id="Vector_32" d="M21.7562 64.2376C21.7091 64.2376 21.6656 64.2071 21.6513 64.1599L14.5762 41.1383C14.5584 41.0801 14.5907 41.0188 14.6488 41.001C14.7066 40.9832 14.7686 41.0158 14.7861 41.0736L21.8297 63.9919L43.568 57.6768C43.6258 57.6617 43.6875 57.6935 43.7046 57.7518C43.7213 57.8104 43.6878 57.8713 43.6296 57.8883L21.787 64.2335C21.7767 64.236 21.7665 64.2376 21.7562 64.2376Z" fill="#401A49"/>
<g id="Group_13">
<path id="Vector_33" d="M23.6089 56.9376C23.5983 56.9376 23.5872 56.936 23.5766 56.9326C23.5184 56.9146 23.486 56.8531 23.504 56.7953L26.2274 47.9797C26.2433 47.928 26.2928 47.8952 26.348 47.9032L32.2151 48.7351L37.157 39.6494C37.1859 39.5959 37.2529 39.576 37.3062 39.6054C37.3594 39.6343 37.3791 39.7013 37.3504 39.7545L32.3719 48.9072C32.3498 48.9472 32.3088 48.9695 32.2597 48.9634L26.4098 48.1342L23.7142 56.8601C23.6994 56.9071 23.6561 56.9376 23.6089 56.9376Z" fill="#401A49"/>
<path id="Vector_34" d="M37.3468 40.4671C37.2885 40.4671 37.2399 40.4215 37.2368 40.3624L37.209 39.8022L36.6567 40.1506C36.6053 40.1837 36.538 40.1676 36.5054 40.1164C36.4727 40.065 36.4883 39.9974 36.5396 39.9651L37.2509 39.5158C37.284 39.4949 37.3254 39.4938 37.3601 39.5108C37.3947 39.5291 37.4175 39.5641 37.4194 39.6033L37.4567 40.3518C37.4599 40.4122 37.413 40.4639 37.3521 40.4671C37.3502 40.4671 37.3488 40.4671 37.3468 40.4671Z" fill="#401A49"/>
</g>
</g>
</g>
</g>
<g id="Group_14">
<path id="Vector_35" d="M5.48796 38.0079C5.58839 37.8065 5.77426 37.6495 6.01027 37.5936C6.43278 37.4935 6.85637 37.7548 6.95649 38.1772C7.05661 38.5997 6.7953 39.0233 6.3728 39.1234C5.95029 39.2235 5.5267 38.9622 5.42658 38.5397C5.38253 38.3534 5.40861 38.1667 5.48796 38.0079Z" fill="#401A49"/>
<path id="Vector_36" d="M8.52276 38.6473C8.36876 38.6473 8.21725 38.6047 8.08308 38.5222C7.89174 38.4043 7.75788 38.2187 7.70618 37.9999C7.66089 37.8089 7.68416 37.6066 7.77194 37.4309V37.4306C7.88378 37.2069 8.08761 37.0457 8.33033 36.9874C8.7833 36.8809 9.23594 37.1613 9.34325 37.6124C9.44977 38.0635 9.16987 38.5177 8.71863 38.6245C8.65365 38.6397 8.58821 38.6473 8.52276 38.6473ZM7.87003 37.4796C7.79396 37.6325 7.77382 37.8086 7.81333 37.9749C7.85816 38.1647 7.97468 38.326 8.14087 38.4286C8.30706 38.5309 8.50293 38.5637 8.69348 38.5172C9.08522 38.4244 9.32872 38.0296 9.23594 37.6374C9.19112 37.4476 9.0746 37.2862 8.90841 37.1836C8.74222 37.0813 8.54666 37.0498 8.35579 37.0946C8.14478 37.1449 7.96781 37.2851 7.87003 37.4796Z" fill="#401A49"/>
<path id="Vector_37" d="M10.8567 38.0938C10.7027 38.0938 10.5514 38.0511 10.4171 37.9686C10.2257 37.8507 10.0919 37.6652 10.0402 37.4463C9.99487 37.2555 10.0181 37.053 10.1059 36.8773V36.877C10.2181 36.653 10.4216 36.4917 10.6646 36.4339C10.8825 36.3825 11.1085 36.4187 11.3002 36.5367C11.4915 36.6546 11.6254 36.8401 11.6771 37.059C11.7836 37.5101 11.5035 37.9643 11.0525 38.0711C10.9876 38.0861 10.9222 38.0938 10.8567 38.0938ZM10.204 36.9261C10.1279 37.079 10.1078 37.255 10.1473 37.4213C10.1921 37.6111 10.3087 37.7725 10.4749 37.8751C10.641 37.9774 10.8369 38.01 11.0275 37.9636C11.4192 37.8709 11.6627 37.476 11.5699 37.0838C11.5251 36.894 11.4086 36.7327 11.2424 36.6301C11.0762 36.5273 10.8803 36.4962 10.6898 36.541C10.4786 36.591 10.3018 36.7313 10.204 36.9261Z" fill="#401A49"/>
</g>
<g id="Group_15">
<path id="Vector_38" d="M48.3942 57.6607C48.611 57.721 48.8003 57.8734 48.9002 58.0946C49.0789 58.4902 48.9031 58.9558 48.5074 59.1345C48.1118 59.3132 47.6462 59.1373 47.4673 58.7417C47.2886 58.3461 47.4645 57.8804 47.8602 57.7018C48.0349 57.6229 48.2232 57.613 48.3942 57.6607Z" fill="#401A49"/>
<path id="Vector_39" d="M49.1714 61.4455C49.0709 61.4455 48.9705 61.4273 48.874 61.3907C48.664 61.3115 48.4971 61.1553 48.4046 60.9506C48.2137 60.5276 48.4023 60.0282 48.8249 59.8372C49.0048 59.7561 49.2071 59.7407 49.3966 59.7935C49.6377 59.8608 49.8352 60.0301 49.9378 60.2578C50.0303 60.4625 50.0374 60.6907 49.9579 60.901C49.8784 61.1114 49.7221 61.2779 49.5172 61.3704C49.4067 61.4204 49.2893 61.4455 49.1714 61.4455ZM49.1717 59.8728C49.0686 59.8728 48.9655 59.8948 48.8701 59.9378C48.503 60.1037 48.339 60.5376 48.5049 60.9054C48.6707 61.2722 49.1043 61.4371 49.4717 61.2701C49.6498 61.1898 49.7858 61.0449 49.8552 60.8625C49.924 60.6799 49.918 60.4809 49.8374 60.3033C49.7483 60.1051 49.5768 59.9579 49.3669 59.8994C49.3029 59.8819 49.2374 59.8728 49.1717 59.8728Z" fill="#401A49"/>
<path id="Vector_40" d="M50.1589 63.6305C49.8383 63.6305 49.5313 63.4463 49.3909 63.136C49.2001 62.713 49.3886 62.2136 49.8112 62.0226C49.9912 61.9416 50.1934 61.9264 50.3829 61.9789C50.6241 62.0462 50.8215 62.2155 50.9241 62.4432C51.0166 62.6479 51.0238 62.8761 50.9443 63.0865C50.8651 63.2968 50.7089 63.4634 50.5038 63.5558C50.3921 63.6066 50.2747 63.6305 50.1589 63.6305ZM50.1581 62.0581C50.0551 62.0581 49.952 62.0801 49.8565 62.1231C49.4895 62.2889 49.3256 62.7228 49.4914 63.0907C49.6572 63.4577 50.0904 63.6224 50.459 63.4554C50.6366 63.3751 50.7728 63.2306 50.8416 63.0476C50.9105 62.865 50.9044 62.666 50.8238 62.4884C50.7345 62.2902 50.5633 62.143 50.3534 62.0845C50.2895 62.0673 50.2241 62.0581 50.1581 62.0581Z" fill="#401A49"/>
</g>
<g id="Group_16">
<path id="Vector_41" d="M24.1293 11.0381C24.6351 11.4604 24.9568 12.0957 24.9568 12.806C24.9568 14.0775 23.9261 15.1082 22.6547 15.1082C21.3833 15.1082 20.3525 14.0775 20.3525 12.806C20.3525 11.5345 21.3833 10.5039 22.6547 10.5039C23.2157 10.5039 23.7299 10.7046 24.1293 11.0381Z" fill="#8F8FEF"/>
</g>
<g id="Group_17">
<path id="Vector_42" d="M51.3659 6.52366L50.9015 3.94475C50.7669 3.19689 50.0523 2.6991 49.3039 2.83202L32.6542 5.78908C31.8823 5.92622 31.3799 6.67876 31.5496 7.44411L32.1814 10.2965C32.3432 11.0269 33.0581 11.495 33.7922 11.3511L38.7542 10.3785L39.3719 15.0973L40.2168 10.0919L50.2747 8.12058C51.0135 7.97564 51.4994 7.2648 51.3659 6.52366Z" fill="#FFA766"/>
<g id="Group_18">
<path id="Vector_43" d="M37.9174 7.29755C38.0747 7.41891 38.1791 7.6065 38.1873 7.82049C38.2022 8.20347 37.9037 8.52601 37.5207 8.54085C37.1377 8.55569 36.8152 8.2572 36.8003 7.87422C36.7855 7.49123 37.084 7.16869 37.467 7.15385C37.636 7.14729 37.7933 7.20165 37.9174 7.29755Z" fill="#401A49"/>
<path id="Vector_44" d="M42.1879 6.42759C42.3452 6.54895 42.4496 6.73654 42.4578 6.95053C42.4727 7.33351 42.1742 7.65605 41.7912 7.67089C41.4082 7.68573 41.0857 7.38724 41.0708 7.0041C41.056 6.62111 41.3545 6.29857 41.7375 6.28373C41.9065 6.27717 42.0638 6.33169 42.1879 6.42759Z" fill="#401A49"/>
<path id="Vector_45" d="M45.9557 5.69501C46.113 5.81637 46.2173 6.00396 46.2256 6.21795C46.2404 6.60093 45.9419 6.92347 45.5588 6.93831C45.1758 6.95315 44.8533 6.65466 44.8384 6.27168C44.8236 5.88869 45.1221 5.56615 45.5052 5.55131C45.6742 5.54475 45.8313 5.59926 45.9557 5.69501Z" fill="#401A49"/>
</g>
</g>
</g>
</g>
</g>
<defs>
<clipPath id="clip0_7371_23342">
<rect width="80" height="80" fill="white"/>
</clipPath>
</defs>
</svg>
