<svg width="89" height="89" viewBox="0 0 89 89" fill="none" xmlns="http://www.w3.org/2000/svg">
<g id="design-software 1">
<g id="Group">
<g id="Group_2">
<g id="Group_3">
<path id="Vector" d="M38.8067 14.8383C37.1893 11.1959 34.314 8.2591 30.7093 6.56932C28.5187 5.54304 26.0837 5 23.6684 5C22.1949 5 20.7298 5.19695 19.3133 5.58615C19.1935 5.61935 19.0929 5.6974 19.0303 5.80674C18.9676 5.9166 18.9516 6.04349 18.9844 6.16378C19.0517 6.40853 19.3173 6.55993 19.5626 6.49301C20.8838 6.13023 22.2493 5.94615 23.6211 5.94615C29.8228 5.94615 35.4461 9.58663 37.9465 15.2201C40.0547 19.9699 39.6583 25.4443 36.8882 29.8614C36.7763 30.0266 36.7632 30.2259 36.8533 30.3951C36.935 30.5487 37.0855 30.6442 37.2461 30.6442C37.3428 30.6442 37.5286 30.6077 37.6868 30.3591C40.6226 25.6753 41.0413 19.8729 38.8067 14.8383Z" fill="#F8FAFF"/>
<path id="Vector_2" d="M20.8484 36.8986C15.7724 35.954 11.4967 32.5854 9.41115 27.8865C8.21452 25.1913 7.80498 22.2312 8.22634 19.3269C8.24425 19.2029 8.21331 19.079 8.13786 18.9782C8.06242 18.8773 7.95274 18.8122 7.82845 18.7944C7.57153 18.7548 7.33182 18.9396 7.29532 19.192C6.84841 22.2717 7.28246 25.4102 8.55088 28.2689C10.7693 33.2656 15.318 36.8397 20.7246 37.8314C20.7759 37.8385 20.8249 37.8416 20.8703 37.8416C21.2299 37.8416 21.4083 37.644 21.4258 37.4478C21.4444 37.2287 21.2732 36.9737 20.8484 36.8986Z" fill="#F8FAFF"/>
<path id="Vector_3" d="M12.0258 19.4623C11.7679 19.4232 11.5287 19.6069 11.4913 19.8584C10.9053 23.776 12.2443 27.7591 15.0741 30.5125C15.1624 30.5981 15.2789 30.6452 15.4021 30.6452C15.4549 30.6452 15.5071 30.6367 15.5573 30.6191C15.6258 30.5948 15.6889 30.5546 15.7393 30.5023C15.8273 30.4119 15.8749 30.2933 15.8732 30.168C15.8714 30.0425 15.8205 29.925 15.7301 29.837C13.1175 27.295 11.8809 23.6166 12.4218 19.9977C12.4602 19.742 12.2831 19.5014 12.0258 19.4623Z" fill="#F8FAFF"/>
<path id="Vector_4" d="M8.87265 17.2457C8.90672 17.2526 8.94044 17.2558 8.97365 17.2558C9.21249 17.2558 9.42038 17.0863 9.46784 16.8523C10.2624 12.9368 12.9208 9.61637 16.5785 7.96969C16.7012 7.91459 16.7952 7.81464 16.8428 7.68879C16.891 7.56241 16.8863 7.42579 16.831 7.30289C16.721 7.0571 16.4123 6.93837 16.1646 7.04997C12.2114 8.8291 9.33834 12.4185 8.4791 16.6512C8.44069 16.8396 8.51074 17.0303 8.66302 17.149C8.7249 17.197 8.79721 17.2302 8.87265 17.2457Z" fill="#F8FAFF"/>
<path id="Vector_5" d="M30.855 11.6769C28.7574 10.1733 26.276 9.37891 23.679 9.37891C20.5553 9.37891 17.5844 10.5368 15.3134 12.6392C14.7072 13.2005 14.1525 13.8306 13.6641 14.5114C13.5904 14.6132 13.5614 14.7377 13.5813 14.8614C13.6019 14.9854 13.6693 15.0947 13.7719 15.1677C13.9754 15.3136 14.2829 15.2628 14.4284 15.0598C14.8776 14.4331 15.3902 13.8513 15.9525 13.33C18.0496 11.3882 20.7936 10.3186 23.6788 10.3186C26.0778 10.3186 28.3698 11.0529 30.3066 12.4419C34.4428 15.4066 36.107 20.8194 34.3528 25.6094C34.2646 25.8839 34.3761 26.142 34.6298 26.2507C34.6834 26.2738 34.743 26.2861 34.8021 26.2861C34.9905 26.2861 35.1475 26.173 35.2224 25.9811C37.1519 20.7853 35.3561 14.9035 30.855 11.6769Z" fill="#F8FAFF"/>
</g>
<g id="Group_4">
<path id="Vector_6" fill-rule="evenodd" clip-rule="evenodd" d="M6.61426 55.6328V71.448C6.61426 72.7848 7.74553 73.8676 9.14102 73.8676H53.0262C54.4213 73.8676 55.5523 72.7848 55.5523 71.448V55.6328H6.61426Z" fill="#F8FAFF"/>
<g id="Group_5">
<path id="Vector_7" fill-rule="evenodd" clip-rule="evenodd" d="M55.5523 53.5978C55.5523 52.2612 54.4215 51.1777 53.0262 51.1777H9.14102C7.74553 51.1777 6.61426 52.2612 6.61426 53.5978V55.6338H55.5521V53.5978H55.5523Z" fill="#FF4E4E"/>
<g id="Group_6">
<path id="Vector_8" d="M9.48749 53.4724C9.48749 53.8856 9.15287 54.2204 8.73933 54.2204C8.32719 54.2204 7.9917 53.8856 7.9917 53.4724C7.9917 53.0598 8.32701 52.7246 8.73933 52.7246C9.15287 52.7246 9.48749 53.0598 9.48749 53.4724Z" fill="#F8FAFF"/>
<path id="Vector_9" d="M11.8323 53.4724C11.8323 53.8856 11.4977 54.2204 11.0852 54.2204C10.6715 54.2204 10.3374 53.8856 10.3374 53.4724C10.3374 53.0598 10.6715 52.7246 11.0852 52.7246C11.4977 52.7246 11.8323 53.0598 11.8323 53.4724Z" fill="#F8FAFF"/>
<path id="Vector_10" d="M14.1782 53.4724C14.1782 53.8856 13.8438 54.2204 13.4304 54.2204C13.0174 54.2204 12.6826 53.8856 12.6826 53.4724C12.6826 53.0598 13.0174 52.7246 13.4304 52.7246C13.8438 52.7246 14.1782 53.0598 14.1782 53.4724Z" fill="#F8FAFF"/>
</g>
</g>
</g>
<g id="Group_7">
<path id="Vector_11" d="M69.7007 24.9142C69.699 24.9507 69.6906 25.0761 69.6851 25.2561C70.1676 25.3686 70.2922 25.9539 70.0624 26.3153C70.1488 26.4161 70.2006 26.544 70.2187 26.6774L72.9332 25.2548C72.9332 21.7167 75.8106 18.8405 79.3476 18.8405V15.6016C74.1389 15.6016 69.8804 19.7489 69.7007 24.9142Z" fill="#568EAF"/>
<path id="Vector_12" d="M79.3477 15.6016V18.8407C82.8844 18.8407 85.7619 21.7168 85.7619 25.2549H89C89 19.9316 84.6708 15.6016 79.3477 15.6016Z" fill="#FF4E4E"/>
<path id="Vector_13" d="M79.2549 31.6692V34.9091C84.577 34.9091 89 30.5785 89 25.2559H85.762C85.762 28.7927 82.7909 31.6692 79.2549 31.6692Z" fill="#FFAE24"/>
</g>
</g>
<g id="Group_8">
<path id="Vector_14" d="M5.47009 65.3361C6.2617 65.6391 7.00047 65.9824 7.7794 66.2801C8.38936 66.5141 8.78482 66.6773 9.34733 66.9118C9.84152 67.1175 10.544 67.373 10.8011 67.7658C11.0682 68.174 11.0679 68.7562 11.2987 69.1733C11.689 69.8737 12.3546 69.9429 13.0745 70.2698C16.088 71.6384 19.0591 72.8766 22.1633 74.1996C22.5503 74.3644 23.3972 74.5733 23.6007 75.0174C23.7874 75.4233 23.5168 76.1751 23.4232 76.6413C23.4232 76.6413 19.8705 88.737 19.0391 88.6685C18.7293 88.6423 18.1663 88.4982 17.7738 88.3311C15.1075 87.1943 12.0842 85.8728 9.54532 84.7897C6.83846 83.6372 4.09702 82.4655 1.31716 81.2497C0.734838 80.9952 0.2622 80.8668 0.034137 80.105C-0.0852829 79.7023 0.139477 78.8832 0.235256 78.3419C0.837397 74.9434 3.53034 70.4023 4.13161 67.0485C4.23313 66.482 4.29206 65.8869 4.48779 65.3446C4.65588 64.969 5.17493 65.2222 5.47009 65.3361Z" fill="#EC9513"/>
<path id="Vector_15" d="M22.3738 73.2314C22.3738 75.0531 20.8966 76.5315 19.0735 76.5315C17.2518 76.5315 15.7739 75.0533 15.7739 73.2314C15.7739 71.4085 17.2518 69.9316 19.0735 69.9316C20.8966 69.9316 22.3738 71.4085 22.3738 73.2314Z" fill="#FF4E4E"/>
<path id="Vector_16" d="M17.8441 72.0938L16.6909 73.1503L17.8441 74.2073L18.0311 73.9754L17.1385 73.1503L18.0311 72.3255L17.8441 72.0938Z" fill="#F8FAFF"/>
<path id="Vector_17" d="M18.3916 74.2522H18.7191L19.5762 72.0469H19.2487L18.3916 74.2522Z" fill="#F8FAFF"/>
<path id="Vector_18" d="M20.1211 72.0938L19.9341 72.3255L20.8265 73.1503L19.9341 73.9754L20.1211 74.2073L21.2743 73.1503L20.1211 72.0938Z" fill="#F8FAFF"/>
<path id="Vector_19" d="M3.51768 66.4531C4.30946 66.7566 5.04719 67.0992 5.82646 67.3982C6.43608 67.6317 6.83188 67.795 7.39457 68.029C7.88911 68.235 8.59103 68.4911 8.8476 68.8823C9.11633 69.2917 9.11494 69.8739 9.347 70.291C9.73638 70.9907 10.4016 71.0599 11.1228 71.3867C14.1356 72.7554 17.1062 73.9941 20.2106 75.3157C20.598 75.4819 21.4446 75.6908 21.6478 76.135C21.8348 76.5405 21.564 77.2916 21.4708 77.7582C20.8332 80.9485 20.1939 83.9233 19.5274 87.163C19.4391 87.5873 19.3948 88.4842 19.0391 88.668C18.7626 88.8098 18.1663 88.4976 17.7738 88.3306C15.1075 87.1938 12.0846 85.8723 9.54534 84.7901C6.83849 83.6367 4.09705 82.4655 1.31719 81.2493C0.734863 80.9949 0.262224 80.8664 0.034509 80.1047C-0.0857801 79.7019 0.139501 78.8829 0.23528 78.3416C0.837943 74.943 1.57776 71.5202 2.17868 68.1657C2.28002 67.6002 2.33999 67.0048 2.53555 66.4623C2.70347 66.0854 3.22182 66.3401 3.51768 66.4531Z" fill="#FFAE24"/>
</g>
<g id="Group_9">
<path id="Vector_20" d="M66.8448 74.8705C67.5366 74.3035 68.4117 73.988 69.3085 73.9845L76.9908 73.9473C78.0386 73.9424 79.0251 74.3452 79.7696 75.0826C80.5141 75.8201 80.9273 76.8033 80.9308 77.852L80.9374 79.1067C80.9435 80.2946 80.4184 81.4077 79.4983 82.1612C78.8056 82.7288 77.9305 83.0432 77.035 83.0483L74.3276 83.0608C73.9653 83.063 73.6309 83.1932 73.3077 83.4578C73.0645 83.658 72.8594 83.9064 72.6776 84.127C72.5931 84.2306 72.5133 84.328 72.4349 84.4145C72.3903 84.4636 72.3423 84.5173 72.2907 84.5746C72.0694 84.8236 71.793 85.1333 71.5272 85.3511C71.3409 85.5029 71.2234 85.559 71.155 85.5792C70.8288 85.6783 70.4921 85.5434 70.3692 85.3628C70.288 85.2442 70.2916 85.1079 70.3075 84.8368C70.3127 84.729 70.3202 84.6063 70.3184 84.4749C70.3184 84.434 70.3193 84.3916 70.3207 84.3469C70.3285 84.0227 70.3455 83.3495 69.6363 83.1331C69.4399 83.0717 69.1993 83.0403 68.9208 83.0036C68.5341 82.952 68.0953 82.8935 67.7411 82.7474C66.3337 82.1631 65.4185 80.7638 65.4116 79.1823L65.4048 77.9255C65.4006 76.7374 65.9246 75.6241 66.8448 74.8705Z" fill="#FF4E4E"/>
<g id="Group_10">
<path id="Vector_21" d="M69.1236 78.1888C69.2489 78.0876 69.3986 78.0345 69.5596 78.0332C69.7438 78.0315 69.9182 78.1035 70.0499 78.2335C70.1805 78.3626 70.2552 78.5363 70.2552 78.7216C70.2561 78.9324 70.1641 79.1289 70.0009 79.2627C69.8773 79.3634 69.727 79.4176 69.5674 79.4186C69.1843 79.4218 68.8717 79.1117 68.8702 78.7296C68.8679 78.5201 68.9602 78.3225 69.1236 78.1888Z" fill="white"/>
<path id="Vector_22" d="M72.6038 78.1693C72.7274 78.0679 72.8776 78.0144 73.0387 78.0137C73.421 78.0109 73.733 78.3193 73.7351 78.7024C73.7368 78.9131 73.6442 79.1097 73.4818 79.2432C73.3575 79.344 73.2068 79.3981 73.0462 79.3984C72.8612 79.4001 72.6867 79.3294 72.5551 79.1988C72.4235 79.069 72.3505 78.896 72.3491 78.7102C72.3476 78.4999 72.4411 78.3022 72.6038 78.1693Z" fill="white"/>
<path id="Vector_23" d="M76.0836 78.1484C76.2082 78.0468 76.3584 77.9926 76.5186 77.9923C76.7036 77.9896 76.8783 78.0613 77.0106 78.1923C77.1413 78.3215 77.2145 78.4948 77.2152 78.6806C77.2174 78.8904 77.1243 79.0879 76.9616 79.2216C76.8373 79.3227 76.6867 79.3766 76.5272 79.3775C76.3415 79.378 76.1668 79.3069 76.0354 79.1771C75.9043 79.0476 75.8305 78.8743 75.8301 78.6888C75.8282 78.4788 75.9205 78.2819 76.0836 78.1484Z" fill="white"/>
</g>
</g>
<g id="Group_11">
<g id="Group_12">
<path id="Vector_24" fill-rule="evenodd" clip-rule="evenodd" d="M40.6909 69.2682C40.7613 71.3628 41.2237 74.7726 41.4794 77.4072C41.6775 79.4481 41.9677 80.5668 40.6245 81.2526C40.3697 81.3826 39.9226 81.3618 39.748 81.7218C44.3873 81.6741 49.2159 81.6986 54.0299 81.7186C55.3797 81.7244 58.0156 81.9413 58.3444 81.0713C58.5895 80.4163 57.976 78.7768 57.8204 78.0502C57.1536 74.9115 56.5936 71.8652 55.8628 68.9492C50.8534 68.9986 45.7618 69.1446 40.6909 69.2682Z" fill="#7AB0C9"/>
<path id="Vector_25" fill-rule="evenodd" clip-rule="evenodd" d="M51.4204 81.3874L57.7483 81.3892C58.04 81.3808 58.2249 81.2214 58.1773 80.909C58.0833 80.2791 56.496 71.9939 55.8631 68.9497C55.8626 68.902 55.8657 68.8586 55.9318 68.8655C56.3568 69.0164 57.2014 68.8661 57.5437 68.8633C58.0448 71.4304 59.9843 79.9532 60.0206 80.852C60.0569 81.7511 59.8556 82.4745 59.1368 82.9129C58.8589 83.0831 58.5377 83.141 58.1971 83.1568C58.1704 83.158 58.1452 83.1634 58.1189 83.1634L51.4197 83.1608C50.8485 83.16 50.3841 82.7633 50.3848 82.2736C50.3846 81.7836 50.8489 81.3874 51.4204 81.3874Z" fill="#E3F6FC"/>
<path id="Vector_26" fill-rule="evenodd" clip-rule="evenodd" d="M38.4277 82.4981C38.4277 82.8594 38.7005 83.1508 39.0367 83.1516L51.1415 83.1567C51.4777 83.1567 51.7506 82.8652 51.7506 82.5038V82.0397C51.7506 81.6793 51.4786 81.3869 51.1419 81.3866L39.0367 81.3809C38.7008 81.3809 38.4281 81.6727 38.4281 82.0341L38.4277 82.4981Z" fill="#CCE5EF"/>
</g>
<g id="Group_13">
<g id="Group_14">
<path id="Vector_27" d="M77.619 62.1178L77.6319 31.9378C77.6338 27.6534 74.1626 24.1795 69.8779 24.1777L73.6338 24.1795C77.9181 24.1812 81.39 27.6555 81.3879 31.9392L81.3744 62.1189C81.3721 66.4032 77.8978 69.8747 73.6128 69.8726L69.8579 69.8709C74.1429 69.8723 77.6176 66.4008 77.619 62.1178Z" fill="#7AB0C9"/>
<path id="Vector_28" d="M23.8172 24.1582L27.5735 24.1599L69.8782 24.1784C74.1624 24.1801 77.6337 27.6541 77.6329 31.9384L77.6184 62.1181C77.6167 66.4021 74.1427 69.8731 69.8579 69.8719L27.5544 69.8531L23.7976 69.8508C19.5127 69.8491 16.0417 66.3746 16.0435 62.0908L16.0572 31.9111C16.0581 27.6276 19.5318 24.1558 23.8172 24.1582Z" fill="#CCE5EF"/>
<path id="Vector_29" d="M25.0206 25.2422L28.5677 25.2439L68.5129 25.2615C72.5589 25.2636 75.8366 28.5432 75.8347 32.5894L75.8222 61.0866C75.8201 65.1317 72.5393 68.4084 68.4936 68.4081L28.5479 68.3893L25.0015 68.3884C20.956 68.3862 17.6781 65.106 17.6802 61.0609L17.6918 32.5642C17.6946 28.5187 20.9742 25.241 25.0206 25.2422Z" fill="#42758A"/>
</g>
<g id="Group_15">
<g id="Group_16">
<g id="Group_17">
<path id="Vector_30" d="M48.5823 46.9485C48.5823 52.3255 45.8407 56.7301 40.4732 56.771C40.448 56.7712 40.4227 56.7713 40.3974 56.7713C34.995 56.7713 30.6147 52.3909 30.6147 46.9886C30.6147 41.5854 34.9952 37.2051 40.3974 37.2051C43.6246 37.2051 46.4859 38.7683 48.2679 41.1788C48.2762 41.1899 48.5823 44.7882 48.5823 46.9485Z" fill="#FF4E4E"/>
<path id="Vector_31" d="M63.5361 64.0673L50.1804 37.3555L36.8252 64.0673H63.5361Z" fill="#FFAE24"/>
<path id="Vector_32" d="M50.1802 46.9895C50.1802 44.8136 49.4696 42.805 48.2678 41.1797L40.4731 56.7707C45.8411 56.7286 50.1802 52.3666 50.1802 46.9895Z" fill="#568EAF"/>
</g>
<g id="Group_18">
<path id="Vector_33" d="M30.5841 35.0666L29.4531 36.1973L30.5838 37.3282L31.7147 36.1976L30.5841 35.0666Z" fill="#F8FAFF"/>
<path id="Vector_34" d="M30.5837 45.8121L29.4531 46.9434L30.5844 48.074L31.715 46.9427L30.5837 45.8121Z" fill="#F8FAFF"/>
<path id="Vector_35" d="M30.5839 56.5542L29.4531 57.6855L30.5845 58.8163L31.7152 57.6849L30.5839 56.5542Z" fill="#F8FAFF"/>
<path id="Vector_36" d="M30.6149 57.3914C30.4415 57.3914 30.3013 57.2498 30.3013 57.0771V36.9004C30.3013 36.7271 30.4414 36.5859 30.6149 36.5859C30.7885 36.5859 30.9288 36.7269 30.9288 36.9004V57.0773C30.929 57.2498 30.7885 57.3914 30.6149 57.3914Z" fill="#F8FAFF"/>
</g>
</g>
<path id="Vector_37" d="M45.7567 48.3106C45.6907 48.3937 45.6658 48.4954 45.6877 48.5971C45.7201 48.7464 45.8452 48.8484 45.9193 48.9096L45.9448 48.9308C46.531 49.4542 47.1764 50.1461 47.5265 51.3144C47.5623 51.4322 47.5925 51.5513 47.6183 51.6697C47.8183 52.5934 47.697 53.4111 47.5517 54.0887C47.5442 54.1234 47.539 54.1601 47.5333 54.1975C47.5298 54.222 47.5263 54.2468 47.5223 54.2688C45.7364 54.3087 43.51 55.4506 43.2049 56.9434L43.1914 57.0069C43.171 57.095 43.149 57.1958 43.1516 57.2977C43.1617 57.7846 43.3925 58.1653 43.7987 58.3765C44.2799 58.6258 44.9895 58.6174 45.6078 58.3555C46.45 57.9981 46.9525 57.2649 47.2581 56.7444C47.5712 56.2092 47.7912 55.7614 47.9503 55.335C47.979 55.2594 47.9984 55.1841 48.0155 55.1186C48.0273 55.0731 48.0382 55.0306 48.0506 54.9921C49.42 55.0692 50.7423 55.5101 51.9841 56.3032C53.4818 57.2593 54.3859 58.3747 54.9177 59.9199C55.1263 60.5269 55.2789 61.217 55.3712 61.9645C55.4477 62.5904 55.46 63.2287 55.4056 63.8097C55.3049 64.8895 55.0061 65.8365 54.542 66.5485C54.5326 66.5619 54.5194 66.577 54.5064 66.5932C54.4306 66.6844 54.3039 66.8376 54.3477 67.0399C54.3571 67.083 54.3739 67.1247 54.3979 67.164L54.4435 67.2368L54.5243 67.2626C54.865 67.3709 55.0543 67.0642 55.1356 66.9332L55.1635 66.8883C55.4461 66.4604 55.6728 65.9691 55.817 65.4692C56.2215 64.0685 56.2577 62.6417 55.9304 60.979C55.9163 60.9088 55.9017 60.8379 55.8862 60.7673C55.6926 59.8721 55.4101 59.0897 55.0449 58.4404C54.3701 57.2384 53.3871 56.2892 51.9515 55.453C50.8037 54.7843 49.5582 54.3899 48.2467 54.2792C48.4137 53.4464 48.5545 52.5739 48.3254 51.5174C48.2807 51.313 48.2235 51.1054 48.1533 50.9003C47.871 50.0713 47.4005 49.3364 46.7144 48.6527L46.6916 48.6298C46.4628 48.3949 46.2202 48.1795 45.9951 48.1898C45.9003 48.1947 45.8164 48.2373 45.7567 48.3106ZM47.243 55.1375C47.0627 55.627 46.8614 56.0456 46.6281 56.4174C46.2869 56.9584 45.896 57.5068 45.1927 57.7477C44.8673 57.8595 44.412 57.9004 44.1261 57.7389C43.9948 57.6655 43.9157 57.556 43.8832 57.4048C43.8771 57.3763 43.8724 57.3466 43.8695 57.3146C43.8568 57.1774 43.9176 56.9497 43.9814 56.8166C44.404 55.929 45.9584 55.092 47.3019 54.9912C47.2976 55.0013 47.2941 55.0113 47.2901 55.0211C47.2737 55.0595 47.2572 55.0991 47.243 55.1375Z" fill="#F8FAFF"/>
<g id="Group_19">
<path id="Vector_38" d="M72.3551 50.7051H64.0298V52.8717H72.3551V50.7051Z" fill="#7AB0C9"/>
<path id="Vector_39" d="M72.2497 44.6406H63.9238V48.9731H72.2497V44.6406Z" fill="#7AB0C9"/>
<path id="Vector_40" d="M25.8689 42.3359H20.6675V64.5102H25.8689V42.3359Z" fill="#7AB0C9"/>
<path id="Vector_41" d="M52.5677 29.1582H32.4932V32.9072H52.5677V29.1582Z" fill="#7AB0C9"/>
<g id="Group_20">
<g id="Group_21">
<g id="Group_22">
<path id="Vector_42" d="M58.6865 33.7285H54.9375V37.4769H58.6865V33.7285Z" fill="#CCE5EF"/>
<g id="Group_23">
<path id="Vector_43" d="M58.6865 29.1582H54.9375V32.9072H58.6865V29.1582Z" fill="#32C1A8"/>
<path id="Vector_44" d="M58.6865 38.3008H54.9375V42.0492H58.6865V38.3008Z" fill="#FFC972"/>
</g>
</g>
<g id="Group_24">
<g id="Group_25">
<path id="Vector_45" d="M63.2099 33.7285H59.4609V37.4769H63.2099V33.7285Z" fill="#FF8777"/>
<g id="Group_26">
<path id="Vector_46" d="M63.2099 29.1582H59.4609V32.9072H63.2099V29.1582Z" fill="#7AB0C9"/>
<path id="Vector_47" d="M67.6503 29.1582H63.9019V32.9072H67.6503V29.1582Z" fill="#24004D"/>
<path id="Vector_48" d="M67.6503 33.7285H63.9019V37.4769H67.6503V33.7285Z" fill="#24004D"/>
<path id="Vector_49" d="M63.2099 38.3008H59.4609V42.0492H63.2099V38.3008Z" fill="#F8FAFF"/>
<path id="Vector_50" d="M67.6503 38.3008H63.9019V42.0492H67.6503V38.3008Z" fill="#24004D"/>
</g>
</g>
<g id="Group_27">
<path id="Vector_51" d="M67.6503 33.7285H63.9019V37.4769H67.6503V33.7285Z" fill="#CCE5EF"/>
<g id="Group_28">
<path id="Vector_52" d="M67.6503 29.1582H63.9019V32.9072H67.6503V29.1582Z" fill="#FF4E4E"/>
<path id="Vector_53" d="M72.0906 29.1582H68.3418V32.9072H72.0906V29.1582Z" fill="#FFAE24"/>
<path id="Vector_54" d="M72.0906 33.7285H68.3418V37.4769H72.0906V33.7285Z" fill="#A8E0D4"/>
<path id="Vector_55" d="M67.6503 38.3008H63.9019V42.0492H67.6503V38.3008Z" fill="#FFA219"/>
<path id="Vector_56" d="M72.0906 38.3008H68.3418V42.0492H72.0906V38.3008Z" fill="#FFA097"/>
</g>
</g>
</g>
</g>
</g>
</g>
<g id="Group_29">
<path id="Vector_57" d="M65.0802 55.834L65.0296 56.0374L64.8174 56.069L65.2297 59.7517L68.0793 61.3614L69.9651 59.681L68.6927 56.6661L65.0802 55.834Z" fill="#F8FAFF"/>
<path id="Vector_58" d="M67.0358 58.028L65.0802 55.834L64.8174 56.069L66.7721 58.262C66.6912 58.4291 66.7119 58.6357 66.843 58.7835C67.016 58.9766 67.3127 58.9945 67.5072 58.821C67.7008 58.6488 67.7181 58.3514 67.5453 58.1577C67.4137 58.0103 67.21 57.9655 67.0358 58.028Z" fill="#42758A"/>
<path id="Vector_59" d="M71.2887 60.3759C71.3972 60.4972 71.3868 60.6844 71.2647 60.7931L69.0345 62.7811C68.9121 62.8901 68.7246 62.8788 68.6165 62.7575L68.0811 62.1562C67.9728 62.034 67.9834 61.8479 68.1052 61.7392L70.3361 59.7506C70.4585 59.6422 70.6445 59.6529 70.753 59.7743L71.2887 60.3759Z" fill="#F8FAFF"/>
</g>
<g id="Group_30">
<g id="Group_31">
<g id="Group_32">
<path id="Vector_60" fill-rule="evenodd" clip-rule="evenodd" d="M32.1092 22.2266C32.1092 17.5559 28.3227 13.7695 23.6523 13.7695C18.9818 13.7695 15.1948 17.5559 15.1948 22.2266C15.1948 25.3107 16.8457 28.0076 19.3116 29.4846V32.7985C19.3116 33.5166 19.8931 34.0984 20.6108 34.0984H26.8204C27.5377 34.0984 28.1195 33.5166 28.1195 32.7985V29.4075C30.515 27.9143 32.1092 25.2568 32.1092 22.2266Z" fill="#FFAE24"/>
<path id="Vector_61" fill-rule="evenodd" clip-rule="evenodd" d="M25.4096 25.9003C25.4074 28.0829 25.418 32.0747 25.4455 34.3499C25.4463 34.4799 25.4568 34.6654 25.4507 34.8471C25.4455 35.052 25.4799 35.2297 25.3158 35.3272C25.2814 35.3473 25.1174 35.3595 25.0488 35.3087C24.859 35.1669 24.9302 34.5783 24.9276 34.3284C24.9005 32.0788 24.9057 28.1493 24.8915 25.9097C24.107 25.8311 23.3242 25.8902 22.5394 25.8537C22.5399 28.1262 22.6098 31.8388 22.6378 34.1889C22.6413 34.4427 22.7541 35.0112 22.5399 35.1669C22.4709 35.2184 22.3299 35.2161 22.2571 35.1645C22.1126 35.061 22.1283 34.8173 22.1257 34.6659C22.0979 32.3537 22.04 28.6532 22.012 26.3446C22.0106 26.2297 22.0445 25.8878 22.0214 25.8629C21.9828 25.8209 21.4858 25.8624 21.3636 25.856C20.8776 25.8297 20.2845 25.7046 19.836 25.3268C19.0065 24.6287 18.9514 23.5223 19.4611 22.8367C20.0801 22.0055 21.3256 22.0119 22.0961 22.9275C22.703 23.6482 22.5284 24.4963 22.5486 25.3402C23.3121 25.351 24.0752 25.3571 24.8379 25.3658C24.8021 24.9804 24.795 24.5347 24.8384 24.1066C24.8524 23.9682 24.8506 23.814 24.8809 23.6883C25.1694 22.4856 26.6727 21.8305 27.6275 22.6612C27.6333 22.6661 27.6379 22.672 27.6432 22.6767C28.4266 23.4598 28.4283 24.6894 27.5509 25.4108C26.8755 25.9669 26.1263 25.8812 25.4096 25.9003ZM27.4337 24.7414C27.7956 24.2785 27.7897 23.498 27.3193 23.0624C26.8987 22.6734 26.2838 22.7523 25.892 23.0624C25.3412 23.4971 25.4001 24.0165 25.3764 24.4862C25.3594 24.8161 25.3731 25.1443 25.4338 25.3719C26.0514 25.4059 26.8973 25.4275 27.4337 24.7414ZM20.386 22.7698C20.1538 22.842 19.8131 23.1914 19.7349 23.4151C19.6139 23.7631 19.682 24.3395 19.97 24.6908C20.4227 25.2451 21.0445 25.3249 21.5453 25.3301C21.6875 25.3319 21.9503 25.3771 21.9997 25.3197C22.0037 25.3148 22.0092 25.0016 22.0103 24.8688C22.012 24.6812 22.0115 24.502 22.0045 24.4031C21.9691 23.8948 21.9343 23.4203 21.4867 23.0606C21.1213 22.7681 20.7019 22.6704 20.386 22.7698Z" fill="#F8FAFF"/>
</g>
<g id="Group_33">
<path id="Vector_62" d="M18.9043 28.1034C18.6813 28.1034 18.4579 28.0191 18.2852 27.8522C17.3305 26.9278 16.6253 25.769 16.2441 24.5029C16.1024 24.0322 16.3689 23.5345 16.8403 23.3935C17.3117 23.2517 17.8084 23.5188 17.9495 23.9903C18.2431 24.9658 18.7875 25.8587 19.5249 26.5721C19.8778 26.9154 19.8868 27.4781 19.5442 27.8329C19.3698 28.0118 19.1376 28.1034 18.9043 28.1034Z" fill="#F8FAFF"/>
<path id="Vector_63" d="M16.8057 23.1477C16.314 23.1477 15.915 22.7491 15.915 22.2579C15.915 19.5154 17.3145 17.0263 19.6607 15.5989C20.0805 15.343 20.628 15.4761 20.8843 15.8964C21.1396 16.3168 21.0068 16.8641 20.5865 17.1198C18.7769 18.2216 17.6968 20.1419 17.6968 22.2579C17.6966 22.7491 17.2978 23.1477 16.8057 23.1477Z" fill="#F8FAFF"/>
</g>
</g>
<path id="Vector_64" fill-rule="evenodd" clip-rule="evenodd" d="M27.2229 34.8885V34.5266C27.2229 34.2746 27.0185 34.0703 26.766 34.0703H20.7955C20.5438 34.0703 20.3394 34.2746 20.3394 34.5266V34.8885C20.3394 35.1406 20.5438 35.3441 20.7955 35.3441C20.5438 35.3441 20.3394 35.5492 20.3394 35.8016V36.163C20.3394 36.4156 20.5438 36.6195 20.7955 36.6195C20.5438 36.6195 20.3394 36.8237 20.3394 37.0763V37.4381C20.3394 37.6905 20.5438 37.8945 20.7955 37.8945H21.9912C21.9968 38.807 22.7382 39.5457 23.652 39.5457C24.566 39.5457 25.3074 38.807 25.3128 37.8945H26.7658C27.0184 37.8945 27.2228 37.6903 27.2228 37.4381V37.0763C27.2228 36.8237 27.0184 36.6195 26.7658 36.6195C27.0184 36.6195 27.2228 36.4156 27.2228 36.163V35.8016C27.2228 35.5492 27.0184 35.3441 26.7658 35.3441C27.0185 35.3441 27.2229 35.1406 27.2229 34.8885Z" fill="#F8FAFF"/>
</g>
</g>
</g>
</g>
</g>
</g>
</svg>
