<svg width="19" height="18" viewBox="0 0 19 18" fill="none" xmlns="http://www.w3.org/2000/svg">
<g id="dollar 1" clip-path="url(#clip0_5412_59842)">
<g id="Group">
<g id="Group_2">
<path id="Vector" d="M18.5 9C18.5 13.9706 14.4706 18 9.5 18C6.87971 18 4.52098 16.8803 2.87637 15.0932C2.44437 14.6241 2.06196 14.1087 1.73649 13.5558C0.950735 12.2194 0.5 10.6622 0.5 9C0.5 4.02943 4.52943 0 9.5 0C11.1626 0 12.7198 0.450735 14.0558 1.23686C14.6087 1.56196 15.1237 1.94437 15.5928 2.37673C17.38 4.02061 18.5 6.37971 18.5 9Z" fill="#F0CD00"/>
<path id="Vector_2" d="M18.5 9.0001C18.5 13.8586 14.6506 17.8179 9.83502 17.9939C5.01947 17.8179 1.17004 13.8586 1.17004 9.0001C1.17004 4.14157 5.01947 0.182307 9.83502 0.00634766C14.6506 0.182307 18.5 4.14157 18.5 9.0001Z" fill="#FFDE50"/>
<path id="Vector_3" d="M15.5928 2.37669L2.87639 15.0931C2.44439 14.624 2.06198 14.1087 1.73651 13.5558L14.0559 1.23682C14.6087 1.56192 15.1237 1.94433 15.5928 2.37669Z" fill="#FFEA94"/>
<path id="Vector_4" d="M17.8792 5.70968L6.20932 17.3796C5.38315 17.0548 4.6165 16.6114 3.93066 16.0703L16.5703 3.43066C17.1114 4.1165 17.5548 4.88315 17.8792 5.70968Z" fill="#FFEA94"/>
<path id="Vector_5" d="M16.4936 8.9999C16.4936 12.8622 13.3623 15.9934 9.50002 15.9934C8.1548 15.9934 6.89847 15.6136 5.83206 14.9553C5.36737 14.6688 4.93904 14.329 4.5548 13.9448C4.27231 13.6626 4.01369 13.3559 3.78263 13.0286C3.46451 12.5779 3.19818 12.0878 2.99284 11.5673C2.68867 10.7977 2.51749 9.96088 2.5072 9.08586C2.50647 9.0572 2.50647 9.02855 2.50647 8.9999C2.50647 5.13761 5.63737 2.00635 9.50002 2.00635C9.52867 2.00635 9.55769 2.00635 9.58635 2.00708C10.4614 2.01737 11.2978 2.18892 12.0674 2.49272C12.5879 2.69843 13.078 2.96439 13.5287 3.28251C13.856 3.51394 14.1624 3.77218 14.4449 4.05467C14.8291 4.43855 15.1689 4.86725 15.4554 5.33194C16.1137 6.39835 16.4936 7.65467 16.4936 8.9999Z" fill="#FAA300"/>
<path id="Vector_6" d="M14.4449 4.05467L4.5548 13.9448C4.27231 13.6626 4.01369 13.3559 3.78263 13.0286C3.46451 12.5779 3.19818 12.0878 2.99284 11.5673C2.68867 10.7977 2.51749 9.96088 2.5072 9.08586C2.50647 9.0572 2.50647 9.02855 2.50647 8.9999C2.50647 5.13761 5.63737 2.00635 9.50002 2.00635C9.52867 2.00635 9.55769 2.00635 9.58635 2.00708C10.4614 2.01737 11.2978 2.18892 12.0674 2.49272C12.5879 2.69843 13.078 2.96439 13.5287 3.28251C13.856 3.51394 14.1624 3.77218 14.4449 4.05467Z" fill="#FFBD00"/>
<path id="Vector_7" d="M16.4934 8.9999C16.4934 12.8622 13.3621 15.9934 9.49982 15.9934C9.36721 15.9934 9.23569 15.9898 9.10492 15.9824C12.7835 15.7778 15.7032 12.7296 15.7032 8.9999C15.7032 5.27023 12.7835 2.22198 9.10492 2.01737C9.23569 2.01002 9.36721 2.00635 9.49982 2.00635C13.3621 2.00635 16.4934 5.13761 16.4934 8.9999Z" fill="#F68E00"/>
</g>
<path id="Vector_8" d="M9.26958 8.46253V5.63025C9.71099 5.87376 10.0107 6.34375 10.0107 6.88254C10.0107 7.26259 10.3188 7.57069 10.6989 7.57069C11.0789 7.57069 11.387 7.26259 11.387 6.88254C11.387 5.57291 10.4849 4.4702 9.26958 4.16259V3.60246C9.26958 3.2224 8.96149 2.91431 8.58143 2.91431C8.20137 2.91431 7.89328 3.2224 7.89328 3.60246V4.16255C6.67791 4.4702 5.77582 5.57287 5.77582 6.8825C5.77582 7.66447 6.00548 8.27427 6.47793 8.74671C6.82239 9.09117 7.27996 9.34607 7.89328 9.53294V12.3697C7.45187 12.1262 7.15212 11.6562 7.15212 11.1174C7.15212 10.7374 6.84403 10.4293 6.46397 10.4293C6.08391 10.4293 5.77582 10.7374 5.77582 11.1174C5.77582 12.427 6.67791 13.5297 7.89328 13.8374V14.3975C7.89328 14.7775 8.20137 15.0856 8.58143 15.0856C8.96149 15.0856 9.26958 14.7775 9.26958 14.3975V13.8374C10.4849 13.5297 11.387 12.4271 11.387 11.1174C11.387 10.3463 11.1475 9.71581 10.6752 9.24347C10.3319 8.90015 9.86865 8.64279 9.26958 8.46253ZM7.45114 7.77354C7.31192 7.63435 7.15216 7.40725 7.15216 6.8825C7.15216 6.34371 7.45191 5.87376 7.89332 5.63021V8.06631C7.7077 7.98035 7.56076 7.88319 7.45114 7.77354ZM9.26958 12.3697V9.92604C9.86766 10.2046 10.0107 10.603 10.0107 11.1174C10.0107 11.6562 9.71099 12.1262 9.26958 12.3697Z" fill="#F68E00"/>
<path id="Vector_9" d="M10.188 8.46253V5.63025C10.6294 5.87376 10.9292 6.34375 10.9292 6.88254C10.9292 7.26259 11.2373 7.57069 11.6173 7.57069C11.9974 7.57069 12.3055 7.26259 12.3055 6.88254C12.3055 5.57291 11.4034 4.4702 10.188 4.16259V3.60246C10.188 3.2224 9.87994 2.91431 9.49989 2.91431C9.11983 2.91431 8.81174 3.2224 8.81174 3.60246V4.16255C7.59637 4.4702 6.69427 5.57287 6.69427 6.8825C6.69427 7.66447 6.92394 8.27427 7.39639 8.74671C7.74085 9.09117 8.19841 9.34607 8.81174 9.53294V12.3697C8.37033 12.1262 8.07058 11.6562 8.07058 11.1174C8.07058 10.7374 7.76248 10.4293 7.38243 10.4293C7.00237 10.4293 6.69427 10.7374 6.69427 11.1174C6.69427 12.427 7.59637 13.5297 8.81174 13.8374V14.3975C8.81174 14.7775 9.11983 15.0856 9.49989 15.0856C9.87994 15.0856 10.188 14.7775 10.188 14.3975V13.8374C11.4034 13.5297 12.3055 12.4271 12.3055 11.1174C12.3055 10.3463 12.066 9.71581 11.5937 9.24347C11.2504 8.90015 10.7871 8.64279 10.188 8.46253ZM8.36956 7.77354C8.23034 7.63435 8.07058 7.40725 8.07058 6.8825C8.07058 6.34371 8.37033 5.87376 8.81174 5.63021V8.06631C8.62615 7.98035 8.47921 7.88319 8.36956 7.77354ZM10.188 12.3697V9.92604C10.7861 10.2046 10.9292 10.603 10.9292 11.1174C10.9292 11.6562 10.6294 12.1262 10.188 12.3697Z" fill="#FFEA94"/>
</g>
</g>
<defs>
<clipPath id="clip0_5412_59842">
<rect width="18" height="18" fill="white" transform="translate(0.5)"/>
</clipPath>
</defs>
</svg>
