<svg width="24" height="24" viewBox="0 0 24 24" fill="none" xmlns="http://www.w3.org/2000/svg">
<g id="danger 2">
<path id="Vector" fill-rule="evenodd" clip-rule="evenodd" d="M21.405 16.005C21.405 12.965 19.645 9.23 18.46 7.06L17.405 5.275C17.5038 5.96083 17.4647 6.65948 17.29 7.33C17.0607 7.91835 16.7097 8.45164 16.26 8.895C16.2088 7.34741 15.7519 5.84044 14.935 4.525C14.78 4.295 14.385 3.6685 13.945 3.11C13.077 2.00391 12.0042 1.07534 10.785 0.375C11.2117 1.25741 11.4679 2.21249 11.54 3.19C11.505 4.34 11.14 5.03 9.41502 7.28C7.69002 9.53 8.11502 12.885 8.11502 12.885C7.97722 12.4162 7.78948 11.9637 7.55502 11.535C7.10502 10.66 5.27002 9.63 5.15502 9.57C5.20502 9.695 6.03002 11.75 4.90502 13.145C3.47502 14.93 2.33002 16.26 2.64502 18.93C3.04502 22.325 6.91002 23.275 8.68502 23.53H8.69002C9.22502 23.61 9.56502 23.625 9.56502 23.625C8.39652 23.225 7.73052 21.755 7.63852 20.9465C7.56704 20.4859 7.59618 20.0154 7.72392 19.5671C7.85167 19.1189 8.07499 18.7037 8.37852 18.35C8.61652 18.024 9.49602 17.15 9.79202 16.85C10.5682 16.1873 11.1088 15.2911 11.333 14.2955C11.4538 13.5994 11.4755 12.8897 11.3975 12.1875C12.2204 12.7095 12.9176 13.4072 13.439 14.2305C13.8457 14.8756 14.0714 15.6182 14.0925 16.3805C14.3139 16.1612 14.4868 15.8978 14.6 15.6075C14.6861 15.2751 14.7046 14.9287 14.6545 14.589C14.6545 14.589 16.6825 17.389 16.6255 19.877C16.554 22.995 14.6255 23.6235 14.6225 23.627C14.643 23.622 21.405 22.779 21.405 16.005Z" fill="url(#paint0_linear_5412_59918)"/>
</g>
<defs>
<linearGradient id="paint0_linear_5412_59918" x1="21.405" y1="0.374998" x2="-0.200366" y2="3.35093" gradientUnits="userSpaceOnUse">
<stop stop-color="#DC0000"/>
<stop offset="1" stop-color="#E2CD0F"/>
</linearGradient>
</defs>
</svg>
