<svg width="29" height="29" viewBox="0 0 29 29" fill="none" xmlns="http://www.w3.org/2000/svg">
<g id="gift-fill" clip-path="url(#clip0_5604_48186)">
<path id="Vector" d="M5.4375 4.53125C5.4375 3.32949 5.9149 2.17695 6.76467 1.32717C7.61445 0.477398 8.76699 0 9.96875 0C11.1705 0 12.3231 0.477398 13.1728 1.32717C14.0226 2.17695 14.5 3.32949 14.5 4.53125C14.5 3.32949 14.9774 2.17695 15.8272 1.32717C16.6769 0.477398 17.8295 0 19.0312 0C20.233 0 21.3856 0.477398 22.2353 1.32717C23.0851 2.17695 23.5625 3.32949 23.5625 4.53125V4.54213C23.5625 4.669 23.5625 5.0315 23.4936 5.4375H27.1875C27.6682 5.4375 28.1292 5.62846 28.4691 5.96837C28.809 6.30828 29 6.7693 29 7.25V9.0625C29 9.54321 28.809 10.0042 28.4691 10.3441C28.1292 10.684 27.6682 10.875 27.1875 10.875H1.8125C1.3318 10.875 0.870779 10.684 0.530869 10.3441C0.190959 10.0042 0 9.54321 0 9.0625V7.25C0 6.7693 0.190959 6.30828 0.530869 5.96837C0.870779 5.62846 1.3318 5.4375 1.8125 5.4375H5.50638C5.4585 5.14148 5.43546 4.84198 5.4375 4.54213V4.53125ZM7.37325 5.4375H12.6875V4.53125C12.6875 4.17422 12.6172 3.82068 12.4805 3.49083C12.3439 3.16098 12.1437 2.86126 11.8912 2.6088C11.6387 2.35634 11.339 2.15608 11.0092 2.01945C10.6793 1.88282 10.3258 1.8125 9.96875 1.8125C9.61172 1.8125 9.25818 1.88282 8.92833 2.01945C8.59848 2.15608 8.29876 2.35634 8.0463 2.6088C7.79384 2.86126 7.59358 3.16098 7.45695 3.49083C7.32032 3.82068 7.25 4.17422 7.25 4.53125C7.25 4.68531 7.25362 5.02787 7.33156 5.31063C7.34245 5.35385 7.35638 5.39624 7.37325 5.4375ZM16.3125 5.4375H21.6268C21.6434 5.39617 21.6573 5.35379 21.6684 5.31063C21.7464 5.02787 21.75 4.68531 21.75 4.53125C21.75 3.81019 21.4636 3.11867 20.9537 2.6088C20.4438 2.09894 19.7523 1.8125 19.0312 1.8125C18.3102 1.8125 17.6187 2.09894 17.1088 2.6088C16.5989 3.11867 16.3125 3.81019 16.3125 4.53125V5.4375ZM27.1875 12.6875V26.2812C27.1875 27.0023 26.9011 27.6938 26.3912 28.2037C25.8813 28.7136 25.1898 29 24.4688 29H16.3125V12.6875H27.1875ZM4.53125 29C3.81019 29 3.11867 28.7136 2.6088 28.2037C2.09894 27.6938 1.8125 27.0023 1.8125 26.2812V12.6875H12.6875V29H4.53125Z" fill="#DC07FF"/>
</g>
<defs>
<clipPath id="clip0_5604_48186">
<rect width="29" height="29" fill="white"/>
</clipPath>
</defs>
</svg>
