<svg width="19" height="18" viewBox="0 0 19 18" fill="none" xmlns="http://www.w3.org/2000/svg">
<g id="Group">
<path id="Vector" d="M18.5 9C18.5 13.9706 14.4706 18 9.5 18C6.87971 18 4.52098 16.8803 2.87637 15.0932C2.44437 14.6241 2.06196 14.1087 1.73649 13.5558C0.950735 12.2194 0.5 10.6622 0.5 9C0.5 4.02943 4.52943 0 9.5 0C11.1626 0 12.7198 0.450735 14.0558 1.23686C14.6087 1.56196 15.1237 1.94437 15.5928 2.37673C17.38 4.02061 18.5 6.37971 18.5 9Z" fill="#F0CD00"/>
<path id="Vector_2" d="M18.5 9.0001C18.5 13.8586 14.6506 17.8179 9.83502 17.9939C5.01947 17.8179 1.17004 13.8586 1.17004 9.0001C1.17004 4.14157 5.01947 0.182307 9.83502 0.00634766C14.6506 0.182307 18.5 4.14157 18.5 9.0001Z" fill="#FFDE50"/>
<path id="Vector_3" d="M15.5928 2.37669L2.87633 15.0931C2.44433 14.624 2.06192 14.1087 1.73645 13.5558L14.0558 1.23682C14.6087 1.56192 15.1237 1.94433 15.5928 2.37669Z" fill="#FFEA94"/>
<path id="Vector_4" d="M17.8792 5.70968L6.20932 17.3796C5.38315 17.0548 4.6165 16.6114 3.93066 16.0703L16.5703 3.43066C17.1114 4.1165 17.5548 4.88315 17.8792 5.70968Z" fill="#FFEA94"/>
<path id="Vector_5" d="M16.4936 8.9999C16.4936 12.8622 13.3623 15.9934 9.50002 15.9934C8.1548 15.9934 6.89847 15.6136 5.83206 14.9553C5.36737 14.6688 4.93904 14.329 4.5548 13.9448C4.27231 13.6626 4.01369 13.3559 3.78263 13.0286C3.46451 12.5779 3.19818 12.0878 2.99284 11.5673C2.68867 10.7977 2.51749 9.96088 2.5072 9.08586C2.50647 9.0572 2.50647 9.02855 2.50647 8.9999C2.50647 5.13761 5.63737 2.00635 9.50002 2.00635C9.52867 2.00635 9.55769 2.00635 9.58635 2.00708C10.4614 2.01737 11.2978 2.18892 12.0674 2.49272C12.5879 2.69843 13.078 2.96439 13.5287 3.28251C13.856 3.51394 14.1624 3.77218 14.4449 4.05467C14.8291 4.43855 15.1689 4.86725 15.4554 5.33194C16.1137 6.39835 16.4936 7.65467 16.4936 8.9999Z" fill="#FAA300"/>
<path id="Vector_6" d="M14.4449 4.05467L4.5548 13.9448C4.27231 13.6626 4.01369 13.3559 3.78263 13.0286C3.46451 12.5779 3.19818 12.0878 2.99284 11.5673C2.68867 10.7977 2.51749 9.96088 2.5072 9.08586C2.50647 9.0572 2.50647 9.02855 2.50647 8.9999C2.50647 5.13761 5.63737 2.00635 9.50002 2.00635C9.52867 2.00635 9.55769 2.00635 9.58635 2.00708C10.4614 2.01737 11.2978 2.18892 12.0674 2.49272C12.5879 2.69843 13.078 2.96439 13.5287 3.28251C13.856 3.51394 14.1624 3.77218 14.4449 4.05467Z" fill="#FFBD00"/>
<path id="Vector_7" d="M16.4933 8.9999C16.4933 12.8622 13.362 15.9934 9.49976 15.9934C9.36714 15.9934 9.23563 15.9898 9.10486 15.9824C12.7835 15.7778 15.7031 12.7296 15.7031 8.9999C15.7031 5.27023 12.7835 2.22198 9.10486 2.01737C9.23563 2.01002 9.36714 2.00635 9.49976 2.00635C13.362 2.00635 16.4933 5.13761 16.4933 8.9999Z" fill="#F68E00"/>
</g>
</svg>
