<svg width="69" height="80" viewBox="0 0 69 80" fill="none" xmlns="http://www.w3.org/2000/svg">
<g id="hiring 1" clip-path="url(#clip0_5573_51658)">
<g id="Group">
<g id="Group_2">
<path id="Vector" d="M61.9676 90.425C61.6898 90.5303 61.3973 90.5824 61.1035 90.581L37.4978 99.5316C37.4407 99.5532 37.383 99.5725 37.3256 99.5892L31.9286 101.636C30.7748 102.073 29.4848 101.492 29.0473 100.338L15.1343 63.6455C10.8757 52.414 12.0571 40.1071 18.3752 29.8796C20.37 26.6384 22.8327 23.7215 25.6935 21.2132C29.1304 18.1906 33.0699 15.8244 37.3999 14.1826C37.9204 13.9852 38.4309 13.804 38.9609 13.6286C41.0224 12.9429 43.1552 12.4318 45.297 12.1106C51.9599 11.1042 58.8188 11.8916 65.1297 14.3878C65.6596 14.5961 66.2044 14.8259 66.7454 15.0691C67.8629 15.5721 68.9761 16.1403 70.0555 16.7585C73.0688 18.4792 75.832 20.5993 78.2668 23.0582C81.4004 26.2178 83.9382 29.8775 85.8085 33.9342C86.1788 34.7272 86.5364 35.576 86.8666 36.4468L100.78 73.1398C101.217 74.2936 100.636 75.5838 99.4825 76.0212L96.0923 77.3067C96.0381 77.3323 95.9826 77.356 95.9262 77.3774L62.7184 89.9688C62.5013 90.1635 62.2482 90.3185 61.9676 90.425Z" fill="white"/>
</g>
<g id="Group_3">
<g id="Group_4">
<g id="Group_5">
<path id="Vector_2" d="M84.7852 37.237L98.6981 73.93L95.1396 75.2793L63.4333 77.2362L33.5156 98.6454L31.1444 99.5445L17.2314 62.8514C13.0924 51.9354 14.5904 40.268 20.2839 31.052C21.5384 29.0136 24.4384 29.2819 26.0891 27.5195C26.8868 26.6679 26.2899 23.6668 27.1741 22.8917C30.3339 20.1124 34.0356 17.8486 38.2001 16.2695C38.691 16.0834 39.179 15.9104 39.6709 15.7478C41.6443 15.0911 43.6391 14.6175 45.6364 14.3182C52.0626 13.3472 58.4917 14.1592 64.3157 16.4632C64.8259 16.664 65.3331 16.8779 65.8373 17.105C66.8986 17.5827 67.941 18.1154 68.9535 18.6954C71.7697 20.3039 74.3763 22.2945 76.6871 24.6282C77.9183 25.8696 76.9378 29.3388 77.9883 30.7686C79.3969 32.6858 82.7589 32.6362 83.7873 34.8675C84.1473 35.6389 84.4789 36.4292 84.7852 37.237Z" fill="#FF6B5A"/>
</g>
</g>
<g id="Group_6">
<g id="Group_7">
<path id="Vector_3" d="M65.148 30.1106C64.9793 27.6484 62.8466 25.7891 60.3844 25.9578C57.9222 26.1265 56.063 28.2593 56.2317 30.7215C56.4004 33.1837 58.5331 35.0429 60.9953 34.8742C63.4575 34.7055 65.3167 32.5728 65.148 30.1106Z" fill="#FFDEDE"/>
</g>
<g id="Group_8">
<path id="Vector_4" d="M31.0552 49.7872C31.9302 52.0949 30.7689 54.6748 28.4612 55.5498C26.1536 56.4248 23.5736 55.2635 22.6986 52.9558C21.8236 50.6482 22.9849 48.068 25.2926 47.193C27.6001 46.3181 30.1802 47.4796 31.0552 49.7872Z" fill="#FFDEDE"/>
</g>
</g>
<g id="Group_9">
<g id="Group_10">
<path id="Vector_5" d="M83.787 34.8679L70.7486 36.5499L76.6866 24.6287C79.5686 27.5344 81.9914 30.9727 83.787 34.8679Z" fill="#96C8FF"/>
</g>
<g id="Group_11">
<g id="Group_12">
<path id="Vector_6" d="M34.8818 73.0262C34.0334 69.5578 30.5338 67.434 27.0654 68.2824C23.597 69.1309 21.4732 72.6304 22.3216 76.0988C23.1701 79.5672 26.6696 81.6911 30.138 80.8426C33.6064 79.9942 35.7303 76.4946 34.8818 73.0262Z" fill="#FF81B0"/>
</g>
</g>
<g id="Group_13">
<g id="Group_14">
<path id="Vector_7" d="M31.8702 32.2936L20.2839 31.0515C22.1445 28.0282 24.46 25.2704 27.1742 22.8913C30.9624 26.4967 31.8702 32.2936 31.8702 32.2936Z" fill="#FFCD72"/>
</g>
</g>
</g>
<g id="Group_15">
<g id="Group_16">
<g id="Group_17">
<path id="Vector_8" d="M82.4865 57.3215C81.5217 57.7102 80.5613 58.1011 79.6035 58.4984C78.3863 56.564 76.838 55.0025 74.9847 53.5606C76.3206 55.2253 77.3815 57.1087 78.1092 59.1183C65.3013 64.4394 52.7449 70.2632 40.1817 76.1391C38.0151 74.5036 36.0318 72.9702 34.8454 70.4641C35.4508 72.8743 36.548 75.1552 38.0557 77.132C37.3864 77.4468 36.7161 77.7581 36.0468 78.0727C33.7817 76.0974 31.3328 73.9787 29.7686 71.4102C28.2087 68.8437 27.3794 65.6918 28.1563 62.7879C28.7529 60.5543 30.2531 58.6332 32.0801 57.2129C33.5146 56.0938 35.3328 54.9816 35.4766 53.171C35.5651 52.0785 34.9869 51.0558 34.4972 50.0759C33.4133 47.9005 32.6832 45.5528 32.3495 43.1461C32.2049 42.1115 32.133 41.038 32.4283 40.0384C32.712 39.0889 33.3064 38.2654 33.9732 37.5327C36.7391 34.4994 40.7198 32.9327 44.5535 31.46L45.3267 30.7364C49.3234 29.3924 53.7066 29.2083 57.8023 30.2152C59.1358 30.5476 60.4611 31.0088 61.575 31.8168C63.4385 33.1748 64.5192 35.3821 65.078 37.6195C65.6335 39.8581 65.7371 42.1805 66.0589 44.466C66.1565 45.1756 66.3154 45.9459 66.8681 46.399C67.6843 47.0648 68.8787 46.7185 69.9126 46.5322C72.9197 45.9939 76.0829 47.2133 78.2925 49.3238C80.502 51.4345 81.8354 54.3381 82.4865 57.3215Z" fill="#FFCD72"/>
</g>
</g>
<g id="Group_18">
<g id="Group_19">
<path id="Vector_9" d="M68.7754 63.6557C68.3726 63.6485 67.9753 63.6354 67.5846 63.6196C65.2722 63.5289 63.2588 63.3019 62.1846 62.7493C61.8496 62.5792 61.6046 62.375 61.4742 62.1312C61.2807 61.7818 61.0526 61.331 60.7956 60.8038C60.4491 60.101 60.0479 59.2741 59.6505 58.4268C59.3509 57.7976 59.051 57.1572 58.7703 56.5474C58.7271 56.4534 58.6863 56.3661 58.6442 56.2753C58.4812 55.9256 58.3253 55.5849 58.1783 55.2673C57.5521 53.8972 57.1 52.8955 57.1 52.8955L50.887 55.3162L50.0049 55.662L44.2003 57.9239L44.1969 57.9252C44.1969 57.9252 44.4731 58.5328 44.8811 59.4484C44.8824 59.4518 44.8824 59.4518 44.8824 59.4518C45.7979 61.5045 47.3677 65.0919 47.9449 66.8156L47.9462 66.819C48.0877 67.2223 48.1696 67.519 48.176 67.6765C48.1948 68.1379 46.6084 69.7108 44.5087 71.9887C44.1138 72.4161 45.9522 73.8326 45.528 74.3081L44.7853 77.3259L71.1003 67.348L69.5162 66.156C69.2034 66.1521 69.0829 63.6626 68.7754 63.6557Z" fill="#FFA495"/>
</g>
</g>
<g id="Group_20">
<g id="Group_21">
<path id="Vector_10" d="M59.6504 58.4268C59.5335 58.7111 59.3505 58.9823 59.0852 59.2469C58.2466 60.0791 56.988 60.2859 55.8131 60.3923C52.9088 60.6593 49.9316 60.5426 47.4775 58.9629C51.255 58.3267 54.9903 57.4285 58.6443 56.2753C58.963 56.9656 59.3076 57.7034 59.6504 58.4268Z" fill="#00143A"/>
</g>
</g>
<g id="Group_22">
<g id="Group_23">
<path id="Vector_11" d="M38.3501 51.3758C37.1637 52.2984 36.62 53.9476 36.9578 55.412C37.2957 56.8765 38.4677 58.1006 39.8951 58.5705C41.3226 59.0404 42.957 58.7693 44.1994 57.9235C44.6595 57.6104 45.0775 57.2121 45.3184 56.7103C46.2672 54.7345 44.3737 52.9603 43.1459 51.6665C41.907 50.3611 39.795 50.252 38.3501 51.3758Z" fill="#FFA495"/>
</g>
</g>
<g id="Group_24">
<g id="Group_25">
<g id="Group_26">
<g id="Group_27">
<path id="Vector_12" d="M60.2704 37.203C60.2386 37.1349 60.2062 37.067 60.1731 36.9993C59.4283 35.4664 58.2795 34.131 56.9302 33.0908C56.7835 32.9776 56.6341 32.8682 56.4821 32.7622C54.6748 31.503 52.5219 30.7614 50.3218 30.647C48.6912 30.5623 47.05 30.8234 45.5237 31.4022C40.2451 33.4037 37.236 38.7759 38.0105 44.1402C37.9849 44.218 37.9654 44.2953 37.96 44.3723C37.7078 47.8909 46.3806 61.9562 46.3806 61.9562L61.4228 55.3881C63.5779 54.6171 64.7312 51.6693 64.0618 49.4806C63.7005 48.2988 63.3392 47.117 62.9779 45.9353C62.5201 44.438 61.9779 42.9555 61.5864 41.4405C61.3916 40.686 61.2779 39.9216 61.0411 39.1746C60.8276 38.5015 60.5702 37.8423 60.2704 37.203Z" fill="#FFA495"/>
</g>
</g>
<g id="Group_28">
<g id="Group_29">
<g id="Group_30">
<g id="Group_31">
<g id="Group_32">
<path id="Vector_13" d="M49.8142 46.9099C50.1644 47.8334 49.6996 48.8659 48.7761 49.2161C47.8526 49.5662 46.8201 49.1015 46.47 48.178C46.1198 47.2545 46.5846 46.222 47.5081 45.8718C48.4316 45.5217 49.464 45.9864 49.8142 46.9099Z" fill="#00143A"/>
</g>
</g>
</g>
<g id="Group_33">
<g id="Group_34">
<path id="Vector_14" d="M53.4923 42.2491L56.4185 46.6355C56.7662 47.1567 56.4978 47.865 55.8921 48.0252L52.6949 48.8703L53.4923 42.2491Z" fill="#FF6B5A"/>
</g>
</g>
<g id="Group_35">
<g id="Group_36">
<path id="Vector_15" d="M55.0921 50.7583C54.9687 50.8051 54.8416 50.8424 54.7118 50.8698C54.0418 51.0107 53.3293 50.8766 52.7566 50.5015C52.6759 50.4487 52.6533 50.3405 52.7062 50.2598C52.7592 50.1787 52.8673 50.1563 52.9482 50.2093C53.4435 50.5337 54.0601 50.65 54.6399 50.528C55.2195 50.4057 55.737 50.0514 56.0599 49.5548C56.1119 49.4733 56.2207 49.4514 56.3015 49.5033C56.3824 49.556 56.4053 49.664 56.3526 49.7451C56.052 50.2079 55.6051 50.5638 55.0921 50.7583Z" fill="#00143A"/>
</g>
</g>
</g>
<g id="Group_37">
<g id="Group_38">
<path id="Vector_16" d="M58.1676 43.8924C57.5407 44.1301 56.8085 44.1083 56.1453 43.8297C56.0344 43.7828 55.9823 43.6552 56.029 43.5446C56.0748 43.4331 56.2028 43.3816 56.314 43.428C56.8965 43.6732 57.5416 43.6949 58.0735 43.4613C58.607 43.2382 59.0346 42.7807 59.2469 42.2061C59.2885 42.0936 59.4136 42.0358 59.5264 42.0774C59.6392 42.1192 59.6968 42.2442 59.6552 42.3571C59.4013 43.0444 58.8863 43.5935 58.2415 43.8634C58.217 43.8732 58.1924 43.883 58.1676 43.8924Z" fill="#00143A"/>
</g>
</g>
<g id="Group_39">
<g id="Group_40">
<g id="Group_41">
<path id="Vector_17" d="M56.0964 38.6943C56.2468 38.6165 56.374 38.5613 56.454 38.5366C57.0255 38.3607 58.2348 38.2474 58.3905 39.0451C58.4354 39.2745 58.2622 39.4866 58.0856 39.6398C57.3978 40.2371 56.4742 40.5426 55.5742 40.6017C55.3321 40.6177 55.071 40.6126 54.8725 40.4731C54.1261 39.9483 55.3787 39.0651 56.0964 38.6943Z" fill="#FFCD72"/>
</g>
</g>
<g id="Group_42">
<g id="Group_43">
<path id="Vector_18" d="M45.7646 42.8297C45.8919 42.7177 46.0018 42.6334 46.0735 42.5902C46.5855 42.2813 47.7315 41.8788 48.0756 42.6153C48.1744 42.8271 48.0578 43.0747 47.9236 43.2661C47.4007 44.012 46.5784 44.5318 45.7192 44.8068C45.488 44.8808 45.2336 44.939 45.0073 44.8517C44.156 44.5229 45.1578 43.363 45.7646 42.8297Z" fill="#FFCD72"/>
</g>
</g>
</g>
</g>
</g>
<g id="Group_44">
<g id="Group_45">
<path id="Vector_19" d="M39.6453 50.5941C41.1553 50.8683 42.7898 50.3135 43.8209 49.1768C44.8521 48.04 45.2452 46.3594 44.8255 44.8831C44.5801 44.02 44.0857 43.2502 43.5611 42.5222C45.4568 42.1904 47.0898 40.9018 48.363 39.4587C49.4296 38.2498 50.2948 36.8167 50.5906 35.232C50.8866 33.6473 50.5535 31.8998 49.4821 30.6952C47.8285 30.3494 46.2534 30.4216 44.6378 30.9151C43.0221 31.4086 41.5084 32.1849 40.031 33.0041C37.7906 34.2464 35.5437 35.6584 34.0916 37.7691C33.6332 38.4353 33.2603 39.1675 33.0577 39.9505C32.8036 40.9335 32.8243 41.967 32.9199 42.9778C33.2604 46.5833 34.6194 50.2022 37.2632 52.6774C37.7264 52.1303 38.3206 51.5833 38.89 51.1482C39.115 50.9763 39.367 50.5437 39.6453 50.5941Z" fill="#FFCD72"/>
</g>
</g>
</g>
<g id="Group_46">
<g id="Group_47">
<path id="Vector_20" d="M44.3023 56.7508C44.2991 56.7521 44.2956 56.7534 44.2923 56.7543C44.2001 56.7832 44.1023 56.7318 44.0734 56.6398C43.3828 54.4272 41.1141 52.7623 38.796 52.7674C38.2358 52.7693 37.8632 52.9072 37.6876 53.178C37.6347 53.2591 37.5265 53.2819 37.4459 53.2294C37.365 53.1767 37.3419 53.0686 37.3946 52.9877C37.6389 52.6119 38.1096 52.4201 38.7949 52.4179C41.3007 52.4123 43.6608 54.1441 44.407 56.5354C44.4348 56.6242 44.3881 56.7183 44.3023 56.7508Z" fill="#00143A"/>
</g>
</g>
<g id="Group_48">
<g id="Group_49">
<path id="Vector_21" d="M95.1421 75.2863L36.7134 97.4408L34.184 90.77C34.1989 90.6081 34.2137 90.4464 34.2319 90.2833C34.4426 88.3978 34.8888 86.4802 35.6709 84.5648C36.9762 81.3462 39.1609 78.2475 41.3402 75.5966C42.4359 74.2669 43.5282 73.0491 44.5087 71.9879C45.7788 72.2033 47.064 72.3179 48.3497 72.3332C48.8912 72.3449 49.4285 72.3355 49.9661 72.3068C50.0124 72.3083 50.0574 72.3065 50.1012 72.3012C50.1767 72.2993 50.2509 72.2941 50.3249 72.2888C54.1831 72.0562 57.9981 70.9868 61.4371 69.2066C61.5431 69.1549 61.6481 69.0999 61.7517 69.0416C61.8599 68.9853 61.9636 68.927 62.0717 68.8707C64.5634 67.4955 66.8423 65.7401 68.7753 63.6549C72.2594 63.7319 76.1384 63.5942 78.408 63.8536C82.9877 64.3683 86.5422 66.1479 93.3531 73.2104C93.9499 73.83 94.5499 74.5281 95.1421 75.2863Z" fill="#96C8FF"/>
</g>
</g>
<g id="Group_50">
<g id="Group_51">
<g id="Group_52">
<path id="Vector_22" d="M50.2409 54.1053L50.6925 54.9534L57.2671 67.3013L53.9896 69.3343L49.9474 55.4704L49.9484 55.4688L49.5782 54.203L50.2409 54.1053Z" fill="#96C8FF"/>
</g>
</g>
<g id="Group_53">
<g id="Group_54">
<path id="Vector_23" d="M50.2407 54.1061L50.6921 54.9543C50.6063 55.0147 50.5205 55.075 50.4351 55.138C50.2811 55.2492 50.1212 55.3783 49.9481 55.4697L49.5779 54.2038L50.2407 54.1061Z" fill="#00143A"/>
</g>
</g>
</g>
<g id="Group_55">
<g id="Group_56">
<g id="Group_57">
<path id="Vector_24" d="M53.4061 42.963C52.9928 42.4454 52.4959 41.9788 51.9249 41.5782C50.5942 40.6505 49.0623 40.237 47.5609 40.296C45.385 40.3744 43.2787 41.4398 41.9389 43.361C40.4061 45.5573 40.2736 48.3121 41.3528 50.5656C41.3726 50.6077 41.3922 50.6497 41.4166 50.6938C41.9331 51.7245 42.7089 52.6455 43.7183 53.3485C44.1742 53.6669 44.657 53.9258 45.1542 54.1219C46.6029 54.7078 48.1752 54.7859 49.6375 54.4029C49.8561 54.3465 50.0778 54.2779 50.2909 54.1971C51.626 53.7099 52.8323 52.822 53.7076 51.5645C53.8536 51.3568 53.9859 51.1428 54.1029 50.9194C54.1685 50.8108 54.2301 50.6921 54.2858 50.5681C54.6438 49.8343 54.8601 49.0589 54.951 48.274C55.1619 46.3883 54.6226 44.4634 53.4061 42.963ZM54.2998 48.4446C54.2011 49.1486 53.9861 49.8472 53.6453 50.5058C53.591 50.614 53.5335 50.7235 53.4689 50.8242C53.3828 50.9788 53.2895 51.1247 53.1883 51.2697C51.2325 54.0683 47.4895 54.8856 44.5753 53.2479C44.384 53.1453 44.2035 53.0308 44.0226 52.9052C43.2615 52.3748 42.6472 51.7087 42.1863 50.9656C42.0776 50.7897 41.9777 50.6065 41.8878 50.4197C40.8585 48.3378 40.9696 45.7777 42.387 43.7395C43.4512 42.2161 45.0419 41.2777 46.7397 41.0034C48.3658 40.7411 50.0935 41.0878 51.5529 42.1039C52.263 42.6003 52.8446 43.2101 53.294 43.893C54.1727 45.2359 54.5309 46.8637 54.2998 48.4446Z" fill="#96C8FF"/>
</g>
</g>
</g>
<g id="Group_58">
<g id="Group_59">
<g id="Group_60">
<g id="Group_61">
<path id="Vector_25" d="M50.1037 80.953C50.1037 80.953 51.9101 78.1933 51.5857 76.8249C51.2614 75.4566 48.4964 68.3354 49.0106 67.2976C49.5248 66.2597 53.4134 60.4412 54.1015 60.3748C54.7895 60.3084 56.7773 60.5921 57.5395 61.4053C58.3017 62.2185 58.5909 63.665 58.5909 63.665C58.5909 63.665 59.4764 63.2644 59.834 64.0365C60.1916 64.8087 63.287 71.0914 63.0484 71.8302C62.8099 72.569 60.6147 73.7904 60.6147 73.7904C60.6147 73.7904 61.9981 77.6099 61.4995 79.0308C61.0009 80.4518 59.6223 85.7078 59.6223 85.7078L50.1037 80.953Z" fill="#FFA495"/>
</g>
</g>
<g id="Group_62">
<g id="Group_63">
<path id="Vector_26" d="M50.1208 80.9544C50.0688 80.9741 50.0083 80.9688 49.9593 80.9349C49.8799 80.8798 49.8602 80.7713 49.9149 80.6917C50.4343 79.9413 51.7306 77.8379 51.497 77.1252L51.3975 76.8256C49.4611 71.0187 48.6757 67.8244 48.9963 67.0605C49.4491 65.9811 53.1805 60.5369 54.037 60.2121C54.039 60.2114 54.0408 60.2107 54.0427 60.21C54.8449 59.9225 56.8322 60.3013 57.6729 61.292C58.3542 62.0946 58.7761 63.1376 58.8997 63.4684C59.1312 63.5118 59.6268 63.6848 59.9689 64.3716C60.3346 65.106 61.5712 68.5401 61.8662 69.3635C61.9852 69.3275 62.1449 69.3031 62.3026 69.3524C62.4577 69.4004 62.5813 69.5119 62.6606 69.6742C63.6347 71.6756 63.4068 72.1124 63.1503 72.2666C62.7245 72.5237 59.7438 74.5683 59.7138 74.5888C59.635 74.6436 59.5257 74.6234 59.4709 74.5436C59.4163 74.4639 59.4366 74.3554 59.5161 74.3007C59.6391 74.2161 62.5354 72.2293 62.9701 71.9673C63.06 71.913 63.1233 71.423 62.3463 69.8271C62.2972 69.7263 62.2386 69.6983 62.1989 69.6858C62.0701 69.6458 61.8991 69.7179 61.8492 69.7459C61.804 69.7716 61.7505 69.7758 61.7022 69.7577C61.6537 69.7395 61.6159 69.7012 61.5986 69.6526C61.5832 69.6093 60.0542 65.3268 59.6561 64.5273C59.3064 63.8248 58.7912 63.8036 58.7693 63.8029C58.6962 63.8009 58.6302 63.7537 58.6065 63.6846C58.6021 63.6721 58.1658 62.4125 57.4065 61.518C56.6642 60.6432 54.8582 60.2891 54.1605 60.5388C54.1593 60.5392 54.1582 60.5397 54.1568 60.5402C53.5016 60.7886 49.8451 65.9408 49.3185 67.1957C49.1596 67.5745 49.2613 69.3147 51.7291 76.715L51.8291 77.0163C52.1588 78.0215 50.4036 80.5998 50.2024 80.8907C50.1814 80.9209 50.1526 80.9423 50.1208 80.9544Z" fill="#00143A"/>
</g>
</g>
<g id="Group_64">
<g id="Group_65">
<path id="Vector_27" d="M52.8625 66.7694C52.7795 66.8008 52.6848 66.7651 52.6443 66.684C52.6014 66.5977 52.6363 66.4928 52.7229 66.4496L58.694 63.4725C58.7807 63.427 58.8854 63.4648 58.9284 63.5511C58.9713 63.6376 58.9362 63.7423 58.8498 63.7855L52.8787 66.7626C52.8735 66.7652 52.8679 66.7673 52.8625 66.7694Z" fill="#00143A"/>
</g>
</g>
<g id="Group_66">
<g id="Group_67">
<path id="Vector_28" d="M54.1988 66.1032C54.1617 66.1172 54.1197 66.1189 54.0792 66.1046C53.9883 66.0729 53.9402 65.9731 53.9721 65.8821L54.719 63.7486C54.7342 63.7044 54.7666 63.6687 54.8084 63.6485C54.8496 63.6299 54.8987 63.6261 54.9424 63.6417L56.9282 64.3477C57.0193 64.3802 57.0668 64.4801 57.0344 64.5708C57.0021 64.6619 56.9021 64.709 56.8113 64.6769L54.9908 64.0299L54.3019 65.9974C54.2842 66.0481 54.2455 66.0854 54.1988 66.1032Z" fill="#00143A"/>
</g>
</g>
<g id="Group_68">
<g id="Group_69">
<path id="Vector_29" d="M54.9089 69.4303C54.8279 69.461 54.7347 69.4275 54.6928 69.3493C54.6475 69.2642 54.6797 69.1582 54.7648 69.1129L60.4553 66.08C60.5447 66.033 60.6465 66.0669 60.6917 66.1517C60.737 66.2368 60.7048 66.3428 60.6197 66.3881L54.9293 69.421C54.9226 69.4247 54.9157 69.4277 54.9089 69.4303Z" fill="#00143A"/>
</g>
</g>
<g id="Group_70">
<g id="Group_71">
<path id="Vector_30" d="M56.7205 71.9845C56.634 72.0173 56.5361 71.9767 56.4988 71.8911C56.46 71.8024 56.5005 71.6996 56.5889 71.6609L61.6933 69.4339C61.7798 69.4011 61.8848 69.436 61.9232 69.5241C61.962 69.6129 61.9215 69.7156 61.833 69.7544L56.7287 71.9814C56.7259 71.9824 56.7233 71.9834 56.7205 71.9845Z" fill="#00143A"/>
</g>
</g>
</g>
<g id="Group_72">
<g id="Group_73">
<path id="Vector_31" d="M62.6975 80.909L61.1067 88.183L33.5156 98.6448L33.6144 97.6555L34.1013 90.3898L34.2313 90.2809L48.6385 78.6808L48.9283 78.4474L51.0227 78.8242L51.2103 78.8567L51.3847 78.8861L61.0141 80.6074L62.6975 80.909Z" fill="#96C8FF"/>
</g>
</g>
<g id="Group_74">
<g id="Group_75">
<path id="Vector_32" d="M62.8443 81.0028L61.312 88.1128L61.2932 88.2038C61.2722 88.2993 61.1812 88.3605 61.0857 88.3396L61.0718 88.3335C61.0238 88.3174 60.9854 88.2862 60.9656 88.2442C60.9483 88.2088 60.9457 88.1718 60.953 88.1309L62.464 81.105L60.9536 80.8284L51.3009 79.0603L51.1327 79.0288L50.9363 78.9928L49.0328 78.6443L41.8423 95.4953L41.3894 95.667L48.6386 78.6794L48.7684 78.3787C48.8003 78.302 48.8797 78.2603 48.9582 78.2764L51.099 78.6683L51.2704 78.6985L51.4556 78.7349L61.0468 80.492L62.705 80.7966C62.7492 80.8027 62.7909 80.8325 62.8173 80.8721C62.844 80.9115 62.8536 80.9573 62.8443 81.0028Z" fill="#00143A"/>
</g>
</g>
</g>
<g id="Group_76">
<g id="Group_77">
<g id="Group_78">
<path id="Vector_33" d="M49.4648 44.2194C49.7645 44.5548 50.0894 44.8791 50.4873 45.0885C50.8854 45.298 51.3701 45.3807 51.7894 45.2177C51.9335 45.1618 52.0685 45.0767 52.1672 44.958C52.3478 44.741 52.3884 44.4371 52.3593 44.1563C52.2832 43.4241 51.7859 42.7877 51.1773 42.3738C50.6677 42.0271 49.4692 41.3278 48.8562 41.7655C48.006 42.3726 49.0161 43.7178 49.4648 44.2194Z" fill="white"/>
</g>
</g>
<g id="Group_79">
<g id="Group_80">
<path id="Vector_34" d="M53.4489 46.5133C53.5959 46.9007 53.4008 47.3338 53.0133 47.4807C52.6259 47.6276 52.1927 47.4326 52.0458 47.0453C51.8989 46.658 52.0939 46.2246 52.4814 46.0777C52.8688 45.9308 53.302 46.1258 53.4489 46.5133Z" fill="white"/>
</g>
</g>
</g>
</g>
<g id="Group_81">
<g id="Group_82">
<path id="Vector_35" d="M19.158 57.8627C19.1054 57.8835 19.0501 57.6376 18.9923 57.1244C18.9288 56.5569 18.9425 56.2605 19.0348 56.2351L22.1097 55.5219L18.8686 55.0922C18.7917 55.0762 18.7331 54.8877 18.6927 54.5272C18.652 54.1673 18.665 53.9711 18.7312 53.9386L21.8196 52.8115L18.6259 52.7363C18.5702 52.7325 18.5207 52.6233 18.4766 52.4082C18.4325 52.1935 18.4027 52.0193 18.3876 51.8862C18.3293 51.368 18.3356 51.1125 18.4066 51.1195L23.4139 51.4629C23.4906 51.4743 23.5606 51.6088 23.6245 51.8662C23.6884 52.1243 23.7293 52.3339 23.7479 52.4968C23.8165 53.1086 23.7837 53.4372 23.649 53.4821L21.6702 54.2149L23.7596 54.5342C23.8507 54.5439 23.9341 54.7092 24.0105 55.0306C24.0441 55.1967 24.0704 55.3639 24.0895 55.5316L24.1206 56.0074C24.1229 56.3372 24.0805 56.5166 23.9937 56.5463L19.158 57.8627Z" fill="#00143A"/>
</g>
<g id="Group_83">
<path id="Vector_36" d="M20.7248 47.5834C20.7318 47.4894 20.9089 47.4553 21.2552 47.4811C21.3589 47.4884 21.4807 47.5087 21.6201 47.5414C21.7599 47.5743 21.8276 47.6201 21.823 47.6795L21.7526 48.6229L22.4958 48.6781L22.5972 47.3114C22.6033 47.2274 22.7166 47.1786 22.9364 47.165C23.0318 47.1572 23.1326 47.1571 23.239 47.1649C23.3454 47.1727 23.4818 47.1976 23.648 47.2401C23.814 47.2821 23.8943 47.338 23.889 47.4073L23.701 49.9474C23.6869 50.1356 23.6036 50.224 23.4498 50.2126L18.6738 49.8589C18.5453 49.8493 18.4854 49.7876 18.4933 49.6738L18.6905 47.0146C18.6982 46.9106 18.9213 46.8749 19.3598 46.9075C19.7978 46.9398 20.0131 47.0079 20.0052 47.112L19.9035 48.4861L20.6535 48.5416L20.7248 47.5834Z" fill="#00143A"/>
</g>
<g id="Group_84">
<path id="Vector_37" d="M20.8809 45.553C20.8677 45.6213 20.8447 45.6877 20.8126 45.7523C20.7468 45.8812 20.6705 45.9372 20.5828 45.9203L19.0395 45.6239C18.9516 45.6074 18.9087 45.4903 18.9098 45.2734C18.9098 45.1672 18.9205 45.0604 18.9409 44.9531C18.9612 44.8458 18.9921 44.7403 19.0318 44.637C19.1114 44.4346 19.1946 44.3419 19.2827 44.3588L20.7413 45.0942C20.829 45.1111 20.8789 45.1938 20.8906 45.3429C20.8975 45.4148 20.8942 45.4846 20.8809 45.553Z" fill="#00143A"/>
</g>
<g id="Group_85">
<path id="Vector_38" d="M24.6747 43.1439C24.751 43.1666 24.7214 43.4039 24.5865 43.856C24.45 44.3126 24.3458 44.5302 24.2744 44.509L19.622 43.1178C19.4557 43.0681 19.3988 42.9555 19.4516 42.7792L19.859 41.4164C20.2331 40.1653 20.9073 39.6856 21.8829 39.9769C22.178 40.0654 22.4282 40.2022 22.6346 40.3883C22.8404 40.5744 22.9836 40.7931 23.0639 41.0454L24.8311 40.5939C24.9339 40.6666 25.0277 40.8293 25.1127 41.0825C25.2318 41.429 25.2638 41.6953 25.2085 41.8809C25.1527 42.0661 25.045 42.1843 24.8845 42.2352L23.1212 42.4385L23.0553 42.6595L24.6747 43.1439ZM21.0429 42.058L22.1133 42.3782L22.124 42.3422C22.2593 41.8907 22.1391 41.6084 21.7629 41.4959C21.5918 41.4445 21.4513 41.4508 21.3419 41.514C21.232 41.5771 21.1475 41.7082 21.0877 41.9083L21.0429 42.058Z" fill="#00143A"/>
</g>
<g id="Group_86">
<path id="Vector_39" d="M23.7885 37.0035C23.8281 36.9181 24.0054 36.9473 24.3214 37.0918C24.4163 37.1353 24.5235 37.1969 24.6428 37.2761C24.7622 37.3553 24.8089 37.422 24.7844 37.4764L24.3905 38.336L25.0676 38.6463L25.6384 37.4003C25.6733 37.3237 25.7966 37.3174 26.0076 37.3813C26.0995 37.4071 26.194 37.4421 26.2911 37.4868C26.3879 37.531 26.5071 37.6021 26.6482 37.6995C26.7891 37.7966 26.8454 37.8772 26.8166 37.9401L25.7556 40.2559C25.6767 40.4274 25.5678 40.4812 25.4275 40.417L21.0741 38.4219C20.9568 38.3683 20.9219 38.2898 20.9691 38.1855L22.08 35.7617C22.1232 35.6671 22.3447 35.7111 22.7441 35.894C23.1437 36.0771 23.322 36.2158 23.2783 36.3106L22.7044 37.5631L23.3886 37.8767L23.7885 37.0035Z" fill="#00143A"/>
</g>
<g id="Group_87">
<path id="Vector_40" d="M27.4187 35.9898L23.5897 33.3828C23.5032 33.3242 23.6021 33.0864 23.8856 32.6697C24.1695 32.2532 24.3543 32.0742 24.4406 32.1329L27.4568 34.187L28.1026 33.2389C28.1528 33.1646 28.2843 33.1794 28.4969 33.2819C28.5994 33.3336 28.7002 33.3935 28.7984 33.4604C28.8971 33.5272 28.9934 33.6019 29.0873 33.6842C29.2624 33.8511 29.3243 33.9717 29.2739 34.0456L27.983 35.9414C27.9218 36.032 27.8358 36.079 27.7259 36.0817C27.6156 36.0848 27.5131 36.0543 27.4187 35.9898Z" fill="#00143A"/>
</g>
<g id="Group_88">
<path id="Vector_41" d="M31.0787 32.0456C30.607 32.5594 30.0542 32.8234 29.4205 32.8381C28.787 32.8527 28.147 32.5637 27.5017 31.9707C26.8563 31.3783 26.5174 30.7652 26.4851 30.1323C26.4534 29.4995 26.6744 28.924 27.1502 28.4069C27.6254 27.8895 28.1726 27.6217 28.7921 27.6047C29.4114 27.587 30.0533 27.883 30.7169 28.4925C31.3808 29.1018 31.725 29.7184 31.7493 30.3409C31.7742 30.9636 31.5505 31.5318 31.0787 32.0456ZM28.1905 29.3876C28.0294 29.563 27.9749 29.7843 28.0264 30.051C28.0779 30.3177 28.2493 30.5841 28.5402 30.8515C28.8306 31.1182 29.1058 31.2667 29.3656 31.2959C29.6251 31.3255 29.8397 31.2474 30.0095 31.0629C30.1789 30.8785 30.2379 30.6561 30.1862 30.3965C30.1353 30.137 29.963 29.8729 29.6705 29.6043C29.3779 29.3355 29.0984 29.1884 28.8321 29.163C28.5655 29.1373 28.352 29.212 28.1905 29.3876Z" fill="#00143A"/>
</g>
<g id="Group_89">
<path id="Vector_42" d="M34.7314 28.7153C34.1761 29.1379 33.5859 29.3002 32.9594 29.2026C32.3332 29.1051 31.7549 28.7076 31.2244 28.0099C30.694 27.3127 30.4684 26.6494 30.5485 26.0205C30.6285 25.3919 30.9481 24.8648 31.5074 24.4395C32.0669 24.0142 32.6528 23.8481 33.2657 23.9401C33.8781 24.0322 34.4575 24.4367 35.0033 25.1543C35.5486 25.8716 35.7787 26.5389 35.6929 27.156C35.6073 27.7734 35.2869 28.2932 34.7314 28.7153ZM32.3585 25.5893C32.1688 25.7336 32.0756 25.9416 32.0797 26.2131C32.0834 26.4847 32.2049 26.7777 32.4439 27.0917C32.6829 27.4059 32.9272 27.6004 33.1777 27.6753C33.4278 27.7501 33.6525 27.7116 33.8522 27.5596C34.0521 27.408 34.1494 27.1996 34.1443 26.935C34.1395 26.6705 34.0169 26.3801 33.7764 26.0637C33.536 25.7476 33.287 25.5534 33.0292 25.4812C32.7718 25.4089 32.5485 25.4451 32.3585 25.5893Z" fill="#00143A"/>
</g>
<g id="Group_90">
<path id="Vector_43" d="M38.1934 26.2568C38.228 26.3226 38.0384 26.4642 37.6255 26.681L37.2455 26.8547C37.0163 26.9524 36.8903 26.9792 36.8672 26.9351L34.547 22.5091C34.5082 22.4345 34.7083 22.2815 35.1477 22.0511C35.5876 21.8205 35.8276 21.7428 35.8664 21.8175L36.7517 23.5062L36.6712 21.3957C36.6698 21.3181 36.8292 21.195 37.1508 21.0264C37.7353 20.72 38.0695 20.6092 38.1539 20.6942C38.1583 20.703 38.161 20.7134 38.1607 20.7243L38.0991 23.3971L40.3961 24.5393C40.4009 24.548 40.378 24.6071 40.3296 24.7169C40.2195 24.9991 40.0545 25.2619 39.8346 25.5058C39.7675 25.5803 39.6916 25.6398 39.6082 25.6834L39.4432 25.7533C39.2839 25.792 39.127 25.7593 38.9717 25.6556L37.4658 24.6118L37.3601 24.6671L38.1934 26.2568Z" fill="#00143A"/>
</g>
<g id="Group_91">
<path id="Vector_44" d="M40.9275 23.6809L40.0215 21.1889L39.5246 21.3694C39.4454 21.3983 39.3528 21.3182 39.2473 21.1297C39.1977 21.0363 39.1545 20.9389 39.117 20.836C39.0795 20.7336 39.05 20.6305 39.0285 20.5276C38.988 20.3151 39.0075 20.1942 39.0872 20.1655L41.439 19.3107C41.5181 19.2814 41.6083 19.3625 41.7091 19.5529C41.7636 19.6442 41.8094 19.7411 41.8466 19.8438C41.884 19.9463 41.9112 20.0502 41.9282 20.1551C41.9731 20.366 41.956 20.4856 41.8767 20.5145L41.4079 20.6849L42.3135 23.1768L42.8033 22.9984C42.8827 22.9698 42.9754 23.0498 43.0807 23.2386C43.1348 23.3298 43.1808 23.4269 43.2183 23.5296C43.2556 23.632 43.2826 23.7358 43.3 23.8408C43.34 24.053 43.3206 24.1736 43.2412 24.2026L40.8824 25.0601C40.803 25.089 40.7132 25.0083 40.6122 24.8176C40.5575 24.7268 40.5117 24.6298 40.4744 24.5268C40.4376 24.4245 40.4102 24.3206 40.3933 24.2157C40.3481 24.0049 40.3654 23.8852 40.4447 23.8563L40.9275 23.6809Z" fill="#00143A"/>
</g>
<g id="Group_92">
<path id="Vector_45" d="M47.7029 22.9889C47.7245 23.0909 47.5072 23.1903 47.0508 23.2878C46.5945 23.385 46.3391 23.4014 46.2848 23.3368L44.5834 21.3236L45.0667 23.5891C45.0856 23.6764 44.87 23.7683 44.4207 23.864C43.9718 23.96 43.7375 23.9639 43.7189 23.8766L42.6799 19.0037C42.6643 18.9308 42.8485 18.8536 43.232 18.7715C43.3825 18.7396 43.5614 18.7155 43.7687 18.699C43.9759 18.6826 44.1092 18.7064 44.1684 18.7699L45.8123 20.7648L45.3247 18.4776C45.3049 18.3852 45.521 18.2911 45.9725 18.1946C46.4243 18.0983 46.6598 18.0966 46.6795 18.1887L47.7029 22.9889Z" fill="#00143A"/>
</g>
<g id="Group_93">
<path id="Vector_46" d="M50.9542 21.4045L50.9217 20.3919C50.9187 20.3227 50.9882 20.2733 51.1312 20.244C51.2741 20.2151 51.3925 20.1986 51.4865 20.194L51.7779 20.2025C51.9675 20.2235 52.0645 20.2711 52.0681 20.3456L52.147 22.6757C52.0512 22.7498 51.8546 22.8274 51.5574 22.9083C51.2606 22.9893 50.9187 23.0389 50.532 23.0568C49.8129 23.0907 49.2217 22.8847 48.7582 22.439C48.2953 21.9934 48.0425 21.3196 48.0004 20.4165C47.9645 19.648 48.151 19.0125 48.56 18.5113C48.9691 18.0102 49.5556 17.7418 50.3193 17.7062C50.6661 17.6899 50.9816 17.7091 51.2648 17.7626C51.5483 17.8166 51.7446 17.898 51.8546 18.0074C51.8613 18.0468 51.867 18.1208 51.8722 18.2302C51.8771 18.3396 51.8474 18.4962 51.7825 18.7005C51.7174 18.9048 51.6402 19.0586 51.5507 19.1622C51.4608 19.2659 51.395 19.3188 51.3528 19.3204C51.3105 19.3225 51.265 19.306 51.2162 19.2712C51.1673 19.2361 51.073 19.2006 50.932 19.165C50.7911 19.1294 50.6561 19.1144 50.5271 19.1205C50.2197 19.1348 49.9753 19.2457 49.7933 19.4532C49.6117 19.6606 49.5304 19.9722 49.5502 20.389C49.5694 20.8053 49.6821 21.1172 49.8884 21.3237C50.0943 21.5304 50.325 21.6275 50.5805 21.6159C50.8355 21.6039 50.9599 21.5335 50.9542 21.4045Z" fill="#00143A"/>
</g>
<g id="Group_94">
<path id="Vector_47" d="M57.5514 18.2817C57.6345 18.2933 57.6458 18.5169 57.584 18.9519C57.5218 19.3869 57.4493 19.5989 57.3659 19.5869L56.0168 19.3952L55.897 20.2356L56.797 20.3634C56.8802 20.3753 56.8953 20.572 56.841 20.9527C56.7865 21.3334 56.7203 21.5185 56.642 21.5072L55.7347 21.3783L55.4821 23.1553C55.4725 23.2243 55.3743 23.2566 55.1865 23.2527C54.9991 23.2486 54.8437 23.238 54.721 23.2203L54.3762 23.1562C54.1396 23.0927 54.0263 23.0264 54.0363 22.9576L54.7293 18.0761C54.7405 17.9974 54.764 17.9481 54.7993 17.928C54.8351 17.9083 54.8845 17.9024 54.9483 17.9116L57.5514 18.2817Z" fill="#00143A"/>
</g>
<g id="Group_95">
<path id="Vector_48" d="M59.4717 24.2045C58.8028 24.0058 58.3234 23.625 58.0322 23.0616C57.7411 22.4989 57.7205 21.7971 57.9706 20.9572C58.2198 20.1171 58.6224 19.5437 59.1771 19.2373C59.7316 18.9306 60.3456 18.8774 61.0195 19.0778C61.693 19.2782 62.1732 19.6531 62.4608 20.2016C62.7479 20.7508 62.7632 21.4572 62.5066 22.3211C62.2497 23.1851 61.8471 23.7647 61.2981 24.0596C60.7493 24.355 60.1405 24.4033 59.4717 24.2045ZM60.5938 20.4433C60.3654 20.3755 60.1423 20.4232 59.926 20.5864C59.7086 20.7501 59.5441 21.021 59.4317 21.3993C59.3192 21.7777 59.3066 22.0899 59.3941 22.3362C59.4814 22.5823 59.6457 22.7409 59.8858 22.8124C60.1259 22.884 60.352 22.8399 60.5623 22.6793C60.773 22.5197 60.935 22.249 61.0481 21.8681C61.1613 21.4876 61.1711 21.1719 61.0773 20.9212C60.9834 20.6706 60.8223 20.5116 60.5938 20.4433Z" fill="#00143A"/>
</g>
<g id="Group_96">
<path id="Vector_49" d="M63.4398 25.5214C63.4044 25.5928 63.1754 25.5247 62.7514 25.3183C62.323 25.109 62.1251 24.971 62.158 24.904L64.2887 20.5403C64.3647 20.3843 64.4853 20.3462 64.6504 20.4268L65.9289 21.0508C67.1021 21.6238 67.4654 22.3677 67.0194 23.2824C66.8841 23.559 66.7081 23.784 66.4913 23.9567C66.2741 24.1297 66.0346 24.2353 65.7727 24.2735L65.9298 26.0905C65.8417 26.1803 65.6661 26.2465 65.4023 26.289C65.0407 26.3499 64.7731 26.3378 64.5991 26.2532C64.425 26.168 64.326 26.0426 64.3021 25.8762L64.3889 24.1032L64.1816 24.0022L63.4398 25.5214ZM65.1027 22.1147L64.6126 23.1185L64.646 23.1349C65.0698 23.3417 65.3677 23.2692 65.5398 22.9167C65.6182 22.7563 65.6352 22.6165 65.5912 22.4982C65.5464 22.3801 65.4303 22.2749 65.2432 22.1833L65.1027 22.1147Z" fill="#00143A"/>
</g>
<g id="Group_97">
<path id="Vector_50" d="M72.1021 25.2417C72.2597 25.1439 72.5642 25.2696 73.0161 25.6186C73.1298 25.7065 73.2583 25.8185 73.4012 25.954C73.5444 26.0895 73.6008 26.1649 73.5708 26.179L70.4412 27.6955L69.3301 29.1331C69.2785 29.2001 69.1342 29.1638 68.8969 29.0243C68.7747 28.9547 68.6606 28.8794 68.555 28.7974C68.4487 28.7155 68.3471 28.6272 68.2503 28.5336C68.055 28.3389 67.9851 28.2068 68.0398 28.1358L69.1238 26.7335L69.7787 23.2672C69.7811 23.2314 69.8794 23.2712 70.0724 23.3861C70.2658 23.5014 70.4237 23.6057 70.5453 23.6999C71.0289 24.0736 71.2393 24.3492 71.1772 24.5268L70.6782 26.0617L72.1021 25.2417Z" fill="#00143A"/>
</g>
</g>
</g>
</g>
</g>
<defs>
<clipPath id="clip0_5573_51658">
<rect width="80" height="80" fill="white" transform="translate(0 28.3633) rotate(-20.7653)"/>
</clipPath>
</defs>
</svg>
