<svg width="24" height="24" viewBox="0 0 24 24" fill="none" xmlns="http://www.w3.org/2000/svg">
<g id="Group">
<g id="Group_2">
<path id="Vector" d="M23.2869 8.55249L20.3367 6.09032V2.59721C20.3367 2.29561 20.0734 2.06529 19.7664 2.06529H15.4726L13.7508 0.628569C12.7363 -0.210435 11.2666 -0.210435 10.2522 0.634053L8.53029 2.06529H4.18173C3.88012 2.06529 3.61142 2.29013 3.61142 2.59721V6.14515L0.716037 8.55249C0.595396 8.65668 0.524108 8.81571 0.529592 8.97474H0.540559V21.2527C0.540559 22.7662 1.75794 24 3.26595 24H20.7315C22.245 24 23.4569 22.7607 23.4569 21.2527V8.97474H23.4678C23.4788 8.81022 23.413 8.65668 23.2869 8.55249ZM20.3367 7.51608L22.064 8.9528L20.3367 10.236V7.51608ZM10.9541 1.47306C11.5628 0.968557 12.4456 0.974041 13.0543 1.47854L13.7508 2.06529H10.2467L10.9541 1.47306ZM4.70816 3.16203H19.2399V11.0531L12.994 15.7032C12.4018 16.1364 11.6011 16.1364 11.0144 15.7032L4.70816 11.0092V3.16203ZM3.61142 7.56543V10.1921L1.9389 8.94732L3.61142 7.56543ZM22.3656 21.2472C22.3711 22.1575 21.6418 22.8978 20.737 22.9033H3.26595C2.36114 22.8978 1.63181 22.1575 1.6373 21.2527V10.066L10.3673 16.5861C11.3379 17.3045 12.665 17.3045 13.6356 16.5861L22.3656 10.066V21.2472Z" fill="white"/>
</g>
</g>
</svg>
