<svg width="24" height="24" viewBox="0 0 24 24" fill="none" xmlns="http://www.w3.org/2000/svg">
<g id="Outline">
<path id="Vector" d="M12.75 15H11.25C11.1938 15 11.1382 15.0127 11.0875 15.0371C11.0368 15.0615 10.9923 15.097 10.9572 15.141L9.45715 17.016C9.40766 17.0779 9.37903 17.1539 9.3754 17.233C9.37176 17.3122 9.39329 17.3905 9.43691 17.4566L9.9769 18.2749C10.0306 18.3559 10.1137 18.413 10.2086 18.434C10.3035 18.455 10.4029 18.4383 10.4858 18.3874L10.875 18.15V19.5H10.125C10.0256 19.5 9.93019 19.5395 9.85986 19.6098C9.78954 19.6802 9.75003 19.7755 9.75003 19.875V21.375C9.75003 21.4745 9.78954 21.5698 9.85986 21.6402C9.93019 21.7105 10.0256 21.75 10.125 21.75H13.875C13.9745 21.75 14.0699 21.7105 14.1402 21.6402C14.2105 21.5698 14.25 21.4745 14.25 21.375V19.875C14.25 19.7755 14.2105 19.6802 14.1402 19.6098C14.0699 19.5395 13.9745 19.5 13.875 19.5H13.125V15.375C13.125 15.2755 13.0855 15.1802 13.0152 15.1098C12.9449 15.0395 12.8495 15 12.75 15ZM13.5 20.25V21H10.5V20.25H11.25C11.3495 20.25 11.4449 20.2105 11.5152 20.1402C11.5855 20.0698 11.625 19.9745 11.625 19.875V17.4799C11.6251 17.4132 11.6073 17.3477 11.5736 17.2901C11.5399 17.2326 11.4915 17.185 11.4333 17.1524C11.3751 17.1199 11.3093 17.1034 11.2426 17.1047C11.1759 17.106 11.1108 17.1251 11.0539 17.16L10.4033 17.559L10.2132 17.2714L11.43 15.75H12.375V19.875C12.375 19.9745 12.4145 20.0698 12.4849 20.1402C12.5552 20.2105 12.6506 20.25 12.75 20.25H13.5Z" fill="white"/>
<path id="Vector_2" d="M22.875 16.5H17.25V13.875C17.25 13.7755 17.2105 13.6802 17.1402 13.6098C17.0698 13.5395 16.9745 13.5 16.875 13.5H7.5V12.75H16.875C16.9745 12.75 17.0698 12.7105 17.1402 12.6402C17.2105 12.5698 17.25 12.4745 17.25 12.375C17.25 12.2755 17.2105 12.1802 17.1402 12.1098C17.0698 12.0395 16.9745 12 16.875 12H13.875V8.99999C13.875 8.90054 13.8355 8.80515 13.7652 8.73483C13.6948 8.6645 13.5995 8.62499 13.5 8.62499C13.4005 8.62499 13.3052 8.6645 13.2348 8.73483C13.1645 8.80515 13.125 8.90054 13.125 8.99999V12H12.375V9.37499C12.375 9.27554 12.3355 9.18015 12.2652 9.10983C12.1948 9.0395 12.0995 8.99999 12 8.99999C11.9005 8.99999 11.8052 9.0395 11.7348 9.10983C11.6645 9.18015 11.625 9.27554 11.625 9.37499V12H10.875V7.87499H13.5C13.5995 7.87499 13.6948 7.83548 13.7652 7.76516C13.8355 7.69483 13.875 7.59945 13.875 7.49999V6.33749C13.8745 6.14048 13.913 5.94532 13.9884 5.76329C14.0638 5.58127 14.1745 5.41598 14.3141 5.27699L15.8599 3.73124C15.9643 3.62677 16.0472 3.50274 16.1038 3.36624C16.1603 3.22973 16.1894 3.08343 16.1894 2.93568C16.1894 2.78793 16.1603 2.64163 16.1038 2.50513C16.0472 2.36862 15.9643 2.24459 15.8599 2.14012C15.7554 2.03564 15.6314 1.95277 15.4949 1.89623C15.3584 1.83969 15.2121 1.81059 15.0643 1.81059C14.7659 1.81059 14.4797 1.92912 14.2687 2.14012L13.8668 2.54249C13.8473 2.06688 13.6468 1.61668 13.3064 1.28396C12.966 0.951235 12.5113 0.761125 12.0354 0.752504C11.5594 0.743883 11.0982 0.917402 10.7459 1.23758C10.3937 1.55775 10.1771 2.0004 10.1404 2.47499L9.80625 2.14124C9.59347 1.93989 9.31054 1.82947 9.01761 1.83347C8.72469 1.83748 8.44488 1.95559 8.23768 2.16269C8.03049 2.36979 7.91225 2.64954 7.9081 2.94246C7.90396 3.23538 8.01424 3.51837 8.2155 3.73124L8.46187 3.97724C8.5326 4.04555 8.62733 4.08335 8.72565 4.0825C8.82397 4.08164 8.91803 4.0422 8.98756 3.97268C9.05709 3.90315 9.09652 3.80909 9.09738 3.71077C9.09823 3.61245 9.06043 3.51772 8.99212 3.44699L8.74575 3.20099C8.67538 3.13068 8.63583 3.03529 8.6358 2.93581C8.63576 2.83634 8.67525 2.74092 8.74556 2.67056C8.81588 2.60019 8.91127 2.56064 9.01074 2.56061C9.11022 2.56057 9.20564 2.60005 9.276 2.67037L10.4467 3.84112C10.8687 4.26304 11.441 4.50008 12.0377 4.50008C12.6344 4.50008 13.2067 4.26304 13.6286 3.84112L14.799 2.67074C14.8693 2.60038 14.9647 2.56083 15.0642 2.56079C15.1637 2.56076 15.2591 2.60024 15.3294 2.67056C15.3998 2.74087 15.4394 2.83626 15.4394 2.93574C15.4394 3.03521 15.3999 3.13063 15.3296 3.20099L13.7839 4.74637C13.5743 4.95486 13.4082 5.20283 13.2951 5.47595C13.182 5.74906 13.1242 6.04189 13.125 6.33749V7.12499H10.875V6.26249C10.8758 5.96695 10.818 5.67419 10.7049 5.40114C10.5918 5.12809 10.4257 4.88018 10.2161 4.67174L10.053 4.50862C9.98227 4.44031 9.88755 4.40251 9.78922 4.40337C9.6909 4.40422 9.59685 4.44366 9.52732 4.51319C9.45779 4.58271 9.41835 4.67677 9.4175 4.77509C9.41664 4.87342 9.45444 4.96814 9.52275 5.03887L9.68587 5.20199C9.96606 5.48396 10.1238 5.86499 10.125 6.26249V12H7.125C7.02554 12 6.93016 12.0395 6.85983 12.1098C6.78951 12.1802 6.75 12.2755 6.75 12.375V16.5H1.125C1.02554 16.5 0.930161 16.5395 0.859835 16.6098C0.789509 16.6802 0.75 16.7755 0.75 16.875V20.25C0.75 20.3495 0.789509 20.4448 0.859835 20.5152C0.930161 20.5855 1.02554 20.625 1.125 20.625C1.22446 20.625 1.31984 20.5855 1.39017 20.5152C1.46049 20.4448 1.5 20.3495 1.5 20.25V18.75H5.625C5.72446 18.75 5.81984 18.7105 5.89016 18.6402C5.96049 18.5698 6 18.4745 6 18.375C6 18.2755 5.96049 18.1802 5.89016 18.1098C5.81984 18.0395 5.72446 18 5.625 18H1.5V17.25H6.75V18.375C6.75 18.4745 6.78951 18.5698 6.85983 18.6402C6.93016 18.7105 7.02554 18.75 7.125 18.75C7.22446 18.75 7.31984 18.7105 7.39017 18.6402C7.46049 18.5698 7.5 18.4745 7.5 18.375V14.25H16.5V22.5H7.5V19.875C7.5 19.7755 7.46049 19.6802 7.39017 19.6098C7.31984 19.5395 7.22446 19.5 7.125 19.5C7.02554 19.5 6.93016 19.5395 6.85983 19.6098C6.78951 19.6802 6.75 19.7755 6.75 19.875V22.5H1.5V21.75C1.5 21.6505 1.46049 21.5552 1.39017 21.4848C1.31984 21.4145 1.22446 21.375 1.125 21.375C1.02554 21.375 0.930161 21.4145 0.859835 21.4848C0.789509 21.5552 0.75 21.6505 0.75 21.75V22.875C0.75 22.9745 0.789509 23.0698 0.859835 23.1402C0.930161 23.2105 1.02554 23.25 1.125 23.25H16.875C16.9745 23.25 17.0698 23.2105 17.1402 23.1402C17.2105 23.0698 17.25 22.9745 17.25 22.875V18.75H22.5V22.5H18.375C18.2755 22.5 18.1802 22.5395 18.1098 22.6098C18.0395 22.6802 18 22.7755 18 22.875C18 22.9745 18.0395 23.0698 18.1098 23.1402C18.1802 23.2105 18.2755 23.25 18.375 23.25H22.875C22.9745 23.25 23.0698 23.2105 23.1402 23.1402C23.2105 23.0698 23.25 22.9745 23.25 22.875V16.875C23.25 16.7755 23.2105 16.6802 23.1402 16.6098C23.0698 16.5395 22.9745 16.5 22.875 16.5ZM12 1.49999C12.2729 1.50312 12.5353 1.60532 12.7384 1.78757C12.9416 1.96983 13.0715 2.2197 13.1041 2.49064C13.1367 2.76159 13.0696 3.03514 12.9155 3.26034C12.7614 3.48554 12.5306 3.64704 12.2662 3.71474C12.0233 3.74989 11.7755 3.72793 11.5425 3.65062C11.3083 3.54506 11.1173 3.36252 11.0012 3.13335C10.8851 2.90418 10.8509 2.64218 10.9044 2.3909C10.9579 2.13963 11.0957 1.91422 11.295 1.75214C11.4943 1.59006 11.7431 1.50108 12 1.49999ZM17.25 18V17.25H22.5V18H17.25Z" fill="white"/>
<path id="Vector_3" d="M4.125 3.375H4.5V3.75C4.5 3.84946 4.53951 3.94484 4.60984 4.01516C4.68016 4.08549 4.77554 4.125 4.875 4.125C4.97446 4.125 5.06984 4.08549 5.14016 4.01516C5.21049 3.94484 5.25 3.84946 5.25 3.75V3.375H5.625C5.72446 3.375 5.81984 3.33549 5.89016 3.26516C5.96049 3.19484 6 3.09946 6 3C6 2.90054 5.96049 2.80516 5.89016 2.73484C5.81984 2.66451 5.72446 2.625 5.625 2.625H5.25V2.25C5.25 2.15054 5.21049 2.05516 5.14016 1.98484C5.06984 1.91451 4.97446 1.875 4.875 1.875C4.77554 1.875 4.68016 1.91451 4.60984 1.98484C4.53951 2.05516 4.5 2.15054 4.5 2.25V2.625H4.125C4.02554 2.625 3.93016 2.66451 3.85984 2.73484C3.78951 2.80516 3.75 2.90054 3.75 3C3.75 3.09946 3.78951 3.19484 3.85984 3.26516C3.93016 3.33549 4.02554 3.375 4.125 3.375Z" fill="white"/>
<path id="Vector_4" d="M1.875 8.625H2.25V9C2.25 9.09946 2.28951 9.19484 2.35984 9.26517C2.43016 9.33549 2.52554 9.375 2.625 9.375C2.72446 9.375 2.81984 9.33549 2.89016 9.26517C2.96049 9.19484 3 9.09946 3 9V8.625H3.375C3.47446 8.625 3.56984 8.58549 3.64016 8.51517C3.71049 8.44484 3.75 8.34946 3.75 8.25C3.75 8.15054 3.71049 8.05516 3.64016 7.98483C3.56984 7.91451 3.47446 7.875 3.375 7.875H3V7.5C3 7.40054 2.96049 7.30516 2.89016 7.23483C2.81984 7.16451 2.72446 7.125 2.625 7.125C2.52554 7.125 2.43016 7.16451 2.35984 7.23483C2.28951 7.30516 2.25 7.40054 2.25 7.5V7.875H1.875C1.77554 7.875 1.68016 7.91451 1.60984 7.98483C1.53951 8.05516 1.5 8.15054 1.5 8.25C1.5 8.34946 1.53951 8.44484 1.60984 8.51517C1.68016 8.58549 1.77554 8.625 1.875 8.625Z" fill="white"/>
<path id="Vector_5" d="M4.5 6.375C4.70711 6.375 4.875 6.20711 4.875 6C4.875 5.79289 4.70711 5.625 4.5 5.625C4.29289 5.625 4.125 5.79289 4.125 6C4.125 6.20711 4.29289 6.375 4.5 6.375Z" fill="white"/>
<path id="Vector_6" d="M1.875 6C2.08211 6 2.25 5.83211 2.25 5.625C2.25 5.41789 2.08211 5.25 1.875 5.25C1.66789 5.25 1.5 5.41789 1.5 5.625C1.5 5.83211 1.66789 6 1.875 6Z" fill="white"/>
<path id="Vector_7" d="M6.75 5.25C6.95711 5.25 7.125 5.08211 7.125 4.875C7.125 4.66789 6.95711 4.5 6.75 4.5C6.54289 4.5 6.375 4.66789 6.375 4.875C6.375 5.08211 6.54289 5.25 6.75 5.25Z" fill="white"/>
<path id="Vector_8" d="M20.1992 3.375H20.5742V3.75C20.5742 3.84946 20.6137 3.94484 20.6841 4.01516C20.7544 4.08549 20.8498 4.125 20.9492 4.125C21.0487 4.125 21.1441 4.08549 21.2144 4.01516C21.2847 3.94484 21.3242 3.84946 21.3242 3.75V3.375H21.6992C21.7987 3.375 21.8941 3.33549 21.9644 3.26516C22.0347 3.19484 22.0742 3.09946 22.0742 3C22.0742 2.90054 22.0347 2.80516 21.9644 2.73484C21.8941 2.66451 21.7987 2.625 21.6992 2.625H21.3242V2.25C21.3242 2.15054 21.2847 2.05516 21.2144 1.98484C21.1441 1.91451 21.0487 1.875 20.9492 1.875C20.8498 1.875 20.7544 1.91451 20.6841 1.98484C20.6137 2.05516 20.5742 2.15054 20.5742 2.25V2.625H20.1992C20.0998 2.625 20.0044 2.66451 19.9341 2.73484C19.8637 2.80516 19.8242 2.90054 19.8242 3C19.8242 3.09946 19.8637 3.19484 19.9341 3.26516C20.0044 3.33549 20.0998 3.375 20.1992 3.375Z" fill="white"/>
<path id="Vector_9" d="M17.8125 5.8125H18.1875V6.1875C18.1875 6.28696 18.227 6.38234 18.2973 6.45267C18.3677 6.52299 18.463 6.5625 18.5625 6.5625C18.662 6.5625 18.7573 6.52299 18.8277 6.45267C18.898 6.38234 18.9375 6.28696 18.9375 6.1875V5.8125H19.3125C19.412 5.8125 19.5073 5.77299 19.5777 5.70266C19.648 5.63234 19.6875 5.53696 19.6875 5.4375C19.6875 5.33804 19.648 5.24266 19.5777 5.17234C19.5073 5.10201 19.412 5.0625 19.3125 5.0625H18.9375V4.6875C18.9375 4.58804 18.898 4.49266 18.8277 4.42234C18.7573 4.35201 18.662 4.3125 18.5625 4.3125C18.463 4.3125 18.3677 4.35201 18.2973 4.42234C18.227 4.49266 18.1875 4.58804 18.1875 4.6875V5.0625H17.8125C17.713 5.0625 17.6177 5.10201 17.5473 5.17234C17.477 5.24266 17.4375 5.33804 17.4375 5.4375C17.4375 5.53696 17.477 5.63234 17.5473 5.70266C17.6177 5.77299 17.713 5.8125 17.8125 5.8125Z" fill="white"/>
<path id="Vector_10" d="M21 6.375C21.2071 6.375 21.375 6.20711 21.375 6C21.375 5.79289 21.2071 5.625 21 5.625C20.7929 5.625 20.625 5.79289 20.625 6C20.625 6.20711 20.7929 6.375 21 6.375Z" fill="white"/>
<path id="Vector_11" d="M22.5 5.25C22.7071 5.25 22.875 5.08211 22.875 4.875C22.875 4.66789 22.7071 4.5 22.5 4.5C22.2929 4.5 22.125 4.66789 22.125 4.875C22.125 5.08211 22.2929 5.25 22.5 5.25Z" fill="white"/>
<path id="Vector_12" d="M16.875 4.5C17.0821 4.5 17.25 4.33211 17.25 4.125C17.25 3.91789 17.0821 3.75 16.875 3.75C16.6679 3.75 16.5 3.91789 16.5 4.125C16.5 4.33211 16.6679 4.5 16.875 4.5Z" fill="white"/>
<path id="Vector_13" d="M18.375 2.625C18.5821 2.625 18.75 2.45711 18.75 2.25C18.75 2.04289 18.5821 1.875 18.375 1.875C18.1679 1.875 18 2.04289 18 2.25C18 2.45711 18.1679 2.625 18.375 2.625Z" fill="white"/>
<path id="Vector_14" d="M19.875 8.25C20.0821 8.25 20.25 8.08211 20.25 7.875C20.25 7.66789 20.0821 7.5 19.875 7.5C19.6679 7.5 19.5 7.66789 19.5 7.875C19.5 8.08211 19.6679 8.25 19.875 8.25Z" fill="white"/>
<path id="Vector_15" d="M15.7692 6.25645L14.6442 9.63145C14.6128 9.72594 14.6202 9.82903 14.6647 9.91807C14.7093 10.0071 14.7875 10.0748 14.8819 10.1062C14.9764 10.1376 15.0795 10.1302 15.1686 10.0857C15.2576 10.0411 15.3253 9.96294 15.3567 9.86845L16.4817 6.49345C16.4973 6.44667 16.5034 6.39728 16.4999 6.3481C16.4964 6.29892 16.4832 6.25092 16.4611 6.20684C16.4391 6.16275 16.4085 6.12345 16.3713 6.09117C16.334 6.05889 16.2907 6.03426 16.2439 6.0187C16.1972 6.00314 16.1478 5.99695 16.0986 6.00047C16.0494 6.004 16.0014 6.01718 15.9573 6.03925C15.9132 6.06133 15.8739 6.09188 15.8417 6.12914C15.8094 6.16641 15.7848 6.20967 15.7692 6.25645Z" fill="white"/>
<path id="Vector_16" d="M15.8908 10.0429C15.9685 10.1049 16.0677 10.1336 16.1665 10.1225C16.2652 10.1115 16.3556 10.0617 16.4177 9.98403L17.9177 8.10903C17.9768 8.03109 18.003 7.93316 17.9909 7.83613C17.9788 7.7391 17.9293 7.65063 17.8529 7.5896C17.7765 7.52856 17.6793 7.49978 17.582 7.50938C17.4846 7.51899 17.3949 7.56623 17.332 7.64103L15.832 9.51603C15.7699 9.59371 15.7413 9.69285 15.7523 9.79165C15.7634 9.89045 15.8132 9.98082 15.8908 10.0429Z" fill="white"/>
<path id="Vector_17" d="M18.9763 9.40528L16.3513 10.5303C16.3054 10.5492 16.2636 10.5771 16.2285 10.6123C16.1935 10.6475 16.1657 10.6893 16.1469 10.7353C16.1282 10.7813 16.1187 10.8306 16.1192 10.8803C16.1196 10.93 16.1299 10.9791 16.1495 11.0248C16.1691 11.0705 16.1975 11.1118 16.2332 11.1464C16.2689 11.1809 16.3111 11.2081 16.3574 11.2262C16.4037 11.2443 16.4531 11.2531 16.5028 11.2519C16.5525 11.2508 16.6014 11.2398 16.6468 11.2195L19.2718 10.0945C19.3178 10.0756 19.3595 10.0477 19.3946 10.0125C19.4296 9.97734 19.4574 9.93552 19.4762 9.88951C19.4949 9.84349 19.5044 9.79421 19.5039 9.74452C19.5035 9.69482 19.4932 9.64571 19.4736 9.60004C19.454 9.55436 19.4256 9.51304 19.3899 9.47846C19.3542 9.44388 19.312 9.41674 19.2657 9.39862C19.2194 9.3805 19.17 9.37176 19.1203 9.3729C19.0707 9.37405 19.0217 9.38505 18.9763 9.40528Z" fill="white"/>
<path id="Vector_18" d="M8.64419 9.86845C8.67562 9.96294 8.74329 10.0411 8.83233 10.0857C8.92136 10.1302 9.02446 10.1376 9.11894 10.1062C9.21342 10.0748 9.29155 10.0071 9.33614 9.91807C9.38073 9.82904 9.38812 9.72594 9.35669 9.63145L8.23169 6.25645C8.20026 6.16197 8.13259 6.08384 8.04356 6.03925C7.95452 5.99467 7.85142 5.98728 7.75694 6.0187C7.66246 6.05013 7.58433 6.11781 7.53974 6.20684C7.49516 6.29587 7.48776 6.39897 7.51919 6.49345L8.64419 9.86845Z" fill="white"/>
<path id="Vector_19" d="M7.58229 9.98398C7.64528 10.0588 7.73499 10.106 7.8323 10.1156C7.92961 10.1252 8.02682 10.0964 8.10322 10.0354C8.17961 9.97437 8.22914 9.8859 8.24125 9.78887C8.25336 9.69184 8.22709 9.59392 8.16804 9.51598L6.66804 7.64098C6.63781 7.60108 6.5999 7.56763 6.55654 7.54262C6.51318 7.5176 6.46525 7.50152 6.41558 7.49532C6.36591 7.48912 6.3155 7.49293 6.26732 7.50652C6.21914 7.52011 6.17417 7.54321 6.13506 7.57446C6.09595 7.60571 6.0635 7.64447 6.03961 7.68846C6.01572 7.73245 6.00087 7.78077 5.99595 7.83059C5.99104 7.8804 5.99614 7.9307 6.01097 7.97851C6.0258 8.02633 6.05005 8.07068 6.08229 8.10898L7.58229 9.98398Z" fill="white"/>
<path id="Vector_20" d="M4.7282 10.0947L7.3532 11.2197C7.39859 11.2399 7.44755 11.251 7.49723 11.2521C7.54691 11.2532 7.59633 11.2445 7.6426 11.2264C7.68887 11.2083 7.73108 11.1811 7.76678 11.1465C7.80247 11.112 7.83094 11.0706 7.85052 11.025C7.8701 10.9793 7.88041 10.9302 7.88084 10.8805C7.88128 10.8308 7.87183 10.7815 7.85306 10.7355C7.83428 10.6895 7.80654 10.6477 7.77146 10.6125C7.73638 10.5773 7.69465 10.5494 7.6487 10.5305L5.0237 9.40547C4.9326 9.36794 4.83038 9.36777 4.73916 9.405C4.64793 9.44223 4.57502 9.51387 4.5362 9.60443C4.49737 9.69499 4.49575 9.79719 4.53168 9.88894C4.56761 9.98069 4.6382 10.0546 4.7282 10.0947Z" fill="white"/>
</g>
</svg>
