<svg width="20" height="24" viewBox="0 0 20 24" fill="none" xmlns="http://www.w3.org/2000/svg">
<g id="Group">
<g id="Group_2">
<path id="Vector" d="M19.2076 9.8543C19.6832 9.12572 19.5954 8.17777 18.994 7.54898C18.729 7.27186 18.6182 6.88252 18.6976 6.50742C18.878 5.65622 18.4536 4.80398 17.6657 4.43494C17.3184 4.27228 17.0745 3.94922 17.013 3.57075C16.8737 2.71191 16.1701 2.07052 15.3021 2.01098C14.9196 1.98473 14.5754 1.77164 14.3813 1.44089C13.9411 0.690469 13.0536 0.346547 12.2225 0.604547C11.8563 0.718266 11.4584 0.643828 11.158 0.405563C10.4764 -0.135187 9.52438 -0.135187 8.84282 0.405563C8.54245 0.643922 8.14448 0.718266 7.77834 0.604547C6.94743 0.3465 6.05967 0.690422 5.61946 1.44089C5.42545 1.77164 5.08129 1.98473 4.69874 2.01098C3.83071 2.07052 3.12717 2.71195 2.98776 3.57075C2.92635 3.94922 2.68237 4.27228 2.33517 4.43494C1.54729 4.80403 1.12293 5.65627 1.30317 6.50742C1.38262 6.88252 1.27181 7.27191 1.00682 7.54903C0.40551 8.17781 0.317619 9.12581 0.793213 9.85439C1.00279 10.1754 1.04015 10.5786 0.893103 10.9327C0.559494 11.7362 0.820072 12.6519 1.52667 13.1595C1.8381 13.3832 2.01853 13.7456 2.00934 14.1289C1.98857 14.9987 2.56232 15.7584 3.40457 15.9765C3.6532 16.0409 3.8692 16.1847 4.02398 16.3809L2.08692 21.0573C1.81546 21.7127 2.42985 22.3875 3.10734 22.1796L5.22806 21.5287C5.29002 21.5099 5.35687 21.5376 5.3872 21.5947L6.42656 23.5545C6.75904 24.1814 7.67052 24.1371 7.94165 23.4825L9.9606 18.6084C9.98709 18.6075 10.0136 18.6075 10.0401 18.6084L12.059 23.4825C12.3306 24.1381 13.2421 24.1805 13.5742 23.5545L14.6135 21.5947C14.6438 21.5375 14.7107 21.5098 14.7726 21.5288L16.8933 22.1796C17.5712 22.3877 18.1851 21.7124 17.9138 21.0574L15.9767 16.381C16.1315 16.1848 16.3475 16.0409 16.5961 15.9765C17.4383 15.7585 18.012 14.9988 17.9913 14.129C17.9821 13.7457 18.1626 13.3833 18.474 13.1596C19.1807 12.652 19.4412 11.7363 19.1076 10.9327C18.9607 10.5785 18.9981 10.1753 19.2076 9.8543ZM7.2922 23.2133C7.24809 23.3198 7.10156 23.3264 7.04779 23.225L6.00843 21.2652C5.82042 20.9107 5.40553 20.739 5.02195 20.8566L2.90123 21.5074C2.79121 21.5411 2.69254 21.4327 2.7366 21.3263L4.45513 17.1773C4.84288 17.7084 5.49107 18.0045 6.17343 17.9248C6.55424 17.8804 6.93173 18.0265 7.18321 18.3159C7.54804 18.7359 8.06212 18.9589 8.5866 18.9588C8.75249 18.9588 8.91937 18.9356 9.08296 18.8902L7.2922 23.2133ZM17.0997 21.5074L14.979 20.8566C14.5955 20.7389 14.1805 20.9107 13.9925 21.2652L12.9531 23.2249C12.8995 23.3262 12.7528 23.3197 12.7087 23.2133L10.9183 18.891C11.5989 19.0799 12.3376 18.8685 12.8177 18.3158C13.0692 18.0264 13.4465 17.8801 13.8275 17.9247C14.5105 18.0045 15.1583 17.7084 15.5458 17.1772L17.2644 21.3262C17.3086 21.4329 17.2094 21.5409 17.0997 21.5074ZM18.6189 9.47002C18.2823 9.98578 18.2223 10.6333 18.4584 11.2022C18.6661 11.7024 18.5039 12.2724 18.064 12.5884C17.5638 12.9478 17.2739 13.5299 17.2886 14.1456C17.3016 14.6871 16.9444 15.1601 16.42 15.2958C15.9296 15.4228 15.5177 15.742 15.2707 16.1737C15.2701 16.1749 15.2694 16.1761 15.2687 16.1774C15.2164 16.2694 15.171 16.3662 15.1345 16.4677C14.951 16.9773 14.4474 17.2896 13.9091 17.2265C13.2974 17.1549 12.6909 17.3899 12.287 17.8549C11.9318 18.2637 11.3492 18.3726 10.8703 18.1197C10.7074 18.0337 10.5349 17.9739 10.3587 17.9394C10.3573 17.9391 10.3558 17.9387 10.3544 17.9385C10.1204 17.8931 9.87988 17.8932 9.64588 17.9386C9.64504 17.9388 9.64424 17.939 9.6434 17.9392C9.46682 17.9737 9.29399 18.0335 9.13073 18.1197C8.65176 18.3727 8.0692 18.2637 7.71403 17.8549C7.35787 17.445 6.84445 17.2139 6.30862 17.2139C6.23671 17.2139 6.16429 17.218 6.09187 17.2265C5.55412 17.2895 5.04998 16.9774 4.86646 16.4677C4.82995 16.3664 4.78467 16.2697 4.73235 16.1777C4.73156 16.1762 4.73076 16.1748 4.72996 16.1733C4.48293 15.7418 4.07123 15.4227 3.58092 15.2958C3.05657 15.16 2.69943 14.6871 2.71237 14.1457C2.72709 13.5299 2.43721 12.9478 1.93696 12.5884C1.49709 12.2724 1.33485 11.7024 1.54256 11.2021C1.77871 10.6333 1.71871 9.98573 1.38206 9.46997C1.08604 9.01645 1.1407 8.4263 1.51509 8.03489C1.94076 7.58977 2.11874 6.96427 1.99115 6.36173C1.87893 5.83186 2.14312 5.30133 2.63357 5.07155C3.19134 4.81027 3.58321 4.29131 3.68193 3.68334C3.7687 3.14869 4.2067 2.74941 4.74703 2.71238C5.36151 2.67023 5.91445 2.32791 6.22607 1.79658C6.50015 1.32942 7.0529 1.11539 7.56998 1.27598C8.15821 1.45866 8.79745 1.33917 9.27998 0.956344C9.7042 0.619687 10.2969 0.619687 10.7212 0.956344C11.2037 1.33913 11.8429 1.4587 12.4312 1.27598C12.9485 1.11534 13.5011 1.32947 13.7751 1.79658C14.0867 2.32786 14.6397 2.67019 15.2541 2.71238C15.7945 2.74945 16.2325 3.14873 16.3192 3.68334C16.418 4.29131 16.8099 4.81027 17.3676 5.07159C17.8581 5.30133 18.1222 5.83186 18.01 6.36173C17.8824 6.96427 18.0604 7.58977 18.4861 8.03489C18.8603 8.4263 18.9149 9.01645 18.6189 9.47002Z" fill="white"/>
<path id="Vector_2" d="M3.34186 9.006C3.53438 9.02967 3.71002 8.89271 3.73369 8.70005C4.12191 5.54466 6.81605 3.16524 10.0004 3.16524C13.1863 3.16524 15.8806 5.54592 16.2675 8.703C16.2893 8.88117 16.4409 9.01182 16.616 9.01182C16.6303 9.01182 16.6447 9.01092 16.6592 9.00914C16.8519 8.98552 16.989 8.81016 16.9654 8.61745C16.5353 5.10835 13.541 2.46216 10.0004 2.46216C6.46149 2.46216 3.46739 5.10694 3.03586 8.61417C3.01219 8.80688 3.14916 8.98228 3.34186 9.006Z" fill="white"/>
<path id="Vector_3" d="M16.6593 9.94963C16.4672 9.9262 16.2913 10.0631 16.2677 10.2558C15.8808 13.413 13.1866 15.7939 10.0005 15.7939C6.81592 15.7939 4.12178 13.4142 3.7337 10.2586C3.71003 10.0659 3.53471 9.92901 3.34187 9.95259C3.14921 9.97626 3.01215 10.1517 3.03587 10.3444C3.46721 13.8519 6.46131 16.4969 10.0005 16.4969C13.5412 16.4969 16.5355 13.8506 16.9654 10.3413C16.9891 10.1486 16.852 9.97326 16.6593 9.94963Z" fill="white"/>
<path id="Vector_4" d="M14.9641 8.02868C14.8747 7.75371 14.6303 7.56931 14.3413 7.55895L11.585 7.46009L10.6392 4.86921C10.5401 4.59762 10.2892 4.42212 10.0001 4.42212C9.71096 4.42212 9.46008 4.59762 9.36094 4.86921L8.41515 7.46009L5.65885 7.55895C5.36991 7.56931 5.12546 7.75371 5.03612 8.02868C4.94677 8.30365 5.03612 8.59653 5.26379 8.77474L7.43555 10.4749L6.67787 13.1269C6.59841 13.4049 6.69826 13.6943 6.93221 13.8643C7.16588 14.0341 7.47202 14.0399 7.71207 13.8783L10 12.3381L12.2881 13.8782C12.5278 14.0396 12.834 14.0342 13.0679 13.8642C13.3019 13.6943 13.4017 13.4048 13.3222 13.1268L12.5645 10.4748L14.7363 8.7747C14.964 8.59648 15.0534 8.30365 14.9641 8.02868ZM12.1192 9.93059C11.9001 10.1021 11.8079 10.3859 11.8844 10.6534L12.6292 13.2603L10.3801 11.7464C10.2646 11.6687 10.1323 11.6298 10 11.6298C9.86776 11.6298 9.73548 11.6687 9.62007 11.7463L7.37087 13.2603L8.11571 10.6534C8.19216 10.3858 8.10001 10.1021 7.88091 9.93059L5.74594 8.25931L8.45555 8.16209C8.73362 8.1521 8.97493 7.97674 9.07032 7.71542L10.0001 5.16851L10.9299 7.71542C11.0253 7.97674 11.2666 8.1521 11.5446 8.16204L14.2541 8.25926L12.1192 9.93059Z" fill="white"/>
</g>
</g>
</svg>
