<svg width="20" height="22" viewBox="0 0 20 22" fill="none" xmlns="http://www.w3.org/2000/svg">
<g id="Notification">
<path id="Vector" d="M18.1667 18.9999H1.8332C1.44841 18.9999 1.07337 18.8788 0.761228 18.6538C0.449082 18.4288 0.215652 18.1113 0.0940105 17.7462C-0.0276312 17.3811 -0.0313169 16.9871 0.0834753 16.6198C0.198268 16.2525 0.425717 15.9307 0.7336 15.6999L1.5571 15.0822C1.86701 14.8506 2.07495 14.5078 2.1371 14.1259L3.1703 7.85393C3.42256 6.22307 4.25008 4.73631 5.50322 3.66254C6.75635 2.58876 8.35236 1.99886 10.0026 1.99951C11.6529 2.00016 13.2484 2.59133 14.5007 3.66609C15.753 4.74086 16.5793 6.22827 16.8303 7.85933L17.8628 14.1259C17.925 14.5078 18.1329 14.8506 18.4428 15.0822L19.2666 15.6999C19.5745 15.9307 19.802 16.2526 19.9168 16.6199C20.0316 16.9872 20.0279 17.3813 19.9062 17.7464C19.7845 18.1115 19.551 18.429 19.2387 18.654C18.9265 18.879 18.5514 19 18.1665 18.9999H18.1667ZM10.0007 2.99988C8.58699 2.99302 7.21815 3.49585 6.14505 4.41623C5.07195 5.3366 4.36647 6.61287 4.1579 8.01113L3.12395 14.2884C3.02022 14.9248 2.67365 15.496 2.1572 15.882L1.33345 16.4999C1.19348 16.6048 1.09007 16.7511 1.03789 16.9181C0.985706 17.085 0.987393 17.2642 1.04271 17.4301C1.09803 17.5961 1.20417 17.7404 1.34609 17.8427C1.48802 17.9449 1.65852 17.9999 1.83345 17.9999H18.167C18.3418 17.9999 18.5123 17.9449 18.6542 17.8426C18.796 17.7404 18.9021 17.5961 18.9574 17.4302C19.0128 17.2643 19.0145 17.0852 18.9623 16.9183C18.9102 16.7513 18.8069 16.6051 18.667 16.5001L17.843 15.882C17.3265 15.496 16.9799 14.9248 16.8762 14.2884L15.8427 8.01648C15.6352 6.61745 14.9303 5.34012 13.8572 4.41871C12.7842 3.4973 11.415 2.99356 10.0007 2.99988Z" fill="white"/>
<path id="Vector_2" d="M11.5 3.18C11.3674 3.18 11.2402 3.12732 11.1464 3.03355C11.0527 2.93979 11 2.81261 11 2.68V2C11 1.73478 10.8946 1.48043 10.7071 1.29289C10.5196 1.10536 10.2652 1 10 1C9.73478 1 9.48043 1.10536 9.29289 1.29289C9.10536 1.48043 9 1.73478 9 2V2.68C9 2.81261 8.94732 2.93979 8.85355 3.03355C8.75979 3.12732 8.63261 3.18 8.5 3.18C8.36739 3.18 8.24021 3.12732 8.14645 3.03355C8.05268 2.93979 8 2.81261 8 2.68V2C8 1.46957 8.21071 0.960859 8.58579 0.585786C8.96086 0.210714 9.46957 0 10 0C10.5304 0 11.0391 0.210714 11.4142 0.585786C11.7893 0.960859 12 1.46957 12 2V2.68C12 2.81261 11.9473 2.93979 11.8536 3.03355C11.7598 3.12732 11.6326 3.18 11.5 3.18Z" fill="white"/>
<path id="Vector_3" d="M10 22C9.07206 21.999 8.18242 21.6299 7.52627 20.9737C6.87011 20.3176 6.50103 19.4279 6.5 18.5C6.5 18.3674 6.55268 18.2402 6.64645 18.1464C6.74021 18.0527 6.86739 18 7 18C7.13261 18 7.25979 18.0527 7.35355 18.1464C7.44732 18.2402 7.5 18.3674 7.5 18.5C7.5 19.163 7.76339 19.7989 8.23223 20.2678C8.70107 20.7366 9.33696 21 10 21C10.663 21 11.2989 20.7366 11.7678 20.2678C12.2366 19.7989 12.5 19.163 12.5 18.5C12.5 18.3674 12.5527 18.2402 12.6464 18.1464C12.7402 18.0527 12.8674 18 13 18C13.1326 18 13.2598 18.0527 13.3536 18.1464C13.4473 18.2402 13.5 18.3674 13.5 18.5C13.499 19.4279 13.1299 20.3176 12.4737 20.9737C11.8176 21.6299 10.9279 21.999 10 22Z" fill="white"/>
</g>
</svg>
