<svg width="50" height="36" viewBox="0 0 50 36" fill="none" xmlns="http://www.w3.org/2000/svg">
<g id="creativity 1" clip-path="url(#clip0_5412_59654)">
<g id="Group">
<path id="Vector" d="M19.184 49.9929C19.7487 50.0553 20.2831 49.7066 20.4495 49.1572L22.976 40.8188L26.9872 40.8162L27.8308 48.5559C27.8953 49.1471 28.3886 49.6018 28.9823 49.6139L32.848 49.7067C33.2302 49.7161 33.5932 49.5408 33.8235 49.2359C34.0539 48.9311 34.1236 48.5341 34.0107 48.169C33.8296 47.5842 33.2549 46.5728 31.4411 46.3726C31.3066 46.3577 31.1746 46.3482 31.0473 46.343L30.3131 40.4646C31.3649 39.9286 32.0828 38.8324 32.0819 37.5902L32.0813 36.4938C32.2574 36.3978 32.4205 36.2759 32.5663 36.1301C32.9647 35.731 33.1841 35.2005 33.1837 34.6368C33.1833 34.0436 32.9388 33.4994 32.53 33.1119L32.5221 21.1537C35.1151 19.7185 36.771 17.0382 36.9047 14.04C37.3204 13.6954 37.7851 13.238 38.1506 12.6533C38.3444 12.343 38.5697 11.919 38.5893 11.3907C38.6206 10.5742 38.1255 9.84902 37.3862 9.62744C37.1956 9.5704 36.9922 9.54863 36.7915 9.56367C36.775 9.52314 36.7571 9.48271 36.738 9.44238C36.5493 9.04072 36.27 8.76044 35.9071 8.60878C35.7791 8.55536 35.6441 8.5206 35.506 8.50527C35.0081 8.45029 34.4912 8.65829 34.1236 9.06122C33.8531 9.35781 33.6968 9.69511 33.6038 10.0159C33.2334 9.92568 32.8642 9.9499 32.5315 10.0901C32.2918 10.1911 32.0866 10.3325 31.9233 10.5052L26.6886 1.00937C26.3825 0.454193 25.8242 0.0814389 25.1954 0.0120053C24.4067 -0.075104 23.6506 0.317279 23.2689 1.01171L18.0571 10.4947C17.897 10.3311 17.6981 10.1969 17.4676 10.1001C17.1355 9.96093 16.763 9.93613 16.3952 10.0276C16.3017 9.70673 16.1448 9.36943 15.8733 9.07285C15.4047 8.56064 14.6824 8.37548 14.0886 8.62353C13.7267 8.77538 13.4479 9.05605 13.2602 9.45673C13.2412 9.49726 13.2234 9.53808 13.2067 9.5789C13.0037 9.56396 12.804 9.58574 12.6126 9.64355C11.8734 9.86611 11.3793 10.5918 11.4111 11.4089C11.432 11.9382 11.6576 12.3613 11.8516 12.6707C12.2181 13.255 12.6834 13.7116 13.0993 14.0556C13.2368 17.0393 14.8847 19.7105 17.4617 21.1463L17.4694 33.1218C17.0613 33.5097 16.8176 34.0542 16.818 34.6474C16.8184 35.4437 17.2599 36.144 17.9224 36.5029L17.9232 37.5994C17.9239 38.8129 18.5963 39.8804 19.6053 40.4284L17.697 46.3885C17.6306 46.3788 17.5625 46.3701 17.4935 46.3625C15.5418 46.147 14.7472 47.068 14.4473 47.6362C14.2688 47.9742 14.264 48.3771 14.4342 48.7192C14.6044 49.0613 14.9288 49.3006 15.3059 49.3621L19.1225 49.9843C19.143 49.9878 19.1634 49.9906 19.184 49.9929Z" fill="white"/>
<g id="Group_2">
<g id="Group_3">
<g id="Group_4">
<g id="Group_5">
<path id="Vector_2" d="M37.0447 10.7646C36.8901 10.7182 36.7189 10.7638 36.5842 10.8529C36.4495 10.9418 36.3459 11.0701 36.2519 11.2014C36.0394 11.4982 35.8412 11.9183 35.6946 12.2521C35.7465 11.9313 35.8125 11.5093 35.83 11.1848C35.8526 10.7649 35.8428 10.328 35.6637 9.94749C35.6167 9.84759 35.5519 9.7472 35.45 9.70472C35.2938 9.63958 35.1147 9.73655 35.0005 9.86165C34.76 10.1252 34.688 10.4992 34.6563 10.8545C34.6106 11.367 34.6305 11.8849 34.7108 12.3931C34.5213 12.1242 34.3068 11.8728 34.0677 11.6468C33.8306 11.4228 33.3557 11.0313 32.992 11.1844C32.3133 11.4702 32.9024 12.2378 33.2098 12.5005C33.6882 12.9095 34.2706 13.1705 34.8568 13.3965C34.9464 16.2076 33.3987 18.6133 30.8126 19.7092C30.2994 19.9267 30.7423 20.673 31.2507 20.4575C34.0835 19.2572 35.801 16.5116 35.7238 13.4529C36.275 13.0529 36.7818 12.6035 37.1439 12.0244C37.2737 11.8166 37.3938 11.5907 37.403 11.3458C37.4123 11.1009 37.2794 10.835 37.0447 10.7646Z" fill="#572330"/>
</g>
<g id="Group_6">
<path id="Vector_3" d="M19.1984 19.7168C16.6109 18.6243 15.0602 16.2206 15.1461 13.4094C15.7318 13.1826 16.314 12.9208 16.7918 12.5112C17.0988 12.2481 17.6869 11.4798 17.0078 11.1948C16.6439 11.0421 16.1695 11.4343 15.9327 11.6586C15.6938 11.8849 15.4798 12.1365 15.2906 12.4058C15.3702 11.8974 15.3895 11.3796 15.3431 10.8671C15.3108 10.5118 15.2384 10.1379 14.9976 9.87462C14.8833 9.74972 14.7041 9.65294 14.5478 9.71827C14.4461 9.76085 14.3814 9.86144 14.3346 9.96134C14.156 10.342 14.1468 10.7789 14.1699 11.1988C14.1878 11.5234 14.2543 11.9452 14.3066 12.266C14.1596 11.9325 13.9609 11.5126 13.748 11.2161C13.6539 11.085 13.5501 10.9568 13.4153 10.868C13.2805 10.7791 13.1092 10.7337 12.9547 10.7803C12.7201 10.851 12.5876 11.1171 12.5972 11.3619C12.6067 11.6068 12.7271 11.8326 12.8573 12.0402C13.22 12.6189 13.7274 13.0676 14.2792 13.4668C14.2061 16.5256 15.9271 19.269 18.7615 20.4656C19.27 20.6805 19.7119 19.9337 19.1984 19.7168Z" fill="#572330"/>
</g>
</g>
</g>
<g id="Group_7">
<path id="Vector_4" d="M31.3291 12.3317C31.3291 12.324 31.3277 12.3163 31.3276 12.3086C30.6295 12.4456 29.8922 12.3154 29.393 11.8223C29.1098 12.4387 28.4595 12.8686 27.7813 12.8876C27.1032 12.9066 26.4299 12.5139 26.1126 11.9143C25.7746 12.7254 24.9541 13.3128 24.0773 13.3714C23.2006 13.4301 22.3092 12.9572 21.8661 12.1984C20.9736 12.9516 19.5525 12.8743 18.6537 12.1622C18.6477 12.2213 18.6426 12.2805 18.6426 12.3401L18.6572 34.7391L31.3436 34.7308L31.3291 12.3317Z" fill="#FF61B8"/>
</g>
<g id="Group_8">
<path id="Vector_5" d="M28.9082 39.628L21.0993 39.6331C20.0014 39.6338 19.1108 38.7444 19.1101 37.6465L19.1078 34.12L30.8925 34.1123L30.8948 37.6388C30.8956 38.7367 30.0061 39.6273 28.9082 39.628Z" fill="#2BB680"/>
</g>
<g id="Group_9">
<path id="Vector_6" d="M22.0025 12.4019C21.9539 12.3364 21.9075 12.2692 21.8663 12.1985C21.8562 12.207 21.8452 12.2139 21.835 12.2222C21.7797 14.6347 21.7439 19.4889 21.7476 25.0885C21.7501 28.795 21.7693 32.1747 21.799 34.7371L22.0638 34.7369C22.0901 32.1745 22.105 28.7947 22.1025 25.0882C22.0989 19.6257 22.0588 14.871 22.0025 12.4019Z" fill="#FF97B3"/>
</g>
<g id="Group_10">
<path id="Vector_7" d="M26.1276 11.9378C26.1231 11.9297 26.1171 11.9225 26.1127 11.9143C26.0726 12.0106 26.0252 12.1035 25.9722 12.193C25.9165 14.5962 25.8805 19.4656 25.8841 25.0858C25.8865 28.7922 25.9058 32.1719 25.9355 34.7343L26.2002 34.7341C26.2266 32.1717 26.2414 28.7919 26.239 25.0855C26.2352 19.259 26.1898 14.2389 26.1276 11.9378Z" fill="#FF97B3"/>
</g>
<g id="Group_11">
<path id="Vector_8" d="M29.6158 12.0061C29.5636 11.9694 29.5147 11.9274 29.466 11.8845C29.4061 14.1614 29.3666 19.2129 29.3704 25.0835C29.3729 28.79 29.3921 32.1697 29.4218 34.7321L29.6865 34.7319C29.7129 32.1695 29.7278 28.7897 29.7253 25.0833C29.7216 19.3175 29.6772 14.3391 29.6158 12.0061Z" fill="#FF97B3"/>
</g>
<g id="Group_12">
<g id="Group_13">
<path id="Vector_9" d="M31.3413 30.9274C30.5973 30.4832 29.8111 30.1 29.0198 29.7586C27.5163 29.1098 25.9561 28.5783 24.5275 27.7779C23.0989 26.9775 21.7808 25.8646 21.0955 24.3773C20.2541 22.5515 20.4673 20.4431 20.5044 18.4332C20.5396 16.5207 20.3965 14.6052 20.0821 12.7184C19.5642 12.6718 19.0567 12.4814 18.6541 12.1624C18.648 12.2214 18.6429 12.2806 18.6429 12.3403L18.6576 34.7392L31.3439 34.7309L31.3413 30.9274Z" fill="#FF52A1"/>
</g>
</g>
<g id="Group_14">
<g id="Group_15">
<g id="Group_16">
<path id="Vector_10" d="M20.3725 21.0426C20.8232 23.2355 23.2442 24.1697 25.2642 24.1396C27.4301 24.1073 29.334 22.473 29.6518 20.3404C29.7065 19.9733 29.1455 19.8156 29.0903 20.186C28.7961 22.1601 27.2003 23.3966 25.2638 23.5574C23.512 23.703 21.3148 22.7419 20.9337 20.8875C20.8582 20.5198 20.2972 20.6762 20.3725 21.0426Z" fill="#572330"/>
</g>
</g>
<g id="Group_17">
<g id="Group_18">
<path id="Vector_11" d="M23.6267 20.3475C23.627 20.8595 23.2122 21.2749 22.7001 21.2752C22.1881 21.2756 21.7727 20.8607 21.7724 20.3486C21.772 19.8366 22.1869 19.4212 22.699 19.4209C23.2111 19.4206 23.6264 19.8354 23.6267 20.3475Z" fill="#572330"/>
</g>
<g id="Group_19">
<path id="Vector_12" d="M28.2483 20.3445C28.2487 20.8565 27.8338 21.272 27.3217 21.2723C26.8097 21.2726 26.3943 20.8577 26.394 20.3457C26.3937 19.8337 26.8085 19.4183 27.3205 19.418C27.8326 19.4176 28.2479 19.8324 28.2483 20.3445Z" fill="#572330"/>
</g>
</g>
</g>
<g id="Group_20">
<g id="Group_21">
<path id="Vector_13" d="M21.8663 12.1985C22.3094 12.9573 23.2008 13.4302 24.0776 13.3715C24.9543 13.3128 25.7747 12.7254 26.1128 11.9143C26.4301 12.5139 27.1034 12.9067 27.7816 12.8877C28.4597 12.8686 29.11 12.4387 29.3932 11.8223C29.8923 12.3155 30.6297 12.4457 31.3279 12.3087C31.328 12.3164 31.3293 12.3241 31.3293 12.3318C31.3291 12.0393 31.255 11.7516 31.1138 11.4955L25.6487 1.58269C25.3578 1.05505 24.5993 1.05554 24.3092 1.58357L18.8573 11.5035C18.7451 11.7075 18.6776 11.9317 18.6539 12.1622C19.5527 12.8744 20.9739 12.9516 21.8663 12.1985Z" fill="#FFC82B"/>
</g>
</g>
<g id="Group_22">
<path id="Vector_14" d="M24.9867 4.98269C25.8482 4.9821 26.6645 4.899 27.3956 4.75154L25.6486 1.58269C25.3578 1.05505 24.5993 1.05554 24.3092 1.58357L22.5674 4.75271C23.3014 4.90046 24.1212 4.98318 24.9867 4.98269Z" fill="#A03589"/>
</g>
<path id="Vector_15" d="M20.4674 21.3988C20.4587 21.1901 20.4545 20.9807 20.4535 20.7705C20.3874 20.8344 20.349 20.9281 20.3725 21.0423C20.3977 21.1653 20.4301 21.2837 20.4674 21.3988Z" fill="#4F202D"/>
<path id="Vector_16" d="M25.8911 28.4573C25.8996 30.8292 25.915 32.9746 25.9355 34.7342L26.2002 34.734C26.2179 33.0122 26.2304 30.9201 26.2359 28.609C26.1207 28.5591 26.0057 28.5087 25.8911 28.4573Z" fill="#FF8D8D"/>
<path id="Vector_17" d="M29.3838 29.9194C29.3928 31.7114 29.4058 33.3427 29.4219 34.7321L29.6866 34.7319C29.7005 33.3823 29.7111 31.8043 29.7178 30.0728C29.6067 30.0208 29.4954 29.9696 29.3838 29.9194Z" fill="#FF8D8D"/>
<path id="Vector_18" d="M22.1027 25.8922C21.9782 25.7527 21.8601 25.6082 21.7479 25.4595C21.7513 29.0198 21.7703 32.2606 21.799 34.7371L21.9517 34.737L22.0637 34.7369C22.0882 32.3611 22.1026 29.2821 22.1027 25.8922Z" fill="#FF8D8D"/>
<g id="Group_23">
<g id="Group_24">
<path id="Vector_19" d="M28.7692 9.91874C29.0725 9.80566 28.9184 8.64492 28.2853 7.39033C27.6553 6.13427 26.8151 5.31865 26.5435 5.49482C26.2664 5.67314 26.6305 6.72831 27.2286 7.92197C27.8306 9.11376 28.4609 10.035 28.7692 9.91874Z" fill="#FFFCDE"/>
</g>
<g id="Group_25">
<path id="Vector_20" d="M29.936 10.3238C29.8049 10.0785 29.4652 10.0045 29.177 10.1584C28.8888 10.3123 28.7615 10.6359 28.8925 10.8812C29.0236 11.1266 29.3633 11.2006 29.6515 11.0467C29.9396 10.8927 30.067 10.569 29.936 10.3238Z" fill="#FFFCDE"/>
</g>
</g>
<g id="Group_26">
<path id="Vector_21" d="M31.0726 35.5625L18.9296 35.5705C18.4191 35.5708 18.0051 35.1573 18.0048 34.6468C18.0045 34.1364 18.4179 33.7223 18.9284 33.722L31.0715 33.7141C31.5819 33.7138 31.996 34.1273 31.9963 34.6377C31.9967 35.1481 31.5831 35.5622 31.0726 35.5625Z" fill="#A03589"/>
</g>
</g>
</g>
</g>
<defs>
<clipPath id="clip0_5412_59654">
<rect width="50" height="50" fill="white"/>
</clipPath>
</defs>
</svg>
