<svg width="71" height="74" viewBox="0 0 71 74" fill="none" xmlns="http://www.w3.org/2000/svg">
<g id="17-pirate treasure" filter="url(#filter0_d_1447_13199)">
<path id="Vector" d="M58.219 15.3063L53.1483 25.3682L39.189 27.0684L35.3114 27.5407L17.4745 29.7132L10.1368 21.1626L15.5655 20.5014L31.8514 18.5178L36.5045 17.9511L52.7904 15.9675L58.219 15.3063Z" fill="#1E1613"/>
<path id="Vector_2" d="M53.1484 25.3681L17.4745 29.7131L12.026 36.6729L30.6385 34.406L30.3551 32.0794C30.3063 31.6683 30.4221 31.2545 30.6773 30.9285C30.9326 30.6025 31.3064 30.3907 31.7172 30.3395L39.4724 29.3949C39.8836 29.3461 40.2973 29.4619 40.6233 29.7171C40.9493 29.9723 41.1611 30.3462 41.2124 30.757L41.4958 33.0836L60.1082 30.8166L53.1484 25.3681Z" fill="#1E1613"/>
<path id="Vector_3" d="M46.1488 32.5171L41.4957 33.0839L41.2124 30.7573C41.1611 30.3465 40.9493 29.9726 40.6233 29.7174C40.2973 29.4622 39.8835 29.3464 39.4724 29.3952L31.7172 30.3397C31.3064 30.391 30.9325 30.6028 30.6773 30.9288C30.4221 31.2548 30.3063 31.6686 30.3551 32.0797L30.6385 34.4062L21.3322 35.5397C21.201 35.5534 21.0685 35.551 20.9379 35.5327C20.8154 35.5819 20.6874 35.6159 20.5567 35.6342L17.4546 36.012C17.0433 36.0621 16.6289 35.9467 16.3026 35.6913C15.9763 35.4358 15.7648 35.0612 15.7147 34.6499C15.6646 34.2385 15.78 33.8241 16.0354 33.4978C16.2908 33.1715 16.6655 32.96 17.0768 32.9099L18.6279 32.721C18.2165 32.7711 17.8021 32.6558 17.4758 32.4003C17.1495 32.1449 16.938 31.7702 16.8879 31.3589C16.8378 30.9475 16.9532 30.5331 17.2086 30.2068C17.4641 29.8805 17.8387 29.669 18.25 29.6189L22.1276 29.1467C21.7163 29.1968 21.3018 29.0814 20.9755 28.8259C20.6492 28.5705 20.4378 28.1959 20.3877 27.7845C20.3376 27.3732 20.4529 26.9588 20.7084 26.6325C20.9638 26.3061 21.3384 26.0947 21.7498 26.0446L23.3008 25.8557C22.8895 25.9058 22.4751 25.7904 22.1488 25.535C21.8225 25.2795 21.611 24.9049 21.5609 24.4935C21.5108 24.0822 21.6261 23.6678 21.8816 23.3415C22.137 23.0152 22.5117 22.8037 22.923 22.7536L26.0251 22.3758C26.4365 22.3257 26.8509 22.441 27.1772 22.6965C27.5035 22.9519 27.7149 23.3265 27.765 23.7379C27.8151 24.1493 27.6998 24.5637 27.4443 24.89C27.1889 25.2163 26.8143 25.4277 26.4029 25.4778L27.954 25.2889C28.2631 25.253 28.5761 25.3079 28.8547 25.4468C28.9226 25.1308 29.0874 24.8438 29.326 24.6258C29.5646 24.4077 29.8652 24.2694 30.1861 24.23L31.7371 24.0411C31.3257 24.0912 30.9113 23.9759 30.585 23.7204C30.2587 23.465 30.0472 23.0904 29.9971 22.679C29.947 22.2676 30.0624 21.8532 30.3178 21.5269C30.5733 21.2006 30.9479 20.9892 31.3593 20.9391L34.4613 20.5612C34.8727 20.5111 35.2871 20.6265 35.6134 20.8819C35.9397 21.1374 36.1512 21.512 36.2013 21.9234C36.2514 22.3347 36.136 22.7491 35.8806 23.0754C35.6251 23.4017 35.2505 23.6132 34.8392 23.6633L41.0433 22.9077C41.4545 22.8588 41.8682 22.9747 42.1942 23.2299C42.5202 23.4851 42.732 23.859 42.7833 24.2698L43.0004 24.2433C43.105 23.991 43.275 23.771 43.4929 23.6062C43.7107 23.4413 43.9686 23.3375 44.2399 23.3054L50.444 22.5497C50.8554 22.4996 51.2698 22.615 51.5961 22.8704C51.9224 23.1259 52.1338 23.5005 52.184 23.9118C52.2341 24.3232 52.1187 24.7376 51.8632 25.0639C51.6078 25.3902 51.2332 25.6017 50.8218 25.6518L55.4749 25.085C55.8863 25.0349 56.3007 25.1503 56.627 25.4058C56.9533 25.6612 57.1648 26.0358 57.2149 26.4472C57.265 26.8585 57.1496 27.273 56.8942 27.5993C56.6387 27.9256 56.2641 28.137 55.8528 28.1871C56.2641 28.137 56.6785 28.2524 57.0048 28.5078C57.3311 28.7633 57.5426 29.1379 57.5927 29.5493C57.6428 29.9606 57.5275 30.375 57.272 30.7013C57.0166 31.0276 56.6419 31.2391 56.2306 31.2892L46.1488 32.5171Z" fill="#FFC052"/>
<path id="Vector_4" d="M55.9029 43.1347L55.7573 39.2251L55.602 35.3011L55.4554 31.3838L60.1085 30.8171L60.5244 50.1272C60.5476 51.2887 60.1392 52.4175 59.3782 53.2952C58.6172 54.173 57.5576 54.7372 56.4046 54.8789L21.3977 59.1426C20.2443 59.2819 19.0803 58.9884 18.1309 58.319C17.1814 57.6496 16.514 56.6518 16.2578 55.5187L12.0264 36.6733L16.6795 36.1066L17.4775 39.9445L18.1131 43.0309L19.3721 49.103L20.0593 52.4192C20.1788 52.9948 20.5102 53.5045 20.9878 53.8472C21.4654 54.1899 22.0544 54.3406 22.6379 54.2694L54.0309 50.4459C54.6145 50.3749 55.15 50.0872 55.5314 49.6399C55.9128 49.1925 56.1121 48.6182 56.0899 48.0308L56.0523 47.0752L55.9029 43.1347Z" fill="#5B5A61"/>
<path id="Vector_5" d="M52.3131 13.6648C51.4595 10.8568 49.8935 9.95354 48.9197 9.64716C48.6944 9.57947 48.4902 9.45537 48.3264 9.28662C48.1627 9.11787 48.0447 8.91007 47.9837 8.68294C47.9672 8.62238 47.9544 8.56084 47.9455 8.4987C47.9021 8.13682 48.0038 7.77247 48.2285 7.48547C48.4532 7.19847 48.7825 7.01223 49.1442 6.96755L49.3303 6.94488C50.3804 6.82519 51.444 6.93826 52.4454 7.27604C53.4469 7.61382 54.3617 8.16802 55.1248 8.89927C56.8883 10.597 57.9859 12.8698 58.219 15.3065L52.7904 15.9677C52.7015 15.1872 52.5417 14.4164 52.3131 13.6648Z" fill="#A8A5B3"/>
<path id="Vector_6" d="M55.4554 31.3838L55.602 35.301L41.9684 36.9616L41.4961 33.084L46.1492 32.5172L50.0268 32.045L52.3534 31.7616L55.4554 31.3838Z" fill="#C0BABA"/>
<path id="Vector_7" d="M52.7901 15.9674L36.5042 17.951L35.9375 13.2979C39.0396 12.92 43.6927 12.3533 46.7026 11.9946C46.9912 11.9417 47.2851 11.9244 47.5778 11.9431C47.8578 11.9798 48.1112 12.1221 48.1106 12.311C48.1112 12.4448 47.9857 12.5781 47.8497 12.6891C47.3717 13.0936 46.6896 13.3734 46.1612 13.7526C46.0525 13.8288 45.9397 13.937 46.0063 14.0312C46.0678 14.0802 46.1427 14.1095 46.2211 14.1152C46.7019 14.1773 47.1886 14.1788 47.6698 14.1198C49.8216 13.9521 50.1647 13.9261 52.3129 13.6644C52.5415 14.416 52.7012 15.1869 52.7901 15.9674Z" fill="#D69250"/>
<path id="Vector_8" d="M48.9193 9.64733C49.8932 9.95371 51.4592 10.8569 52.3128 13.665C50.1646 13.9266 49.8215 13.9527 47.6697 14.1203C47.1885 14.1793 46.7018 14.1778 46.221 14.1157C46.1426 14.11 46.0677 14.0807 46.0062 14.0317C45.9396 13.9375 46.0524 13.8293 46.1611 13.7531C46.6895 13.374 47.3716 13.0941 47.8496 12.6896C47.9856 12.5786 48.1111 12.4453 48.1105 12.3115C48.1111 12.1226 47.8577 11.9803 47.5777 11.9436C47.285 11.9249 46.9911 11.9422 46.7025 11.9951C43.6926 12.3538 39.0395 12.9205 35.9374 13.2984L35.5596 10.1963L47.9834 8.6831C48.0443 8.91024 48.1623 9.11804 48.3261 9.28679C48.4899 9.45553 48.6941 9.57964 48.9193 9.64733Z" fill="#9B6244"/>
<path id="Vector_9" d="M41.968 36.9616L42.1569 38.5127C42.2057 38.9238 42.0899 39.3375 41.8346 39.6635C41.5794 39.9895 41.2056 40.2013 40.7947 40.2526L33.0396 41.1972C32.6284 41.246 32.2147 41.1301 31.8887 40.8749C31.5627 40.6197 31.3509 40.2459 31.2996 39.835L30.355 32.0798C30.3062 31.6687 30.4221 31.255 30.6773 30.929C30.9325 30.603 31.3063 30.3912 31.7172 30.3399L39.4724 29.3953C39.8835 29.3465 40.2972 29.4623 40.6233 29.7176C40.9493 29.9728 41.161 30.3466 41.2123 30.7575L41.968 36.9616ZM39.7359 38.0205L38.9802 31.8163L32.7761 32.572L33.5317 38.7761L39.7359 38.0205Z" fill="#545359"/>
<path id="Vector_10" d="M32.7764 32.5718L38.9805 31.8161L39.7362 38.0203L33.532 38.7759L32.7764 32.5718Z" fill="#443A38"/>
<path id="Vector_11" d="M31.1906 13.0893L30.9072 10.7627L35.5603 10.196L35.9382 13.298L36.5049 17.9511L31.8518 18.5179L31.1906 13.0893Z" fill="#C0BABA"/>
<path id="Vector_12" d="M31.1898 13.0895L31.851 18.5182L15.5651 20.5017C15.464 19.7227 15.4341 18.936 15.4756 18.1516C17.7091 17.8795 19.5132 17.6362 21.6395 17.2592C22.1242 17.1952 22.5958 17.0554 23.0371 16.8449C23.1157 16.8062 23.1798 16.7432 23.2199 16.6653C23.2591 16.5346 23.1199 16.4256 22.9931 16.3545C22.376 16.0047 21.6391 15.8347 21.0647 15.4482C20.896 15.3588 20.7678 15.2083 20.7065 15.0275C20.6989 14.892 20.7345 14.7577 20.8084 14.6439C20.8824 14.5302 20.9906 14.443 21.1175 14.395C21.3927 14.2902 21.6832 14.2309 21.9776 14.2194C24.7375 13.8754 28.235 13.4494 31.1898 13.0895Z" fill="#9B6244"/>
<path id="Vector_13" d="M30.9065 10.7627L31.1898 13.0893C28.2351 13.4491 24.7375 13.8751 21.9776 14.2191C21.6833 14.2306 21.3928 14.2899 21.1175 14.3947C20.9907 14.4427 20.8824 14.5299 20.8085 14.6437C20.7346 14.7574 20.6989 14.8918 20.7066 15.0272C20.7679 15.208 20.8961 15.3585 21.0648 15.4479C21.6392 15.8344 22.3761 16.0044 22.9932 16.3542C23.1199 16.4253 23.2591 16.5343 23.2199 16.665C23.1798 16.7429 23.1158 16.8059 23.0372 16.8447C22.5959 17.0552 22.1243 17.1949 21.6395 17.2589C19.5133 17.6359 17.7091 17.8793 15.4756 18.1513C15.6302 15.2205 16.9337 13.9678 17.8055 13.4366C18.0079 13.3168 18.1763 13.1473 18.2949 12.9442C18.4134 12.741 18.478 12.511 18.4827 12.2759L30.9065 10.7627Z" fill="#D69250"/>
<path id="Vector_14" d="M30.6381 34.4062L31.1103 38.2838L17.4767 39.9444L16.6787 36.1064L17.4542 36.012L20.5563 35.6342L21.3318 35.5397L27.536 34.7841L30.6381 34.4062Z" fill="#C0BABA"/>
<path id="Vector_15" d="M55.6021 35.3009L55.7573 39.225L55.6245 39.2333C52.1951 39.6505 48.8121 40.3866 45.5194 41.4321C45.4128 41.4508 45.3112 41.4913 45.221 41.5511C45.1308 41.6108 45.0539 41.6885 44.995 41.7793C44.9452 41.9649 44.9473 42.1607 45.001 42.3452C45.0227 42.8191 44.9325 43.2914 44.7377 43.724C44.5429 44.1565 44.249 44.5371 43.8797 44.835C42.2898 46.1613 40.3919 47.0663 38.3605 47.4669C36.3341 47.854 34.3491 48.4331 32.4324 49.1963C30.5633 50.0693 28.7571 51.5879 28.2527 53.5854L22.638 54.2693C22.0544 54.3404 21.4655 54.1897 20.9879 53.847C20.5102 53.5043 20.1789 52.9946 20.0594 52.419L19.3722 49.1028C22.5767 48.2293 25.6767 47.0099 28.6175 45.4661C29.1828 45.1923 29.6969 44.8235 30.1375 44.3759C30.1955 44.3258 30.2344 44.2571 30.2476 44.1815C30.2665 44.0139 30.073 43.9115 29.9172 43.8597C26.2135 42.658 22.101 43.8515 18.3052 42.9916L18.1132 43.0308L17.4775 39.9443L31.1112 38.2838L31.3001 39.8348C31.3514 40.2457 31.5631 40.6195 31.8891 40.8747C32.2151 41.1299 32.6289 41.2458 33.04 41.197L40.7952 40.2524C41.206 40.2011 41.5799 39.9893 41.8351 39.6633C42.0903 39.3373 42.2062 38.9236 42.1573 38.5125L41.9684 36.9614L55.6021 35.3009Z" fill="#D69250"/>
<path id="Vector_16" d="M55.7569 39.2249L55.9025 43.1344C52.918 43.3905 50.0482 44.4037 47.5645 46.0781C47.5577 46.0868 47.5431 46.0965 47.5363 46.1052C47.365 46.2182 47.2359 46.3848 47.1694 46.5789C47.1028 46.7731 47.1025 46.9838 47.1684 47.1781C47.2344 47.3725 47.3629 47.5395 47.5338 47.653C47.7048 47.7666 47.9086 47.8203 48.1133 47.8057L48.1288 47.8038C50.8919 47.6798 53.0246 47.42 55.7622 47.0866L56.0519 47.0749L56.0896 48.0305C56.1118 48.6179 55.9125 49.1922 55.5311 49.6396C55.1497 50.0869 54.6141 50.3746 54.0306 50.4456L28.2523 53.5853C28.7567 51.5878 30.5629 50.0692 32.432 49.1962C34.3487 48.433 36.3337 47.8539 38.3602 47.4668C40.3915 47.0662 42.2894 46.1612 43.8793 44.8349C44.2486 44.537 44.5425 44.1564 44.7373 43.7239C44.9321 43.2913 45.0223 42.819 45.0006 42.3451C44.9469 42.1606 44.9448 41.9648 44.9946 41.7792C45.0535 41.6884 45.1304 41.6107 45.2206 41.551C45.3108 41.4912 45.4124 41.4507 45.519 41.432C48.8117 40.3865 52.1947 39.6504 55.6241 39.2332L55.7569 39.2249Z" fill="#9B6244"/>
<path id="Vector_17" d="M55.9025 43.1343L56.0519 47.0748L55.7621 47.0865C53.0245 47.4199 50.8918 47.6797 48.1288 47.8037L48.1132 47.8056C47.9085 47.8202 47.7048 47.7665 47.5338 47.653C47.3628 47.5394 47.2343 47.3724 47.1684 47.178C47.1024 46.9837 47.1028 46.773 47.1693 46.5788C47.2359 46.3847 47.3649 46.2181 47.5362 46.1051C47.543 46.0964 47.5576 46.0867 47.5644 46.078C50.0482 44.4036 52.918 43.3904 55.9025 43.1343Z" fill="#D69250"/>
<path id="Vector_18" d="M29.9172 43.8596C30.0731 43.9114 30.2665 44.0138 30.2476 44.1814C30.2345 44.257 30.1956 44.3257 30.1375 44.3758C29.6969 44.8234 29.1828 45.1922 28.6175 45.466C25.6767 47.0098 22.5767 48.2292 19.3722 49.1027L18.1132 43.0306L18.3052 42.9915C22.1011 43.8514 26.2135 42.6579 29.9172 43.8596Z" fill="#9B6244"/>
<path id="Vector_19" d="M15.476 18.1514C15.4345 18.9359 15.4645 19.7225 15.5655 20.5016L10.1369 21.1627C9.77826 18.7413 10.2982 16.2714 11.6027 14.2001C12.1679 13.307 12.9229 12.5495 13.814 11.9812C14.7051 11.4129 15.7105 11.0478 16.7586 10.912L16.9447 10.8893C17.3066 10.8458 17.6709 10.9476 17.9579 11.1723C18.2449 11.397 18.4312 11.7262 18.4759 12.088C18.4821 12.1504 18.4845 12.2132 18.483 12.276C18.4784 12.5111 18.4137 12.7411 18.2952 12.9443C18.1767 13.1474 18.0083 13.3169 17.8059 13.4367C16.934 13.9679 15.6306 15.2206 15.476 18.1514Z" fill="#A8A5B3"/>
<path id="Vector_20" d="M55.8528 28.1871C56.2641 28.137 56.6387 27.9256 56.8942 27.5993C57.1496 27.273 57.265 26.8585 57.2149 26.4472C57.1648 26.0358 56.9533 25.6612 56.627 25.4058C56.3007 25.1503 55.8863 25.0349 55.4749 25.085L50.8218 25.6518C51.2332 25.6017 51.6078 25.3902 51.8632 25.0639C52.1187 24.7376 52.2341 24.3232 52.184 23.9118C52.1338 23.5005 51.9224 23.1259 51.5961 22.8704C51.2698 22.615 50.8554 22.4996 50.444 22.5497L44.2399 23.3054C43.9686 23.3375 43.7107 23.4413 43.4929 23.6062C43.275 23.771 43.105 23.991 43.0004 24.2433L42.7833 24.2698C42.732 23.859 42.5202 23.4851 42.1942 23.2299C41.8682 22.9747 41.4545 22.8588 41.0433 22.9077L34.8392 23.6633C35.2505 23.6132 35.6251 23.4017 35.8806 23.0754C36.136 22.7491 36.2514 22.3347 36.2013 21.9234C36.1512 21.512 35.9397 21.1374 35.6134 20.8819C35.2871 20.6265 34.8727 20.5111 34.4613 20.5612L31.3593 20.9391C30.9479 20.9892 30.5733 21.2006 30.3178 21.5269C30.0624 21.8532 29.947 22.2676 29.9971 22.679C30.0472 23.0904 30.2587 23.465 30.585 23.7204C30.9113 23.9759 31.3257 24.0912 31.7371 24.0411L30.1861 24.23C29.8652 24.2694 29.5646 24.4077 29.326 24.6258C29.0874 24.8438 28.9226 25.1308 28.8547 25.4468C28.5761 25.3079 28.2631 25.253 27.954 25.2889L26.4029 25.4778C26.8143 25.4277 27.1889 25.2163 27.4443 24.89C27.6998 24.5637 27.8151 24.1493 27.765 23.7379C27.7149 23.3265 27.5035 22.9519 27.1772 22.6965C26.8509 22.441 26.4365 22.3257 26.0251 22.3758L22.923 22.7536C22.5117 22.8037 22.137 23.0152 21.8816 23.3415C21.6261 23.6678 21.5108 24.0822 21.5609 24.4935C21.611 24.9049 21.8225 25.2795 22.1488 25.535C22.4751 25.7904 22.8895 25.9058 23.3008 25.8557L21.7498 26.0446C21.3384 26.0947 20.9638 26.3061 20.7084 26.6325C20.4529 26.9588 20.3376 27.3732 20.3877 27.7845C20.4378 28.1959 20.6492 28.5705 20.9755 28.8259C21.3018 29.0814 21.7163 29.1968 22.1276 29.1467L18.25 29.6189C17.8387 29.669 17.4641 29.8805 17.2086 30.2068C16.9532 30.5331 16.8378 30.9475 16.8879 31.3589C16.938 31.7702 17.1495 32.1449 17.4758 32.4003C17.8021 32.6558 18.2165 32.7711 18.6279 32.721L17.0768 32.9099C16.6655 32.96 16.2908 33.1715 16.0354 33.4978C15.78 33.8241 15.6646 34.2385 15.7147 34.6499C15.7648 35.0612 15.9763 35.4358 16.3026 35.6913C16.6289 35.9467 17.0433 36.0621 17.4546 36.012L17.671 35.9856C17.5024 35.7681 17.3951 35.5095 17.3602 35.2365C17.3114 34.8253 17.4272 34.4116 17.6824 34.0856C17.9376 33.7596 18.3115 33.5478 18.7223 33.4965L22.5999 33.0243C22.1885 33.0744 21.7741 32.959 21.4478 32.7035C21.1215 32.4481 20.9101 32.0735 20.86 31.6621C20.8099 31.2508 20.9252 30.8363 21.1807 30.51C21.4361 30.1837 21.8107 29.9723 22.2221 29.9222L23.7731 29.7333C23.3618 29.7834 22.9473 29.668 22.621 29.4126C22.2947 29.1571 22.0833 28.7825 22.0332 28.3711C21.9831 27.9598 22.0984 27.5454 22.3539 27.2191C22.6093 26.8928 22.9839 26.6813 23.3953 26.6312L26.4974 26.2534C26.9087 26.2033 27.3231 26.3186 27.6495 26.5741C27.9758 26.8295 28.1872 27.2041 28.2373 27.6155C28.2874 28.0269 28.1721 28.4413 27.9166 28.7676C27.6612 29.0939 27.2866 29.3053 26.8752 29.3554L28.4262 29.1665C28.7354 29.1306 29.0484 29.1855 29.3269 29.3244C29.3949 29.0084 29.5597 28.7214 29.7983 28.5034C30.0369 28.2853 30.3375 28.147 30.6583 28.1076L32.2094 27.9187C31.798 27.9688 31.3836 27.8535 31.0573 27.598C30.731 27.3426 30.5195 26.968 30.4694 26.5566C30.4193 26.1452 30.5347 25.7308 30.7901 25.4045C31.0456 25.0782 31.4202 24.8668 31.8315 24.8167L34.9336 24.4388C35.345 24.3887 35.7594 24.5041 36.0857 24.7595C36.412 25.015 36.6235 25.3896 36.6736 25.801C36.7237 26.2123 36.6083 26.6267 36.3529 26.953C36.0974 27.2793 35.7228 27.4908 35.3114 27.5409L41.5156 26.7853C41.9267 26.7364 42.3405 26.8523 42.6665 27.1075C42.9925 27.3627 43.2043 27.7365 43.2555 28.1474L43.4727 28.1209C43.5773 27.8686 43.7473 27.6486 43.9652 27.4838C44.183 27.3189 44.4408 27.2151 44.7121 27.183L50.9163 26.4273C51.3276 26.3772 51.7421 26.4926 52.0684 26.748C52.3947 27.0035 52.6061 27.3781 52.6562 27.7894C52.7063 28.2008 52.591 28.6152 52.3355 28.9415C52.0801 29.2678 51.7055 29.4793 51.2941 29.5294L55.9472 28.9626C56.2902 28.9222 56.637 28.9965 56.9333 29.174C57.2296 29.3515 57.4587 29.6222 57.5849 29.9437C57.6044 29.8131 57.6071 29.6805 57.5927 29.5493C57.5414 29.1384 57.3297 28.7646 57.0037 28.5094C56.6776 28.2541 56.2639 28.1383 55.8528 28.1871Z" fill="#FFDF75"/>
<path id="Vector_21" d="M32.8507 39.6458L40.6059 38.7013L39.6613 30.9461L31.9061 31.8906L32.8507 39.6458ZM32.7761 32.5717L38.9803 31.816L39.7359 38.0202L33.5318 38.7758L32.7761 32.5717Z" fill="#323236"/>
<path id="Vector_22" d="M43.1416 33.6706L43.0471 32.8951L41.4961 33.084L41.9684 36.9616L55.602 35.301L55.5434 33.7341L44.8815 35.0327C44.4702 35.0828 44.0558 34.9675 43.7295 34.712C43.4032 34.4566 43.1917 34.082 43.1416 33.6706Z" fill="#7D7B85"/>
<path id="Vector_23" d="M27.8202 37.1105L17.1584 38.4091L17.4776 39.9442L31.1112 38.2837L30.6389 34.4061L29.0879 34.595L29.1823 35.3705C29.2324 35.7819 29.1171 36.1963 28.8616 36.5226C28.6062 36.8489 28.2316 37.0604 27.8202 37.1105Z" fill="#7D7B85"/>
<path id="Vector_24" d="M15.7548 39.9584L18.406 52.7504C18.6048 53.7098 19.1568 54.5595 19.9527 55.1309C20.7486 55.7024 21.7301 55.9539 22.7027 55.8356L54.3439 51.9818C55.3166 51.8634 56.2093 51.3837 56.8449 50.6379C57.4805 49.892 57.8126 48.9346 57.7752 47.9554L57.2784 34.9009C57.256 34.3136 57.4551 33.7394 57.8361 33.292C58.2172 32.8445 58.7525 32.5566 59.3358 32.4852L60.1423 32.387L60.1085 30.8171L55.4554 31.3838L55.602 35.3011L55.7573 39.2251L55.9029 43.1347L56.0523 47.0752L56.0899 48.0308C56.1121 48.6182 55.9128 49.1925 55.5314 49.6399C55.15 50.0872 54.6145 50.3749 54.0309 50.4459L22.6379 54.2694C22.0544 54.3406 21.4654 54.1899 20.9878 53.8472C20.5102 53.5045 20.1788 52.9948 20.0593 52.4192L19.3721 49.103L18.1131 43.0309L17.4775 39.9445L16.6795 36.1066L12.0264 36.6733L12.3704 38.2055L13.1769 38.1073C13.7605 38.0363 14.3494 38.1872 14.8268 38.5301C15.3043 38.873 15.6355 39.3828 15.7548 39.9584Z" fill="#3C3B40"/>
<g id="Group">
<path id="Vector_25" d="M20.047 43.2517L19.6673 41.2517L31.3001 39.8348L31.1112 38.2838L17.4775 39.9443L18.1132 43.0308L18.3052 42.9916C18.8793 43.1175 19.4612 43.2044 20.047 43.2517Z" fill="#BD722A"/>
<path id="Vector_26" d="M23.3109 52.6133C22.9169 52.6622 22.5191 52.5593 22.1983 52.3254C21.8774 52.0916 21.6576 51.7444 21.5835 51.3543L21.0566 48.5852C20.4927 48.7633 19.9268 48.944 19.3688 49.1056L20.0561 52.4219C20.1762 52.9976 20.5083 53.5072 20.9867 53.8494C21.465 54.1916 22.0545 54.3415 22.6382 54.2693L28.253 53.5854C28.4134 52.9853 28.6815 52.4193 29.0443 51.915L23.3109 52.6133Z" fill="#BD722A"/>
<path id="Vector_27" d="M33.2287 42.7481L40.9839 41.8036C41.3952 41.7535 41.7698 41.542 42.0253 41.2157C42.2807 40.8894 42.3961 40.475 42.346 40.0636L42.1571 38.5126C42.2059 38.9237 42.0901 39.3375 41.8348 39.6635C41.5796 39.9895 41.2058 40.2012 40.7949 40.2525L33.0398 41.1971C32.6286 41.2459 32.2149 41.1301 31.8889 40.8749C31.5629 40.6196 31.3511 40.2458 31.2998 39.835L31.4887 41.386C31.5388 41.7974 31.7503 42.172 32.0766 42.4274C32.4029 42.6829 32.8173 42.7982 33.2287 42.7481Z" fill="#BD722A"/>
<path id="Vector_28" d="M41.9688 36.9614L42.1577 38.5125L53.7904 37.0956L53.9235 39.4806C54.4883 39.3937 55.0548 39.3027 55.6249 39.2333L55.7576 39.225L55.6024 35.3009L41.9688 36.9614Z" fill="#BD722A"/>
</g>
<path id="Vector_29" d="M54.3448 47.2593L54.3506 47.3649C54.3723 47.7613 54.2422 48.1511 53.9869 48.4551C53.7316 48.7591 53.3701 48.9546 52.9759 49.0017L29.0434 51.9166C28.6807 52.4204 28.4125 52.9858 28.2518 53.5855L54.0301 50.4458C54.6136 50.3748 55.1492 50.0871 55.5306 49.6397C55.912 49.1924 56.1113 48.6181 56.0891 48.0307L56.0515 47.0751L55.7617 47.0868L54.3448 47.2593Z" fill="#734832"/>
<path id="Vector_30" d="M53.9227 39.4805L54.1378 43.4169C54.7123 43.3076 55.2979 43.2111 55.9048 43.134L55.7592 39.2245L55.6241 39.2331C55.0541 39.3025 54.4875 39.3936 53.9227 39.4805Z" fill="#734832"/>
<path id="Vector_31" d="M54.3452 47.2594L55.7621 47.0869L56.0519 47.0752L55.9025 43.1346C55.2952 43.2086 54.71 43.3082 54.1354 43.4175L54.3452 47.2594Z" fill="#BD722A"/>
<path id="Vector_32" d="M20.0471 43.2516C19.4613 43.2043 18.8793 43.1174 18.3052 42.9915L18.1132 43.0306L19.3722 49.1027C19.9303 48.9418 20.4962 48.7611 21.06 48.5823L20.0471 43.2516Z" fill="#734832"/>
<path id="Vector_33" d="M50.7275 13.8506C50.9787 14.5991 51.1502 15.372 51.239 16.1564L52.79 15.9675C52.7011 15.187 52.5414 14.4162 52.3128 13.6646C51.6427 13.7462 51.1557 13.8055 50.7275 13.8506Z" fill="#BD722A"/>
<path id="Vector_34" d="M47.6229 10.5274C48.5649 10.7723 49.933 11.5431 50.7277 13.8483C51.1561 13.8055 51.6431 13.7462 52.3132 13.6646C51.4596 10.8566 49.8936 9.95334 48.9197 9.64696C48.6945 9.57927 48.4903 9.45516 48.3265 9.28642C48.1627 9.11767 48.0447 8.90987 47.9838 8.68273L46.4172 8.87354L46.4576 9.20468C46.4961 9.51683 46.628 9.81008 46.8359 10.0461C47.0438 10.2821 47.3181 10.4498 47.6229 10.5274Z" fill="#734832"/>
<path id="Vector_35" d="M15.4761 18.1512C15.4345 18.9357 15.4645 19.7223 15.5655 20.5014L17.1166 20.3125C17.0146 19.5301 16.9956 18.7392 17.0598 17.9528C16.5502 18.0204 16.0267 18.0841 15.4761 18.1512Z" fill="#734832"/>
<path id="Vector_36" d="M19.2758 13.98C19.553 13.8315 19.779 13.6028 19.9242 13.3238C20.0694 13.0448 20.127 12.7285 20.0895 12.4162L20.0492 12.0851L18.4827 12.2759C18.478 12.511 18.4134 12.741 18.2949 12.9442C18.1763 13.1473 18.0079 13.3168 17.8055 13.4366C16.9337 13.9678 15.6302 15.2205 15.4756 18.1513C16.0263 18.0842 16.5497 18.0205 17.0594 17.9529C17.2771 15.5212 18.4201 14.4439 19.2758 13.98Z" fill="#BD722A"/>
<path id="Vector_37" d="M55.7032 14.0388C55.2919 14.0889 54.8775 13.9735 54.5512 13.7181C54.2249 13.4626 54.0134 13.088 53.9633 12.6767C53.813 11.4426 53.1786 10.3188 52.1997 9.55242C51.2208 8.78607 49.9775 8.43999 48.7434 8.5903C48.5819 8.60905 48.4186 8.57644 48.2767 8.49708C48.1348 8.41773 48.0215 8.29567 47.953 8.14825C47.9351 8.26421 47.9325 8.382 47.9453 8.49863C47.9542 8.56077 47.9669 8.6223 47.9834 8.68286C48.0444 8.91 48.1624 9.1178 48.3262 9.28654C48.49 9.45529 48.6942 9.5794 48.9194 9.64709C49.8933 9.95347 51.4593 10.8567 52.3128 13.6647C52.5414 14.4163 52.7012 15.1871 52.7901 15.9677L58.2187 15.3065C58.1532 14.788 58.054 14.2742 57.922 13.7686L55.7032 14.0388Z" fill="#7D7B85"/>
<path id="Vector_38" d="M17.723 12.3684C16.4889 12.5187 15.3651 13.1531 14.5987 14.132C13.8324 15.1109 13.4863 16.3542 13.6366 17.5882C13.6867 17.9996 13.5714 18.414 13.3159 18.7403C13.0605 19.0666 12.6859 19.2781 12.2745 19.3282L10.0557 19.5984C10.0489 20.121 10.076 20.6435 10.1369 21.1626L15.5655 20.5014C15.4644 19.7224 15.4345 18.9357 15.476 18.1512C15.6306 15.2204 16.934 13.9677 17.8059 13.4365C18.0083 13.3167 18.1767 13.1473 18.2952 12.9441C18.4137 12.741 18.4784 12.511 18.483 12.2758C18.4845 12.2131 18.4821 12.1503 18.4759 12.0878C18.4602 11.9715 18.4294 11.8578 18.3843 11.7495C18.3531 11.9091 18.2724 12.0548 18.1537 12.1659C18.035 12.277 17.8843 12.3478 17.723 12.3684Z" fill="#7D7B85"/>
<path id="Vector_39" d="M36.9375 34.426C36.8853 33.9977 36.4958 33.6927 36.0675 33.7449C35.6392 33.7971 35.3343 34.1866 35.3864 34.6149L35.5754 36.1659C35.6275 36.5942 36.017 36.8991 36.4453 36.847C36.8736 36.7948 37.1786 36.4053 37.1264 35.977L36.9375 34.426Z" fill="#FFAF3F"/>
<path id="Vector_40" d="M43.1761 53.3419L26.1146 55.42C25.258 55.5243 24.6482 56.3033 24.7525 57.1599C24.8568 58.0165 25.6358 58.6264 26.4925 58.5221L43.5539 56.444C44.4105 56.3397 45.0203 55.5607 44.916 54.7041C44.8117 53.8475 44.0327 53.2376 43.1761 53.3419Z" fill="#67666E"/>
<path id="Vector_41" d="M50.1557 52.4918L48.6046 52.6807C47.748 52.7851 47.1382 53.5641 47.2425 54.4207C47.3468 55.2773 48.1258 55.8871 48.9825 55.7828L50.5335 55.5939C51.3901 55.4895 51.9999 54.7105 51.8956 53.8539C51.7913 52.9973 51.0123 52.3875 50.1557 52.4918Z" fill="#67666E"/>
<path id="Vector_42" d="M58.1597 34.2022C58.5881 34.15 58.893 33.7605 58.8408 33.3322C58.7886 32.9039 58.3991 32.599 57.9708 32.6511C57.5425 32.7033 57.2376 33.0928 57.2898 33.5211C57.3419 33.9494 57.7314 34.2544 58.1597 34.2022Z" fill="#FFAF3F"/>
<path id="Vector_43" d="M57.2298 52.417C57.6581 52.3649 57.963 51.9754 57.9109 51.5471C57.8587 51.1187 57.4692 50.8138 57.0409 50.866C56.6126 50.9182 56.3077 51.3077 56.3598 51.736C56.412 52.1643 56.8015 52.4692 57.2298 52.417Z" fill="#FFAF3F"/>
<path id="Vector_44" d="M20.0045 56.9507C20.4328 56.8986 20.7377 56.5091 20.6855 56.0807C20.6334 55.6524 20.2439 55.3475 19.8156 55.3997C19.3873 55.4519 19.0823 55.8414 19.1345 56.2697C19.1867 56.698 19.5762 57.0029 20.0045 56.9507Z" fill="#FFAF3F"/>
<path id="Vector_45" d="M14.7301 39.4917C15.1584 39.4396 15.4633 39.0501 15.4111 38.6218C15.359 38.1935 14.9695 37.8885 14.5411 37.9407C14.1128 37.9929 13.8079 38.3824 13.8601 38.8107C13.9122 39.239 14.3017 39.5439 14.7301 39.4917Z" fill="#FFAF3F"/>
<path id="Vector_46" d="M53.5162 31.6199L49.6386 32.0922C48.9962 32.1705 48.5388 32.7547 48.617 33.3972C48.6953 34.0396 49.2795 34.497 49.922 34.4188L53.7996 33.9465C54.442 33.8682 54.8994 33.284 54.8212 32.6415C54.7429 31.9991 54.1587 31.5417 53.5162 31.6199Z" fill="#D4CBCC"/>
<path id="Vector_47" d="M22.496 35.3978L18.6184 35.87C17.9759 35.9483 17.5185 36.5325 17.5968 37.175C17.675 37.8175 18.2593 38.2748 18.9017 38.1966L22.7793 37.7243C23.4218 37.6461 23.8792 37.0618 23.8009 36.4193C23.7227 35.7769 23.1384 35.3195 22.496 35.3978Z" fill="#D4CBCC"/>
<path id="Vector_48" d="M46.5366 32.4697L44.9855 32.6586C44.3431 32.7369 43.8857 33.3211 43.9639 33.9636C44.0422 34.606 44.6265 35.0634 45.2689 34.9852L46.8199 34.7963C47.4624 34.718 47.9198 34.1338 47.8415 33.4913C47.7633 32.8488 47.179 32.3914 46.5366 32.4697Z" fill="#D4CBCC"/>
<path id="Vector_49" d="M27.1489 34.831L25.5978 35.0199C24.9554 35.0982 24.498 35.6824 24.5763 36.3249C24.6545 36.9674 25.2388 37.4247 25.8812 37.3465L27.4323 37.1576C28.0747 37.0793 28.5321 36.4951 28.4538 35.8526C28.3756 35.2102 27.7913 34.7528 27.1489 34.831Z" fill="#D4CBCC"/>
<path id="Vector_50" d="M30.9072 10.7627L35.5603 10.196L35.8437 12.5225L31.1906 13.0893L30.9072 10.7627Z" fill="#E0D7D8"/>
</g>
<defs>
<filter id="filter0_d_1447_13199" x="0.0262451" y="0.898438" width="70.499" height="72.2778" filterUnits="userSpaceOnUse" color-interpolation-filters="sRGB">
<feFlood flood-opacity="0" result="BackgroundImageFix"/>
<feColorMatrix in="SourceAlpha" type="matrix" values="0 0 0 0 0 0 0 0 0 0 0 0 0 0 0 0 0 0 127 0" result="hardAlpha"/>
<feOffset dy="4"/>
<feGaussianBlur stdDeviation="5"/>
<feComposite in2="hardAlpha" operator="out"/>
<feColorMatrix type="matrix" values="0 0 0 0 0 0 0 0 0 0 0 0 0 0 0 0 0 0 0.25 0"/>
<feBlend mode="normal" in2="BackgroundImageFix" result="effect1_dropShadow_1447_13199"/>
<feBlend mode="normal" in="SourceGraphic" in2="effect1_dropShadow_1447_13199" result="shape"/>
</filter>
</defs>
</svg>
