<svg width="19" height="18" viewBox="0 0 19 18" fill="none" xmlns="http://www.w3.org/2000/svg">
<g id="Frame 440">
<rect id="Rectangle 4239" x="0.5" width="18" height="18" rx="3" fill="#5EFF50"/>
<g id="&#240;&#159;&#142;&#168; Icon &#208;&#161;olor">
<mask id="path-2-outside-1_5412_59854" maskUnits="userSpaceOnUse" x="3.5" y="3" width="12" height="12" fill="black">
<rect fill="white" x="3.5" y="3" width="12" height="12"/>
<path d="M13.875 8.375H10.125V4.625C10.125 4.27938 9.845 4 9.5 4C9.155 4 8.875 4.27938 8.875 4.625V8.375H5.125C4.78 8.375 4.5 8.65438 4.5 9C4.5 9.34562 4.78 9.625 5.125 9.625H8.875V13.375C8.875 13.7206 9.155 14 9.5 14C9.845 14 10.125 13.7206 10.125 13.375V9.625H13.875C14.22 9.625 14.5 9.34562 14.5 9C14.5 8.65438 14.22 8.375 13.875 8.375Z"/>
</mask>
<path d="M13.875 8.375H10.125V4.625C10.125 4.27938 9.845 4 9.5 4C9.155 4 8.875 4.27938 8.875 4.625V8.375H5.125C4.78 8.375 4.5 8.65438 4.5 9C4.5 9.34562 4.78 9.625 5.125 9.625H8.875V13.375C8.875 13.7206 9.155 14 9.5 14C9.845 14 10.125 13.7206 10.125 13.375V9.625H13.875C14.22 9.625 14.5 9.34562 14.5 9C14.5 8.65438 14.22 8.375 13.875 8.375Z" fill="white"/>
<path d="M10.125 8.375H9.925V8.575H10.125V8.375ZM8.875 8.375V8.575H9.075V8.375H8.875ZM8.875 9.625H9.075V9.425H8.875V9.625ZM10.125 9.625V9.425H9.925V9.625H10.125ZM13.875 8.175H10.125V8.575H13.875V8.175ZM10.325 8.375V4.625H9.925V8.375H10.325ZM10.325 4.625C10.325 4.16879 9.95533 3.8 9.5 3.8V4.2C9.73467 4.2 9.925 4.38996 9.925 4.625H10.325ZM9.5 3.8C9.04467 3.8 8.675 4.16879 8.675 4.625H9.075C9.075 4.38996 9.26533 4.2 9.5 4.2V3.8ZM8.675 4.625V8.375H9.075V4.625H8.675ZM8.875 8.175H5.125V8.575H8.875V8.175ZM5.125 8.175C4.66967 8.175 4.3 8.54379 4.3 9H4.7C4.7 8.76496 4.89033 8.575 5.125 8.575V8.175ZM4.3 9C4.3 9.45621 4.66967 9.825 5.125 9.825V9.425C4.89033 9.425 4.7 9.23504 4.7 9H4.3ZM5.125 9.825H8.875V9.425H5.125V9.825ZM8.675 9.625V13.375H9.075V9.625H8.675ZM8.675 13.375C8.675 13.8312 9.04467 14.2 9.5 14.2V13.8C9.26533 13.8 9.075 13.61 9.075 13.375H8.675ZM9.5 14.2C9.95533 14.2 10.325 13.8312 10.325 13.375H9.925C9.925 13.61 9.73467 13.8 9.5 13.8V14.2ZM10.325 13.375V9.625H9.925V13.375H10.325ZM10.125 9.825H13.875V9.425H10.125V9.825ZM13.875 9.825C14.3303 9.825 14.7 9.45621 14.7 9H14.3C14.3 9.23504 14.1097 9.425 13.875 9.425V9.825ZM14.7 9C14.7 8.54379 14.3303 8.175 13.875 8.175V8.575C14.1097 8.575 14.3 8.76496 14.3 9H14.7Z" fill="black" mask="url(#path-2-outside-1_5412_59854)"/>
</g>
</g>
</svg>
