<svg width="18" height="18" viewBox="0 0 18 18" fill="none" xmlns="http://www.w3.org/2000/svg">
<g id="Frame 440">
<rect id="Rectangle 4239" width="18" height="18" rx="3" fill="#5EFF50"/>
<g id="&#240;&#159;&#142;&#168; Icon &#208;&#161;olor">
<mask id="path-2-outside-1_6428_36925" maskUnits="userSpaceOnUse" x="3" y="3" width="12" height="12" fill="black">
<rect fill="white" x="3" y="3" width="12" height="12"/>
<path d="M13.375 8.375H9.625V4.625C9.625 4.27938 9.345 4 9 4C8.655 4 8.375 4.27938 8.375 4.625V8.375H4.625C4.28 8.375 4 8.65438 4 9C4 9.34562 4.28 9.625 4.625 9.625H8.375V13.375C8.375 13.7206 8.655 14 9 14C9.345 14 9.625 13.7206 9.625 13.375V9.625H13.375C13.72 9.625 14 9.34562 14 9C14 8.65438 13.72 8.375 13.375 8.375Z"/>
</mask>
<path d="M13.375 8.375H9.625V4.625C9.625 4.27938 9.345 4 9 4C8.655 4 8.375 4.27938 8.375 4.625V8.375H4.625C4.28 8.375 4 8.65438 4 9C4 9.34562 4.28 9.625 4.625 9.625H8.375V13.375C8.375 13.7206 8.655 14 9 14C9.345 14 9.625 13.7206 9.625 13.375V9.625H13.375C13.72 9.625 14 9.34562 14 9C14 8.65438 13.72 8.375 13.375 8.375Z" fill="white"/>
<path d="M9.625 8.375H9.425V8.575H9.625V8.375ZM8.375 8.375V8.575H8.575V8.375H8.375ZM8.375 9.625H8.575V9.425H8.375V9.625ZM9.625 9.625V9.425H9.425V9.625H9.625ZM13.375 8.175H9.625V8.575H13.375V8.175ZM9.825 8.375V4.625H9.425V8.375H9.825ZM9.825 4.625C9.825 4.16879 9.45533 3.8 9 3.8V4.2C9.23467 4.2 9.425 4.38996 9.425 4.625H9.825ZM9 3.8C8.54467 3.8 8.175 4.16879 8.175 4.625H8.575C8.575 4.38996 8.76533 4.2 9 4.2V3.8ZM8.175 4.625V8.375H8.575V4.625H8.175ZM8.375 8.175H4.625V8.575H8.375V8.175ZM4.625 8.175C4.16967 8.175 3.8 8.54379 3.8 9H4.2C4.2 8.76496 4.39033 8.575 4.625 8.575V8.175ZM3.8 9C3.8 9.45621 4.16967 9.825 4.625 9.825V9.425C4.39033 9.425 4.2 9.23504 4.2 9H3.8ZM4.625 9.825H8.375V9.425H4.625V9.825ZM8.175 9.625V13.375H8.575V9.625H8.175ZM8.175 13.375C8.175 13.8312 8.54467 14.2 9 14.2V13.8C8.76533 13.8 8.575 13.61 8.575 13.375H8.175ZM9 14.2C9.45533 14.2 9.825 13.8312 9.825 13.375H9.425C9.425 13.61 9.23467 13.8 9 13.8V14.2ZM9.825 13.375V9.625H9.425V13.375H9.825ZM9.625 9.825H13.375V9.425H9.625V9.825ZM13.375 9.825C13.8303 9.825 14.2 9.45621 14.2 9H13.8C13.8 9.23504 13.6097 9.425 13.375 9.425V9.825ZM14.2 9C14.2 8.54379 13.8303 8.175 13.375 8.175V8.575C13.6097 8.575 13.8 8.76496 13.8 9H14.2Z" fill="black" mask="url(#path-2-outside-1_6428_36925)"/>
</g>
</g>
</svg>
