<svg width="18" height="18" viewBox="0 0 18 18" fill="none" xmlns="http://www.w3.org/2000/svg">
<rect width="18" height="18" rx="3" fill="#FFDE50"/>
<path d="M13.0834 8.41683H9.58337V4.91683C9.58337 4.59425 9.32204 4.3335 9.00004 4.3335C8.67804 4.3335 8.41671 4.59425 8.41671 4.91683V8.41683H4.91671C4.59471 8.41683 4.33337 8.67758 4.33337 9.00016C4.33337 9.32275 4.59471 9.5835 4.91671 9.5835H8.41671V13.0835C8.41671 13.4061 8.67804 13.6668 9.00004 13.6668C9.32204 13.6668 9.58337 13.4061 9.58337 13.0835V9.5835H13.0834C13.4054 9.5835 13.6667 9.32275 13.6667 9.00016C13.6667 8.67758 13.4054 8.41683 13.0834 8.41683Z" fill="#383B46"/>
<mask id="mask0_1447_13183" style="mask-type:luminance" maskUnits="userSpaceOnUse" x="4" y="4" width="10" height="10">
<path d="M13.0834 8.41683H9.58337V4.91683C9.58337 4.59425 9.32204 4.3335 9.00004 4.3335C8.67804 4.3335 8.41671 4.59425 8.41671 4.91683V8.41683H4.91671C4.59471 8.41683 4.33337 8.67758 4.33337 9.00016C4.33337 9.32275 4.59471 9.5835 4.91671 9.5835H8.41671V13.0835C8.41671 13.4061 8.67804 13.6668 9.00004 13.6668C9.32204 13.6668 9.58337 13.4061 9.58337 13.0835V9.5835H13.0834C13.4054 9.5835 13.6667 9.32275 13.6667 9.00016C13.6667 8.67758 13.4054 8.41683 13.0834 8.41683Z" fill="white"/>
</mask>
<g mask="url(#mask0_1447_13183)">
</g>
</svg>
