<svg width="15" height="15" viewBox="0 0 15 15" fill="none" xmlns="http://www.w3.org/2000/svg">
<g id="Next Button">
<path id="Vector" d="M2.49116 0.576384C2.22399 0.214461 1.85864 0.00719528 1.47549 0.000183819C1.09233 -0.00682765 0.722756 0.18699 0.448061 0.538998C0.173366 0.891005 0.0160543 1.37237 0.0107327 1.87719C0.00541112 2.38202 0.152516 2.86895 0.419685 3.23088L3.73973 7.51171L0.419685 11.7926C0.286701 11.9663 0.181148 12.1731 0.109117 12.4009C0.0370851 12.6287 0 12.873 0 13.1198C0 13.3666 0.0370851 13.6109 0.109117 13.8387C0.181148 14.0665 0.286701 14.2733 0.419685 14.447C0.551583 14.6223 0.708506 14.7613 0.881402 14.8562C1.0543 14.9511 1.23975 15 1.42705 15C1.61435 15 1.7998 14.9511 1.97269 14.8562C2.14559 14.7613 2.30251 14.6223 2.43441 14.447L6.69087 8.83896C6.82386 8.66518 6.92941 8.45843 7.00144 8.23063C7.07347 8.00283 7.11056 7.75849 7.11056 7.51171C7.11056 7.26494 7.07347 7.0206 7.00144 6.7928C6.92941 6.565 6.82386 6.35825 6.69087 6.18447L2.49116 0.576384ZM14.5511 6.18447L10.2947 0.576384C10.0275 0.224376 9.66515 0.0266204 9.28731 0.0266204C8.90948 0.0266204 8.54712 0.224376 8.27995 0.576384C8.01278 0.928392 7.86269 1.40582 7.86269 1.90363C7.86269 2.40144 8.01278 2.87887 8.27995 3.23088L11.5432 7.51171L8.27995 11.7926C8.14697 11.9663 8.04142 12.1731 7.96938 12.4009C7.89735 12.6287 7.86027 12.873 7.86027 13.1198C7.86027 13.3666 7.89735 13.6109 7.96938 13.8387C8.04142 14.0665 8.14697 14.2733 8.27995 14.447C8.41185 14.6223 8.56877 14.7613 8.74167 14.8562C8.91457 14.9511 9.10001 15 9.28731 15C9.47462 15 9.66006 14.9511 9.83296 14.8562C10.0059 14.7613 10.1628 14.6223 10.2947 14.447L14.5511 8.83896C14.6879 8.67017 14.7979 8.46735 14.8749 8.24222C14.9518 8.01709 14.9942 7.77411 14.9994 7.5273C15.0047 7.28049 14.9728 7.03476 14.9056 6.80428C14.8384 6.57379 14.7372 6.36314 14.6079 6.18447H14.5511Z" fill="white"/>
</g>
</svg>
