<svg width="15" height="15" viewBox="0 0 15 15" fill="none" xmlns="http://www.w3.org/2000/svg">
<g id="Next Button">
<path id="Vector" d="M6.70391 0.553819C6.57176 0.378333 6.41453 0.239046 6.24129 0.143992C6.06806 0.0489387 5.88225 0 5.69459 0C5.50692 0 5.32111 0.0489387 5.14788 0.143992C4.97464 0.239046 4.81741 0.378333 4.68526 0.553819L0.420503 6.17068C0.28726 6.34473 0.181502 6.55181 0.10933 6.77996C0.0371581 7.00812 0 7.25284 0 7.5C0 7.74716 0.0371581 7.99188 0.10933 8.22004C0.181502 8.44819 0.28726 8.65527 0.420503 8.82932L4.68526 14.4462C4.81741 14.6217 4.97464 14.761 5.14788 14.856C5.32111 14.9511 5.50692 15 5.69459 15C5.88225 15 6.06806 14.9511 6.24129 14.856C6.41453 14.761 6.57176 14.6217 6.70391 14.4462C6.83715 14.2721 6.94291 14.0651 7.01508 13.8369C7.08726 13.6087 7.12441 13.364 7.12441 13.1169C7.12441 12.8697 7.08726 12.625 7.01508 12.3968C6.94291 12.1687 6.83715 11.9616 6.70391 11.7875L3.43426 7.5L6.70391 3.21247C6.83715 3.03841 6.94291 2.83134 7.01508 2.60318C7.08726 2.37502 7.12441 2.13031 7.12441 1.88314C7.12441 1.63598 7.08726 1.39126 7.01508 1.1631C6.94291 0.934949 6.83715 0.727872 6.70391 0.553819ZM11.253 7.5L14.5795 3.21247C14.8472 2.85991 14.9976 2.38174 14.9976 1.88314C14.9976 1.38455 14.8472 0.906377 14.5795 0.553819C14.3118 0.201261 13.9487 0.00319525 13.5702 0.00319524C13.1916 0.00319524 12.8285 0.201261 12.5608 0.553819L8.29609 6.17068C8.16284 6.34473 8.05709 6.55181 7.98491 6.77996C7.91274 7.00812 7.87558 7.25284 7.87558 7.5C7.87558 7.74716 7.91274 7.99188 7.98491 8.22004C8.05709 8.44819 8.16284 8.65527 8.29609 8.82932L12.5608 14.4462C12.693 14.6217 12.8502 14.761 13.0235 14.856C13.1967 14.9511 13.3825 15 13.5702 15C13.7578 15 13.9436 14.9511 14.1169 14.856C14.2901 14.761 14.4473 14.6217 14.5795 14.4462C14.7127 14.2721 14.8185 14.0651 14.8907 13.8369C14.9628 13.6087 15 13.364 15 13.1169C15 12.8697 14.9628 12.625 14.8907 12.3968C14.8185 12.1687 14.7127 11.9616 14.5795 11.7875L11.253 7.5Z" fill="white"/>
</g>
</svg>
