<svg width="14" height="14" viewBox="0 0 14 14" fill="none" xmlns="http://www.w3.org/2000/svg">
<g id="podium (4) 1" clip-path="url(#clip0_6428_36899)">
<path id="Vector" d="M13.5898 9.87109H9.46094C9.23423 9.87109 9.05078 10.0545 9.05078 10.2812V14H13.5898C13.8166 14 14 13.8166 14 13.5898V10.2812C14 10.0545 13.8166 9.87109 13.5898 9.87109Z" fill="#FE9923"/>
<path id="Vector_2" d="M4.53906 9.05078H0.410156C0.183449 9.05078 0 9.23423 0 9.46094V13.5898C0 13.8166 0.183449 14 0.410156 14H4.94922V9.46094C4.94922 9.23423 4.76577 9.05078 4.53906 9.05078Z" fill="#FEA832"/>
<path id="Vector_3" d="M9.87109 7V14H4.12891V7C4.12891 6.77029 4.30935 6.58984 4.53906 6.58984H9.46094C9.69065 6.58984 9.87109 6.77029 9.87109 7Z" fill="#FEDB41"/>
<path id="Vector_4" d="M9.87109 7V14H7V6.58984H9.46094C9.69065 6.58984 9.87109 6.77029 9.87109 7Z" fill="#FFCC33"/>
<path id="Vector_5" d="M9.63291 2.01248L8.07429 1.76638L7.3934 0.238361C7.32783 0.0988808 7.16374 -0.00775986 6.99968 0.000443262C6.86846 0.000443262 6.74538 0.0660956 6.65518 0.230158L5.9415 1.73357L4.38288 1.93865C4.04658 1.9879 3.89887 2.39805 4.14502 2.63594L5.26064 3.75157L4.97356 5.30196C4.90791 5.63826 5.26064 5.90076 5.56416 5.7449L6.96692 5.03123L6.99968 5.04766L8.35322 5.77774C8.64854 5.94178 9.00947 5.69568 8.95202 5.35938L8.70593 3.80076L9.84614 2.70972C10.1005 2.48008 9.96921 2.0617 9.63291 2.01248Z" fill="#FEDB41"/>
<path id="Vector_6" d="M7.41016 8.64062V11.1016C7.41016 11.3312 7.22971 11.5117 7 11.5117C6.77029 11.5117 6.58984 11.3312 6.58984 11.1016V9.63318L6.46677 9.74802C6.31091 9.91208 6.04846 9.91208 5.89258 9.74802C5.72852 9.59216 5.72852 9.32966 5.89258 9.1738L6.71289 8.35349C6.79492 8.27148 6.89336 8.23047 7 8.23047C7.20508 8.23047 7.41016 8.39453 7.41016 8.64062Z" fill="#0D70B2"/>
<path id="Vector_7" d="M7.41016 8.64062V11.1016C7.41016 11.3312 7.22971 11.5117 7 11.5117V8.23047C7.20508 8.23047 7.41016 8.39453 7.41016 8.64062Z" fill="#095C92"/>
<path id="Vector_8" d="M9.84646 2.70974L8.70625 3.80079L8.95234 5.35941C9.00977 5.69571 8.64883 5.9418 8.35354 5.77777L7 5.04766V0.000443262C7.16406 -0.00775986 7.32815 0.0988808 7.39372 0.238361L8.07461 1.76641L9.63323 2.01251C9.96953 2.0617 10.1008 2.48008 9.84646 2.70974Z" fill="#FFCC33"/>
</g>
<defs>
<clipPath id="clip0_6428_36899">
<rect width="14" height="14" fill="white"/>
</clipPath>
</defs>
</svg>
