<svg width="15" height="14" viewBox="0 0 15 14" fill="none" xmlns="http://www.w3.org/2000/svg">
<g id="podium (4) 1" clip-path="url(#clip0_5412_59828)">
<path id="Vector" d="M14.0898 9.87109H9.96094C9.73423 9.87109 9.55078 10.0545 9.55078 10.2812V14H14.0898C14.3166 14 14.5 13.8166 14.5 13.5898V10.2812C14.5 10.0545 14.3166 9.87109 14.0898 9.87109Z" fill="#FE9923"/>
<path id="Vector_2" d="M5.03906 9.05078H0.910156C0.683449 9.05078 0.5 9.23423 0.5 9.46094V13.5898C0.5 13.8166 0.683449 14 0.910156 14H5.44922V9.46094C5.44922 9.23423 5.26577 9.05078 5.03906 9.05078Z" fill="#FEA832"/>
<path id="Vector_3" d="M10.3711 7V14H4.62891V7C4.62891 6.77029 4.80935 6.58984 5.03906 6.58984H9.96094C10.1907 6.58984 10.3711 6.77029 10.3711 7Z" fill="#FEDB41"/>
<path id="Vector_4" d="M10.3711 7V14H7.5V6.58984H9.96094C10.1907 6.58984 10.3711 6.77029 10.3711 7Z" fill="#FFCC33"/>
<path id="Vector_5" d="M10.1332 2.01223L8.57459 1.76614L7.89371 0.238117C7.82814 0.0986366 7.66405 -0.008004 7.49998 0.000199121C7.36876 0.000199121 7.24569 0.0658515 7.15548 0.229914L6.44181 1.73333L4.88319 1.93841C4.54689 1.98765 4.39918 2.39781 4.64532 2.6357L5.76095 3.75132L5.47387 5.30171C5.40822 5.63802 5.76095 5.90052 6.06447 5.74466L7.46723 5.03098L7.49998 5.04742L8.85353 5.7775C9.14884 5.94153 9.50978 5.69544 9.45233 5.35914L9.20623 3.80052L10.3464 2.70947C10.6008 2.47984 10.4695 2.06145 10.1332 2.01223Z" fill="#FEDB41"/>
<path id="Vector_6" d="M7.91016 8.64062V11.1016C7.91016 11.3312 7.72971 11.5117 7.5 11.5117C7.27029 11.5117 7.08984 11.3312 7.08984 11.1016V9.63318L6.96677 9.74802C6.81091 9.91208 6.54846 9.91208 6.39258 9.74802C6.22852 9.59216 6.22852 9.32966 6.39258 9.1738L7.21289 8.35349C7.29492 8.27148 7.39336 8.23047 7.5 8.23047C7.70508 8.23047 7.91016 8.39453 7.91016 8.64062Z" fill="#0D70B2"/>
<path id="Vector_7" d="M7.91016 8.64062V11.1016C7.91016 11.3312 7.72971 11.5117 7.5 11.5117V8.23047C7.70508 8.23047 7.91016 8.39453 7.91016 8.64062Z" fill="#095C92"/>
<path id="Vector_8" d="M10.3465 2.7095L9.20625 3.80054L9.45234 5.35916C9.50977 5.69547 9.14883 5.94156 8.85354 5.77752L7.5 5.04742V0.000199121C7.66406 -0.008004 7.82815 0.0986366 7.89372 0.238117L8.57461 1.76617L10.1332 2.01226C10.4695 2.06145 10.6008 2.47984 10.3465 2.7095Z" fill="#FFCC33"/>
</g>
<defs>
<clipPath id="clip0_5412_59828">
<rect width="14" height="14" fill="white" transform="translate(0.5)"/>
</clipPath>
</defs>
</svg>
