<svg width="98" height="32" viewBox="0 0 98 32" fill="none" xmlns="http://www.w3.org/2000/svg">
<g id="Group 2">
<g id="Group 1">
<g id="Group">
<path id="Vector" d="M58.196 30.6313H37.6895L47.9427 12.0366L58.196 30.6313Z" fill="#FFB600"/>
</g>
<path id="Vector_2" d="M72.1513 12.3995V19.1362H63.9732V12.3995H59.2148V30.6313H63.9732V23.8946H72.1513V30.6313H76.9081V12.3995H72.1513Z" fill="#F8F4D9"/>
<g id="Group_2">
<path id="Vector_3" d="M97.6393 30.6313H77.1328L87.3861 12.0366L97.6393 30.6313Z" fill="#FF3620"/>
</g>
<path id="Vector_4" d="M20.0649 28.3686L18.2847 26.5883C19.1801 25.1061 19.6958 23.3697 19.6958 21.5154C19.6958 16.0855 15.2778 11.6675 9.84791 11.6675C4.41802 11.6675 0 16.0855 0 21.5154C0 26.9453 4.41802 31.3633 9.84791 31.3633C11.7022 31.3633 13.4386 30.8475 14.9208 29.9521L16.7011 31.7324L20.0649 28.3686Z" fill="#008BDC"/>
<g id="Group_3">
<path id="Vector_5" d="M29.701 31.3632C24.8231 31.3632 20.8543 27.3945 20.8543 22.5166V12.401H25.6127V22.5166C25.6127 24.7718 27.4473 26.6049 29.701 26.6049C31.9546 26.6049 33.7893 24.7703 33.7893 22.5166V12.401H38.5476V22.5166C38.5476 27.3945 34.5788 31.3632 29.701 31.3632Z" fill="#F8F4D9"/>
</g>
</g>
</g>
</svg>
