<svg width="126" height="176" viewBox="0 0 126 176" fill="none" xmlns="http://www.w3.org/2000/svg">
<path d="M111.649 140C111.873 139.22 112.29 138.51 112.862 137.935C113.433 137.359 114.141 136.938 114.919 136.71C117.129 136.02 121.039 139.27 125.469 135.55C124.559 139.34 121.529 144.68 119.209 145.55C116.889 146.42 112.749 146.07 111.359 142.98C110.999 142.14 111.389 140.84 111.649 140Z" fill="#404040"/>
<path d="M63.65 173.39C63.65 173.39 52 143.63 58.44 129.12C59.56 126.61 56.98 124.79 50.68 124.79C44.38 124.79 40.45 128 42.21 130.4C51.9 143.75 39.21 171.56 39.21 171.56C39.21 174.1 44.32 176 50.63 176H51.88C57.91 176 63.65 175.79 63.65 173.39Z" fill="#B6B8BE"/>
<path d="M62.4495 171.8C62.4495 174.16 56.4495 174.33 50.7595 174.33C45.0595 174.33 40.4395 172.57 40.4395 170.21C40.4395 170.21 51.8695 144.34 43.1095 131.91C41.5095 129.64 45.1095 126.7 50.7595 126.7C56.4595 126.7 58.8395 128.41 57.7595 130.7C52.1495 143 62.4495 171.8 62.4495 171.8Z" fill="#FFEEDA"/>
<path d="M50.7792 172C46.1392 172 42.1892 170.94 40.6492 169.36C40.2192 170.36 39.9492 170.98 39.9492 170.98C39.9492 173.34 44.7892 175.11 50.7792 175.11C56.7692 175.11 63.0592 174.93 63.0592 172.58C63.0592 172.58 62.7892 171.87 62.3692 170.58C60.5792 171.93 55.5892 172 50.7792 172Z" fill="#404040"/>
<path d="M47.2497 148.74C48.4265 148.843 49.6121 148.776 50.7697 148.54C51.9352 148.323 53.0362 147.844 53.9897 147.14C54.0255 147.108 54.0505 147.066 54.0612 147.019C54.072 146.973 54.068 146.924 54.0497 146.88C54.0241 146.831 53.9804 146.794 53.9281 146.778C53.8757 146.761 53.8188 146.765 53.7697 146.79C51.7639 147.619 49.5443 147.781 47.4397 147.25C46.8197 147.12 46.2097 146.96 45.5997 146.77C45.5497 147.35 45.4997 147.94 45.4297 148.52C45.9997 148.62 46.6397 148.7 47.2497 148.74Z" fill="#404040"/>
<path d="M58.5797 168C56.5739 168.83 54.3543 168.991 52.2496 168.46C51.1935 168.241 50.1543 167.947 49.1396 167.58C48.1396 167.22 47.1396 166.73 46.0296 166.34C44.541 165.766 43.0181 165.285 41.4697 164.9C41.1797 165.73 40.8996 166.5 40.6396 167.19C42.2225 167.506 43.7879 167.903 45.3297 168.38C46.3897 168.69 47.4296 169.07 48.5896 169.38C49.7229 169.679 50.8811 169.873 52.0496 169.96C53.2298 170.064 54.4188 169.997 55.5797 169.76C56.7427 169.545 57.8408 169.066 58.7896 168.36C58.8291 168.334 58.8579 168.294 58.8707 168.248C58.8836 168.202 58.8796 168.154 58.8596 168.11C58.8488 168.085 58.8328 168.061 58.8128 168.042C58.7927 168.022 58.7689 168.007 58.7429 167.996C58.7168 167.986 58.6889 167.981 58.6608 167.982C58.6328 167.983 58.6052 167.989 58.5797 168Z" fill="#404040"/>
<path d="M48.9295 159.46C50.1097 159.563 51.2986 159.496 52.4595 159.26C53.6225 159.045 54.7207 158.566 55.6695 157.86C55.709 157.833 55.7378 157.794 55.7506 157.748C55.7634 157.702 55.7595 157.653 55.7395 157.61C55.7277 157.585 55.7111 157.562 55.6907 157.544C55.6702 157.525 55.6463 157.511 55.6203 157.502C55.5943 157.492 55.5667 157.488 55.5391 157.49C55.5115 157.491 55.4845 157.498 55.4595 157.51C53.4536 158.339 51.2342 158.5 49.1295 157.97C48.0731 157.752 47.0337 157.457 46.0195 157.09C45.3795 156.86 44.7095 156.58 44.0195 156.3C43.8595 156.98 43.6895 157.65 43.5195 158.3C44.1395 158.5 44.7795 158.7 45.4595 158.88C46.5961 159.179 47.7576 159.373 48.9295 159.46Z" fill="#404040"/>
<path d="M59.9997 163C59.2797 163.22 58.5797 163.45 57.8997 163.62C56.8561 163.899 55.7931 164.099 54.7197 164.22C52.5798 164.565 50.3856 164.214 48.4597 163.22C48.4235 163.189 48.3774 163.172 48.3297 163.172C48.282 163.172 48.2359 163.189 48.1997 163.22C48.1624 163.259 48.1416 163.311 48.1416 163.365C48.1416 163.419 48.1624 163.471 48.1997 163.51C49.0855 164.297 50.1388 164.871 51.2797 165.19C52.4149 165.532 53.594 165.708 54.7797 165.71C55.9522 165.73 57.1241 165.64 58.2797 165.44C59.0797 165.3 59.8197 165.14 60.5597 164.97C60.3697 164.34 60.1797 163.68 59.9997 163Z" fill="#404040"/>
<path d="M48.7193 142.2C48.6993 142.219 48.6835 142.243 48.6726 142.268C48.6618 142.294 48.6562 142.322 48.6562 142.35C48.6562 142.378 48.6618 142.405 48.6726 142.431C48.6835 142.457 48.6993 142.48 48.7193 142.5C49.6038 143.283 50.653 143.857 51.7893 144.18C52.9257 144.517 54.104 144.692 55.2893 144.7C55.7193 144.7 56.1393 144.7 56.5693 144.7C56.5693 144.14 56.4893 143.59 56.4693 143.04C56.0493 143.11 55.6393 143.19 55.2293 143.23C53.0861 143.574 50.889 143.224 48.9593 142.23C48.928 142.199 48.8877 142.18 48.8443 142.174C48.801 142.169 48.7571 142.178 48.7193 142.2Z" fill="#404040"/>
<path d="M57.8796 154C57.7696 153.45 57.6696 152.89 57.5696 152.33C57.0796 152.42 56.5696 152.5 56.0996 152.55C53.9597 152.895 51.7655 152.544 49.8396 151.55C49.8025 151.521 49.7567 151.505 49.7096 151.505C49.6624 151.505 49.6166 151.521 49.5796 151.55C49.5416 151.591 49.5205 151.644 49.5205 151.7C49.5205 151.756 49.5416 151.809 49.5796 151.85C50.4664 152.635 51.5193 153.209 52.6596 153.53C53.7915 153.872 54.9672 154.047 56.1496 154.05C56.7267 154.064 57.3042 154.047 57.8796 154Z" fill="#404040"/>
<path d="M69.7598 173.39C69.7598 173.39 81.4098 143.63 74.9998 129.12C73.8798 126.61 76.4598 124.79 82.7698 124.79C89.0798 124.79 92.9998 128 91.1998 130.4C81.5098 143.75 94.1998 171.56 94.1998 171.56C94.1998 174.1 89.0898 176 82.7898 176H81.4798C75.5098 176 69.7598 175.79 69.7598 173.39Z" fill="#B6B8BE"/>
<path d="M71 171.8C71 174.16 77 174.33 82.69 174.33C88.39 174.33 93 172.57 93 170.21C93 170.21 81.58 144.34 90.33 131.91C91.93 129.64 88.39 126.7 82.69 126.7C76.98 126.7 74.6 128.41 75.69 130.7C81.26 143 71 171.8 71 171.8Z" fill="#FFEEDA"/>
<path d="M82.6294 172C87.2794 172 91.2194 170.94 92.7694 169.36C93.1894 170.36 93.4694 170.98 93.4694 170.98C93.4694 173.34 88.6194 175.11 82.6294 175.11C76.6394 175.11 70.3594 174.93 70.3594 172.58C70.3594 172.58 70.6194 171.87 71.0494 170.58C72.8394 171.93 77.8294 172 82.6294 172Z" fill="#404040"/>
<path d="M85.8496 149C84.6699 149.084 83.4843 148.996 82.3296 148.74C81.1693 148.507 80.0779 148.011 79.1396 147.29C79.1018 147.262 79.0751 147.222 79.0641 147.176C79.0531 147.13 79.0586 147.082 79.0796 147.04C79.0914 147.015 79.108 146.993 79.1285 146.974C79.1489 146.956 79.1729 146.941 79.1989 146.932C79.2249 146.923 79.2525 146.919 79.28 146.92C79.3076 146.922 79.3347 146.928 79.3596 146.94C81.3511 147.802 83.5676 147.999 85.6796 147.5C86.2996 147.39 86.9196 147.23 87.5296 147.06C87.5296 147.64 87.6096 148.22 87.6696 148.8C87.0673 148.902 86.4596 148.969 85.8496 149Z" fill="#404040"/>
<path d="M74.2193 168.14C76.2122 168.996 78.4269 169.192 80.5393 168.7C81.6011 168.494 82.647 168.213 83.6693 167.86C84.6693 167.52 85.6693 167.05 86.7993 166.67C88.2963 166.122 89.8259 165.667 91.3793 165.31C91.6493 166.14 91.9193 166.91 92.1793 167.61C90.5993 167.89 89.0293 168.28 87.4593 168.72C86.3993 169.02 85.3493 169.38 84.1893 169.66C83.052 169.946 81.8901 170.123 80.7193 170.19C79.5368 170.277 78.3478 170.192 77.1893 169.94C76.0311 169.7 74.9411 169.205 73.9993 168.49C73.9635 168.458 73.9385 168.416 73.9278 168.369C73.917 168.323 73.9211 168.274 73.9393 168.23C73.9649 168.181 74.0086 168.144 74.0609 168.127C74.1133 168.111 74.1702 168.115 74.2193 168.14Z" fill="#404040"/>
<path d="M83.9999 159.73C82.8206 159.817 81.635 159.732 80.4799 159.48C79.3178 159.236 78.2267 158.729 77.2899 158C77.2496 157.971 77.2213 157.929 77.2102 157.881C77.1991 157.833 77.2061 157.783 77.2299 157.74C77.2555 157.691 77.2992 157.654 77.3515 157.637C77.4039 157.621 77.4607 157.625 77.5099 157.65C79.5026 158.507 81.7175 158.703 83.8299 158.21C84.9049 158.017 85.9643 157.746 86.9999 157.4C87.6499 157.18 88.3199 156.91 88.9999 156.64C89.1499 157.33 89.3099 158 89.4699 158.64C88.8399 158.83 88.2099 159.03 87.4699 159.19C86.3332 159.481 85.1712 159.661 83.9999 159.73Z" fill="#404040"/>
<path d="M72.8898 163.09C73.5998 163.32 74.3098 163.56 74.9798 163.75C76.02 164.038 77.0793 164.252 78.1498 164.39C80.2854 164.768 82.4859 164.442 84.4198 163.46C84.4568 163.431 84.5026 163.415 84.5498 163.415C84.597 163.415 84.6428 163.431 84.6798 163.46C84.7171 163.499 84.7379 163.551 84.7379 163.605C84.7379 163.659 84.7171 163.711 84.6798 163.75C83.7832 164.523 82.7235 165.084 81.5798 165.39C80.4372 165.707 79.2556 165.862 78.0698 165.85C76.8953 165.851 75.7234 165.74 74.5698 165.52C73.7798 165.38 73.0298 165.2 72.2998 165.02C72.4931 164.427 72.6898 163.783 72.8898 163.09Z" fill="#404040"/>
<path d="M84.4799 142.48C84.5171 142.519 84.5379 142.571 84.5379 142.625C84.5379 142.679 84.5171 142.731 84.4799 142.77C83.5832 143.543 82.5235 144.104 81.3798 144.41C80.2372 144.728 79.0556 144.882 77.8699 144.87C77.4399 144.87 77.0198 144.87 76.5898 144.81C76.5898 144.26 76.6798 143.71 76.7198 143.16C77.1298 143.24 77.5398 143.31 77.9598 143.37C80.0955 143.738 82.2929 143.412 84.2299 142.44C84.2697 142.417 84.3164 142.408 84.362 142.416C84.4075 142.423 84.4492 142.446 84.4799 142.48Z" fill="#404040"/>
<path d="M75.1396 154.16C75.2496 153.6 75.3697 153.05 75.4697 152.49C75.9597 152.58 76.4697 152.67 76.9397 152.73C79.0784 153.11 81.2829 152.784 83.2197 151.8C83.2558 151.773 83.2996 151.759 83.3447 151.759C83.3897 151.759 83.4335 151.773 83.4697 151.8C83.5076 151.841 83.5287 151.894 83.5287 151.95C83.5287 152.006 83.5076 152.059 83.4697 152.1C82.5763 152.876 81.5151 153.434 80.3697 153.73C79.2318 154.055 78.0529 154.213 76.8697 154.2C76.2797 154.24 75.7096 154.21 75.1396 154.16Z" fill="#404040"/>
<path d="M116 140.75C115.877 140.528 115.677 140.358 115.438 140.271C115.199 140.185 114.937 140.188 114.7 140.28L114.06 140.57C112.951 141.093 111.812 141.55 110.65 141.94C109.332 142.356 107.961 142.582 106.58 142.61H106.3C103.619 142.569 100.998 141.809 98.7098 140.41C96.3047 139 94.3677 136.913 93.1398 134.41C92.8278 133.78 92.5604 133.128 92.3398 132.46L92.1598 131.93L92.0598 131.5C91.9798 131.18 91.9298 130.81 91.8798 130.5V130.21C91.7706 129.445 91.6034 128.69 91.3798 127.95C91.0777 126.889 90.3938 125.977 89.4598 125.39C89.3205 125.319 89.1664 125.281 89.0098 125.28C88.8054 125.284 88.6066 125.348 88.4378 125.463C88.269 125.579 88.1377 125.741 88.0598 125.93C87.9974 126.092 87.9713 126.265 87.9833 126.438C87.9954 126.611 88.0455 126.779 88.1298 126.93C88.4885 127.755 88.6495 128.652 88.5998 129.55C88.5998 129.98 88.5998 130.4 88.6798 130.85C88.7136 131.303 88.7704 131.753 88.8498 132.2C88.8498 132.45 88.9598 132.7 89.0498 133L89.2398 133.57C89.5156 134.409 89.8497 135.228 90.2398 136.02C91.7937 139.125 94.261 141.679 97.3098 143.34C99.8548 144.738 102.706 145.483 105.61 145.51C105.97 145.51 106.34 145.51 106.72 145.51C110.2 145.31 113.32 143.63 115.65 142.2C115.874 142.042 116.034 141.808 116.098 141.541C116.162 141.274 116.128 140.993 116 140.75Z" fill="#B6B8BE"/>
<path d="M88.8699 128.13C89.4999 129.13 89.3299 130.41 89.4699 131.93C89.4699 132.31 89.5599 132.7 89.6399 133.12C89.6803 133.344 89.7405 133.565 89.8199 133.78L89.9999 134.3C90.2839 135.041 90.618 135.763 90.9999 136.46C92.5156 139.254 94.8597 141.511 97.7099 142.92C100.473 144.332 103.562 144.984 106.66 144.81C109.689 144.5 112.605 143.494 115.18 141.87C115.239 141.836 115.29 141.792 115.332 141.739C115.373 141.685 115.403 141.624 115.421 141.559C115.439 141.494 115.443 141.426 115.435 141.359C115.426 141.292 115.404 141.228 115.37 141.17C115.306 141.064 115.206 140.984 115.09 140.944C114.973 140.904 114.846 140.906 114.73 140.95C113.427 141.535 112.091 142.046 110.73 142.48C109.39 142.871 108.005 143.083 106.61 143.11C103.808 143.132 101.049 142.418 98.6099 141.04C96.2229 139.752 94.2708 137.786 92.9999 135.39C92.6838 134.796 92.4098 134.181 92.1799 133.55L91.9999 133L91.8899 132.59C91.8099 132.3 91.7599 131.97 91.6999 131.59C91.5979 130.825 91.4238 130.072 91.1799 129.34C90.9172 128.489 90.337 127.773 89.5599 127.34C89.4977 127.309 89.43 127.292 89.3609 127.288C89.2917 127.284 89.2225 127.294 89.1573 127.317C89.0921 127.341 89.0322 127.377 88.9812 127.424C88.9301 127.47 88.8889 127.527 88.8599 127.59C88.8204 127.667 88.7998 127.753 88.7998 127.84C88.7998 127.927 88.8204 128.012 88.8599 128.09L88.8699 128.13Z" fill="#F7FDFE"/>
<path d="M89.4697 131.88V131.93C89.4697 132.224 89.5097 132.524 89.5897 132.83C89.8397 132.64 90.0897 132.45 90.3397 132.24C90.7597 131.9 91.1797 131.53 91.5897 131.15C91.5297 130.82 91.4597 130.47 91.3697 130.15C90.8597 130.67 90.3697 131.15 89.7897 131.64L89.4697 131.88Z" fill="black"/>
<path d="M98.4493 141L98.0893 140.79C97.571 141.278 97.1293 141.841 96.7793 142.46L97.2893 142.74C97.5994 142.112 97.9892 141.528 98.4493 141Z" fill="black"/>
<path d="M108.16 143L107.55 143.07C106.942 143.568 106.424 144.166 106.02 144.84C106.22 144.84 106.43 144.84 106.63 144.84H106.7C107.063 144.138 107.559 143.514 108.16 143Z" fill="black"/>
<path d="M92.6397 135.75C92.6511 135.735 92.6573 135.718 92.6573 135.7C92.6573 135.681 92.6511 135.664 92.6397 135.65C92.6329 135.63 92.6186 135.613 92.5999 135.604C92.5812 135.595 92.5596 135.593 92.5397 135.6C91.9629 135.809 91.4304 136.124 90.9697 136.53L91.1797 136.87C91.5929 136.409 92.088 136.029 92.6397 135.75Z" fill="black"/>
<path d="M102.86 142.69L102.4 142.58C102.125 143.161 101.959 143.789 101.91 144.43H102.14C102.278 143.813 102.522 143.224 102.86 142.69Z" fill="black"/>
<path d="M94.5799 138.93C94.7496 138.733 94.9298 138.546 95.1199 138.37C94.9699 138.21 94.8099 138.05 94.6699 137.89C94.4799 138.11 94.2899 138.33 94.1199 138.56C93.8443 138.938 93.597 139.335 93.3799 139.75L93.7199 140.1C93.9771 139.689 94.2646 139.298 94.5799 138.93Z" fill="black"/>
<path d="M96.1999 110.54C102.41 129.64 83.9699 146.27 68.0899 146.27C52.2099 146.27 33.0899 130.7 38.6799 110.54C43.2999 94.0004 51.5599 79.4004 67.4399 79.4004C83.3199 79.4004 90.8899 94.1804 96.1999 110.54Z" fill="#B6B8BE"/>
<path d="M95.2196 110.62C101.22 129.06 83.4096 145.12 68.0696 145.12C52.7296 145.12 34.2396 130.12 39.6696 110.62C44.1296 94.62 52.0996 80.54 67.4496 80.54C82.7996 80.54 90.0896 94.82 95.2196 110.62Z" fill="url(#paint0_linear_3743_54272)"/>
<path d="M109.109 129.45L108.469 129.73L107.279 126.65L112.279 127.76C111.265 128.399 110.205 128.964 109.109 129.45Z" fill="white"/>
<path d="M86.8295 137.56L85.7095 137.75C82.7095 138.26 79.7095 138.68 76.7095 138.99C73.7095 139.3 70.7095 139.43 67.6295 139.55C62.3395 139.77 57.0395 139.79 51.7295 139.88C52.8545 140.611 54.0197 141.279 55.2195 141.88C59.3795 141.88 63.5395 141.836 67.6995 141.75C72.9175 141.668 78.1207 141.17 83.2595 140.26C84.51 139.443 85.7029 138.54 86.8295 137.56Z" fill="#404040"/>
<path d="M50.3898 95.1802C53.4536 95.4773 56.5322 95.5941 59.6098 95.5302C62.7121 95.4521 65.8026 95.1176 68.8498 94.5302C74.4321 93.369 79.918 91.7844 85.2598 89.7902C84.6098 88.9702 83.9398 88.1902 83.2598 87.4502C78.3701 89.1753 73.3811 90.6046 68.3198 91.7302C65.4274 92.3642 62.4872 92.7555 59.5298 92.9002C56.5321 93.0667 53.5275 93.0667 50.5298 92.9002C49.4298 92.8502 48.3198 92.7802 47.2098 92.7002C46.8031 93.3669 46.4031 94.0335 46.0098 94.7002C47.4698 94.8702 48.9198 95.0002 50.3898 95.1802Z" fill="#404040"/>
<path d="M79.7599 100.53C83.5599 100.27 87.3699 100.077 91.1899 99.9502C90.7199 98.9502 90.1899 97.9502 89.7299 96.9502C86.3299 96.9502 82.9399 97.1002 79.5399 97.2902C70.1573 97.7598 60.809 98.7614 51.5399 100.29C48.5399 100.81 45.4799 101.46 42.5399 102.29C42.0399 103.56 41.5399 104.86 41.1299 106.18C44.8032 105.314 48.4999 104.537 52.2199 103.85C61.2199 102.14 70.4799 101.27 79.7599 100.53Z" fill="#404040"/>
<path d="M94.6398 108.87C93.1698 109.42 91.6398 109.93 90.1798 110.41C83.6878 112.364 77.0906 113.95 70.4198 115.16C63.6998 116.52 57.0298 117.89 50.2998 118.76C46.9398 119.18 43.5598 119.49 40.1698 119.62H38.7998C38.8498 120.21 38.9298 120.79 39.0198 121.37L40.1698 121.43C43.6315 121.56 47.0978 121.48 50.5498 121.19C57.4117 120.57 64.2374 119.599 70.9998 118.28C74.3798 117.69 77.7698 117.06 81.1398 116.28C84.5434 115.551 87.9077 114.65 91.2198 113.58C92.6865 113.093 94.1431 112.537 95.5898 111.91C95.4798 111.47 95.3598 111.03 95.2098 110.59C94.9998 110 94.8398 109.45 94.6398 108.87Z" fill="#404040"/>
<path d="M89.7898 126.54C82.9939 125.952 76.1561 126.049 69.3798 126.83C62.6274 127.563 55.9253 128.702 49.3098 130.24C47.3455 130.735 45.4093 131.336 43.5098 132.04C44.0598 132.81 44.6398 133.55 45.2598 134.26C46.8198 133.78 48.3964 133.337 49.9898 132.93C56.5003 131.41 63.086 130.231 69.7198 129.4C76.3238 128.515 82.9947 128.234 89.6498 128.56C91.0098 128.64 92.3598 128.74 93.7198 128.86C94.0198 128.267 94.2998 127.667 94.5598 127.06C92.9998 126.84 91.3798 126.66 89.7898 126.54Z" fill="#404040"/>
<path d="M91.9998 88.1502C101.58 107.31 110 114.89 116 119.61C116.85 120.42 117.31 120.93 117.31 120.93C118 122.36 116.79 124.35 114.43 126.21C112.822 127.497 111.05 128.563 109.16 129.38C103.8 131.75 98.0798 134.07 97.0098 131.83C97.0098 131.83 93.0098 102.38 83.1298 91.8302C77.6598 86.0002 88.4598 81.0502 91.9998 88.1502Z" fill="#B6B8BE"/>
<path d="M97.3493 131.17C98.3493 133.34 103.949 130.85 108.949 128.56C113.949 126.26 117.239 122.77 116.239 120.56C116.239 120.56 102.759 112.19 91.8293 88.8898C88.6193 82.0498 77.6393 85.6598 84.4793 92.6298C93.9993 102.34 97.3493 131.17 97.3493 131.17Z" fill="#FEF1D9"/>
<path d="M107.94 126.08C111.82 124.3 114.94 121.52 115.61 119.48C116.41 120.26 116.84 120.75 116.84 120.75C117.84 122.92 114.25 126.64 109.26 128.94C104.27 131.24 98.2599 133.63 97.2599 131.46C97.2599 131.46 97.0599 130.66 96.8799 129.36C98.8999 129.83 103.93 127.92 107.94 126.08Z" fill="#404040"/>
<path d="M97.8101 116.08C99.8301 115.302 101.55 113.901 102.72 112.08C102.74 112.036 102.776 112.001 102.82 111.982C102.865 111.964 102.915 111.963 102.96 111.98C103.013 111.996 103.057 112.032 103.084 112.081C103.11 112.13 103.116 112.187 103.1 112.24C102.731 113.368 102.104 114.395 101.27 115.24C100.462 116.103 99.5318 116.844 98.5101 117.44C97.5021 118.042 96.441 118.551 95.3401 118.96H95.2701C95.1401 118.36 95.0101 117.75 94.8701 117.12C95.8737 116.844 96.8562 116.496 97.8101 116.08Z" fill="#404040"/>
<path d="M91.0001 87.41C90.8901 87.52 90.8001 87.65 90.6901 87.76C89.8826 88.6315 88.9569 89.3855 87.9401 90C86.9319 90.5993 85.8708 91.1048 84.7701 91.51C84.4601 91.63 84.1701 91.72 83.8701 91.82C83.45 91.2835 83.1129 90.6868 82.8701 90.05C83.3201 89.95 83.7701 89.85 84.1901 89.73C85.2334 89.444 86.2559 89.0865 87.2501 88.66C88.3558 88.1833 89.3892 87.5538 90.3201 86.79C90.5619 86.9795 90.7892 87.1867 91.0001 87.41Z" fill="#404040"/>
<path d="M98.2294 123.49C100.379 123.206 102.381 122.238 103.939 120.73C104.744 120.012 105.496 119.237 106.189 118.41C106.869 117.6 107.529 116.66 108.269 115.78C108.549 115.43 108.839 115.09 109.129 114.78C109.689 115.35 110.209 115.88 110.719 116.36C110.439 116.65 110.159 116.93 109.889 117.22C109.139 118.02 108.419 118.87 107.559 119.71C106.731 120.54 105.827 121.289 104.859 121.95C103.888 122.629 102.824 123.165 101.699 123.54C100.585 123.936 99.3947 124.073 98.2194 123.94C98.1736 123.931 98.1319 123.907 98.0997 123.873C98.0675 123.839 98.0465 123.796 98.0394 123.75C98.032 123.72 98.0312 123.689 98.0372 123.659C98.0431 123.629 98.0555 123.601 98.0736 123.576C98.0918 123.551 98.1151 123.531 98.142 123.516C98.1689 123.501 98.1987 123.492 98.2294 123.49Z" fill="#404040"/>
<path d="M98.3198 109.74C97.3483 110.419 96.2841 110.954 95.1599 111.33C94.6316 111.502 94.0897 111.629 93.5398 111.71C93.4798 111.46 93.4098 111.22 93.3398 110.98C94.8481 110.458 96.2309 109.627 97.3998 108.54C98.2047 107.822 98.9567 107.046 99.6498 106.22C100.07 105.73 100.48 105.22 100.9 104.63C101.31 105.22 101.72 105.79 102.12 106.35C101.77 106.73 101.41 107.11 101.02 107.5C100.19 108.327 99.2859 109.077 98.3198 109.74Z" fill="#404040"/>
<path d="M94.2898 94.4595C93.3183 95.1385 92.254 95.674 91.1298 96.0495C90.0162 96.4499 88.8251 96.5868 87.6498 96.4495C87.6019 96.4448 87.5574 96.423 87.5244 96.3881C87.4913 96.3532 87.4719 96.3075 87.4698 96.2595C87.467 96.2325 87.4698 96.2051 87.478 96.1792C87.4862 96.1532 87.4996 96.1292 87.5174 96.1086C87.5352 96.088 87.557 96.0713 87.5815 96.0594C87.6059 96.0475 87.6326 96.0408 87.6598 96.0395C89.8101 95.7496 91.811 94.7789 93.3698 93.2695C93.5498 93.1095 93.7098 92.9295 93.8898 92.7695L94.6298 94.2095L94.2898 94.4595Z" fill="#404040"/>
<path d="M96.1693 99.8695C96.1955 99.8293 96.2341 99.7988 96.2792 99.7825C96.3243 99.7663 96.3735 99.7652 96.4193 99.7795C96.4454 99.7874 96.4696 99.8005 96.4904 99.8181C96.5112 99.8356 96.5282 99.8572 96.5403 99.8815C96.5525 99.9059 96.5596 99.9324 96.5611 99.9596C96.5627 99.9868 96.5587 100.014 96.5493 100.04C96.1813 101.166 95.5585 102.193 94.7293 103.04C93.9187 103.9 92.9893 104.641 91.9693 105.24L91.5993 105.43C91.4293 104.94 91.2493 104.43 91.0693 103.98L91.2693 103.9C93.2942 103.119 95.0129 101.706 96.1693 99.8695Z" fill="#404040"/>
<path d="M96.3294 55.2695C96.3294 35.1395 75.8294 15.2695 65.5894 15.2695C54.1294 15.2695 34.8594 35.1195 34.8594 55.2695C34.8594 75.4195 48.6194 88.1895 65.5894 88.1895C82.5594 88.1895 96.3294 75.3995 96.3294 55.2695Z" fill="#B6B8BE"/>
<path d="M56.1694 17C55.5594 14.54 58.2394 10.24 59.1694 8.15C59.8094 8.87 60.3894 9.84 61.0294 10.54C61.1994 8.54 60.7794 7.06 62.1394 5.26C63.4994 3.46 64.9994 2.08 65.7594 0C69.6194 4 66.9994 5.64 68.1194 8.27C69.1994 7.46 69.2294 6.52 70.1194 5.46C70.1194 7.46 72.4394 12.46 73.0194 14.36C73.4219 15.5193 73.4304 16.779 73.0434 17.9435C72.6564 19.1081 71.8957 20.1122 70.8794 20.8C68.8794 22.17 61.2094 25.33 59.5594 22.88C59.8994 22.74 56.7094 19.15 56.1694 17Z" fill="#404040"/>
<path d="M95.69 55.1896C95.69 35.4896 75.61 16.0596 65.59 16.0596C54.37 16.0596 35.5 35.4896 35.5 55.1896C35.5 74.8896 49 87.4196 65.59 87.4196C82.18 87.4196 95.69 74.8996 95.69 55.1896Z" fill="#E7D198"/>
<path d="M57.0001 40.7599C56.9355 41.1342 56.7657 41.4823 56.5105 41.7635C56.2554 42.0448 55.9254 42.2476 55.5592 42.3482C55.193 42.4489 54.8057 42.4431 54.4426 42.3317C54.0795 42.2203 53.7557 42.0079 53.5089 41.7192C53.2622 41.4305 53.1028 41.0775 53.0492 40.7015C52.9957 40.3255 53.0504 39.942 53.2068 39.596C53.3632 39.2499 53.6149 38.9555 53.9325 38.7473C54.2501 38.539 54.6204 38.4255 55.0001 38.4199C55.2854 38.4414 55.5637 38.5191 55.8188 38.6485C56.074 38.7779 56.301 38.9564 56.4869 39.1739C56.6728 39.3914 56.8138 39.6435 56.9019 39.9157C56.99 40.1879 57.0234 40.4748 57.0001 40.7599Z" fill="#21141D"/>
<path d="M55.0002 40.8199C55.0221 40.9274 55.0199 41.0385 54.9937 41.1451C54.9675 41.2516 54.9178 41.351 54.8484 41.436C54.779 41.5211 54.6916 41.5896 54.5924 41.6367C54.4933 41.6837 54.3849 41.7081 54.2752 41.7081C54.1654 41.7081 54.057 41.6837 53.9579 41.6367C53.8587 41.5896 53.7713 41.5211 53.7019 41.436C53.6325 41.351 53.5829 41.2516 53.5566 41.1451C53.5304 41.0385 53.5282 40.9274 53.5502 40.8199C53.5282 40.7124 53.5304 40.6013 53.5566 40.4947C53.5829 40.3881 53.6325 40.2887 53.7019 40.2037C53.7713 40.1187 53.8587 40.0502 53.9579 40.0031C54.057 39.9561 54.1654 39.9316 54.2752 39.9316C54.3849 39.9316 54.4933 39.9561 54.5924 40.0031C54.6916 40.0502 54.779 40.1187 54.8484 40.2037C54.9178 40.2887 54.9675 40.3881 54.9937 40.4947C55.0199 40.6013 55.0221 40.7124 55.0002 40.8199Z" fill="white"/>
<path d="M76.7199 40.7602C76.6548 41.1369 76.4832 41.4871 76.2252 41.7693C75.9672 42.0515 75.6338 42.2539 75.2644 42.3524C74.895 42.4509 74.5051 42.4415 74.1409 42.3252C73.7766 42.209 73.4534 41.9907 73.2093 41.6964C72.9653 41.4021 72.8108 41.044 72.764 40.6645C72.7173 40.2851 72.7803 39.9002 72.9455 39.5554C73.1108 39.2106 73.3714 38.9205 73.6965 38.7193C74.0216 38.5181 74.3976 38.4143 74.7799 38.4202C75.3453 38.4784 75.8652 38.7562 76.228 39.1938C76.5908 39.6313 76.7674 40.1938 76.7199 40.7602Z" fill="#21141D"/>
<path d="M74.7 40.8204C74.6735 40.9581 74.6084 41.0854 74.5123 41.1876C74.4162 41.2897 74.2931 41.3624 74.1573 41.3972C74.0214 41.4321 73.8785 41.4276 73.7451 41.3843C73.6117 41.3411 73.4934 41.2608 73.4039 41.1529C73.3143 41.045 73.2573 40.9138 73.2394 40.7747C73.2216 40.6357 73.2436 40.4944 73.3029 40.3673C73.3622 40.2403 73.4564 40.1327 73.5745 40.0571C73.6927 39.9815 73.8298 39.9411 73.97 39.9404C74.1834 39.9607 74.38 40.0647 74.5168 40.2296C74.6536 40.3946 74.7195 40.607 74.7 40.8204Z" fill="white"/>
<path d="M83.7197 25.5098C83.7197 26.9798 88.1397 28.5798 92.0797 27.3798C96.0197 26.1798 98.3397 21.8098 97.9897 21.1698C97.6397 20.5298 93.5697 18.0998 89.6297 19.2998C85.6897 20.4998 83.6697 24.3098 83.7197 25.5098Z" fill="#844421"/>
<path d="M84.5692 25.4196C84.6192 26.4196 87.6392 27.5096 90.3492 26.7296C93.0592 25.9496 94.6292 23.0196 94.3492 22.5896C93.5553 21.938 92.6205 21.4803 91.619 21.2529C90.6174 21.0255 89.5766 21.0346 88.5792 21.2796C85.8992 22.0696 84.5292 24.6096 84.5692 25.4196Z" fill="#E7D198"/>
<path d="M48.0596 24.5101C48.0096 25.9601 43.6796 27.5101 39.7796 26.3701C35.8796 25.2301 33.5696 20.8501 33.9196 20.2101C34.2696 19.5701 38.2996 17.2101 42.2096 18.3601C46.1196 19.5101 48.1096 23.3201 48.0596 24.5101Z" fill="#844421"/>
<path d="M47.2701 24.4296C47.2201 25.4296 44.2001 26.5196 41.4901 25.7296C38.7801 24.9396 37.2101 22.0196 37.4901 21.5896C38.2841 20.9383 39.2193 20.4816 40.2211 20.2559C41.2229 20.0302 42.2636 20.0417 43.2601 20.2896C45.9401 21.0696 47.3001 23.6196 47.2701 24.4296Z" fill="#E7D198"/>
<path d="M48.39 36.83C48.1828 36.3421 48.1545 35.7968 48.31 35.29C48.4743 34.7899 48.7716 34.344 49.17 34C49.5529 33.6404 50.0073 33.3655 50.5035 33.1932C50.9997 33.021 51.5267 32.9551 52.05 33C51.2 33.3876 50.4007 33.8779 49.67 34.46C48.9747 35.0724 48.5208 35.9128 48.39 36.83Z" fill="black"/>
<path d="M80.9998 37.5096C80.8513 36.6097 80.3997 35.7876 79.7198 35.1796C78.9892 34.5975 78.1899 34.1071 77.3398 33.7196C77.856 33.6632 78.3782 33.714 78.8738 33.8689C79.3694 34.0237 79.8277 34.2793 80.2198 34.6196C80.62 34.993 80.9075 35.4711 81.0499 35.9996C81.2069 36.4937 81.1892 37.0269 80.9998 37.5096Z" fill="black"/>
<path opacity="0.27" d="M87.6193 49.5201C87.6193 50.596 87.3002 51.6478 86.7025 52.5424C86.1047 53.437 85.2551 54.1342 84.2611 54.546C83.267 54.9577 82.1732 55.0655 81.118 54.8555C80.0627 54.6456 79.0934 54.1275 78.3326 53.3667C77.5718 52.6059 77.0537 51.6366 76.8438 50.5814C76.6339 49.5261 76.7416 48.4323 77.1534 47.4383C77.5651 46.4442 78.2624 45.5946 79.157 44.9969C80.0516 44.3991 81.1033 44.0801 82.1793 44.0801C83.622 44.0801 85.0057 44.6532 86.0259 45.6734C87.0461 46.6936 87.6193 48.0773 87.6193 49.5201Z" fill="#FF9FC1"/>
<path opacity="0.27" d="M53.09 49.5201C53.09 50.596 52.7709 51.6478 52.1732 52.5424C51.5754 53.437 50.7258 54.1343 49.7318 54.546C48.7377 54.9577 47.6439 55.0655 46.5887 54.8556C45.5334 54.6457 44.5641 54.1275 43.8033 53.3667C43.0425 52.6059 42.5244 51.6366 42.3145 50.5814C42.1046 49.5261 42.2123 48.4323 42.6241 47.4383C43.0358 46.4443 43.7331 45.5946 44.6277 44.9969C45.5223 44.3991 46.574 44.0801 47.65 44.0801C48.3647 44.0788 49.0727 44.2186 49.7333 44.4915C50.3939 44.7644 50.9941 45.1651 51.4996 45.6705C52.005 46.1759 52.4056 46.7761 52.6786 47.4367C52.9515 48.0973 53.0913 48.8053 53.09 49.5201Z" fill="#FF9FC1"/>
<path d="M92 65.9998C92 76.4698 80.16 86.7998 65.51 86.7998C50.86 86.7998 39 76.4598 39 65.9998C39 55.5398 50.87 48.2998 65.52 48.2998C80.17 48.2998 92 55.5298 92 65.9998Z" fill="#404040"/>
<path d="M59.58 62.26C59.5721 62.4999 59.4937 62.7321 59.3545 62.9276C59.2153 63.1231 59.0215 63.2732 58.7974 63.3591C58.5734 63.445 58.3289 63.463 58.0947 63.4107C57.8605 63.3584 57.6469 63.2381 57.4807 63.065C57.3144 62.8919 57.203 62.6737 57.1602 62.4375C57.1174 62.2014 57.1452 61.9579 57.2401 61.7375C57.335 61.517 57.4929 61.3295 57.6938 61.1983C57.8948 61.0672 58.13 60.9982 58.37 61C58.5332 60.9999 58.6947 61.0328 58.8449 61.0967C58.995 61.1606 59.1307 61.2542 59.2437 61.3719C59.3568 61.4896 59.4448 61.629 59.5026 61.7816C59.5604 61.9342 59.5867 62.097 59.58 62.26Z" fill="white"/>
<path d="M72.1399 63.3697C72.8137 63.3697 73.3599 62.8235 73.3599 62.1497C73.3599 61.4759 72.8137 60.9297 72.1399 60.9297C71.4661 60.9297 70.9199 61.4759 70.9199 62.1497C70.9199 62.8235 71.4661 63.3697 72.1399 63.3697Z" fill="white"/>
<path d="M78.1752 76.8636C76.2863 75.5885 74.2476 74.5507 72.1052 73.7736C69.9924 73.0207 67.7681 72.6286 65.5252 72.6136C62.1359 72.6528 58.7968 73.4381 55.7452 74.9136C54.7035 75.3957 53.7006 75.9573 52.7452 76.5936C52.7027 76.6198 52.6515 76.6281 52.6029 76.6169C52.5542 76.6057 52.512 76.5757 52.4852 76.5336C52.4557 76.5006 52.4394 76.4579 52.4394 76.4136C52.4394 76.3693 52.4557 76.3266 52.4852 76.2936C56.0463 73.0616 60.6762 71.2595 65.4852 71.2336C67.8891 71.233 70.269 71.7124 72.4852 72.6436C74.6796 73.5429 76.7077 74.8037 78.4852 76.3736C78.5136 76.4007 78.5363 76.4332 78.5517 76.4693C78.5672 76.5054 78.5752 76.5443 78.5752 76.5836C78.5752 76.6229 78.5672 76.6617 78.5517 76.6978C78.5363 76.7339 78.5136 76.7665 78.4852 76.7936C78.4453 76.8331 78.395 76.8606 78.3402 76.873C78.2854 76.8854 78.2282 76.8821 78.1752 76.8636Z" fill="white"/>
<path d="M82.3496 34.7704C82.3496 34.9056 82.4033 35.0353 82.499 35.131C82.5946 35.2266 82.7244 35.2803 82.8596 35.2803C84.8815 35.2186 86.879 34.8197 88.7696 34.1003C88.1696 33.1603 87.5296 32.2504 86.8796 31.3604C85.652 32.5634 84.2326 33.5536 82.6796 34.2904C82.5822 34.3271 82.4983 34.3928 82.4393 34.4786C82.3804 34.5644 82.349 34.6662 82.3496 34.7704Z" fill="#404040"/>
<path d="M74.9999 25.5895C76.4918 24.8972 77.8707 23.9836 79.0899 22.8795C78.3299 22.2195 77.5599 21.5995 76.8099 21.0195C76.2069 22.3784 75.4084 23.6417 74.4399 24.7695C74.3704 24.8389 74.3243 24.9282 74.3082 25.0251C74.292 25.1219 74.3066 25.2214 74.3499 25.3095C74.3741 25.3706 74.4102 25.4264 74.456 25.4735C74.5018 25.5207 74.5565 25.5583 74.6168 25.5843C74.6772 25.6103 74.7421 25.6242 74.8078 25.6251C74.8736 25.626 74.9388 25.6139 74.9999 25.5895Z" fill="#404040"/>
<path d="M92.3497 44.5301C92.8297 44.4701 93.3497 44.3901 93.7797 44.3001C93.3464 43.0401 92.8564 41.8001 92.3097 40.5801C91.9597 40.8301 91.6097 41.0601 91.2397 41.2901C89.7058 42.2851 88.0156 43.0152 86.2397 43.4501C86.1433 43.4714 86.0548 43.5192 85.9841 43.5881C85.9135 43.657 85.8634 43.7443 85.8397 43.8401C85.8155 43.971 85.8425 44.1062 85.9151 44.2178C85.9876 44.3295 86.1002 44.409 86.2297 44.4401C88.2503 44.8121 90.319 44.8425 92.3497 44.5301Z" fill="#404040"/>
<path d="M88.8999 51.2997C88.7895 51.2651 88.6706 51.2691 88.5628 51.3109C88.455 51.3528 88.3645 51.43 88.3064 51.53C88.2483 51.63 88.2258 51.7468 88.2428 51.8613C88.2598 51.9757 88.3152 52.0809 88.3999 52.1597C89.9784 53.5109 91.7736 54.586 93.7099 55.3397C94.3599 55.5997 95.0199 55.8397 95.7099 56.0497C95.7099 55.7697 95.7099 55.4897 95.7099 55.1997C95.7067 54.1004 95.6432 53.0021 95.5199 51.9097C95.1399 51.9097 94.7599 51.9597 94.3699 51.9697C92.5219 52.055 90.6727 51.8285 88.8999 51.2997Z" fill="#404040"/>
<path d="M55.5092 26.0803C55.5993 26.1192 55.6984 26.1323 55.7955 26.1181C55.8927 26.104 55.9839 26.0632 56.0592 26.0003C56.1521 25.9034 56.204 25.7745 56.204 25.6403C56.204 25.5061 56.1521 25.3771 56.0592 25.2803C55.0201 24.0871 54.1764 22.7371 53.5592 21.2803C52.7692 21.8903 51.9792 22.5503 51.1992 23.2803C52.4818 24.4317 53.9359 25.3764 55.5092 26.0803Z" fill="#404040"/>
<path d="M40.84 51.6598C40.9147 51.5963 40.9681 51.5115 40.9931 51.4168C41.0182 51.322 41.0136 51.2219 40.98 51.1298C40.9597 51.0663 40.9269 51.0075 40.8835 50.9569C40.8401 50.9063 40.7871 50.8648 40.7274 50.835C40.6678 50.8052 40.6028 50.7876 40.5363 50.7833C40.4698 50.779 40.403 50.788 40.34 50.8098C38.8525 51.2611 37.3044 51.4804 35.75 51.4598C35.62 52.582 35.5499 53.7102 35.54 54.8398C37.4747 54.0889 39.267 53.0134 40.84 51.6598Z" fill="#404040"/>
<path d="M46.8195 34.8097C46.8733 34.6863 46.8762 34.5466 46.8275 34.4211C46.7788 34.2956 46.6825 34.1944 46.5595 34.1396C45.4308 33.6171 44.3779 32.9443 43.4295 32.1396C42.9195 32.8896 42.4295 33.6496 41.9395 34.4296C43.3787 34.8741 44.8734 35.1132 46.3795 35.1396C46.4763 35.1313 46.5689 35.0959 46.6467 35.0376C46.7244 34.9793 46.7843 34.9003 46.8195 34.8097Z" fill="#404040"/>
<path d="M43.6995 42.8099C41.9253 42.3798 40.2354 41.6566 38.6995 40.6699C38.2495 41.7299 37.8495 42.7999 37.4795 43.8799H37.5495C39.5992 44.2034 41.6889 44.1764 43.7295 43.7999C43.8256 43.7803 43.9138 43.7329 43.9831 43.6636C44.0525 43.5942 44.0999 43.506 44.1195 43.4099C44.1324 43.3428 44.1317 43.2739 44.1175 43.207C44.1032 43.1402 44.0757 43.077 44.0365 43.021C43.9973 42.9651 43.9473 42.9175 43.8894 42.8813C43.8315 42.845 43.7669 42.8207 43.6995 42.8099Z" fill="#404040"/>
<path d="M39.8646 91.0469C33.467 111.493 26.3199 120.333 21.1682 125.942C20.5048 126.89 20.0818 127.451 20.0818 127.451C19.6386 128.971 21.1429 130.763 23.7694 132.213C25.5607 133.23 27.4788 134.004 29.4736 134.517C35.1457 136.003 41.1305 137.376 41.8681 135C41.8681 135 41.0983 105.292 49.1634 93.316C53.6795 86.6116 42.239 83.4728 39.8646 91.0469Z" fill="#B6B8BE"/>
<path d="M41.4669 134.366C40.8584 136.669 34.8957 135.107 29.5978 133.642C24.302 132.168 20.4873 129.253 21.1272 126.947C21.1272 126.947 33.0953 116.533 40.1712 91.7813C42.2478 84.53 53.6875 86.3465 48.0281 94.3114C40.2196 105.371 41.4669 134.366 41.4669 134.366Z" fill="#FEF1D9"/>
<path d="M30.2034 131.032C26.0925 129.895 22.5032 127.666 21.5707 125.745C20.9129 126.622 20.5701 127.191 20.5701 127.191C19.9204 129.495 24.0624 132.596 29.3581 134.07C34.6539 135.544 41.0106 136.949 41.6115 134.634C41.6115 134.634 41.6814 133.82 41.6491 132.501C39.718 133.298 34.4487 132.209 30.2034 131.032Z" fill="#404040"/>
<path d="M38.712 119.043C36.6044 118.56 34.7064 117.417 33.2948 115.779C33.2611 115.745 33.2168 115.724 33.1693 115.718C33.1218 115.713 33.0738 115.724 33.0334 115.75C32.993 115.775 32.9626 115.814 32.9471 115.859C32.9317 115.904 32.9321 115.954 32.9484 115.999C33.4763 117.056 34.241 117.978 35.1832 118.693C36.1116 119.428 37.1401 120.028 38.2375 120.474C39.3204 120.925 40.4434 121.273 41.5915 121.513L41.6598 121.528L41.7934 119.652C40.7537 119.519 39.7242 119.315 38.712 119.043Z" fill="#404040"/>
<path d="M41.3066 89.6896L41.6585 89.994C42.5855 90.7305 43.6152 91.3273 44.715 91.7655C45.797 92.2193 46.9192 92.5704 48.0668 92.8141C48.3791 92.8841 48.6816 92.952 49.0426 93.0329C49.3775 92.4433 49.6266 91.809 49.7826 91.1492C49.3184 91.1168 48.8565 91.0747 48.4162 91.0273C47.3459 90.895 46.2862 90.6882 45.2447 90.4085C44.0788 90.1003 42.9634 89.6259 41.9327 88.9999C41.71 89.2167 41.5009 89.4471 41.3066 89.6896Z" fill="#404040"/>
<path d="M39.3686 126.446C37.2026 126.472 35.0858 125.8 33.3318 124.529C32.423 123.94 31.5595 123.284 30.7486 122.566C29.9624 121.867 29.1852 121.037 28.3221 120.27C27.9897 119.97 27.6573 119.67 27.3129 119.377C26.8507 120.022 26.4092 120.62 25.9874 121.13L26.9297 121.864C27.8005 122.551 28.6625 123.277 29.5897 123.987C30.529 124.698 31.5318 125.32 32.5852 125.847C33.6416 126.378 34.7696 126.751 35.9337 126.957C37.0955 127.192 38.2961 127.157 39.4416 126.852C39.4852 126.835 39.5228 126.807 39.5496 126.769C39.5763 126.731 39.591 126.686 39.5917 126.639C39.5875 126.584 39.5617 126.533 39.5199 126.497C39.4782 126.46 39.4238 126.442 39.3686 126.446Z" fill="#404040"/>
<path d="M37.2944 112.843C38.3548 113.372 39.4846 113.75 40.6504 113.964C41.1953 114.06 41.7478 114.105 42.301 114.099L42.3967 113.351C40.8318 113.05 39.3454 112.43 38.029 111.532C37.1304 110.934 36.2752 110.273 35.4696 109.554C34.9813 109.127 34.4941 108.649 33.9905 108.198C33.6737 108.834 33.3591 109.46 33.0456 110.035C33.4442 110.361 33.8503 110.698 34.29 111.022C35.2345 111.718 36.2401 112.328 37.2944 112.843Z" fill="#404040"/>
<path d="M39.0801 97.1531C40.1384 97.6788 41.2657 98.0523 42.4285 98.2625C43.5907 98.4933 44.7902 98.4574 45.9365 98.1573C45.9812 98.1398 46.0195 98.1093 46.0467 98.0697C46.0738 98.0301 46.0885 97.9833 46.0887 97.9353C46.0822 97.8811 46.0557 97.8313 46.0145 97.7956C45.9733 97.7598 45.9202 97.7406 45.8657 97.7418C43.6956 97.7786 41.5725 97.1084 39.8169 95.8323C39.6099 95.704 39.4193 95.5485 39.2244 95.4125C39.1062 95.9395 38.8808 96.4423 38.6965 96.9442C38.8266 97.0041 38.9522 97.0835 39.0801 97.1531Z" fill="#404040"/>
<path d="M37.994 102.772C37.9643 102.735 37.923 102.71 37.877 102.7C37.831 102.689 37.7828 102.695 37.7403 102.715C37.6954 102.745 37.6637 102.791 37.6519 102.844C37.6401 102.897 37.649 102.952 37.6769 102.998C38.2062 104.057 38.9697 104.982 39.9095 105.702C40.8399 106.433 41.8689 107.03 42.9659 107.474C43.1026 107.504 43.2294 107.533 43.366 107.563L43.7051 106.051C43.639 106.041 43.5738 106.026 43.5099 106.007C41.37 105.553 39.4347 104.418 37.994 102.772Z" fill="#404040"/>
<defs>
<linearGradient id="paint0_linear_3743_54272" x1="67.5569" y1="80.54" x2="67.5569" y2="145.12" gradientUnits="userSpaceOnUse">
<stop stop-color="#D39F62"/>
<stop offset="1" stop-color="white" stop-opacity="0.68"/>
</linearGradient>
</defs>
</svg>
