<svg width="24" height="24" viewBox="0 0 24 24" fill="none" xmlns="http://www.w3.org/2000/svg">
<g id="Group">
<g id="Group_2">
<path id="Vector" d="M0.740051 3.09399L1.73417 2.09988L3.8041 4.1698L2.80998 5.16392L0.740051 3.09399Z" fill="#E2E2E2"/>
<path id="Vector_2" d="M0 7.03125H2.86214V8.4375H0V7.03125Z" fill="#E2E2E2"/>
<path id="Vector_3" d="M0.755554 12.3572L2.82343 10.2893L3.81755 11.2834L1.74967 13.3513L0.755554 12.3572Z" fill="#E2E2E2"/>
<path id="Vector_4" d="M20.1926 4.17188L22.2626 2.10194L23.2567 3.09606L21.1867 5.166L20.1926 4.17188Z" fill="#E2E2E2"/>
<path id="Vector_5" d="M21.1379 7.03125H24V8.4375H21.1379V7.03125Z" fill="#E2E2E2"/>
<path id="Vector_6" d="M20.1773 11.2854L21.1714 10.2913L23.2393 12.3592L22.2452 13.3533L20.1773 11.2854Z" fill="#E2E2E2"/>
<path id="Vector_7" d="M12 24C13.9384 24 15.5156 22.4228 15.5156 20.4844V18.2812H8.48438V20.4844C8.48438 22.4228 10.0616 24 12 24Z" fill="#E2E2E2"/>
</g>
<path id="Vector_8" d="M19.6163 6.36862C18.9777 2.67862 15.7745 0 12 0C8.22556 0 5.02236 2.67862 4.38378 6.36933C3.94156 8.92641 4.78686 11.5185 6.64489 13.3017C7.64018 14.2573 8.24511 15.5337 8.41137 16.875H15.5888C15.7553 15.5331 16.3601 14.2571 17.3552 13.3017C19.2132 11.5185 20.0585 8.92641 19.6163 6.36862ZM12.7032 12.6562H11.2969V11.25H12.7032V12.6562ZM13.2498 8.02748C12.9075 8.27953 12.7032 8.68322 12.7032 9.10744V9.84375H11.2969V9.10744C11.2969 8.23805 11.7153 7.41103 12.416 6.89508C12.5985 6.76073 12.7032 6.55411 12.7032 6.32812C12.7032 5.94042 12.3877 5.625 12 5.625C11.6123 5.625 11.2969 5.94042 11.2969 6.32812V7.03125H9.89065V6.32812C9.89065 5.16502 10.8369 4.21875 12 4.21875C13.1631 4.21875 14.1094 5.16502 14.1094 6.32812C14.1094 6.99591 13.7881 7.6312 13.2498 8.02748Z" fill="#E2E2E2"/>
</g>
</svg>
