<svg width="81" height="81" viewBox="0 0 81 81" fill="none" xmlns="http://www.w3.org/2000/svg">
<g id="Layer 2">
<g id="26.quora">
<g id="background">
<path id="Vector" d="M40.5 81C62.8675 81 81 62.8675 81 40.5C81 18.1325 62.8675 0 40.5 0C18.1325 0 0 18.1325 0 40.5C0 62.8675 18.1325 81 40.5 81Z" fill="#CC1D04"/>
</g>
<path id="icon" d="M56.8492 52.0318C56.8492 52.0318 56.6573 54.9361 54.0088 54.9361C51.9678 54.9361 50.577 53.3801 49.2714 51.3604C51.1855 49.6784 52.7168 47.6056 53.762 45.2818C54.8072 42.9579 55.342 40.4369 55.3304 37.8888C55.3304 28.9468 48.8717 21.5556 40.5 20.4045C39.7458 20.302 38.9856 20.2503 38.2245 20.25C28.7763 20.25 21.1079 28.1475 21.1079 37.8888C21.1079 47.6301 28.7763 55.533 38.2245 55.533C38.9858 55.5335 39.7462 55.4801 40.5 55.3731C41.4029 55.2523 42.2941 55.0562 43.1644 54.7869C45.1308 57.9257 47.6407 60.75 51.5682 60.75C59.5616 60.75 59.892 52.0318 59.892 52.0318H56.8492ZM46.2925 46.5484C44.939 44.6139 43.3136 42.9726 40.9955 42.4504L40.5 42.3491C39.0575 42.1126 37.5825 42.163 36.1596 42.4977C34.7367 42.8324 33.3939 43.4447 32.2081 44.2995L33.2739 46.4791C33.2739 46.4791 34.3397 45.8663 37.0042 46.4791C38.3151 46.7828 39.3969 48.2749 40.5213 50.2093C40.8303 50.7422 41.1394 51.2751 41.4592 51.8613C41.1476 52.0027 40.8272 52.1238 40.5 52.2237C39.7689 52.4811 38.9995 52.6126 38.2245 52.6127C32.709 52.6234 28.2434 46.0261 28.2434 37.8888C28.2434 29.7515 32.709 23.1596 38.2245 23.1596C38.999 23.1605 39.768 23.2901 40.5 23.5433C44.9123 25.0461 48.2003 30.9079 48.2003 37.8888C48.2301 40.8827 47.5777 43.8441 46.2925 46.5484Z" fill="white"/>
</g>
</g>
</svg>
