<svg width="40" height="40" viewBox="0 0 40 40" fill="none" xmlns="http://www.w3.org/2000/svg">
<g id="ranking 1">
<path id="Vector" d="M34.3745 15.6255C34.3756 15.0137 34.149 14.4233 33.7389 13.9693C33.5193 13.7249 33.3707 13.425 33.3095 13.1022C33.2482 12.7793 33.2766 12.4459 33.3914 12.138C33.6119 11.548 33.5997 10.8963 33.3573 10.3149C33.115 9.73358 32.6607 9.26614 32.0864 9.0074C31.7327 8.85157 31.4316 8.59656 31.2198 8.27323C31.0079 7.94989 30.8943 7.57209 30.8927 7.18553C30.8842 6.55588 30.6369 5.95296 30.2007 5.4988C29.7645 5.04463 29.1721 4.77314 28.5433 4.73928C28.2149 4.72161 27.8977 4.61427 27.6261 4.42893C27.3545 4.24359 27.1389 3.98734 27.0027 3.68803C26.7403 3.11242 26.2679 2.6588 25.6821 2.41994C25.0964 2.18108 24.4415 2.17503 23.8514 2.40303C23.496 2.5432 23.1074 2.57647 22.7333 2.49874C22.3592 2.42102 22.016 2.23568 21.7458 1.96553C21.2956 1.52124 20.6928 1.26555 20.0604 1.25069C19.4281 1.23582 18.8139 1.46289 18.3433 1.88553C18.0988 2.10519 17.7988 2.2537 17.4759 2.31496C17.1529 2.37621 16.8194 2.34788 16.5114 2.23303C15.9215 2.01262 15.2699 2.02482 14.6886 2.26717C14.1074 2.50951 13.64 2.96384 13.3814 3.53803C13.2259 3.89152 12.9713 4.19241 12.6484 4.40436C12.3256 4.6163 11.9483 4.73024 11.5621 4.7324C10.9324 4.74084 10.3295 4.98818 9.87532 5.42437C9.42115 5.86055 9.14966 6.45299 9.1158 7.08178C9.09847 7.41095 8.99101 7.72902 8.80518 8.00127C8.61935 8.27351 8.36228 8.48946 8.06205 8.62553C7.48644 8.88791 7.03282 9.36029 6.79396 9.94605C6.5551 10.5318 6.54905 11.1867 6.77705 11.7768C6.91722 12.1322 6.95049 12.5208 6.87276 12.8949C6.79504 13.269 6.60971 13.6122 6.33955 13.8824C5.89526 14.3326 5.63958 14.9354 5.62471 15.5678C5.60984 16.2001 5.83691 16.8143 6.25955 17.2849C6.47922 17.5293 6.62774 17.8292 6.689 18.152C6.75026 18.4748 6.72192 18.8083 6.60705 19.1162C6.38661 19.7062 6.3988 20.3579 6.64113 20.9393C6.88347 21.5206 7.33782 21.988 7.91205 22.2468C8.26581 22.4026 8.56684 22.6576 8.7787 22.981C8.99056 23.3043 9.10417 23.6821 9.1058 24.0687C9.11424 24.6983 9.36158 25.3012 9.79776 25.7554C10.2339 26.2096 10.8264 26.481 11.4552 26.5149C11.7838 26.5316 12.1016 26.6382 12.3739 26.823C12.6463 27.0078 12.8626 27.2638 12.9996 27.563C13.2619 28.1386 13.7343 28.5923 14.3201 28.8311C14.9058 29.07 15.5607 29.076 16.1508 28.848C16.5062 28.7079 16.8949 28.6746 17.269 28.7523C17.643 28.83 17.9863 29.0154 18.2564 29.2855C18.7066 29.7298 19.3095 29.9855 19.9418 30.0004C20.5742 30.0152 21.1883 29.7882 21.6589 29.3655C21.9034 29.1459 22.2034 28.9974 22.5264 28.9361C22.8493 28.8748 23.1828 28.9032 23.4908 29.018C24.0807 29.2384 24.7324 29.2262 25.3136 28.9839C25.8949 28.7416 26.3622 28.2872 26.6208 27.713C26.7766 27.3593 27.0316 27.0582 27.355 26.8464C27.6783 26.6345 28.0561 26.5209 28.4427 26.5193C29.0723 26.5108 29.6752 26.2635 30.1294 25.8273C30.5836 25.3911 30.8551 24.7987 30.8889 24.1699C30.9062 23.8418 31.013 23.5246 31.1978 23.2529C31.3826 22.9812 31.6382 22.7653 31.937 22.6287C32.5127 22.3663 32.9663 21.8939 33.2051 21.3081C33.444 20.7224 33.45 20.0675 33.222 19.4774C33.0819 19.122 33.0486 18.7333 33.1263 18.3593C33.2041 17.9852 33.3894 17.642 33.6595 17.3718C34.1188 16.9068 34.3758 16.2791 34.3745 15.6255Z" fill="#F2C351"/>
<path id="Vector_2" d="M24.7353 5.93811C24.7325 4.70875 24.649 3.4809 24.4853 2.26248C24.2683 2.28199 24.0548 2.3299 23.8503 2.40498C23.4949 2.54515 23.1062 2.57842 22.7322 2.50069C22.3581 2.42297 22.0149 2.23764 21.7447 1.96748C21.2945 1.52319 20.6917 1.26751 20.0593 1.25264C19.427 1.23777 18.8128 1.46484 18.3422 1.88748C18.0977 2.10714 17.7977 2.25565 17.4748 2.31691C17.1518 2.37817 16.8183 2.34983 16.5103 2.23498C15.9204 2.01457 15.2687 2.02678 14.6875 2.26912C14.1063 2.51146 13.6389 2.96579 13.3803 3.53998C13.2246 3.89293 12.9701 4.1933 12.6475 4.40488C12.3249 4.61647 11.948 4.73024 11.5622 4.73248C10.9325 4.74092 10.3296 4.98826 9.87546 5.42444C9.42129 5.86063 9.1498 6.45307 9.11594 7.08186C9.09861 7.41102 8.99116 7.7291 8.80532 8.00135C8.61949 8.27359 8.36242 8.48954 8.06219 8.62561C7.48658 8.88799 7.03296 9.36037 6.7941 9.94613C6.55524 10.5319 6.54919 11.1868 6.77719 11.7769C6.91736 12.1323 6.95063 12.5209 6.8729 12.895C6.79518 13.2691 6.60985 13.6123 6.33969 13.8825C5.89521 14.3326 5.63945 14.9355 5.6247 15.568C5.60995 16.2004 5.83731 16.8146 6.26032 17.285C6.47975 17.5295 6.62808 17.8294 6.68923 18.1522C6.75037 18.475 6.722 18.8084 6.60719 19.1162C6.38675 19.7062 6.39894 20.358 6.64127 20.9393C6.88361 21.5207 7.33796 21.9881 7.91219 22.2469C8.26595 22.4027 8.56698 22.6577 8.77884 22.981C8.9907 23.3044 9.10431 23.6822 9.10594 24.0687C9.11438 24.6984 9.36172 25.3013 9.79791 25.7555C10.2341 26.2096 10.8265 26.4811 11.4553 26.515C11.784 26.5317 12.1018 26.6383 12.3741 26.8231C12.6464 27.0079 12.8628 27.2638 12.9997 27.5631C13.1209 27.829 13.2882 28.0713 13.4941 28.2787C16.9844 25.6935 19.8197 22.3256 21.7721 18.4455C23.7244 14.5655 24.7393 10.2816 24.7353 5.93811Z" fill="#F7D881"/>
<path id="Vector_3" d="M20 26.25C25.868 26.25 30.625 21.493 30.625 15.625C30.625 9.75697 25.868 5 20 5C14.132 5 9.375 9.75697 9.375 15.625C9.375 21.493 14.132 26.25 20 26.25Z" fill="#E7E4DD"/>
<path id="Vector_4" d="M19.9997 5C17.4871 4.99889 15.0555 5.88866 13.1371 7.51119C11.2186 9.13371 9.93754 11.3839 9.52157 13.8618C9.1056 16.3397 9.58166 18.8849 10.8651 21.0449C12.1486 23.2049 14.1564 24.84 16.5316 25.6594C21.743 20.4902 24.6917 13.4652 24.731 6.125C23.2629 5.38711 21.6428 5.0019 19.9997 5Z" fill="#F4F3F2"/>
<path id="Vector_5" d="M36.875 26.875L38.75 28.75L30.625 30.625L28.75 38.75L26.875 36.875L28.75 28.75L36.875 26.875Z" fill="#C16B3F"/>
<path id="Vector_6" d="M26.875 36.875L28.75 28.75L36.875 26.875L32.375 22.375C32.2382 22.4747 32.0916 22.5601 31.9375 22.63C31.6385 22.7664 31.3827 22.9822 31.1977 23.2538C31.0127 23.5254 30.9056 23.8425 30.8881 24.1706C30.8538 24.7998 30.5814 25.3924 30.1264 25.8283C29.6713 26.2642 29.0676 26.5108 28.4375 26.5181C28.0509 26.5198 27.6731 26.6334 27.3498 26.8452C27.0265 27.0571 26.7715 27.3581 26.6156 27.7119C26.357 28.2861 25.8897 28.7404 25.3084 28.9827C24.7272 29.2251 24.0755 29.2373 23.4856 29.0169C23.1777 28.902 22.8441 28.8737 22.5212 28.9349C22.1983 28.9962 21.8983 29.1447 21.6537 29.3644C21.2003 29.7739 20.611 30.0004 20 30L26.875 36.875Z" fill="#E39854"/>
<path id="Vector_7" d="M13.125 36.875L11.25 28.75L3.125 26.875L1.25 28.75L9.375 30.625L11.25 38.75L13.125 36.875Z" fill="#C16B3F"/>
<path id="Vector_8" d="M20 29.9995L13.125 36.8745L11.25 28.7495L3.125 26.8745L7.80813 22.1914C7.84312 22.2095 7.87812 22.2264 7.91375 22.242C8.26751 22.3979 8.56853 22.6529 8.78039 22.9762C8.99225 23.2995 9.10587 23.6773 9.1075 24.0639C9.11594 24.6935 9.36328 25.2965 9.79946 25.7506C10.2356 26.2048 10.8281 26.4763 11.4569 26.5102C11.7857 26.5274 12.1035 26.6347 12.3756 26.8201C12.6478 27.0056 12.8637 27.2622 13 27.562C13.2624 28.1376 13.7348 28.5913 14.3205 28.8301C14.9063 29.069 15.5612 29.075 16.1512 28.847C16.5067 28.7069 16.8953 28.6736 17.2694 28.7513C17.6435 28.829 17.9867 29.0144 18.2569 29.2845C18.7211 29.7431 19.3475 30 20 29.9995Z" fill="#E39854"/>
<path id="Vector_9" d="M20 18.75L24.375 21.875L23.125 16.875L26.875 13.75H21.875L20 8.125L18.125 13.75H13.125L16.875 16.875L15.625 21.875L20 18.75Z" fill="#F2C351"/>
<path id="Vector_10" d="M21.875 13.75L20 8.125L18.125 13.75H13.125L16.875 16.875L15.625 21.875L20 18.75L21.1588 19.5775C22.1981 17.7354 23.0224 15.7801 23.6156 13.75H21.875Z" fill="#F7D881"/>
<path id="Vector_11" d="M13 27.562C12.8636 27.263 12.6478 27.0071 12.3762 26.8221C12.1046 26.6371 11.7875 26.5301 11.4594 26.5126C10.8293 26.4794 10.2354 26.2077 9.7985 25.7525C9.36155 25.2973 9.11426 24.6929 9.10688 24.062C9.10525 23.6754 8.99163 23.2976 8.77977 22.9743C8.56791 22.6509 8.26689 22.3959 7.91313 22.2401C7.8775 22.2245 7.8425 22.2076 7.8075 22.1895L3.125 26.8745L11.25 28.7495L11.4581 29.6507C12.1569 29.2215 12.8346 28.7632 13.4913 28.2757C13.2867 28.0686 13.1204 27.827 13 27.562Z" fill="#EDAC77"/>
<path id="Vector_12" d="M11.25 28.75L3.125 26.875L1.25 28.75L9.375 30.625L9.4125 30.7869C10.1106 30.435 10.795 30.0588 11.4581 29.6513L11.25 28.75Z" fill="#E39854"/>
</g>
</svg>
