<svg width="40" height="40" viewBox="0 0 40 40" fill="none" xmlns="http://www.w3.org/2000/svg">
<g id="ranking 1">
<path id="Vector" d="M34.375 15.6255C34.3761 15.0137 34.1495 14.4233 33.7394 13.9693C33.5197 13.7249 33.3712 13.425 33.31 13.1022C33.2487 12.7793 33.277 12.4459 33.3919 12.138C33.6123 11.548 33.6002 10.8963 33.3578 10.3149C33.1155 9.73358 32.6611 9.26614 32.0869 9.0074C31.7331 8.85157 31.4321 8.59656 31.2203 8.27323C31.0084 7.94989 30.8948 7.57209 30.8932 7.18553C30.8847 6.55588 30.6374 5.95296 30.2012 5.4988C29.765 5.04463 29.1726 4.77314 28.5438 4.73928C28.2154 4.72161 27.8982 4.61427 27.6266 4.42893C27.355 4.24359 27.1393 3.98734 27.0032 3.68803C26.7408 3.11242 26.2684 2.6588 25.6826 2.41994C25.0969 2.18108 24.442 2.17503 23.8519 2.40303C23.4965 2.5432 23.1078 2.57647 22.7338 2.49874C22.3597 2.42102 22.0165 2.23568 21.7463 1.96553C21.2961 1.52124 20.6933 1.26555 20.0609 1.25069C19.4286 1.23582 18.8144 1.46289 18.3438 1.88553C18.0993 2.10519 17.7993 2.2537 17.4764 2.31496C17.1534 2.37621 16.8199 2.34788 16.5119 2.23303C15.922 2.01262 15.2703 2.02482 14.6891 2.26717C14.1079 2.50951 13.6405 2.96384 13.3819 3.53803C13.2264 3.89152 12.9718 4.19241 12.6489 4.40436C12.3261 4.6163 11.9487 4.73024 11.5625 4.7324C10.9329 4.74084 10.33 4.98818 9.87581 5.42437C9.42164 5.86055 9.15015 6.45299 9.11629 7.08178C9.09895 7.41095 8.9915 7.72902 8.80567 8.00127C8.61984 8.27351 8.36277 8.48946 8.06254 8.62553C7.48693 8.88791 7.03331 9.36029 6.79445 9.94605C6.55559 10.5318 6.54954 11.1867 6.77754 11.7768C6.91771 12.1322 6.95098 12.5208 6.87325 12.8949C6.79553 13.269 6.6102 13.6122 6.34004 13.8824C5.89575 14.3326 5.64007 14.9354 5.6252 15.5678C5.61033 16.2001 5.8374 16.8143 6.26004 17.2849C6.4797 17.5293 6.62823 17.8292 6.68949 18.152C6.75075 18.4748 6.72241 18.8083 6.60754 19.1162C6.3871 19.7062 6.39929 20.3579 6.64162 20.9393C6.88396 21.5206 7.3383 21.988 7.91254 22.2468C8.2663 22.4026 8.56732 22.6576 8.77918 22.981C8.99104 23.3043 9.10466 23.6821 9.10629 24.0687C9.11473 24.6983 9.36207 25.3012 9.79825 25.7554C10.2344 26.2096 10.8269 26.481 11.4557 26.5149C11.7843 26.5316 12.1021 26.6382 12.3744 26.823C12.6467 27.0078 12.8631 27.2638 13 27.563C13.2624 28.1386 13.7348 28.5923 14.3206 28.8311C14.9063 29.07 15.5612 29.076 16.1513 28.848C16.5067 28.7079 16.8954 28.6746 17.2694 28.7523C17.6435 28.83 17.9867 29.0154 18.2569 29.2855C18.7071 29.7298 19.3099 29.9855 19.9423 30.0004C20.5746 30.0152 21.1888 29.7882 21.6594 29.3655C21.9039 29.1459 22.2039 28.9974 22.5269 28.9361C22.8498 28.8748 23.1833 28.9032 23.4913 29.018C24.0812 29.2384 24.7329 29.2262 25.3141 28.9839C25.8953 28.7416 26.3627 28.2872 26.6213 27.713C26.7771 27.3593 27.0321 27.0582 27.3555 26.8464C27.6788 26.6345 28.0566 26.5209 28.4432 26.5193C29.0728 26.5108 29.6757 26.2635 30.1299 25.8273C30.5841 25.3911 30.8556 24.7987 30.8894 24.1699C30.9067 23.8418 31.0135 23.5246 31.1983 23.2529C31.3831 22.9812 31.6387 22.7653 31.9375 22.6287C32.5131 22.3663 32.9668 21.8939 33.2056 21.3081C33.4445 20.7224 33.4505 20.0675 33.2225 19.4774C33.0824 19.122 33.0491 18.7333 33.1268 18.3593C33.2045 17.9852 33.3899 17.642 33.66 17.3718C34.1193 16.9068 34.3763 16.2791 34.375 15.6255Z" fill="#F2C351"/>
<path id="Vector_2" d="M24.7358 5.93811C24.733 4.70875 24.6495 3.4809 24.4858 2.26248C24.2688 2.28199 24.0553 2.3299 23.8508 2.40498C23.4954 2.54515 23.1067 2.57842 22.7327 2.50069C22.3586 2.42297 22.0154 2.23764 21.7452 1.96748C21.295 1.52319 20.6921 1.26751 20.0598 1.25264C19.4275 1.23777 18.8133 1.46484 18.3427 1.88748C18.0982 2.10714 17.7982 2.25565 17.4752 2.31691C17.1523 2.37817 16.8188 2.34983 16.5108 2.23498C15.9209 2.01457 15.2692 2.02678 14.688 2.26912C14.1067 2.51146 13.6394 2.96579 13.3808 3.53998C13.225 3.89293 12.9705 4.1933 12.6479 4.40488C12.3254 4.61647 11.9485 4.73024 11.5627 4.73248C10.933 4.74092 10.3301 4.98826 9.87595 5.42444C9.42178 5.86063 9.15029 6.45307 9.11643 7.08186C9.0991 7.41102 8.99164 7.7291 8.80581 8.00135C8.61998 8.27359 8.36291 8.48954 8.06268 8.62561C7.48707 8.88799 7.03345 9.36037 6.79459 9.94613C6.55573 10.5319 6.54968 11.1868 6.77768 11.7769C6.91785 12.1323 6.95112 12.5209 6.87339 12.895C6.79567 13.2691 6.61034 13.6123 6.34018 13.8825C5.8957 14.3326 5.63994 14.9355 5.62519 15.568C5.61043 16.2004 5.8378 16.8146 6.2608 17.285C6.48024 17.5295 6.62857 17.8294 6.68972 18.1522C6.75086 18.475 6.72249 18.8084 6.60768 19.1162C6.38724 19.7062 6.39943 20.358 6.64176 20.9393C6.8841 21.5207 7.33845 21.9881 7.91268 22.2469C8.26644 22.4027 8.56746 22.6577 8.77932 22.981C8.99118 23.3044 9.1048 23.6822 9.10643 24.0687C9.11487 24.6984 9.36221 25.3013 9.79839 25.7555C10.2346 26.2096 10.827 26.4811 11.4558 26.515C11.7845 26.5317 12.1023 26.6383 12.3746 26.8231C12.6469 27.0079 12.8633 27.2638 13.0002 27.5631C13.1213 27.829 13.2887 28.0713 13.4946 28.2787C16.9849 25.6935 19.8202 22.3256 21.7725 18.4455C23.7249 14.5655 24.7398 10.2816 24.7358 5.93811Z" fill="#F7D881"/>
<path id="Vector_3" d="M20 26.25C25.868 26.25 30.625 21.493 30.625 15.625C30.625 9.75697 25.868 5 20 5C14.132 5 9.375 9.75697 9.375 15.625C9.375 21.493 14.132 26.25 20 26.25Z" fill="#E7E4DD"/>
<path id="Vector_4" d="M20.0002 5C17.4876 4.99889 15.056 5.88866 13.1376 7.51119C11.2191 9.13371 9.93803 11.3839 9.52206 13.8618C9.10609 16.3397 9.58215 18.8849 10.8656 21.0449C12.1491 23.2049 14.1569 24.84 16.5321 25.6594C21.7435 20.4902 24.6922 13.4652 24.7315 6.125C23.2633 5.38711 21.6433 5.0019 20.0002 5Z" fill="#F4F3F2"/>
<path id="Vector_5" d="M36.875 26.875L38.75 28.75L30.625 30.625L28.75 38.75L26.875 36.875L28.75 28.75L36.875 26.875Z" fill="#C16B3F"/>
<path id="Vector_6" d="M26.875 36.875L28.75 28.75L36.875 26.875L32.375 22.375C32.2382 22.4747 32.0916 22.5601 31.9375 22.63C31.6385 22.7664 31.3827 22.9822 31.1977 23.2538C31.0127 23.5254 30.9056 23.8425 30.8881 24.1706C30.8538 24.7998 30.5814 25.3924 30.1264 25.8283C29.6713 26.2642 29.0676 26.5108 28.4375 26.5181C28.0509 26.5198 27.6731 26.6334 27.3498 26.8452C27.0265 27.0571 26.7715 27.3581 26.6156 27.7119C26.357 28.2861 25.8897 28.7404 25.3084 28.9827C24.7272 29.2251 24.0755 29.2373 23.4856 29.0169C23.1777 28.902 22.8441 28.8737 22.5212 28.9349C22.1983 28.9962 21.8983 29.1447 21.6537 29.3644C21.2003 29.7739 20.611 30.0004 20 30L26.875 36.875Z" fill="#E39854"/>
<path id="Vector_7" d="M13.125 36.875L11.25 28.75L3.125 26.875L1.25 28.75L9.375 30.625L11.25 38.75L13.125 36.875Z" fill="#C16B3F"/>
<path id="Vector_8" d="M20 29.9995L13.125 36.8745L11.25 28.7495L3.125 26.8745L7.80813 22.1914C7.84312 22.2095 7.87812 22.2264 7.91375 22.242C8.26751 22.3979 8.56853 22.6529 8.78039 22.9762C8.99225 23.2995 9.10587 23.6773 9.1075 24.0639C9.11594 24.6935 9.36328 25.2965 9.79946 25.7506C10.2356 26.2048 10.8281 26.4763 11.4569 26.5102C11.7857 26.5274 12.1035 26.6347 12.3756 26.8201C12.6478 27.0056 12.8637 27.2622 13 27.562C13.2624 28.1376 13.7348 28.5913 14.3205 28.8301C14.9063 29.069 15.5612 29.075 16.1512 28.847C16.5067 28.7069 16.8953 28.6736 17.2694 28.7513C17.6435 28.829 17.9867 29.0144 18.2569 29.2845C18.7211 29.7431 19.3475 30 20 29.9995Z" fill="#E39854"/>
<path id="Vector_9" d="M20 18.75L24.375 21.875L23.125 16.875L26.875 13.75H21.875L20 8.125L18.125 13.75H13.125L16.875 16.875L15.625 21.875L20 18.75Z" fill="#F2C351"/>
<path id="Vector_10" d="M21.875 13.75L20 8.125L18.125 13.75H13.125L16.875 16.875L15.625 21.875L20 18.75L21.1588 19.5775C22.1981 17.7354 23.0224 15.7801 23.6156 13.75H21.875Z" fill="#F7D881"/>
<path id="Vector_11" d="M13 27.562C12.8636 27.263 12.6478 27.0071 12.3762 26.8221C12.1046 26.6371 11.7875 26.5301 11.4594 26.5126C10.8293 26.4794 10.2354 26.2077 9.7985 25.7525C9.36155 25.2973 9.11426 24.6929 9.10688 24.062C9.10525 23.6754 8.99163 23.2976 8.77977 22.9743C8.56791 22.6509 8.26689 22.3959 7.91313 22.2401C7.8775 22.2245 7.8425 22.2076 7.8075 22.1895L3.125 26.8745L11.25 28.7495L11.4581 29.6507C12.1569 29.2215 12.8346 28.7632 13.4913 28.2757C13.2867 28.0686 13.1204 27.827 13 27.562Z" fill="#EDAC77"/>
<path id="Vector_12" d="M11.25 28.75L3.125 26.875L1.25 28.75L9.375 30.625L9.4125 30.7869C10.1106 30.435 10.795 30.0588 11.4581 29.6513L11.25 28.75Z" fill="#E39854"/>
</g>
</svg>
