<svg width="22" height="24" viewBox="0 0 22 24" fill="none" xmlns="http://www.w3.org/2000/svg">
<g id="surface1">
<path id="Vector" d="M21.1947 6.51181L21.194 6.49313C21.1835 6.2626 21.1766 6.01871 21.1724 5.74734C21.1528 4.42404 20.1008 3.32944 18.7773 3.25547C16.018 3.10148 13.8833 2.2017 12.0594 0.423934L12.0438 0.409102C11.4489 -0.136367 10.5515 -0.136367 9.95645 0.409102L9.94088 0.423934C8.11698 2.2017 5.98234 3.10148 3.22295 3.25565C1.89965 3.32944 0.847525 4.42404 0.827933 5.74753C0.823905 6.01706 0.816764 6.26095 0.806327 6.49313L0.805228 6.53653C0.751578 9.3503 0.684928 12.8522 1.85643 16.0307C2.5006 17.7786 3.47618 19.298 4.7559 20.547C6.21342 21.9693 8.12247 23.0986 10.43 23.9031C10.505 23.9293 10.583 23.9505 10.6625 23.9665C10.7746 23.9888 10.8874 24 11.0001 24C11.1129 24 11.2259 23.9888 11.3378 23.9665C11.4173 23.9505 11.4958 23.9291 11.5713 23.9028C13.876 23.0967 15.783 21.967 17.2393 20.5448C18.5184 19.2955 19.494 17.7757 20.1387 16.0274C21.3146 12.8394 21.2482 9.33089 21.1947 6.51181ZM18.8174 15.5402C17.5819 18.8903 15.0596 21.191 11.1065 22.5734C11.0924 22.5782 11.0774 22.5824 11.0619 22.5855C11.021 22.5935 10.9795 22.5935 10.9381 22.5853C10.9227 22.5822 10.9077 22.5782 10.8938 22.5734C6.9365 21.1935 4.41258 18.8941 3.1779 15.5438C2.09813 12.614 2.15929 9.39937 2.21331 6.56344L2.21367 6.5477C2.22466 6.30398 2.23198 6.04874 2.23601 5.76822C2.2448 5.18063 2.71282 4.69449 3.3015 4.66172C4.86302 4.57456 6.23484 4.2728 7.49533 3.73923C8.75418 3.2064 9.87222 2.4553 10.913 1.4431C10.9659 1.39842 11.0346 1.39824 11.0873 1.4431C12.1283 2.4553 13.2463 3.2064 14.505 3.73923C15.7655 4.2728 17.1373 4.57456 18.699 4.66172C19.2877 4.69449 19.7557 5.18063 19.7643 5.7684C19.7685 6.05038 19.7758 6.30563 19.7868 6.5477C19.8406 9.38692 19.9003 12.6041 18.8174 15.5402Z" fill="white"/>
<path id="Vector_2" d="M11.0007 6.01929C7.70258 6.01929 5.01953 8.70251 5.01953 12.0004C5.01953 15.2985 7.70258 17.9818 11.0007 17.9818C14.2986 17.9818 16.9818 15.2985 16.9818 12.0004C16.9818 8.70251 14.2986 6.01929 11.0007 6.01929ZM11.0007 16.5733C8.47913 16.5733 6.4278 14.522 6.4278 12.0004C6.4278 9.47888 8.47913 7.42755 11.0007 7.42755C13.522 7.42755 15.5734 9.47888 15.5734 12.0004C15.5734 14.522 13.522 16.5733 11.0007 16.5733Z" fill="white"/>
<path id="Vector_3" d="M12.7185 10.1434L9.94044 12.9215L9.18642 12.1675C8.91139 11.8924 8.46553 11.8924 8.19051 12.1675C7.91566 12.4425 7.91566 12.8884 8.19051 13.1632L9.44258 14.4153C9.58009 14.5528 9.76027 14.6214 9.94044 14.6214C10.1206 14.6214 10.3008 14.5528 10.4383 14.4153L13.7144 11.1391C13.9893 10.8641 13.9893 10.4183 13.7144 10.1434C13.4394 9.86821 12.9935 9.86821 12.7185 10.1434Z" fill="white"/>
</g>
</svg>
