<svg width="24" height="21" viewBox="0 0 24 21" fill="none" xmlns="http://www.w3.org/2000/svg">
<g id="2 PT">
<path id="Vector" d="M23.0268 5.13513H0.972766C0.918342 5.13513 0.864793 5.12143 0.817052 5.0953C0.769311 5.06918 0.728913 5.03145 0.699579 4.98561C0.670245 4.93977 0.652919 4.88728 0.649197 4.83298C0.645475 4.77869 0.655476 4.72433 0.67828 4.67491L2.62423 0.458696C2.65019 0.402439 2.69172 0.354796 2.74391 0.321403C2.79609 0.288009 2.85675 0.270263 2.91871 0.270264H21.0809C21.1428 0.270263 21.2035 0.288009 21.2557 0.321403C21.3079 0.354796 21.3494 0.402439 21.3754 0.458696L23.3213 4.67491C23.3441 4.72433 23.3541 4.77869 23.3504 4.83298C23.3467 4.88728 23.3293 4.93977 23.3 4.98561C23.2707 5.03145 23.2303 5.06918 23.1825 5.0953C23.1348 5.12143 23.0812 5.13513 23.0268 5.13513ZM1.47969 4.48648H22.5199L20.8733 0.918912H3.12628L1.47969 4.48648Z" fill="white"/>
<path id="Vector_2" d="M2.54801 9.02711C2.04439 9.02651 1.56158 8.82619 1.20547 8.47008C0.849364 8.11397 0.649038 7.63116 0.648438 7.12755V4.8109C0.648438 4.72488 0.682607 4.64239 0.74343 4.58156C0.804252 4.52074 0.886746 4.48657 0.972762 4.48657H4.12325C4.20926 4.48657 4.29176 4.52074 4.35258 4.58156C4.4134 4.64239 4.44757 4.72488 4.44757 4.8109V7.12755C4.44697 7.63116 4.24665 8.11397 3.89054 8.47008C3.53443 8.82619 3.05162 9.02651 2.54801 9.02711ZM1.29709 5.13522V7.12755C1.29709 7.45931 1.42888 7.77749 1.66347 8.01208C1.89806 8.24667 2.21624 8.37846 2.54801 8.37846C2.87977 8.37846 3.19795 8.24667 3.43254 8.01208C3.66713 7.77749 3.79892 7.45931 3.79892 7.12755V5.13522H1.29709Z" fill="white"/>
<path id="Vector_3" d="M5.6984 9.02711C5.19478 9.02651 4.71197 8.82619 4.35586 8.47008C3.99975 8.11397 3.79943 7.63116 3.79883 7.12755V4.8109C3.79883 4.72488 3.833 4.64239 3.89382 4.58156C3.95464 4.52074 4.03714 4.48657 4.12315 4.48657H7.27364C7.35966 4.48657 7.44215 4.52074 7.50297 4.58156C7.56379 4.64239 7.59796 4.72488 7.59796 4.8109V7.12755C7.59736 7.63116 7.39704 8.11397 7.04093 8.47008C6.68482 8.82619 6.20201 9.02651 5.6984 9.02711ZM4.44748 5.13522V7.12755C4.44748 7.45931 4.57927 7.77749 4.81386 8.01208C5.04846 8.24667 5.36663 8.37846 5.6984 8.37846C6.03016 8.37846 6.34834 8.24667 6.58293 8.01208C6.81752 7.77749 6.94931 7.45931 6.94931 7.12755V5.13522H4.44748Z" fill="white"/>
<path id="Vector_4" d="M8.84879 9.02711C8.34517 9.02651 7.86236 8.82619 7.50625 8.47008C7.15014 8.11397 6.94982 7.63116 6.94922 7.12755V4.8109C6.94922 4.72488 6.98339 4.64239 7.04421 4.58156C7.10503 4.52074 7.18753 4.48657 7.27354 4.48657H10.424C10.51 4.48657 10.5925 4.52074 10.6534 4.58156C10.7142 4.64239 10.7484 4.72488 10.7484 4.8109V7.12755C10.7478 7.63116 10.5474 8.11397 10.1913 8.47008C9.83521 8.82619 9.3524 9.02651 8.84879 9.02711ZM7.59787 5.13522V7.12755C7.59787 7.45931 7.72966 7.77749 7.96425 8.01208C8.19885 8.24667 8.51702 8.37846 8.84879 8.37846C9.18055 8.37846 9.49873 8.24667 9.73332 8.01208C9.96791 7.77749 10.0997 7.45931 10.0997 7.12755V5.13522H7.59787Z" fill="white"/>
<path id="Vector_5" d="M11.9992 9.02711C11.4956 9.02651 11.0128 8.82619 10.6566 8.47008C10.3005 8.11397 10.1002 7.63116 10.0996 7.12755V4.8109C10.0996 4.72488 10.1338 4.64239 10.1946 4.58156C10.2554 4.52074 10.3379 4.48657 10.4239 4.48657H13.5744C13.6604 4.48657 13.7429 4.52074 13.8038 4.58156C13.8646 4.64239 13.8987 4.72488 13.8987 4.8109V7.12755C13.8981 7.63116 13.6978 8.11397 13.3417 8.47008C12.9856 8.82619 12.5028 9.02651 11.9992 9.02711ZM10.7483 5.13522V7.12755C10.7483 7.45931 10.8801 7.77749 11.1146 8.01208C11.3492 8.24667 11.6674 8.37846 11.9992 8.37846C12.3309 8.37846 12.6491 8.24667 12.8837 8.01208C13.1183 7.77749 13.2501 7.45931 13.2501 7.12755V5.13522H10.7483Z" fill="white"/>
<path id="Vector_6" d="M15.1496 9.02711C14.646 9.02651 14.1631 8.82619 13.807 8.47008C13.4509 8.11397 13.2506 7.63116 13.25 7.12755V4.8109C13.25 4.72488 13.2842 4.64239 13.345 4.58156C13.4058 4.52074 13.4883 4.48657 13.5743 4.48657H16.7248C16.8108 4.48657 16.8933 4.52074 16.9541 4.58156C17.015 4.64239 17.0491 4.72488 17.0491 4.8109V7.12755C17.0485 7.63116 16.8482 8.11397 16.4921 8.47008C16.136 8.82619 15.6532 9.02651 15.1496 9.02711ZM13.8986 5.13522V7.12755C13.8986 7.45931 14.0304 7.77749 14.265 8.01208C14.4996 8.24667 14.8178 8.37846 15.1496 8.37846C15.4813 8.37846 15.7995 8.24667 16.0341 8.01208C16.2687 7.77749 16.4005 7.45931 16.4005 7.12755V5.13522H13.8986Z" fill="white"/>
<path id="Vector_7" d="M18.3019 9.02711C17.7983 9.02651 17.3155 8.82619 16.9594 8.47008C16.6033 8.11397 16.4029 7.63116 16.4023 7.12755V4.8109C16.4023 4.72488 16.4365 4.64239 16.4973 4.58156C16.5582 4.52074 16.6407 4.48657 16.7267 4.48657H19.8772C19.9632 4.48657 20.0457 4.52074 20.1065 4.58156C20.1673 4.64239 20.2015 4.72488 20.2015 4.8109V7.12755C20.2009 7.63116 20.0006 8.11397 19.6444 8.47008C19.2883 8.82619 18.8055 9.02651 18.3019 9.02711ZM17.0507 5.13522V7.12755C17.0507 7.45931 17.1825 7.77749 17.4171 8.01208C17.6516 8.24667 17.9698 8.37846 18.3016 8.37846C18.6334 8.37846 18.9515 8.24667 19.1861 8.01208C19.4207 7.77749 19.5525 7.45931 19.5525 7.12755V5.13522H17.0507Z" fill="white"/>
<path id="Vector_8" d="M21.4523 9.02711C20.9487 9.02651 20.4659 8.82619 20.1098 8.47008C19.7537 8.11397 19.5533 7.63116 19.5527 7.12755V4.8109C19.5527 4.72488 19.5869 4.64239 19.6477 4.58156C19.7085 4.52074 19.791 4.48657 19.8771 4.48657H23.0275C23.1136 4.48657 23.1961 4.52074 23.2569 4.58156C23.3177 4.64239 23.3519 4.72488 23.3519 4.8109V7.12755C23.3513 7.63116 23.1509 8.11397 22.7948 8.47008C22.4387 8.82619 21.9559 9.02651 21.4523 9.02711ZM20.2014 5.13522V7.12755C20.2014 7.45931 20.3332 7.77749 20.5678 8.01208C20.8024 8.24667 21.1205 8.37846 21.4523 8.37846C21.7841 8.37846 22.1022 8.24667 22.3368 8.01208C22.5714 7.77749 22.7032 7.45931 22.7032 7.12755V5.13522H20.2014Z" fill="white"/>
<path id="Vector_9" d="M22.0534 20.7027H1.91612C1.83011 20.7027 1.74761 20.6686 1.68679 20.6077C1.62597 20.5469 1.5918 20.4644 1.5918 20.3784V8.37842H2.24045V20.0541H21.7291V8.37842H22.3777V20.3784C22.3777 20.4644 22.3436 20.5469 22.2828 20.6077C22.2219 20.6686 22.1394 20.7027 22.0534 20.7027Z" fill="white"/>
<path id="Vector_10" d="M19.4589 20.7026H13.9454C13.8594 20.7026 13.7769 20.6685 13.7161 20.6076C13.6553 20.5468 13.6211 20.4643 13.6211 20.3783V11.2972C13.6211 11.2112 13.6553 11.1287 13.7161 11.0679C13.7769 11.0071 13.8594 10.9729 13.9454 10.9729H19.4589C19.5449 10.9729 19.6274 11.0071 19.6883 11.0679C19.7491 11.1287 19.7833 11.2112 19.7833 11.2972V20.3783C19.7833 20.4643 19.7491 20.5468 19.6883 20.6076C19.6274 20.6685 19.5449 20.7026 19.4589 20.7026ZM14.2697 20.054H19.1346V11.6215H14.2697V20.054Z" fill="white"/>
<path id="Vector_11" d="M11.9988 17.9459H3.89073C3.80471 17.9459 3.72222 17.9118 3.6614 17.8509C3.60058 17.7901 3.56641 17.7076 3.56641 17.6216V11.1351C3.56641 11.0491 3.60058 10.9666 3.6614 10.9058C3.72222 10.845 3.80471 10.8108 3.89073 10.8108H11.9988C12.0849 10.8108 12.1673 10.845 12.2282 10.9058C12.289 10.9666 12.3232 11.0491 12.3232 11.1351V17.6216C12.3232 17.7076 12.289 17.7901 12.2282 17.8509C12.1673 17.9118 12.0849 17.9459 11.9988 17.9459ZM4.21505 17.2973H11.6745V11.4594H4.21505V17.2973Z" fill="white"/>
</g>
</svg>
