<svg width="80" height="80" viewBox="0 0 80 80" fill="none" xmlns="http://www.w3.org/2000/svg">
<g id="Speech_Bubble_47_">
<g id="_x3C_Path_x3E__6_">
<path id="Vector" d="M17.5 80H11.4643L15.7322 75.9989C18.4843 73.4189 20 69.9886 20 66.3397V65.8056C14.9405 65.2689 10.2432 63.107 6.57 59.5841C2.33333 55.5208 0 50.1748 0 44.5312C0 39.9967 1.5785 35.6147 4.486 31.9742C1.611 28.9762 0 25.1192 0 21.0938C0 12.0473 7.8505 4.6875 17.5 4.6875C20.8418 4.6875 24.1195 5.61938 26.9472 7.34562C31.673 2.65109 38.1283 0 45 0C58.785 0 70 10.5141 70 23.4375C70 24.2228 69.9473 25.025 69.8368 25.8886C76.0678 29.1944 80 35.4108 80 42.1875C80 52.5262 71.028 60.9375 60 60.9375C59.4327 60.9375 58.8612 60.9123 58.2788 60.8614C57.0462 63.3444 55.1762 65.5625 52.8793 67.2356C49.8353 69.453 46.2463 70.625 42.5 70.625C40.5382 70.625 38.6215 70.3161 36.7758 69.7042C32.744 76.0248 25.419 80 17.5 80Z" fill="url(#paint0_linear_3742_53622)"/>
</g>
</g>
<defs>
<linearGradient id="paint0_linear_3742_53622" x1="86.1856" y1="-5.30612" x2="-3.99308" y2="87.8635" gradientUnits="userSpaceOnUse">
<stop stop-color="#008BDC"/>
<stop offset="0.961458" stop-color="#6FBFED"/>
<stop offset="1" stop-color="#811DE4" stop-opacity="0.63"/>
</linearGradient>
</defs>
</svg>
