<svg width="16" height="16" viewBox="0 0 16 16" fill="none" xmlns="http://www.w3.org/2000/svg">
<g id="Solid / star">
<path id="Vector" d="M14.6666 6.73313C14.7333 6.3998 14.4666 5.9998 14.1333 5.9998L10.3333 5.46646L8.59992 1.9998C8.53325 1.86646 8.46659 1.7998 8.33325 1.73313C7.99992 1.53313 7.59992 1.66646 7.39992 1.9998L5.73325 5.46646L1.93325 5.9998C1.73325 5.9998 1.59992 6.06646 1.53325 6.1998C1.26659 6.46646 1.26659 6.86646 1.53325 7.13313L4.26659 9.7998L3.59992 13.5998C3.59992 13.7331 3.59992 13.8665 3.66659 13.9998C3.86659 14.3331 4.26659 14.4665 4.59992 14.2665L7.99992 12.4665L11.3999 14.2665C11.4666 14.3331 11.5999 14.3331 11.7333 14.3331C11.7999 14.3331 11.7999 14.3331 11.8666 14.3331C12.1999 14.2665 12.4666 13.9331 12.3999 13.5331L11.7333 9.73313L14.4666 7.06646C14.5999 6.9998 14.6666 6.86646 14.6666 6.73313Z" fill="white"/>
</g>
</svg>
