<svg width="71" height="80" viewBox="0 0 71 80" fill="none" xmlns="http://www.w3.org/2000/svg">
<g id="target 1">
<g id="Stickers">
<path id="Vector" d="M68.1716 73.4972C66.6529 69.2363 67.0435 64.3925 67.006 59.3441C68.4732 58.1535 68.3123 56.7253 68.3716 56.3754C68.5567 55.5494 68.5342 54.6904 68.306 53.8754C68.4035 53.039 68.2398 52.193 67.8373 51.4535C67.5998 50.3972 67.056 49.33 66.0701 48.6894C65.7248 45.6785 65.5748 42.6988 66.5123 40.2347L67.9857 36.3613L46.056 37.0894L43.1716 32.8832L60.5029 32.1613C61.6655 32.114 62.769 31.6359 63.5987 30.82C64.4284 30.0042 64.925 28.9089 64.9919 27.7472L66.0435 9.8691C66.0803 9.23073 65.9864 8.59156 65.7675 7.99077C65.5485 7.38998 65.2093 6.84021 64.7704 6.37516C64.3315 5.91011 63.8023 5.53957 63.2152 5.28624C62.6281 5.03291 61.9954 4.90213 61.356 4.90191H61.2498L34.1326 5.51597C28.2748 -2.33403 19.3091 1.21129 15.8873 6.54254C14.6701 7.5316 13.2654 9.34097 13.1873 11.7191C12.4011 10.7703 11.4173 10.0044 10.3047 9.47494C9.19201 8.94546 7.97723 8.66512 6.74507 8.65347C0.182571 8.65347 -3.41118 16.2582 0.740384 21.6972C1.51595 22.72 2.51341 23.5536 3.65768 24.1352C4.80196 24.7168 6.06325 25.0313 7.34663 25.055C8.44038 26.305 8.92632 27.6597 10.7263 28.3519L9.03413 28.9066C7.62788 29.2738 4.45601 30.9629 0.818509 38.4879C-3.35493 47.1175 -12.4627 62.9129 -3.97524 66.6519C-0.52524 68.1722 4.41695 66.5925 7.92476 65.1722L8.1482 70.6254L7.69976 71.7191C7.00132 73.4379 7.87476 74.6879 8.20757 76.23C8.41969 76.9535 8.8525 77.5927 9.44553 78.0583C10.0386 78.5239 10.7622 78.7926 11.5154 78.8269C17.5623 79.0988 28.5248 79.2332 33.5919 78.5894C38.4513 78.1207 38.6498 77.4207 42.6966 78.3754C46.4294 79.2566 47.5748 79.1269 51.6779 78.3285C59.0576 76.9222 64.8169 77.1675 69.5029 77.2238L68.1716 73.4972Z" fill="white"/>
<path id="Vector_2" d="M30.6059 8.35522L61.3121 7.65679C61.5796 7.65048 61.8454 7.69972 62.0929 7.80139C62.3403 7.90306 62.564 8.05494 62.7497 8.24745C62.9355 8.43997 63.0793 8.66891 63.1721 8.91983C63.2648 9.17075 63.3045 9.43818 63.2887 9.70522L62.2371 27.5833C62.2089 28.0623 62.0039 28.5136 61.6618 28.8499C61.3197 29.1863 60.8649 29.3836 60.3856 29.4037L31.0887 30.6255C30.8311 30.6362 30.574 30.5953 30.3324 30.5052C30.0908 30.4152 29.8696 30.2778 29.6819 30.1011C29.4941 29.9244 29.3436 29.712 29.239 29.4763C29.1345 29.2406 29.0781 28.9864 29.0731 28.7287L28.7137 10.3255C28.7045 9.81366 28.8984 9.31898 29.253 8.94972C29.6076 8.58047 30.0941 8.36671 30.6059 8.35522Z" fill="#FF605B"/>
<path id="Vector_3" d="M35.3996 27.2527L40.9059 26.9559L40.5121 21.0762H35.2715L35.3996 27.2527Z" fill="#FFAD92"/>
<path id="Vector_4" d="M46.0044 19.1445H50.6044V27.1055H46.0044V19.1445Z" fill="#A369F7"/>
<path id="Vector_5" d="M54.798 16.9492L54.7324 27.1055H59.0559L59.1871 16.9492H54.798Z" fill="#FFB020"/>
<path id="Vector_6" d="M32.8468 19.7933C32.8176 19.7932 32.7891 19.785 32.7644 19.7696C32.7396 19.7541 32.7197 19.7321 32.7069 19.7059C32.6941 19.6797 32.6888 19.6505 32.6917 19.6215C32.6946 19.5925 32.7056 19.5648 32.7234 19.5417C32.8593 19.3636 36.0937 15.2121 39.2296 15.748C39.778 15.8402 40.3999 15.9871 41.0593 16.1417C44.1234 16.8589 48.3171 17.8402 51.8202 15.1871C56.1437 11.9058 59.0796 12.1308 59.2015 12.1417C59.2429 12.1453 59.2813 12.1651 59.3081 12.1969C59.3349 12.2287 59.348 12.2698 59.3444 12.3113C59.3409 12.3527 59.3211 12.3911 59.2893 12.4179C59.2575 12.4447 59.2164 12.4578 59.1749 12.4542C59.1437 12.4542 56.2249 12.2433 52.0093 15.4371C48.389 18.1792 44.1124 17.1777 40.989 16.4464C40.3343 16.2902 39.7155 16.148 39.1765 16.0574C36.2249 15.5558 33.003 19.6917 32.9702 19.7324C32.9557 19.7513 32.937 19.7666 32.9156 19.7772C32.8942 19.7877 32.8707 19.7933 32.8468 19.7933Z" fill="white"/>
<path id="Vector_7" d="M57.2952 11.5515L57.4889 13.4578C57.4955 13.5265 57.5186 13.5927 57.5562 13.6506C57.5938 13.7086 57.6448 13.7566 57.7049 13.7906C57.765 13.8246 57.8324 13.8437 57.9014 13.8461C57.9705 13.8486 58.0391 13.8343 58.1014 13.8046L60.1233 12.8515C60.197 12.8156 60.259 12.7594 60.3019 12.6895C60.3448 12.6196 60.3669 12.5389 60.3656 12.4569C60.3643 12.3749 60.3396 12.295 60.2945 12.2265C60.2494 12.158 60.1856 12.1038 60.1108 12.0703L57.8952 11.1171C57.8266 11.0876 57.7515 11.0764 57.6773 11.0846C57.6031 11.0929 57.5323 11.1202 57.4718 11.164C57.4113 11.2077 57.3633 11.2665 57.3323 11.3344C57.3013 11.4023 57.2885 11.4772 57.2952 11.5515Z" fill="white"/>
<path id="Vector_8" d="M21.3249 27.8262L9.78271 31.5637V43.1934L10.928 71.1074C10.3608 72.6371 10.0858 72.8527 10.228 73.3324L10.853 75.4637C10.9027 75.6352 11.0046 75.7868 11.1447 75.8975C11.2848 76.0082 11.456 76.0723 11.6343 76.0809C15.3202 76.2481 34.5733 76.9809 40.2124 74.4496L38.8608 46.5355L46.0108 41.9105L39.2296 32.0215C38.3411 31.012 37.2064 30.2497 35.9358 29.809C33.8718 29.1215 26.5015 28.4184 26.5015 28.4184L21.3249 27.8262Z" fill="#FFC364"/>
<path id="Vector_9" d="M20.1188 21.4199L19.0859 29.3746C19.0859 29.3746 21.0359 32.5199 24.4594 32.4715C27.8828 32.423 27.9812 28.9324 27.9812 28.9324L27.6375 24.159L20.1188 21.4199Z" fill="#FFAD92"/>
<path id="Vector_10" d="M33.3874 12.2909C33.3874 12.2909 34.9108 11.6659 34.6483 10.3316C34.3858 8.99719 33.0764 9.05344 33.0764 9.05344C33.0764 9.05344 30.3999 3.09094 25.1686 3.74094C19.9374 4.39094 17.9733 8.42844 17.9733 8.42844C17.9733 8.42844 15.4827 10.0003 15.9999 12.6894C16.2982 14.2695 16.8874 15.7806 17.7374 17.1456L19.9061 19.6347H24.0343L33.3874 12.2909Z" fill="#1D1D3D"/>
<path id="Vector_11" d="M33.3874 12.2906C33.3874 12.2906 32.7983 23.0422 29.9499 24.6156C27.1014 26.1891 21.4483 24.3687 20.1217 21.4203C20.1217 21.4203 17.1233 21.2406 16.9608 18.0953C16.7983 14.95 19.8764 16.1625 20.1702 16.5875C20.4639 17.0125 20.8592 18.5547 20.8592 18.5547L21.7108 18.4891L22.3655 14.5828V12.1328C22.3655 12.1328 23.7092 13.3344 25.453 12.2891C25.453 12.2891 27.2233 13.1125 28.2061 12.2891C28.2061 12.2891 29.9749 13.4312 31.253 12.2891C31.2499 12.2906 31.7905 13.4078 33.3874 12.2906Z" fill="#FFAD92"/>
<path id="Vector_12" d="M24.3558 20.5715C24.3403 20.558 24.3276 20.5415 24.3185 20.5231C24.3094 20.5046 24.304 20.4846 24.3026 20.4641C24.3012 20.4435 24.3039 20.4229 24.3105 20.4034C24.3171 20.3839 24.3274 20.3659 24.341 20.3504C24.3545 20.3349 24.371 20.3223 24.3894 20.3131C24.4078 20.304 24.4279 20.2986 24.4484 20.2972C24.469 20.2958 24.4896 20.2985 24.5091 20.3051C24.5286 20.3117 24.5466 20.3221 24.5621 20.3356C24.5855 20.3559 26.8542 22.3137 29.2496 21.97C29.291 21.964 29.3331 21.9747 29.3667 21.9997C29.4002 22.0248 29.4225 22.0621 29.4285 22.1036C29.4345 22.145 29.4238 22.1871 29.3987 22.2207C29.3737 22.2542 29.3363 22.2765 29.2949 22.2825C27.5183 22.534 25.5199 21.5918 24.3558 20.5715Z" fill="#ED6C4D"/>
<path id="Vector_13" d="M27.2247 25.3277C23.2294 25.3277 20.7153 22.6011 20.6857 22.5698C20.6719 22.5545 20.6613 22.5367 20.6545 22.5173C20.6476 22.4979 20.6446 22.4774 20.6457 22.4569C20.6468 22.4363 20.6519 22.4162 20.6608 22.3977C20.6697 22.3791 20.6821 22.3625 20.6974 22.3487C20.7282 22.321 20.7689 22.3066 20.8104 22.3088C20.8309 22.3099 20.851 22.315 20.8695 22.3239C20.8881 22.3327 20.9047 22.3452 20.9185 22.3605C20.9497 22.3948 24.1169 25.8214 28.9685 24.837C28.989 24.8329 29.0101 24.8329 29.0306 24.837C29.0512 24.841 29.0707 24.8491 29.0881 24.8607C29.1055 24.8723 29.1205 24.8872 29.1321 24.9046C29.1438 24.922 29.1519 24.9415 29.156 24.962C29.1601 24.9825 29.1601 25.0037 29.156 25.0242C29.152 25.0447 29.1439 25.0643 29.1323 25.0817C29.1207 25.0991 29.1058 25.114 29.0884 25.1257C29.071 25.1373 29.0515 25.1454 29.031 25.1495C28.4364 25.2693 27.8313 25.329 27.2247 25.3277Z" fill="#ED6C4D"/>
<path id="Vector_14" d="M3.69803 12.4351C1.40585 14.1851 1.0621 17.5914 2.92928 20.0304C3.4873 20.7778 4.22168 21.3755 5.06687 21.77C5.91205 22.1645 6.84177 22.3436 7.77303 22.2914C8.69022 22.3086 9.47616 23.3086 9.47616 23.3086L12.4449 21.0429C11.8512 20.2867 12.1324 18.9586 12.1324 18.9586C13.8887 13.9211 7.8746 9.24919 3.69803 12.4351Z" fill="#FFB020"/>
<path id="Vector_15" d="M10.6421 23.1261C10.6158 23.1258 10.59 23.119 10.5671 23.1062C10.5441 23.0933 10.5248 23.0749 10.5109 23.0526C9.62806 21.6464 8.33275 19.787 7.24838 18.5761C6.68744 18.9745 6.22963 19.3339 5.489 18.8886C4.70775 18.4198 4.47963 17.4214 5.38431 17.0495C5.83744 16.8636 6.539 17.362 7.289 18.1542C7.58115 17.9391 7.86029 17.707 8.12494 17.4589C7.72181 16.8557 7.21088 16.187 7.78431 15.7698C8.264 15.4229 9.15931 15.6229 9.19056 16.2729C9.21244 16.6511 8.91713 17.0886 8.52181 17.4995C9.38431 18.7495 10.8828 20.6573 11.9437 21.9604C11.9674 21.9928 11.9778 22.033 11.9727 22.0727C11.9676 22.1125 11.9474 22.1488 11.9163 22.1741C11.8851 22.1994 11.8455 22.2117 11.8055 22.2086C11.7656 22.2055 11.7283 22.1871 11.7015 22.1573C11.4015 21.7886 9.41869 19.3448 8.29525 17.7198C8.04135 17.9555 7.77481 18.1772 7.49681 18.3839C8.87181 19.9011 10.3515 22.2151 10.7687 22.8823C10.7902 22.9174 10.7971 22.9595 10.7877 22.9996C10.7783 23.0397 10.7535 23.0745 10.7187 23.0964C10.6965 23.1133 10.67 23.1236 10.6421 23.1261ZM5.50306 17.3448C4.83431 17.6198 5.11244 18.3057 5.64994 18.6261C6.21869 18.9651 6.55619 18.6839 7.03588 18.3448C6.73275 18.012 5.914 17.1651 5.50306 17.3354V17.3448ZM7.84681 16.3292C7.864 16.4667 8.05463 16.7979 8.3515 17.2417C8.73588 16.8354 9.16556 16.2276 8.664 15.9917C8.44681 15.8792 7.79213 15.9386 7.84213 16.3198L7.84681 16.3292Z" fill="white"/>
<path id="Vector_16" d="M2.54044 15.3537C2.54044 15.3537 2.38419 16.7896 2.78263 16.824C3.18107 16.8583 3.27638 15.3318 3.27638 15.3318C3.27638 15.3318 3.41857 14.4599 3.01232 14.4849C2.60607 14.5099 2.54044 15.3537 2.54044 15.3537Z" fill="white"/>
<path id="Vector_17" d="M9.47656 23.309L10.9031 25.1762C11.0519 25.3709 11.2375 25.5345 11.4495 25.6575C11.6614 25.7805 11.8955 25.8605 12.1384 25.893C12.3813 25.9255 12.6282 25.9099 12.8651 25.8469C13.1019 25.784 13.324 25.675 13.5187 25.5262C13.7135 25.3776 13.877 25.1921 14 24.9802C14.123 24.7684 14.203 24.5344 14.2355 24.2917C14.268 24.0489 14.2523 23.8021 14.1894 23.5654C14.1265 23.3287 14.0175 23.1067 13.8688 22.9121L12.4422 21.0371L9.47656 23.309Z" fill="#A369F7"/>
<path id="Vector_18" d="M19.4373 26.6797L23.5342 30.2172L21.8873 34.1L18.2451 28.8219L19.4373 26.6797Z" fill="#FFB020"/>
<path id="Vector_19" d="M27.8748 27.459L26.0654 30.1684L27.8748 33.2637L28.6764 28.6434L27.8748 27.459Z" fill="#FFB020"/>
<path id="Vector_20" d="M23.5342 30.2184L26.0654 30.1699L26.7904 31.409L25.9342 33.1012L29.2764 56.3621L26.4045 59.9996L22.9529 56.559L23.5342 33.2652L22.7295 32.1168L23.5342 30.2184Z" fill="#FF605B"/>
<path id="Vector_21" d="M65.5747 74.4215C53.5528 74.2652 49.8934 76.4402 46.22 76.209C44.4544 76.1012 42.7638 75.4527 41.0044 75.2387C36.4403 74.6809 31.6841 77.048 27.3309 75.5355C25.9981 75.0668 24.8153 74.2652 23.6856 73.4215C21.0841 71.484 20.9997 70.3121 21.5919 66.8746C23.6794 54.798 19.6731 48.8762 23.1419 42.8434C23.5778 42.084 24.145 41.3699 24.9184 40.959C26.195 40.2902 24.5419 40.559 63.92 39.2402C62.0169 44.2402 63.7106 50.259 64.1216 55.984C64.5731 62.1652 63.4997 68.5934 65.5747 74.4215Z" fill="#00ABFE"/>
<path id="Vector_22" d="M28.6764 42.7551C25.5154 43.3879 23.3232 45.9723 21.6748 48.7285C21.7389 46.652 22.1045 44.6504 23.142 42.8473C23.5779 42.0879 24.1451 41.3738 24.9186 40.9629C25.0123 41.4051 25.4482 41.6332 25.8561 41.8066C26.7719 42.1908 27.7145 42.5077 28.6764 42.7551Z" fill="#0071FF"/>
<path id="Vector_23" d="M30.5621 76.0504C27.6684 76.0285 25.9934 75.1457 23.6871 73.4223C22.4059 72.4676 21.4902 71.627 21.3262 70.0332C21.7113 70.6254 22.2127 71.1331 22.8 71.5258C23.3872 71.9184 24.0481 72.1876 24.7425 72.3172C25.437 72.4468 26.1505 72.434 26.8398 72.2797C27.5291 72.1253 28.1799 71.8325 28.7527 71.4191C28.173 73.8426 28.3324 75.1035 30.5621 76.0504Z" fill="#0071FF"/>
<path id="Vector_24" d="M43.5109 71.9574C51.2101 71.9574 57.4516 65.716 57.4516 58.0168C57.4516 50.3176 51.2101 44.0762 43.5109 44.0762C35.8117 44.0762 29.5703 50.3176 29.5703 58.0168C29.5703 65.716 35.8117 71.9574 43.5109 71.9574Z" fill="white"/>
<path id="Vector_25" d="M43.5105 67.0758C48.5139 67.0758 52.5699 63.0198 52.5699 58.0164C52.5699 53.013 48.5139 48.957 43.5105 48.957C38.5072 48.957 34.4512 53.013 34.4512 58.0164C34.4512 63.0198 38.5072 67.0758 43.5105 67.0758Z" fill="#FF605B"/>
<path id="Vector_26" d="M43.5109 61.309C45.3292 61.309 46.8031 59.835 46.8031 58.0168C46.8031 56.1986 45.3292 54.7246 43.5109 54.7246C41.6927 54.7246 40.2188 56.1986 40.2188 58.0168C40.2188 59.835 41.6927 61.309 43.5109 61.309Z" fill="white"/>
<path id="Vector_27" d="M35.5656 42.832L35.0625 44.5898L33.9313 45.4336L32.1328 45.6664L35.2063 48.368H36.8766L37.5312 46.5992L35.5656 42.832Z" fill="#EAE5DB"/>
<path id="Vector_28" d="M43.8121 57.6642L35.0621 44.5892C34.2215 44.3017 33.8683 44.6127 33.9308 45.433L43.248 57.997C43.5871 58.0689 43.7496 57.9299 43.8121 57.6642Z" fill="#FFB020"/>
<path id="Vector_29" d="M64.4375 50.9238L61.3578 51.6113C61.3578 51.6113 58.0484 51.0879 59.064 52.7582C59.064 52.7582 57.6578 52.5613 57.7219 53.5113C57.7859 54.4613 58.9328 54.7238 58.9328 54.7238C58.9328 54.7238 58.4422 55.0848 58.5078 55.4441C58.5734 55.8035 60.0469 56.166 60.0469 56.166C59.9774 56.3965 60.0001 56.6449 60.1103 56.8588C60.2205 57.0728 60.4095 57.2356 60.6375 57.3129C61.489 57.6723 63.6187 57.8691 63.6187 57.8691C63.6187 57.8691 65.5156 57.5082 65.5828 56.7223L65.65 55.941C65.65 55.941 65.9781 54.691 65.4203 54.2707C65.4203 54.2707 65.8797 52.9598 65.2234 52.5988C65.2187 52.5941 65.15 51.2191 64.4375 50.9238Z" fill="#FFAD92"/>
<g id="Group">
<path id="Vector_30" d="M59.0251 52.9122C58.9836 52.9039 58.9472 52.8795 58.9237 52.8443C58.9003 52.8092 58.8918 52.7661 58.9001 52.7247C58.9084 52.6832 58.9328 52.6468 58.9679 52.6233C59.0031 52.5999 59.0461 52.5914 59.0876 52.5997C61.2751 53.0403 62.0798 53.0403 64.1938 52.47C64.234 52.4594 64.2768 52.4653 64.3127 52.4862C64.3486 52.5072 64.3747 52.5415 64.3852 52.5817C64.3958 52.6219 64.39 52.6647 64.369 52.7006C64.3481 52.7364 64.3137 52.7626 64.2735 52.7731C62.0251 53.3731 61.2985 53.3762 59.0251 52.9122Z" fill="#ED6C4D"/>
<path id="Vector_31" d="M58.9093 54.8817C58.8678 54.8774 58.8298 54.8567 58.8036 54.8244C58.7773 54.792 58.7651 54.7505 58.7694 54.7091C58.7738 54.6676 58.7944 54.6296 58.8268 54.6034C58.8592 54.5772 58.9006 54.5649 58.9421 54.5692L62.1061 54.8942L64.2218 54.738C64.2632 54.7349 64.3042 54.7483 64.3357 54.7754C64.3672 54.8026 64.3866 54.8411 64.3897 54.8825C64.3928 54.9239 64.3794 54.9649 64.3522 54.9964C64.3251 55.0279 64.2866 55.0474 64.2452 55.0505L62.1155 55.2145C62.0936 55.2114 62.2843 55.2286 58.9093 54.8817Z" fill="#ED6C4D"/>
<path id="Vector_32" d="M62.5046 56.7201C60.2359 56.3014 59.839 56.4373 59.8859 56.1483C59.9327 55.8592 60.2999 56.1155 62.5327 56.4076L64.2155 56.2139C64.2361 56.2115 64.2568 56.2132 64.2767 56.2189C64.2966 56.2246 64.3151 56.2341 64.3313 56.247C64.3475 56.2598 64.361 56.2757 64.371 56.2938C64.381 56.3118 64.3874 56.3317 64.3898 56.3522C64.3921 56.3727 64.3904 56.3935 64.3847 56.4133C64.3791 56.4332 64.3695 56.4518 64.3567 56.4679C64.3439 56.4841 64.328 56.4976 64.3099 56.5076C64.2918 56.5177 64.272 56.524 64.2515 56.5264C62.4437 56.7202 62.5421 56.7201 62.5046 56.7201Z" fill="#ED6C4D"/>
</g>
<path id="Vector_33" d="M9.78262 31.5625C9.78262 31.5625 6.97012 32.0859 3.30137 39.6875C-0.367379 47.2891 -8.37519 61.7016 -2.86425 64.1266C2.64668 66.5516 17.7764 56.9844 17.7764 56.9844C17.7764 56.9844 17.2842 52.725 16.1045 51.7422L8.07793 53.4453L11.6248 46.5984C11.6248 46.5984 13.3529 33.6906 9.78262 31.5625Z" fill="#FFC364"/>
<path id="Vector_34" d="M2.91831 54.8806C2.87687 54.8856 2.83515 54.8739 2.80233 54.8481C2.76951 54.8223 2.74828 54.7845 2.74331 54.7431C2.73834 54.7017 2.75003 54.6599 2.77582 54.6271C2.8016 54.5943 2.83937 54.5731 2.88081 54.5681L8.03706 53.29L16.0699 51.5853C16.1113 51.5768 16.1544 51.5851 16.1897 51.6084C16.225 51.6317 16.2497 51.6681 16.2582 51.7095C16.2666 51.7509 16.2583 51.7941 16.235 51.8294C16.2117 51.8647 16.1754 51.8893 16.1339 51.8978L8.1105 53.5947L2.95425 54.8712C2.94268 54.8758 2.93062 54.8789 2.91831 54.8806Z" fill="#FFB020"/>
<path id="Vector_35" d="M8.07803 53.6025C8.05304 53.6026 8.02839 53.5967 8.00615 53.5854C7.98786 53.5759 7.97161 53.563 7.95833 53.5473C7.94505 53.5316 7.935 53.5134 7.92876 53.4938C7.92251 53.4742 7.9202 53.4536 7.92195 53.4331C7.92371 53.4126 7.92949 53.3927 7.93896 53.3744L11.478 46.5275C11.4917 46.5021 11.5116 46.4806 11.5358 46.465L12.8468 45.6838C12.882 45.6679 12.9219 45.6656 12.9588 45.6774C12.9956 45.6892 13.0268 45.7142 13.0462 45.7476C13.0656 45.7811 13.072 45.8205 13.064 45.8584C13.056 45.8962 13.0343 45.9298 13.003 45.9525L11.7312 46.715L8.2124 53.5229C8.19897 53.5468 8.17948 53.5667 8.15589 53.5807C8.1323 53.5947 8.10545 53.6022 8.07803 53.6025Z" fill="#FFB020"/>
<path id="Vector_36" d="M17.7764 56.985L21.2061 56.4506C21.6838 56.3761 22.1286 56.1614 22.4841 55.8337C22.8397 55.506 23.0898 55.08 23.2029 54.61L23.8701 51.8365L27.3201 51.1084C27.4378 51.0839 27.5435 51.0195 27.6192 50.9262C27.6949 50.8328 27.7361 50.7161 27.7357 50.5959C27.7357 50.527 27.7222 50.4588 27.6958 50.3952C27.6693 50.3316 27.6307 50.2738 27.5819 50.2252C27.5331 50.1766 27.4752 50.1381 27.4115 50.1118C27.3478 50.0856 27.2796 50.0722 27.2107 50.0725H21.9201L21.5373 49.149C21.3537 49.0167 21.1443 48.9247 20.9227 48.8789C20.7011 48.8332 20.4723 48.8347 20.2514 48.8834L19.3717 49.0756C18.0982 49.3537 17.7154 50.2428 16.1045 51.7428L17.7764 56.985Z" fill="#FFAD92"/>
<path id="Vector_37" d="M22.0484 55.5309C21.6468 55.4966 22.3375 54.795 21.2937 50.7512C21.2832 50.711 21.289 50.6683 21.3099 50.6324C21.3309 50.5965 21.3652 50.5704 21.4054 50.5598C21.4456 50.5493 21.4884 50.5551 21.5243 50.5761C21.5602 50.597 21.5863 50.6314 21.5968 50.6716C21.6281 50.7919 22.3687 53.6403 22.2218 55.3887C22.2201 55.4096 22.2142 55.4299 22.2045 55.4484C22.1947 55.4669 22.1814 55.4833 22.1652 55.4965C22.149 55.5098 22.1304 55.5197 22.1103 55.5256C22.0902 55.5315 22.0692 55.5333 22.0484 55.5309Z" fill="#ED6C4D"/>
<path id="Vector_38" d="M3.24484 64.0388C3.2034 64.0453 3.1611 64.035 3.12726 64.0102C3.09341 63.9854 3.07079 63.9482 3.06437 63.9068C3.05794 63.8654 3.06825 63.8231 3.09301 63.7892C3.11777 63.7554 3.15496 63.7328 3.1964 63.7263C8.07825 62.1019 12.7524 59.9098 17.123 57.1951C17.1575 57.1761 17.1979 57.1709 17.2361 57.1805C17.2743 57.19 17.3075 57.2136 17.329 57.2466C17.3506 57.2796 17.3588 57.3195 17.3522 57.3583C17.3456 57.3972 17.3245 57.4321 17.2933 57.456C12.8995 60.1838 8.20067 62.3864 3.29327 64.0185C3.27824 64.0277 3.26191 64.0345 3.24484 64.0388Z" fill="#FFB020"/>
</g>
</g>
</svg>
