<svg width="40" height="41" viewBox="0 0 40 41" fill="none" xmlns="http://www.w3.org/2000/svg">
<g id="Group">
<g id="Layer_78">
<path id="Shape" fill-rule="evenodd" clip-rule="evenodd" d="M10 19.0001H34C37.3137 19.0001 40 21.6864 40 25.0001V35.0001C40 38.3138 37.3137 41.0001 34 41.0001H6C2.68629 41.0001 0 38.3138 0 35.0001V25.0001C0 21.6864 2.68629 19.0001 6 19.0001V15.0001C5.97435 8.15989 10.8953 2.30262 17.6375 1.14838C24.3797 -0.00587207 30.9688 3.8809 33.22 10.3401C33.5801 11.3782 33.0353 12.5123 32 12.8801C31.4963 13.0655 30.9393 13.0407 30.4541 12.8113C29.9689 12.5819 29.5963 12.1671 29.42 11.6601C27.788 7.0794 23.0974 4.33668 18.305 5.16091C13.5126 5.98515 10.0078 10.1374 10 15.0001V19.0001ZM34 37.0001C35.1046 37.0001 36 36.1047 36 35.0001V25.0001C36 23.8956 35.1046 23.0001 34 23.0001H6C4.89543 23.0001 4 23.8956 4 25.0001V35.0001C4 36.1047 4.89543 37.0001 6 37.0001H34Z" fill="white"/>
</g>
</g>
</svg>
