<svg width="24" height="24" viewBox="0 0 24 24" fill="none" xmlns="http://www.w3.org/2000/svg">
<g id="check (1) 1" clip-path="url(#clip0_4254_76888)">
<g id="Group">
<g id="Group_2">
<path id="Vector" d="M24.0001 12.0003L21.2832 8.98383L21.7086 4.9455L17.7357 4.10447L15.7092 0.583984L12.0001 2.24168L11.4995 12.0003L12.0001 21.7589L15.7092 23.4166L17.7357 19.8962L21.7086 19.0551L21.2832 15.0167L24.0001 12.0003Z" fill="#0ED678"/>
<path id="Vector_2" d="M8.29087 0.583984L6.26438 4.10447L2.29152 4.94554L2.71691 8.98383L0 12.0003L2.71691 15.0167L2.29152 19.0551L6.26438 19.8962L8.29092 23.4166L12 21.7589V2.24168L8.29087 0.583984Z" fill="#04EB84"/>
</g>
<g id="Group_3">
<path id="Vector_3" d="M17.0303 9.37311L15.9799 8.43555L11.9997 12.8949L11.499 14.0031L11.9997 15.0093L17.0303 9.37311Z" fill="#F7F0EB"/>
<path id="Vector_4" d="M7.81682 10.9404L6.82129 11.936L11.0069 16.1217L11.9998 15.0094V12.895L10.9488 14.0724L7.81682 10.9404Z" fill="#FFFBF5"/>
</g>
</g>
</g>
<defs>
<clipPath id="clip0_4254_76888">
<rect width="24" height="24" fill="white"/>
</clipPath>
</defs>
</svg>
