<svg width="25" height="21" viewBox="0 0 25 21" fill="none" xmlns="http://www.w3.org/2000/svg">
<g id="Group">
<g id="Layer_129">
<path id="Shape" fill-rule="evenodd" clip-rule="evenodd" d="M22.5411 12.6353C22.2597 12.7724 21.9892 12.9255 21.7315 13.0937C21.822 13.3758 21.9392 13.651 22.0819 13.9166L22.0966 13.9473C22.4929 14.7751 22.9794 15.7915 22.2753 16.6249C21.5623 17.4687 20.2573 17.3853 19.2061 17.302C18.8722 17.2818 18.5371 17.2818 18.2032 17.302C18.1254 17.4744 18.0272 17.814 17.9556 18.062L17.9555 18.062L17.9373 18.1249C17.7078 19.0103 17.4057 20.1145 16.2336 20.4374C16.0502 20.4895 15.8587 20.5176 15.6657 20.5208C14.7721 20.4162 13.948 20.0482 13.3336 19.4791C13.0754 19.2456 12.7967 19.0297 12.4998 18.8333C12.2064 19.003 11.9277 19.191 11.6661 19.3958L11.6614 19.3993C10.8767 19.982 9.89965 20.7077 8.76609 20.4374C7.63025 20.1666 7.29192 18.9791 7.06234 18.0937L7.04414 18.0308C6.97248 17.7829 6.87427 17.4432 6.7965 17.2708C6.46261 17.2505 6.12748 17.2505 5.79359 17.2708C4.74234 17.3541 3.44942 17.4478 2.72442 16.5937C2.01818 15.7616 2.49295 14.7714 2.88658 13.9504L2.91775 13.8853C3.06051 13.6198 3.17771 13.3445 3.26817 13.0624C3.01046 12.8943 2.74 12.7411 2.45859 12.6041C1.55234 12.1666 0.416504 11.5416 0.416504 10.4999C0.416504 9.45826 1.55234 8.83326 2.45859 8.4166C2.74 8.27955 3.01046 8.12643 3.26817 7.95826C3.17771 7.67615 3.06051 7.40092 2.91775 7.13535L2.90307 7.10467C2.50677 6.2768 2.02023 5.26044 2.72442 4.42701C3.43734 3.58326 4.74234 3.6666 5.79359 3.74993C6.12748 3.77019 6.46261 3.77019 6.7965 3.74993C6.87427 3.57754 6.97247 3.23784 7.04414 2.9899L7.04414 2.98989L7.06234 2.92701C7.29192 2.0416 7.594 0.93743 8.76609 0.614514C9.91099 0.299086 10.8368 0.987508 11.6112 1.56329L11.6661 1.6041C11.9277 1.80886 12.2064 1.99686 12.4998 2.1666C12.7933 1.99686 13.0719 1.80886 13.3336 1.6041L13.3557 1.58771C14.1371 1.00723 15.0964 0.294614 16.2336 0.614514C17.3815 0.93743 17.7078 2.0416 17.9373 2.92701L17.9555 2.9899C18.0272 3.23783 18.1254 3.57754 18.2032 3.74993C18.5371 3.77019 18.8722 3.77019 19.2061 3.74993C20.2573 3.6666 21.5503 3.57285 22.2753 4.42701C22.9815 5.25908 22.5067 6.24929 22.1131 7.07028L22.0819 7.13535C21.9392 7.40092 21.822 7.67615 21.7315 7.95826C21.9892 8.12643 22.2597 8.27955 22.5411 8.4166C23.4473 8.83326 24.5832 9.45826 24.5832 10.4999C24.5832 11.5416 23.4473 12.1666 22.5411 12.6353ZM16.874 7.08326C17.3923 7.44103 17.4786 8.09225 17.0673 8.5416L12.234 13.7499C12.0223 13.9823 11.706 14.1262 11.364 14.1458H11.2915C10.9703 14.1474 10.6616 14.0387 10.4336 13.8437L8.01692 11.7603C7.54311 11.3519 7.54311 10.6896 8.01692 10.2812C8.49074 9.87272 9.25894 9.87272 9.73275 10.2812L11.1948 11.5416L15.1823 7.24993C15.5973 6.80315 16.3528 6.72873 16.874 7.08326ZM21.2965 10.1458C21.4778 10.2395 21.7315 10.3749 21.9369 10.4999C21.7315 10.6249 21.4778 10.7603 21.3328 10.7812C20.4965 11.0905 19.8214 11.654 19.4357 12.3645C19.2598 13.1477 19.4232 13.9594 19.8948 14.6458L20.1486 15.1978H19.4478C18.548 15.0284 17.6074 15.1469 16.8015 15.5312C16.1092 16.07 15.6778 16.8138 15.5932 17.6145C15.5749 17.6776 15.5548 17.7496 15.5337 17.8256C15.4991 17.9502 15.4616 18.0853 15.424 18.2083C15.2428 18.0937 15.0494 17.9478 14.9165 17.8437C14.2853 17.2454 13.4296 16.8581 12.4998 16.7499C11.563 16.8981 10.7186 17.3304 10.1194 17.9687C9.9865 18.0728 9.79317 18.2187 9.61192 18.3333C9.59376 18.2738 9.57123 18.2114 9.54859 18.1488C9.49594 18.0032 9.44275 17.8561 9.44275 17.7395C9.3581 16.9388 8.92667 16.195 8.23442 15.6562C7.4285 15.2719 6.48795 15.1534 5.58817 15.3228H4.88734L5.14109 14.7708C5.61273 14.0844 5.7761 13.2727 5.60025 12.4895C5.21456 11.779 4.53939 11.2155 3.70317 10.9062C3.52192 10.8124 3.26817 10.677 3.06275 10.552C3.26817 10.427 3.52192 10.2916 3.70317 10.1978C4.53939 9.88852 5.21456 9.32501 5.60025 8.61451C5.7761 7.83128 5.61273 7.01964 5.14109 6.33326L4.81484 5.78118H5.51567C6.41545 5.95063 7.356 5.83215 8.16192 5.44785C8.85418 4.90904 9.2856 4.16521 9.37025 3.36451C9.38855 3.30143 9.40857 3.2294 9.42967 3.15349C9.46432 3.02885 9.50187 2.89377 9.53942 2.77076C9.72067 2.88535 9.914 3.03118 10.0469 3.13535C10.6873 3.71443 11.542 4.08282 12.4636 4.17701C13.3852 4.08282 14.2399 3.71443 14.8803 3.13535C15.0132 3.03118 15.2065 2.88535 15.3878 2.77076C15.4059 2.83027 15.4284 2.89259 15.4511 2.9552C15.5037 3.10083 15.5569 3.24795 15.5569 3.36451C15.6416 4.16521 16.073 4.90904 16.7653 5.44785C17.5712 5.83215 18.5117 5.95063 19.4115 5.78118H20.1123L19.8586 6.33326C19.4016 7.00518 19.2387 7.79595 19.3994 8.56243C19.7851 9.27293 20.4603 9.83643 21.2965 10.1458Z" fill="white"/>
</g>
</g>
</svg>
