<svg width="25" height="24" viewBox="0 0 25 24" fill="none" xmlns="http://www.w3.org/2000/svg">
<g id="web-cam (1) 2">
<path id="Vector" d="M5.44763 16.125H19.5523C19.3774 15.5203 19.064 14.9646 18.637 14.502C18.21 14.0394 17.6811 13.6826 17.0923 13.46L14.3585 12.4348C14.2301 12.8264 13.9813 13.1675 13.6476 13.4093C13.3139 13.6511 12.9123 13.7813 12.5001 13.7813C12.088 13.7813 11.6864 13.6511 11.3527 13.4093C11.019 13.1675 10.7701 12.8264 10.6418 12.4348L7.90801 13.46C7.31908 13.6826 6.79011 14.0393 6.36305 14.5019C5.93598 14.9645 5.62256 15.5202 5.44763 16.125Z" fill="#E2E2E2"/>
<path id="Vector_2" d="M11.0938 11.8124C11.0938 12.1853 11.2419 12.543 11.5056 12.8068C11.7694 13.0705 12.127 13.2186 12.5 13.2186C12.873 13.2186 13.2306 13.0705 13.4944 12.8068C13.7581 12.543 13.9062 12.1853 13.9062 11.8124V11.278C13.4575 11.4454 12.9824 11.5312 12.5035 11.5313C12.4135 11.5313 12.3231 11.5284 12.2323 11.5225C11.8422 11.4971 11.4583 11.4123 11.0938 11.271V11.8124Z" fill="#E2E2E2"/>
<path id="Vector_3" d="M11 9.65625H9.875C9.75068 9.65625 9.63145 9.70564 9.54354 9.79354C9.45564 9.88145 9.40625 10.0007 9.40625 10.125C9.40625 10.2493 9.45564 10.3685 9.54354 10.4565C9.63145 10.5444 9.75068 10.5938 9.875 10.5938H11C11.1243 10.5938 11.2435 10.5444 11.3315 10.4565C11.4194 10.3685 11.4688 10.2493 11.4688 10.125C11.4688 10.0007 11.4194 9.88145 11.3315 9.79354C11.2435 9.70564 11.1243 9.65625 11 9.65625Z" fill="#E2E2E2"/>
<path id="Vector_4" d="M17 5.90625H16.5313V7.5C16.5308 7.78369 16.5002 8.06652 16.4401 8.34375H17C17.1243 8.34364 17.2435 8.29422 17.3313 8.20634C17.4192 8.11845 17.4687 7.99929 17.4688 7.875V6.375C17.4687 6.25071 17.4192 6.13155 17.3313 6.04366C17.2435 5.95578 17.1243 5.90636 17 5.90625Z" fill="#E2E2E2"/>
<path id="Vector_5" d="M8 5.90625C7.87571 5.90636 7.75655 5.95578 7.66866 6.04366C7.58078 6.13155 7.53136 6.25071 7.53125 6.375V7.875C7.53136 7.99929 7.58078 8.11845 7.66866 8.20634C7.75655 8.29422 7.87571 8.34364 8 8.34375H8.58425C8.50803 8.02525 8.46927 7.69894 8.46875 7.37145V5.90625H8Z" fill="#E2E2E2"/>
<path id="Vector_6" d="M15.8168 8.51865L15.8178 8.5149C15.9179 8.18586 15.9687 7.84384 15.9688 7.49992V5.15287C15.5278 5.13146 15.097 5.01335 14.7068 4.80692C14.3167 4.60048 13.9766 4.31077 13.7109 3.95831L13.5704 3.771C12.3459 4.66905 10.8673 5.15418 9.34876 5.15617H9.03125V7.37137C9.03469 7.99996 9.2 8.61706 9.51125 9.1632C9.62725 9.11806 9.75053 9.09449 9.875 9.09367H11C11.2065 9.09314 11.4083 9.15476 11.5793 9.2705C11.7503 9.38625 11.8824 9.55077 11.9586 9.74266C12.0348 9.93456 12.0515 10.1449 12.0065 10.3464C11.9615 10.5479 11.8569 10.7312 11.7063 10.8725C11.8908 10.9182 12.0789 10.9479 12.2685 10.9612C13.0486 11.013 13.8233 10.8 14.4673 10.3567C15.1112 9.91345 15.5867 9.26581 15.8168 8.51865ZM10.625 6.74992C10.5508 6.74992 10.4783 6.72793 10.4167 6.68672C10.355 6.64552 10.3069 6.58695 10.2785 6.51843C10.2502 6.4499 10.2427 6.3745 10.2572 6.30176C10.2717 6.22902 10.3074 6.1622 10.3598 6.10976C10.4123 6.05731 10.4791 6.0216 10.5518 6.00713C10.6246 5.99266 10.7 6.00008 10.7685 6.02847C10.837 6.05685 10.8956 6.10491 10.9368 6.16658C10.978 6.22825 11 6.30075 11 6.37492C11 6.47438 10.9605 6.56976 10.8902 6.64009C10.8198 6.71041 10.7245 6.74992 10.625 6.74992ZM12.7812 8.24992C12.7812 8.32451 12.7516 8.39605 12.6989 8.4488C12.6461 8.50154 12.5746 8.53117 12.5 8.53117C12.4254 8.53117 12.3539 8.50154 12.3011 8.4488C12.2484 8.39605 12.2188 8.32451 12.2188 8.24992V7.49992C12.2188 7.42533 12.2484 7.35379 12.3011 7.30105C12.3539 7.2483 12.4254 7.21867 12.5 7.21867C12.5746 7.21867 12.6461 7.2483 12.6989 7.30105C12.7516 7.35379 12.7812 7.42533 12.7812 7.49992V8.24992ZM14.375 6.74992C14.3008 6.74992 14.2283 6.72793 14.1667 6.68672C14.105 6.64552 14.0569 6.58695 14.0285 6.51843C14.0002 6.4499 13.9927 6.3745 14.0072 6.30176C14.0217 6.22902 14.0574 6.1622 14.1098 6.10976C14.1623 6.05731 14.2291 6.0216 14.3018 6.00713C14.3746 5.99266 14.45 6.00008 14.5185 6.02847C14.587 6.05685 14.6456 6.10491 14.6868 6.16658C14.728 6.22825 14.75 6.30075 14.75 6.37492C14.75 6.47438 14.7105 6.56976 14.6402 6.64009C14.5698 6.71041 14.4745 6.74992 14.375 6.74992Z" fill="#E2E2E2"/>
<path id="Vector_7" d="M8.375 9.84372H8.88766C8.92168 9.72301 8.97761 9.6096 9.05266 9.50914C8.93928 9.31614 8.8412 9.11455 8.75934 8.90622H8C7.9679 8.90622 7.9376 8.89962 7.90625 8.89673V9.37497C7.90636 9.49925 7.95578 9.61842 8.04366 9.7063C8.13155 9.79419 8.25071 9.84361 8.375 9.84372Z" fill="#E2E2E2"/>
<path id="Vector_8" d="M17.375 22.125H7.625V23.625H17.375V22.125Z" fill="#E2E2E2"/>
<path id="Vector_9" d="M15.125 19.5938H9.875V21.5625H15.125V19.5938Z" fill="#E2E2E2"/>
<path id="Vector_10" d="M1.625 17.5312C1.625 17.9291 1.78304 18.3106 2.06434 18.5919C2.34564 18.8732 2.72718 19.0312 3.125 19.0312H21.875C22.2728 19.0312 22.6544 18.8732 22.9357 18.5919C23.217 18.3106 23.375 17.9291 23.375 17.5312V16.6875H1.625V17.5312Z" fill="#E2E2E2"/>
<path id="Vector_11" d="M9.03122 4.59375H9.34873C10.7473 4.59018 12.1087 4.14344 13.2375 3.3177C13.357 3.22997 13.5062 3.19293 13.6529 3.21463C13.7995 3.23633 13.9317 3.31501 14.0206 3.43358L14.1611 3.62108C14.3776 3.9066 14.654 4.14135 14.9707 4.30889C15.2875 4.47643 15.6371 4.57272 15.995 4.59101C16.1395 4.59776 16.2758 4.65992 16.3757 4.76456C16.4755 4.86921 16.5312 5.0083 16.5312 5.15295V5.34375H17C17.102 5.3452 17.2032 5.36199 17.3002 5.39355C17.348 5.16118 17.373 4.92472 17.375 4.6875C17.375 3.54375 16.9206 2.44685 16.1119 1.6381C15.3031 0.829351 14.2062 0.375 13.0625 0.375H7.62497L7.60344 0.450375C7.40193 1.16305 7.37975 1.9145 7.53886 2.63783C7.69796 3.36115 8.03343 4.03393 8.5154 4.59626C8.64729 4.59465 8.81372 4.59375 9.03122 4.59375Z" fill="#E2E2E2"/>
<path id="Vector_12" d="M4.88 16.0518C5.07082 15.3448 5.42696 14.6934 5.91905 14.1512C6.41115 13.609 7.02508 13.1916 7.71024 12.9333L10.5373 11.8732C10.5366 11.8526 10.5312 11.8333 10.5312 11.8125V11.1562H9.875C9.65128 11.1555 9.43388 11.0819 9.25573 10.9466C9.07758 10.8113 8.94837 10.6216 8.88766 10.4062H8.375C8.10158 10.406 7.83944 10.2972 7.6461 10.1039C7.45277 9.91056 7.34403 9.64842 7.34375 9.375V8.66381C7.227 8.56807 7.13284 8.44771 7.06802 8.31135C7.00319 8.17499 6.96929 8.02599 6.96875 7.875V6.375C6.96906 6.10159 7.07781 5.83947 7.27114 5.64614C7.46447 5.45281 7.72659 5.34406 8 5.34375H8.41955L8.34241 5.26264C7.6246 4.54338 7.14093 3.62398 6.95484 2.625H3.125C2.72718 2.625 2.34564 2.78304 2.06434 3.06434C1.78304 3.34564 1.625 3.72718 1.625 4.125V16.125H4.86031L4.88 16.0518Z" fill="#E2E2E2"/>
<path id="Vector_13" d="M21.875 2.625H17.4734C17.7783 3.26987 17.9368 3.97419 17.9375 4.6875C17.9358 5.04158 17.8892 5.39401 17.7988 5.73637C17.9475 5.91616 18.0296 6.14171 18.0313 6.375V7.875C18.031 8.14841 17.9222 8.41053 17.7289 8.60386C17.5356 8.79719 17.2735 8.90594 17 8.90625H16.2711C15.944 9.80343 15.304 10.5524 14.4688 11.0154V11.8125C14.4688 11.8333 14.4633 11.8526 14.4626 11.8732L17.2897 12.9333C17.9749 13.1916 18.5889 13.609 19.081 14.1512C19.5731 14.6934 19.9292 15.3448 20.12 16.0518L20.1397 16.125H23.375V4.125C23.375 3.72718 23.217 3.34564 22.9357 3.06434C22.6544 2.78304 22.2729 2.625 21.875 2.625Z" fill="#E2E2E2"/>
</g>
</svg>
