<svg width="24" height="24" viewBox="0 0 24 24" fill="none" xmlns="http://www.w3.org/2000/svg">
<g id="volume 1">
<g id="Group">
<path id="Vector" d="M3 21.7502H4.875C6.11251 21.7502 7.125 20.7377 7.125 19.5002V12.8252C7.125 11.5802 6.11251 10.5752 4.875 10.5752H3C1.76249 10.5752 0.75 11.5802 0.75 12.8252V19.5002C0.75 20.7377 1.76249 21.7502 3 21.7502Z" fill="#008BDC"/>
<path id="Vector_2" d="M12.9375 6.41211H11.0625C9.82499 6.41211 8.8125 7.42459 8.8125 8.66211V19.4996C8.8125 20.7371 9.82499 21.7496 11.0625 21.7496H12.9375C14.175 21.7496 15.1875 20.7371 15.1875 19.4996V8.66211C15.1875 7.42459 14.175 6.41211 12.9375 6.41211Z" fill="white"/>
<path id="Vector_3" d="M21 2.25H19.125C17.8875 2.25 16.875 3.26249 16.875 4.5V19.5C16.875 20.7375 17.8875 21.75 19.125 21.75H21C22.2375 21.75 23.25 20.7375 23.25 19.5V4.5C23.25 3.26249 22.2375 2.25 21 2.25Z" fill="white"/>
</g>
</g>
</svg>
