<svg width="119" height="218" viewBox="0 0 119 218" fill="none" xmlns="http://www.w3.org/2000/svg">
<path d="M149.825 179.567C149.825 179.567 123.633 161.253 120.951 145.607C120.492 142.897 117.336 142.812 112.092 146.304C106.849 149.796 105.357 154.646 108.152 155.668C123.617 161.409 128.468 191.59 128.468 191.59C129.876 193.704 135.183 192.453 140.435 188.956L141.475 188.263C146.494 184.921 151.155 181.564 149.825 179.567Z" fill="#B6B8BE"/>
<path d="M147.945 178.909C149.253 180.873 144.353 184.34 139.617 187.494C134.873 190.653 130.052 191.749 128.744 189.785C128.744 189.785 123.918 161.917 109.738 156.426C107.148 155.423 108.515 150.981 113.217 147.849C117.962 144.69 120.89 144.794 121.261 147.299C123.409 160.646 147.945 178.909 147.945 178.909Z" fill="#F7FDFE"/>
<path d="M142.082 109.213C157.838 121.669 151.707 145.732 138.489 154.533C125.272 163.335 100.727 160.973 94.2062 141.095C88.8841 124.767 87.667 108.037 100.885 99.2349C114.102 90.4332 128.595 98.5394 142.082 109.213Z" fill="#B6B8BE"/>
<path d="M141.311 109.823C156.525 121.845 150.603 145.084 137.835 153.587C125.067 162.089 101.363 159.852 95.0742 140.612C89.9182 124.822 88.7479 108.686 101.524 100.178C114.301 91.6697 128.283 99.5149 141.311 109.823Z" fill="url(#paint0_linear_1458_19127)"/>
<path d="M95.4391 121.819C98.154 120.368 100.781 118.759 103.307 117C105.846 115.216 108.233 113.224 110.444 111.047C114.447 106.986 118.135 102.626 121.475 98.0058C120.48 97.6836 119.49 97.4057 118.514 97.1667C115.4 101.313 112.04 105.268 108.451 109.01C106.395 111.141 104.164 113.096 101.783 114.856C99.3802 116.656 96.8793 118.321 94.292 119.844C93.3487 120.412 92.386 120.969 91.4177 121.518C91.4488 122.298 91.4853 123.075 91.5274 123.847C92.8369 123.18 94.1158 122.484 95.4391 121.819Z" fill="#404040"/>
<path d="M122.851 109.993C125.869 107.671 128.933 105.398 132.043 103.175C131.097 102.604 130.102 102.065 129.165 101.488C126.335 103.372 123.596 105.376 120.872 107.419C113.322 113.01 106.097 119.025 99.2288 125.435C97.02 127.531 94.8333 129.768 92.8463 132.088C93.134 133.422 93.4384 134.781 93.8287 136.107C96.4058 133.35 99.0523 130.655 101.768 128.021C108.311 121.61 115.537 115.753 122.851 109.993Z" fill="#404040"/>
<path d="M139.858 108.688C138.939 109.96 137.949 111.233 137 112.441C132.679 117.666 128.067 122.643 123.185 127.347C118.346 132.204 113.553 137.041 108.434 141.496C105.87 143.707 103.228 145.839 100.479 147.826L99.3386 148.585C99.7072 149.049 100.095 149.487 100.492 149.92L101.482 149.333C104.435 147.522 107.276 145.534 109.989 143.38C115.357 139.06 120.5 134.469 125.397 129.623C127.884 127.258 130.356 124.855 132.729 122.338C135.158 119.845 137.459 117.23 139.622 114.504C140.573 113.286 141.477 112.015 142.334 110.691C141.998 110.386 141.655 110.086 141.286 109.803C140.784 109.429 140.346 109.06 139.858 108.688Z" fill="#404040"/>
<path d="M145.615 126.083C139.632 129.36 133.995 133.231 128.788 137.637C123.574 141.99 118.626 146.652 113.973 151.599C112.612 153.1 111.334 154.673 110.143 156.312C111.027 156.648 111.92 156.943 112.83 157.19C113.862 155.926 114.929 154.683 116.03 153.461C120.606 148.587 125.434 143.956 130.495 139.588C135.501 135.19 140.898 131.259 146.618 127.842C147.794 127.155 148.974 126.49 150.172 125.836C150.093 125.176 149.993 124.521 149.874 123.872C148.453 124.553 147.005 125.302 145.615 126.083Z" fill="#404040"/>
<path d="M126.176 92.9046C144.77 103.542 155.98 105.185 163.59 105.788C164.746 105.991 165.412 106.16 165.412 106.16C166.779 106.968 166.875 109.295 165.941 112.151C165.317 114.114 164.432 115.983 163.312 117.711C160.164 122.654 156.689 127.756 154.557 126.484C154.557 126.484 134.904 104.189 120.833 100.884C113.049 99.0632 119.295 88.9571 126.176 92.9046Z" fill="#B6B8BE"/>
<path d="M154.473 125.747C156.508 126.999 159.789 121.822 162.682 117.145C165.569 112.459 166.373 107.731 164.315 106.446C164.315 106.446 148.456 106.951 126.444 93.6151C119.981 89.701 112.843 98.7916 122.4 100.802C135.705 103.607 154.473 125.747 154.473 125.747Z" fill="#F7FDFE"/>
<path d="M124.934 92.8429C124.904 92.9954 124.901 93.1535 124.87 93.306C124.681 94.479 124.328 95.6196 123.823 96.6947C123.316 97.7523 122.713 98.7612 122.021 99.7086C121.83 99.9803 121.638 100.216 121.444 100.465C120.797 100.252 120.186 99.9419 119.631 99.5464C119.95 99.2138 120.269 98.8811 120.552 98.5485C121.262 97.7321 121.915 96.8678 122.506 95.9618C123.162 94.9521 123.673 93.8554 124.025 92.7037C124.331 92.7274 124.635 92.7739 124.934 92.8429Z" fill="#404040"/>
<path d="M111.556 63.1371C100.398 46.3821 72.3221 41.2059 63.7989 46.8815C54.2603 53.2334 49.2232 80.436 60.3916 97.2077C71.56 113.979 90.091 116.982 104.216 107.576C118.341 98.17 122.713 79.8922 111.556 63.1371Z" fill="#B6B8BE"/>
<path d="M56.9174 53.5432C55.0462 51.8337 54.8935 46.7692 54.5092 44.5141C55.4409 44.7587 56.4613 45.2446 57.382 45.4725C56.415 43.7136 55.2451 42.7145 55.3794 40.4625C55.5137 38.2105 55.9973 36.2305 55.4771 34.078C60.9069 35.2679 59.6352 38.0851 62.0251 39.6534C62.4751 38.3806 61.9791 37.5815 62.1323 36.206C63.2409 37.8706 67.9432 40.7465 69.4791 42.0064C70.4566 42.7482 71.1619 43.7921 71.4853 44.9759C71.8086 46.1596 71.732 47.4171 71.2673 48.5528C70.362 50.8017 65.7294 57.6831 62.9981 56.5584C63.2035 56.2534 58.5585 55.0334 56.9174 53.5432Z" fill="#404040"/>
<path d="M110.979 63.4252C100.06 47.0281 72.5773 41.9853 64.2373 47.539C54.8984 53.7578 49.9615 80.3892 60.8805 96.7863C71.7995 113.183 89.981 116.13 103.79 106.935C117.598 97.7397 121.904 79.8306 110.979 63.4252Z" fill="url(#paint1_linear_1458_19127)"/>
<path d="M70.7781 72.8591C70.9318 73.2064 70.9834 73.5903 70.9269 73.9658C70.8704 74.3414 70.7081 74.6931 70.4591 74.9798C70.21 75.2665 69.8845 75.4764 69.5206 75.5849C69.1566 75.6934 68.7693 75.6961 68.4039 75.5925C68.0385 75.489 67.7101 75.2836 67.4572 75.0003C67.2043 74.717 67.0372 74.3675 66.9756 73.9928C66.914 73.6181 66.9603 73.2335 67.1092 72.8841C67.2581 72.5348 67.5034 72.235 67.8164 72.0199C68.0658 71.8797 68.3404 71.7901 68.6245 71.7564C68.9086 71.7227 69.1966 71.7455 69.4718 71.8235C69.7471 71.9015 70.0042 72.0331 70.2284 72.2108C70.4526 72.3886 70.6394 72.6089 70.7781 72.8591Z" fill="#21141D"/>
<path d="M69.1466 74.0172C69.2245 74.0945 69.2843 74.1882 69.3215 74.2914C69.3587 74.3946 69.3725 74.5049 69.3619 74.6141C69.3512 74.7234 69.3164 74.8289 69.26 74.923C69.2035 75.0171 69.1269 75.0975 69.0355 75.1583C68.9442 75.2192 68.8404 75.2589 68.7318 75.2747C68.6232 75.2905 68.5124 75.2819 68.4075 75.2496C68.3027 75.2173 68.2063 75.1621 68.1253 75.0879C68.0444 75.0138 67.981 74.9225 67.9397 74.8208C67.8618 74.7435 67.8021 74.6499 67.7649 74.5466C67.7277 74.4434 67.7139 74.3331 67.7245 74.2239C67.7351 74.1147 67.77 74.0092 67.8264 73.915C67.8828 73.8209 67.9595 73.7405 68.0509 73.6797C68.1422 73.6189 68.246 73.5791 68.3546 73.5633C68.4632 73.5475 68.5739 73.5561 68.6788 73.5884C68.7837 73.6207 68.8801 73.6759 68.961 73.7501C69.0419 73.8243 69.1053 73.9155 69.1466 74.0172Z" fill="white"/>
<path d="M87.1918 61.9291C87.3465 62.2787 87.3977 62.6654 87.3394 63.0433C87.2811 63.4211 87.1157 63.7743 86.8629 64.0611C86.61 64.3478 86.2802 64.5561 85.9126 64.6612C85.545 64.7663 85.155 64.7639 84.7888 64.6541C84.4225 64.5444 84.0954 64.332 83.8462 64.0421C83.597 63.7522 83.436 63.3969 83.3825 63.0183C83.329 62.6397 83.3851 62.2538 83.5442 61.9061C83.7032 61.5585 83.9586 61.2637 84.2801 61.0567C84.783 60.7918 85.3697 60.7348 85.9142 60.8979C86.4587 61.0611 86.9174 61.4313 87.1918 61.9291Z" fill="#21141D"/>
<path d="M85.5439 63.0988C85.5982 63.2281 85.6146 63.3701 85.5912 63.5084C85.5678 63.6466 85.5056 63.7754 85.4119 63.8797C85.3181 63.984 85.1967 64.0595 85.0617 64.0974C84.9267 64.1353 84.7837 64.1341 84.6493 64.0939C84.515 64.0537 84.3949 63.9761 84.3029 63.8703C84.2109 63.7644 84.1509 63.6346 84.1299 63.496C84.1089 63.3574 84.1277 63.2156 84.1841 63.0872C84.2405 62.9589 84.3322 62.8492 84.4486 62.7709C84.6374 62.6695 84.8587 62.6471 85.064 62.7086C85.2693 62.77 85.4419 62.9103 85.5439 63.0988Z" fill="white"/>
<path d="M54.3299 64.2889C55.0919 65.5235 52.347 69.2136 48.469 70.4264C44.591 71.6392 40.2406 69.2738 40.1772 68.5472C40.1138 67.8205 42.1601 63.6225 46.0519 62.4125C49.9438 61.2025 53.7119 63.2707 54.3299 64.2889Z" fill="#404040"/>
<path d="M84.5653 45.356C85.38 46.5795 89.9458 45.4614 92.5601 42.2788C95.1744 39.0962 94.6833 34.173 94.0373 33.8343C93.3912 33.4956 88.6567 33.7289 86.0424 36.9115C83.4281 40.0941 83.8585 44.3849 84.5653 45.356Z" fill="#404040"/>
<path d="M85.2223 44.8102C85.8182 45.6148 88.936 44.8482 90.7594 42.6969C92.5827 40.5456 92.2655 37.2367 91.7941 37.034C90.7721 36.9316 89.7404 37.0688 88.7807 37.4347C87.821 37.8006 86.9598 38.385 86.2654 39.1417C84.4726 41.2847 84.7401 44.1582 85.2223 44.8102Z" fill="#F7FDFE"/>
<path d="M53.6281 64.6593C54.1408 65.5194 52.2313 68.1005 49.5377 68.945C46.8442 69.7895 43.919 68.2293 43.9137 67.7162C44.2136 66.734 44.7389 65.8355 45.4476 65.0924C46.1563 64.3493 47.0289 63.7821 47.9958 63.436C50.6588 62.5998 53.2041 63.9685 53.6281 64.6593Z" fill="#F7FDFE"/>
<path d="M61.4334 74.3603C60.9905 74.069 60.6646 73.6308 60.5133 73.1228C60.3728 72.6155 60.3731 72.0796 60.5141 71.5724C60.6335 71.0609 60.8593 70.5802 61.1768 70.1618C61.4943 69.7434 61.8964 69.3965 62.3569 69.1438C61.8643 69.9375 61.4707 70.7887 61.1852 71.6782C60.9459 72.5732 61.0339 73.5243 61.4334 74.3603Z" fill="black"/>
<path d="M88.9525 56.8516C88.3301 56.1849 87.4985 55.7509 86.5957 55.6217C85.6648 55.5422 84.7278 55.5771 83.8055 55.7256C84.2038 55.3926 84.6667 55.1454 85.165 54.9996C85.6633 54.8539 86.1864 54.8126 86.7014 54.8784C87.2415 54.9675 87.7458 55.206 88.1572 55.567C88.5618 55.8913 88.8426 56.3448 88.9525 56.8516Z" fill="black"/>
<path opacity="0.27" d="M101.119 63.1792C101.715 64.0747 102.033 65.127 102.031 66.2029C102.029 67.2789 101.709 68.3301 101.11 69.2238C100.51 70.1175 99.6597 70.8134 98.665 71.2236C97.6703 71.6337 96.5764 71.7397 95.5214 71.5282C94.4665 71.3166 93.498 70.797 92.7384 70.035C91.9788 69.273 91.4622 68.3029 91.254 67.2473C91.0457 66.1917 91.1552 65.0981 91.5685 64.1047C91.9818 63.1113 92.6804 62.2628 93.5759 61.6664C94.7768 60.8668 96.2462 60.5769 97.6608 60.8606C99.0754 61.1443 100.319 61.9783 101.119 63.1792Z" fill="#FF9FC1"/>
<path opacity="0.27" d="M72.3789 82.3179C72.9753 83.2134 73.2927 84.2657 73.291 85.3416C73.2893 86.4175 72.9686 87.4688 72.3694 88.3625C71.7703 89.2561 70.9196 89.9521 69.9249 90.3622C68.9302 90.7724 67.8363 90.8784 66.7813 90.6669C65.7264 90.4553 64.7579 89.9357 63.9983 89.1737C63.2387 88.4117 62.7221 87.4416 62.5139 86.386C62.3056 85.3304 62.4151 84.2368 62.8284 83.2434C63.2417 82.25 63.9403 81.4015 64.8358 80.8051C65.43 80.4079 66.0968 80.1318 66.7979 79.9928C67.499 79.8538 68.2207 79.8546 68.9215 79.9952C69.6223 80.1357 70.2885 80.4133 70.8818 80.8118C71.4751 81.2104 71.9839 81.7222 72.3789 82.3179Z" fill="#FF9FC1"/>
<path d="M113.9 74.4678C119.703 83.1824 115.573 98.343 103.379 106.463C91.1857 114.583 75.583 112.55 69.7854 103.844C63.9878 95.1375 69.8549 82.5322 82.0487 74.4123C94.2425 66.2923 108.096 65.7532 113.9 74.4678Z" fill="#404040"/>
<path d="M84.8422 89.3247C84.9686 89.5287 85.032 89.7654 85.0245 90.0053C85.017 90.2452 84.9389 90.4775 84.8 90.6732C84.6611 90.8689 84.4676 91.0193 84.2437 91.1056C84.0197 91.1919 83.7753 91.2102 83.541 91.1583C83.3067 91.1063 83.0929 90.9864 82.9264 90.8136C82.7599 90.6408 82.6481 90.4227 82.605 90.1866C82.5618 89.9505 82.5892 89.707 82.6838 89.4864C82.7784 89.2658 82.9359 89.0781 83.1367 88.9466C83.2724 88.856 83.4251 88.7938 83.5855 88.7638C83.7459 88.7338 83.9107 88.7365 84.0701 88.7718C84.2294 88.8071 84.3799 88.8743 84.5126 88.9693C84.6453 89.0643 84.7574 89.1852 84.8422 89.3247Z" fill="white"/>
<path d="M95.9113 83.2864C96.4721 82.9129 96.624 82.1555 96.2506 81.5947C95.8771 81.0339 95.1197 80.882 94.5589 81.2554C93.9981 81.6289 93.8462 82.3863 94.2197 82.9471C94.5931 83.5079 95.3505 83.6598 95.9113 83.2864Z" fill="white"/>
<path d="M84.2147 100.543C86.4936 100.558 88.7657 100.291 90.9797 99.7508C93.1555 99.2064 95.2243 98.2999 97.0994 97.0693C99.8988 95.158 102.243 92.6537 103.965 89.7342C104.565 88.7555 105.088 87.7321 105.531 86.6731C105.552 86.6277 105.59 86.5924 105.636 86.5748C105.683 86.5571 105.735 86.5586 105.78 86.5789C105.823 86.59 105.861 86.6165 105.885 86.6534C105.91 86.6902 105.92 86.7348 105.913 86.7787C104.741 91.4426 101.886 95.5087 97.8976 98.1957C95.897 99.5286 93.6505 100.449 91.2897 100.902C88.9648 101.37 86.5779 101.444 84.2282 101.123C84.1896 101.116 84.1527 101.102 84.1198 101.08C84.0869 101.059 84.0587 101.031 84.0369 100.998C84.0152 100.965 84.0003 100.929 83.9931 100.89C83.986 100.851 83.9868 100.812 83.9955 100.773C84.0068 100.718 84.0333 100.668 84.0721 100.627C84.1109 100.586 84.1603 100.557 84.2147 100.543Z" fill="white"/>
<path d="M88.5578 53.8231C88.6327 53.9357 88.7494 54.0139 88.882 54.0405C89.0146 54.0671 89.1524 54.0399 89.2649 53.965C90.9136 52.7928 92.3551 51.3538 93.53 49.7071C92.5096 49.2573 91.4726 48.8546 90.4382 48.474C90.0833 50.1558 89.4507 51.7668 88.5664 53.2407C88.5057 53.3253 88.4723 53.4265 88.4707 53.5306C88.4692 53.6347 88.4996 53.7368 88.5578 53.8231Z" fill="#404040"/>
<path d="M77.3516 50.2552C78.2097 48.852 78.851 47.3273 79.2538 45.7326C78.2554 45.6045 77.2709 45.5153 76.3252 45.4482C76.5764 46.9134 76.6121 48.4075 76.431 49.8831C76.4116 49.9793 76.4228 50.0793 76.463 50.1688C76.5032 50.2584 76.5705 50.3331 76.6554 50.3824C76.7094 50.4199 76.7703 50.4463 76.8346 50.4601C76.8989 50.474 76.9652 50.475 77.0299 50.4632C77.0946 50.4514 77.1563 50.4269 77.2115 50.3913C77.2667 50.3556 77.3143 50.3093 77.3516 50.2552Z" fill="#404040"/>
<path d="M102.291 56.4042C102.657 56.0882 103.045 55.7334 103.353 55.4202C102.294 54.6116 101.199 53.8511 100.068 53.1386C99.9152 53.5407 99.7514 53.9261 99.5709 54.3226C98.8457 56.001 97.8435 57.5456 96.6064 58.8918C96.538 58.963 96.4908 59.0518 96.4702 59.1483C96.4496 59.2449 96.4563 59.3452 96.4896 59.4381C96.5421 59.5605 96.6395 59.6581 96.7617 59.7108C96.884 59.7635 97.0218 59.7673 97.1468 59.7214C99.0348 58.9111 100.774 57.7898 102.291 56.4042Z" fill="#404040"/>
<path d="M103.171 63.951C103.06 63.9834 102.964 64.0526 102.897 64.1472C102.83 64.2418 102.798 64.3562 102.805 64.4717C102.812 64.5871 102.858 64.6968 102.936 64.7826C103.013 64.8684 103.118 64.9253 103.232 64.944C105.295 65.1937 107.385 65.0935 109.414 64.6477C110.099 64.5038 110.782 64.3378 111.472 64.1301C111.317 63.8971 111.162 63.664 111.001 63.4226C110.389 62.5094 109.728 61.6304 109.02 60.7895C108.703 61.0002 108.415 61.2524 108.096 61.4769C106.605 62.5721 104.94 63.4085 103.171 63.951Z" fill="#404040"/>
<path d="M61.4008 61.4667C61.4974 61.4491 61.5871 61.4051 61.6601 61.3395C61.7331 61.274 61.7865 61.1894 61.8143 61.0953C61.8379 60.9632 61.8096 60.8271 61.7352 60.7154C61.6608 60.6037 61.5462 60.5251 61.4152 60.496C59.889 60.0788 58.4384 59.4228 57.1173 58.5523C56.7978 59.4979 56.5061 60.4851 56.2615 61.525C57.9672 61.7725 59.7011 61.7529 61.4008 61.4667Z" fill="#404040"/>
<path d="M63.3688 90.8886C63.3957 90.7943 63.3932 90.6941 63.3615 90.6014C63.3298 90.5087 63.2705 90.4279 63.1915 90.3698C63.1394 90.3282 63.0795 90.2975 63.0154 90.2794C62.9512 90.2613 62.8841 90.2562 62.8179 90.2645C62.7517 90.2727 62.6879 90.2941 62.6301 90.3273C62.5723 90.3606 62.5218 90.4051 62.4815 90.4582C61.4935 91.6583 60.3264 92.6989 59.0213 93.5433C59.535 94.5494 60.102 95.5273 60.7199 96.473C61.914 94.7757 62.8098 92.8871 63.3688 90.8886Z" fill="#404040"/>
<path d="M59.0063 73.5493C58.9828 73.4167 58.9078 73.2989 58.7976 73.2214C58.6875 73.1439 58.5513 73.1131 58.4185 73.1357C57.1894 73.3264 55.9402 73.35 54.7048 73.2059C54.696 74.1128 54.7094 75.017 54.7339 75.9378C56.1781 75.5101 57.5548 74.8805 58.823 74.0678C58.899 74.0072 58.9564 73.9264 58.9888 73.8348C59.0212 73.7431 59.0273 73.6442 59.0063 73.5493Z" fill="#404040"/>
<path d="M60.8436 81.9372C59.1286 82.5626 57.3211 82.8972 55.4958 82.9273C55.7088 84.059 55.9689 85.1713 56.2595 86.2753L56.3178 86.2365C58.2031 85.3698 59.9275 84.189 61.4173 82.7446C61.4864 82.675 61.5336 82.5867 61.5529 82.4905C61.5721 82.3944 61.5627 82.2947 61.5258 82.2038C61.4993 82.1408 61.4605 82.0838 61.4116 82.0361C61.3627 81.9884 61.3048 81.951 61.2411 81.9261C61.1775 81.9012 61.1095 81.8894 61.0413 81.8913C60.973 81.8932 60.9058 81.9088 60.8436 81.9372Z" fill="#404040"/>
<path d="M89.8456 119.526C68.9737 124.355 57.7318 122.664 50.2871 121.059C49.1338 120.967 48.4359 120.886 48.4359 120.886C46.9007 121.273 46.116 123.477 46.1948 126.476C46.2245 128.536 46.5271 130.582 47.0946 132.562C48.6827 138.206 50.5276 144.063 52.9503 143.497C52.9503 143.497 78.1838 127.798 92.5943 128.694C100.662 129.196 97.5798 117.741 89.8456 119.526Z" fill="#B6B8BE"/>
<path d="M53.2936 142.83C50.9996 143.47 49.3296 137.537 47.9115 132.226C46.503 126.912 47.0868 122.147 49.3995 121.532C49.3995 121.532 64.4382 126.584 89.3673 120.161C96.6724 118.283 100.895 129.069 91.1612 128.218C77.6706 127.08 53.2936 142.83 53.2936 142.83Z" fill="#FFF7E9"/>
<path d="M50.4698 131.427C49.37 127.306 49.4762 123.083 50.6608 121.306C49.5712 121.183 48.9071 121.175 48.9071 121.175C46.5914 121.781 46.0127 126.923 47.4212 132.236C48.8297 137.55 50.8352 143.743 53.1356 143.09C53.1356 143.09 53.8734 142.738 54.9947 142.043C53.3302 140.781 51.6029 135.685 50.4698 131.427Z" fill="#404040"/>
<path d="M65.1156 132.699C64.4654 130.637 64.4912 128.422 65.1895 126.375C65.2017 126.329 65.1977 126.28 65.1783 126.236C65.1588 126.193 65.125 126.157 65.0825 126.135C65.04 126.113 64.9913 126.106 64.9444 126.116C64.8975 126.126 64.8553 126.151 64.8248 126.188C64.1795 127.178 63.7714 128.304 63.632 129.478C63.4675 130.652 63.4706 131.842 63.6414 133.014C63.8007 134.176 64.069 135.321 64.4427 136.433L64.464 136.499L66.1499 135.665C65.7386 134.701 65.393 133.71 65.1156 132.699Z" fill="#404040"/>
<path d="M91.746 120.083L91.6616 120.54C91.4955 121.712 91.5018 122.903 91.6804 124.073C91.8366 125.236 92.1017 126.381 92.4722 127.494C92.5699 127.799 92.6644 128.094 92.7773 128.447C93.4553 128.437 94.1285 128.331 94.7766 128.132C94.5695 127.715 94.372 127.295 94.1902 126.892C93.7627 125.901 93.4047 124.883 93.1189 123.843C92.7948 122.681 92.6394 121.479 92.6577 120.274C92.358 120.191 92.0536 120.127 91.746 120.083Z" fill="#404040"/>
<path d="M59.0633 137.012C57.9445 135.157 57.453 132.991 57.6617 130.835C57.7097 129.753 57.8385 128.677 58.0472 127.614C58.2521 126.582 58.5748 125.492 58.7999 124.359C58.8904 123.92 58.9809 123.482 59.0589 123.037C58.2691 122.964 57.53 122.886 56.8766 122.781L56.7204 123.965C56.5685 125.063 56.3784 126.174 56.2352 127.333C56.0976 128.503 56.0679 129.683 56.1466 130.859C56.2238 132.038 56.4723 133.2 56.8843 134.308C57.2688 135.429 57.9074 136.447 58.7502 137.28C58.7861 137.31 58.8301 137.328 58.8763 137.331C58.9226 137.335 58.9689 137.325 59.0093 137.302C59.0547 137.271 59.0858 137.223 59.0959 137.168C59.106 137.114 59.0943 137.058 59.0633 137.012Z" fill="#404040"/>
<path d="M69.7458 128.339C69.8257 129.521 70.0719 130.687 70.477 131.801C70.6705 132.319 70.9113 132.818 71.1964 133.292L71.8893 132.997C71.3578 131.494 71.1396 129.899 71.2483 128.309C71.3095 127.231 71.4468 126.159 71.659 125.101C71.7803 124.463 71.9461 123.801 72.0803 123.138C71.3714 123.187 70.6719 123.233 70.0171 123.253C69.9384 123.762 69.8532 124.283 69.7963 124.826C69.6736 125.993 69.6567 127.169 69.7458 128.339Z" fill="#404040"/>
<path d="M84.1819 121.939C84.2641 123.118 84.5124 124.279 84.9196 125.389C85.3087 126.508 85.9467 127.524 86.7856 128.361C86.8233 128.391 86.8691 128.408 86.917 128.412C86.9648 128.415 87.0126 128.404 87.0542 128.38C87.0976 128.347 87.1271 128.299 87.1371 128.245C87.1471 128.192 87.1368 128.136 87.1082 128.09C85.9782 126.237 85.4819 124.066 85.694 121.906C85.7 121.663 85.7376 121.42 85.7562 121.183C85.242 121.348 84.6942 121.408 84.1681 121.503C84.1822 121.645 84.1773 121.794 84.1819 121.939Z" fill="#404040"/>
<path d="M78.7862 123.846C78.8027 123.802 78.8039 123.753 78.7895 123.708C78.7751 123.663 78.746 123.625 78.7069 123.598C78.6583 123.575 78.6025 123.571 78.5511 123.587C78.4997 123.604 78.4566 123.639 78.4307 123.687C77.7852 124.679 77.374 125.806 77.2285 126.981C77.0685 128.153 77.0749 129.343 77.2473 130.513C77.29 130.647 77.3297 130.77 77.3724 130.904L78.8485 130.431C78.8234 130.369 78.803 130.305 78.7874 130.24C78.0959 128.165 78.0955 125.921 78.7862 123.846Z" fill="#404040"/>
<g clip-path="url(#clip0_1458_19127)">
<path d="M90.0665 53.4215L89.0511 54.0977C88.3048 53.5847 87.5909 53.3366 87.0162 53.2213C85.5613 52.9295 84.4148 53.3451 84.0981 53.4794C83.135 53.8879 81.7353 54.759 80.3615 55.6883C80.3573 55.691 80.353 55.6931 80.3489 55.6958C80.3488 55.6958 80.3488 55.6959 80.3487 55.6959L64.8534 66.0189C64.8513 66.0202 64.8496 66.0218 64.8477 66.0231C63.3602 66.9873 61.8788 68.0263 61.0785 68.8084C60.8324 69.0487 60.0069 69.9464 59.7152 71.4013C59.6 71.976 59.5536 72.7304 59.7392 73.6167L58.7237 74.2929C58.185 74.6516 58.0391 75.3792 58.3978 75.9179C58.7565 76.4565 59.4841 76.6024 60.0228 76.2437L60.6318 75.8382C60.7091 75.9679 60.7915 76.0991 60.8798 76.2317C63.6814 80.439 67.9946 80.7869 70.8165 79.3297C71.1107 79.1778 71.3946 79.0104 71.6675 78.8287C73.4502 77.6415 74.757 75.8442 75.3133 73.7757C75.7524 72.1437 75.8906 69.6863 74.531 66.5825L76.8573 65.0334C79.1969 67.4845 81.5175 68.3046 83.1926 68.5288C85.3158 68.8131 87.4778 68.3005 89.2607 67.1133C89.5334 66.9316 89.7976 66.7341 90.051 66.5213C92.4836 64.4795 93.8257 60.3656 91.024 56.1584C90.9358 56.0258 90.8465 55.8992 90.7566 55.7778L91.3656 55.3723C91.9043 55.0135 92.0502 54.286 91.6915 53.7473C91.3328 53.2086 90.6052 53.0627 90.0665 53.4215ZM75.3536 63.2189L73.4366 64.4955C73.3649 64.3781 73.292 64.2602 73.216 64.1413C73.0817 63.9312 72.9217 63.7436 72.7411 63.5804L74.7774 62.2238C74.8584 62.4535 74.9697 62.6737 75.112 62.8788C75.1923 62.9947 75.273 63.1075 75.3536 63.2189Z" fill="black"/>
</g>
<defs>
<linearGradient id="paint0_linear_1458_19127" x1="101.614" y1="100.118" x2="137.408" y2="153.871" gradientUnits="userSpaceOnUse">
<stop stop-color="#D9A35B"/>
<stop offset="1" stop-color="#EBD29A"/>
</linearGradient>
<linearGradient id="paint1_linear_1458_19127" x1="64.2415" y1="47.5362" x2="103.794" y2="106.932" gradientUnits="userSpaceOnUse">
<stop stop-color="#D9A35B"/>
<stop offset="1" stop-color="#EBD29A"/>
</linearGradient>
<clipPath id="clip0_1458_19127">
<rect width="40" height="40" fill="white" transform="translate(48.7291 61.3984) rotate(-33.66)"/>
</clipPath>
</defs>
</svg>
